G04 EAGLE Gerber RS-274X export*
G75*
%MOMM*%
%FSLAX34Y34*%
%LPD*%
%INSilkscreen Top*%
%IPPOS*%
%AMOC8*
5,1,8,0,0,1.08239X$1,22.5*%
G01*
%ADD10C,0.152400*%
%ADD11C,0.127000*%
%ADD12C,0.254000*%
%ADD13R,0.381000X0.508000*%
%ADD14C,0.101600*%
%ADD15C,0.254000*%


D10*
X482600Y476250D02*
X482600Y488950D01*
X488950Y495300D01*
X501650Y495300D01*
X508000Y488950D01*
X501650Y469900D02*
X488950Y469900D01*
X482600Y476250D01*
X501650Y469900D02*
X508000Y476250D01*
X508000Y488950D01*
X488950Y495300D02*
X482600Y501650D01*
X482600Y514350D01*
X488950Y520700D01*
X501650Y520700D01*
X508000Y514350D01*
X508000Y501650D01*
X501650Y495300D01*
D11*
X515747Y498983D02*
X524637Y498983D01*
X524737Y498981D01*
X524836Y498975D01*
X524936Y498965D01*
X525034Y498952D01*
X525133Y498934D01*
X525230Y498913D01*
X525326Y498888D01*
X525422Y498859D01*
X525516Y498826D01*
X525609Y498790D01*
X525700Y498750D01*
X525790Y498706D01*
X525878Y498659D01*
X525964Y498609D01*
X526048Y498555D01*
X526130Y498498D01*
X526209Y498438D01*
X526287Y498374D01*
X526361Y498308D01*
X526433Y498239D01*
X526502Y498167D01*
X526568Y498093D01*
X526632Y498015D01*
X526692Y497936D01*
X526749Y497854D01*
X526803Y497770D01*
X526853Y497684D01*
X526900Y497596D01*
X526944Y497506D01*
X526984Y497415D01*
X527020Y497322D01*
X527053Y497228D01*
X527082Y497132D01*
X527107Y497036D01*
X527128Y496939D01*
X527146Y496840D01*
X527159Y496742D01*
X527169Y496642D01*
X527175Y496543D01*
X527177Y496443D01*
X527177Y495173D01*
X527177Y504963D02*
X515747Y504963D01*
X515747Y508138D01*
X515749Y508249D01*
X515755Y508359D01*
X515764Y508470D01*
X515778Y508580D01*
X515795Y508689D01*
X515816Y508798D01*
X515841Y508906D01*
X515870Y509013D01*
X515902Y509119D01*
X515938Y509224D01*
X515978Y509327D01*
X516021Y509429D01*
X516068Y509530D01*
X516119Y509629D01*
X516172Y509726D01*
X516229Y509820D01*
X516290Y509913D01*
X516353Y510004D01*
X516420Y510093D01*
X516490Y510179D01*
X516563Y510262D01*
X516638Y510344D01*
X516716Y510422D01*
X516798Y510497D01*
X516881Y510570D01*
X516967Y510640D01*
X517056Y510707D01*
X517147Y510770D01*
X517240Y510831D01*
X517335Y510888D01*
X517431Y510941D01*
X517530Y510992D01*
X517631Y511039D01*
X517733Y511082D01*
X517836Y511122D01*
X517941Y511158D01*
X518047Y511190D01*
X518154Y511219D01*
X518262Y511244D01*
X518371Y511265D01*
X518480Y511282D01*
X518590Y511296D01*
X518701Y511305D01*
X518811Y511311D01*
X518922Y511313D01*
X519033Y511311D01*
X519143Y511305D01*
X519254Y511296D01*
X519364Y511282D01*
X519473Y511265D01*
X519582Y511244D01*
X519690Y511219D01*
X519797Y511190D01*
X519903Y511158D01*
X520008Y511122D01*
X520111Y511082D01*
X520213Y511039D01*
X520314Y510992D01*
X520413Y510941D01*
X520510Y510888D01*
X520604Y510831D01*
X520697Y510770D01*
X520788Y510707D01*
X520877Y510640D01*
X520963Y510570D01*
X521046Y510497D01*
X521128Y510422D01*
X521206Y510344D01*
X521281Y510262D01*
X521354Y510179D01*
X521424Y510093D01*
X521491Y510004D01*
X521554Y509913D01*
X521615Y509820D01*
X521672Y509726D01*
X521725Y509629D01*
X521776Y509530D01*
X521823Y509429D01*
X521866Y509327D01*
X521906Y509224D01*
X521942Y509119D01*
X521974Y509013D01*
X522003Y508906D01*
X522028Y508798D01*
X522049Y508689D01*
X522066Y508580D01*
X522080Y508470D01*
X522089Y508359D01*
X522095Y508249D01*
X522097Y508138D01*
X522097Y504963D01*
X518287Y515822D02*
X515747Y518997D01*
X527177Y518997D01*
X527177Y515822D02*
X527177Y522172D01*
D10*
X546399Y473742D02*
X546618Y473442D01*
X546845Y473148D01*
X547079Y472860D01*
X547320Y472577D01*
X547567Y472300D01*
X547822Y472029D01*
X548083Y471765D01*
X548350Y471507D01*
X548623Y471256D01*
X548903Y471011D01*
X549188Y470773D01*
X549479Y470543D01*
X549776Y470319D01*
X550078Y470103D01*
X550385Y469894D01*
X550697Y469693D01*
X551014Y469499D01*
X551336Y469313D01*
X551662Y469135D01*
X551992Y468965D01*
X552326Y468803D01*
X552664Y468650D01*
X553006Y468504D01*
X553351Y468367D01*
X553700Y468239D01*
X554051Y468119D01*
X554406Y468007D01*
X554763Y467905D01*
X555122Y467810D01*
X555483Y467725D01*
X555847Y467649D01*
X556212Y467581D01*
X556579Y467523D01*
X556947Y467473D01*
X557316Y467432D01*
X557686Y467401D01*
X558057Y467378D01*
X558428Y467365D01*
X558800Y467360D01*
X559172Y467365D01*
X559543Y467378D01*
X559915Y467401D01*
X560285Y467433D01*
X560655Y467473D01*
X561023Y467523D01*
X561391Y467582D01*
X561756Y467649D01*
X562120Y467726D01*
X562482Y467812D01*
X562842Y467906D01*
X563199Y468009D01*
X563554Y468120D01*
X563906Y468241D01*
X564255Y468370D01*
X564600Y468507D01*
X564942Y468653D01*
X565281Y468807D01*
X565616Y468969D01*
X565946Y469139D01*
X566272Y469318D01*
X566594Y469504D01*
X566912Y469698D01*
X567224Y469900D01*
X567531Y470109D01*
X567833Y470326D01*
X568130Y470550D01*
X568422Y470781D01*
X568707Y471019D01*
X568987Y471265D01*
X569260Y471517D01*
X569528Y471775D01*
X569788Y472040D01*
X570043Y472311D01*
X570291Y472589D01*
X570531Y472872D01*
X570765Y473161D01*
X570992Y473456D01*
X558800Y497840D02*
X558435Y497836D01*
X558070Y497823D01*
X557706Y497801D01*
X557343Y497770D01*
X556980Y497731D01*
X556618Y497683D01*
X556258Y497626D01*
X555899Y497561D01*
X555541Y497488D01*
X555186Y497405D01*
X554833Y497315D01*
X554481Y497215D01*
X554133Y497108D01*
X553787Y496992D01*
X553444Y496868D01*
X553104Y496735D01*
X552767Y496595D01*
X552434Y496447D01*
X552104Y496290D01*
X551778Y496126D01*
X551456Y495954D01*
X551139Y495774D01*
X550826Y495587D01*
X550517Y495393D01*
X550213Y495191D01*
X549914Y494981D01*
X549620Y494765D01*
X549332Y494542D01*
X549049Y494312D01*
X548771Y494075D01*
X548499Y493832D01*
X548233Y493582D01*
X547973Y493326D01*
X547720Y493063D01*
X547472Y492795D01*
X547232Y492521D01*
X546997Y492241D01*
X546770Y491956D01*
X558800Y497840D02*
X559165Y497836D01*
X559530Y497823D01*
X559894Y497801D01*
X560257Y497770D01*
X560620Y497731D01*
X560982Y497683D01*
X561342Y497626D01*
X561701Y497561D01*
X562059Y497488D01*
X562414Y497405D01*
X562767Y497315D01*
X563119Y497215D01*
X563467Y497108D01*
X563813Y496992D01*
X564156Y496868D01*
X564496Y496735D01*
X564833Y496595D01*
X565166Y496447D01*
X565496Y496290D01*
X565822Y496126D01*
X566144Y495954D01*
X566461Y495774D01*
X566774Y495587D01*
X567083Y495393D01*
X567387Y495191D01*
X567686Y494981D01*
X567980Y494765D01*
X568268Y494542D01*
X568551Y494312D01*
X568829Y494075D01*
X569101Y493832D01*
X569367Y493582D01*
X569627Y493326D01*
X569880Y493063D01*
X570128Y492795D01*
X570368Y492521D01*
X570603Y492241D01*
X570830Y491956D01*
D12*
X558800Y462280D02*
X558306Y462286D01*
X557812Y462304D01*
X557318Y462334D01*
X556825Y462376D01*
X556334Y462430D01*
X555844Y462496D01*
X555356Y462574D01*
X554869Y462664D01*
X554385Y462765D01*
X553904Y462879D01*
X553426Y463004D01*
X552950Y463140D01*
X552479Y463288D01*
X552011Y463448D01*
X551547Y463619D01*
X551087Y463801D01*
X550632Y463994D01*
X550181Y464198D01*
X549736Y464413D01*
X549296Y464639D01*
X548862Y464876D01*
X548434Y465123D01*
X548012Y465380D01*
X547596Y465648D01*
X547187Y465926D01*
X546785Y466213D01*
X546389Y466510D01*
X546002Y466817D01*
X545621Y467133D01*
X545249Y467458D01*
X544884Y467793D01*
X544528Y468136D01*
X544181Y468487D01*
X543841Y468847D01*
X543511Y469215D01*
X543190Y469591D01*
X558800Y462280D02*
X559288Y462286D01*
X559775Y462303D01*
X560262Y462333D01*
X560749Y462374D01*
X561234Y462426D01*
X561718Y462491D01*
X562200Y462567D01*
X562680Y462654D01*
X563158Y462753D01*
X563633Y462863D01*
X564106Y462985D01*
X564575Y463118D01*
X565042Y463263D01*
X565504Y463418D01*
X565963Y463585D01*
X566418Y463762D01*
X566868Y463951D01*
X567313Y464150D01*
X567754Y464360D01*
X568190Y464580D01*
X568620Y464811D01*
X569044Y465052D01*
X569462Y465303D01*
X569875Y465564D01*
X570281Y465835D01*
X570680Y466115D01*
X571073Y466405D01*
X571458Y466705D01*
X571836Y467014D01*
X572207Y467331D01*
X572569Y467658D01*
X572924Y467993D01*
X573271Y468336D01*
X573609Y468688D01*
X573939Y469047D01*
X574260Y469415D01*
X574573Y469790D01*
X574876Y470173D01*
X575170Y470562D01*
X575454Y470959D01*
X575729Y471362D01*
X575994Y471772D01*
X576249Y472188D01*
X576494Y472610D01*
X576729Y473038D01*
X558800Y502920D02*
X558310Y502914D01*
X557820Y502896D01*
X557331Y502867D01*
X556842Y502825D01*
X556355Y502772D01*
X555869Y502708D01*
X555385Y502631D01*
X554903Y502543D01*
X554423Y502443D01*
X553945Y502332D01*
X553471Y502209D01*
X552999Y502074D01*
X552531Y501929D01*
X552067Y501772D01*
X551606Y501604D01*
X551150Y501425D01*
X550698Y501235D01*
X550251Y501034D01*
X549809Y500822D01*
X549372Y500600D01*
X548940Y500368D01*
X548514Y500125D01*
X548095Y499871D01*
X547681Y499608D01*
X547274Y499335D01*
X546874Y499052D01*
X546480Y498759D01*
X546094Y498458D01*
X545715Y498146D01*
X545344Y497826D01*
X544981Y497497D01*
X544625Y497160D01*
X544278Y496813D01*
X543940Y496459D01*
X543610Y496096D01*
X543288Y495726D01*
X558800Y502920D02*
X559297Y502914D01*
X559794Y502896D01*
X560290Y502865D01*
X560785Y502823D01*
X561279Y502768D01*
X561772Y502702D01*
X562262Y502623D01*
X562751Y502532D01*
X563237Y502430D01*
X563721Y502315D01*
X564201Y502189D01*
X564679Y502051D01*
X565153Y501902D01*
X565623Y501741D01*
X566089Y501568D01*
X566551Y501384D01*
X567008Y501189D01*
X567460Y500983D01*
X567907Y500766D01*
X568348Y500537D01*
X568784Y500299D01*
X569214Y500049D01*
X569637Y499789D01*
X570055Y499519D01*
X570465Y499239D01*
X570868Y498949D01*
X571265Y498649D01*
X571653Y498339D01*
X572034Y498020D01*
X572407Y497692D01*
X572772Y497355D01*
X573129Y497009D01*
X573477Y496654D01*
X573816Y496291D01*
X574147Y495920D01*
X574468Y495540D01*
X574780Y495153D01*
X575082Y494759D01*
X575374Y494357D01*
X575657Y493948D01*
X575929Y493533D01*
X576192Y493110D01*
X576443Y492682D01*
D11*
X575823Y529137D02*
X587225Y529934D01*
X575823Y529137D02*
X576177Y524069D01*
X576514Y519255D02*
X576868Y514187D01*
X576514Y519255D02*
X587916Y520052D01*
X588270Y514985D01*
X583114Y515897D02*
X582848Y519698D01*
X588605Y510196D02*
X577203Y509398D01*
X588605Y510196D02*
X588827Y507029D01*
X588826Y507028D02*
X588832Y506918D01*
X588834Y506807D01*
X588832Y506696D01*
X588826Y506586D01*
X588817Y506475D01*
X588803Y506365D01*
X588786Y506256D01*
X588765Y506147D01*
X588740Y506039D01*
X588711Y505932D01*
X588679Y505826D01*
X588643Y505721D01*
X588603Y505618D01*
X588560Y505516D01*
X588513Y505415D01*
X588462Y505316D01*
X588409Y505220D01*
X588352Y505125D01*
X588291Y505032D01*
X588228Y504941D01*
X588161Y504852D01*
X588091Y504766D01*
X588018Y504683D01*
X587943Y504601D01*
X587865Y504523D01*
X587784Y504448D01*
X587700Y504375D01*
X587614Y504305D01*
X587525Y504238D01*
X587434Y504175D01*
X587342Y504114D01*
X587247Y504057D01*
X587150Y504004D01*
X587051Y503953D01*
X586950Y503907D01*
X586848Y503863D01*
X586745Y503823D01*
X586640Y503787D01*
X586534Y503755D01*
X586427Y503726D01*
X586319Y503701D01*
X586210Y503680D01*
X586101Y503663D01*
X585991Y503649D01*
X585881Y503640D01*
X580813Y503285D01*
X580813Y503286D02*
X580703Y503280D01*
X580592Y503278D01*
X580481Y503280D01*
X580371Y503286D01*
X580260Y503295D01*
X580150Y503309D01*
X580041Y503326D01*
X579932Y503347D01*
X579824Y503372D01*
X579717Y503401D01*
X579611Y503433D01*
X579506Y503469D01*
X579403Y503509D01*
X579301Y503552D01*
X579200Y503599D01*
X579101Y503650D01*
X579005Y503703D01*
X578910Y503760D01*
X578817Y503821D01*
X578726Y503884D01*
X578637Y503951D01*
X578551Y504021D01*
X578468Y504094D01*
X578386Y504169D01*
X578308Y504247D01*
X578233Y504329D01*
X578160Y504412D01*
X578090Y504498D01*
X578023Y504587D01*
X577960Y504678D01*
X577899Y504770D01*
X577842Y504865D01*
X577789Y504962D01*
X577738Y505061D01*
X577691Y505162D01*
X577648Y505264D01*
X577608Y505367D01*
X577572Y505472D01*
X577540Y505578D01*
X577511Y505685D01*
X577486Y505793D01*
X577465Y505902D01*
X577448Y506011D01*
X577434Y506121D01*
X577425Y506232D01*
X577425Y506231D02*
X577203Y509398D01*
X586895Y498236D02*
X589651Y495246D01*
X578248Y494449D01*
X578027Y497616D02*
X578470Y491282D01*
D10*
X508000Y591820D02*
X508002Y591920D01*
X508008Y592019D01*
X508018Y592119D01*
X508031Y592217D01*
X508049Y592316D01*
X508070Y592413D01*
X508095Y592509D01*
X508124Y592605D01*
X508157Y592699D01*
X508193Y592792D01*
X508233Y592883D01*
X508277Y592973D01*
X508324Y593061D01*
X508374Y593147D01*
X508428Y593231D01*
X508485Y593313D01*
X508545Y593392D01*
X508609Y593470D01*
X508675Y593544D01*
X508744Y593616D01*
X508816Y593685D01*
X508890Y593751D01*
X508968Y593815D01*
X509047Y593875D01*
X509129Y593932D01*
X509213Y593986D01*
X509299Y594036D01*
X509387Y594083D01*
X509477Y594127D01*
X509568Y594167D01*
X509661Y594203D01*
X509755Y594236D01*
X509851Y594265D01*
X509947Y594290D01*
X510044Y594311D01*
X510143Y594329D01*
X510241Y594342D01*
X510341Y594352D01*
X510440Y594358D01*
X510540Y594360D01*
X508000Y576580D02*
X508002Y576480D01*
X508008Y576381D01*
X508018Y576281D01*
X508031Y576183D01*
X508049Y576084D01*
X508070Y575987D01*
X508095Y575891D01*
X508124Y575795D01*
X508157Y575701D01*
X508193Y575608D01*
X508233Y575517D01*
X508277Y575427D01*
X508324Y575339D01*
X508374Y575253D01*
X508428Y575169D01*
X508485Y575087D01*
X508545Y575008D01*
X508609Y574930D01*
X508675Y574856D01*
X508744Y574784D01*
X508816Y574715D01*
X508890Y574649D01*
X508968Y574585D01*
X509047Y574525D01*
X509129Y574468D01*
X509213Y574414D01*
X509299Y574364D01*
X509387Y574317D01*
X509477Y574273D01*
X509568Y574233D01*
X509661Y574197D01*
X509755Y574164D01*
X509851Y574135D01*
X509947Y574110D01*
X510044Y574089D01*
X510143Y574071D01*
X510241Y574058D01*
X510341Y574048D01*
X510440Y574042D01*
X510540Y574040D01*
X556260Y574040D02*
X556360Y574042D01*
X556459Y574048D01*
X556559Y574058D01*
X556657Y574071D01*
X556756Y574089D01*
X556853Y574110D01*
X556949Y574135D01*
X557045Y574164D01*
X557139Y574197D01*
X557232Y574233D01*
X557323Y574273D01*
X557413Y574317D01*
X557501Y574364D01*
X557587Y574414D01*
X557671Y574468D01*
X557753Y574525D01*
X557832Y574585D01*
X557910Y574649D01*
X557984Y574715D01*
X558056Y574784D01*
X558125Y574856D01*
X558191Y574930D01*
X558255Y575008D01*
X558315Y575087D01*
X558372Y575169D01*
X558426Y575253D01*
X558476Y575339D01*
X558523Y575427D01*
X558567Y575517D01*
X558607Y575608D01*
X558643Y575701D01*
X558676Y575795D01*
X558705Y575891D01*
X558730Y575987D01*
X558751Y576084D01*
X558769Y576183D01*
X558782Y576281D01*
X558792Y576381D01*
X558798Y576480D01*
X558800Y576580D01*
X558800Y591820D02*
X558798Y591920D01*
X558792Y592019D01*
X558782Y592119D01*
X558769Y592217D01*
X558751Y592316D01*
X558730Y592413D01*
X558705Y592509D01*
X558676Y592605D01*
X558643Y592699D01*
X558607Y592792D01*
X558567Y592883D01*
X558523Y592973D01*
X558476Y593061D01*
X558426Y593147D01*
X558372Y593231D01*
X558315Y593313D01*
X558255Y593392D01*
X558191Y593470D01*
X558125Y593544D01*
X558056Y593616D01*
X557984Y593685D01*
X557910Y593751D01*
X557832Y593815D01*
X557753Y593875D01*
X557671Y593932D01*
X557587Y593986D01*
X557501Y594036D01*
X557413Y594083D01*
X557323Y594127D01*
X557232Y594167D01*
X557139Y594203D01*
X557045Y594236D01*
X556949Y594265D01*
X556853Y594290D01*
X556756Y594311D01*
X556657Y594329D01*
X556559Y594342D01*
X556459Y594352D01*
X556360Y594358D01*
X556260Y594360D01*
X508000Y591820D02*
X508000Y576580D01*
X510540Y594360D02*
X514350Y594360D01*
X515620Y593090D01*
X514350Y574040D02*
X510540Y574040D01*
X514350Y574040D02*
X515620Y575310D01*
X551180Y593090D02*
X552450Y594360D01*
X551180Y593090D02*
X515620Y593090D01*
X551180Y575310D02*
X552450Y574040D01*
X551180Y575310D02*
X515620Y575310D01*
X552450Y594360D02*
X556260Y594360D01*
X556260Y574040D02*
X552450Y574040D01*
X558800Y576580D02*
X558800Y591820D01*
D13*
X560705Y584200D03*
X506095Y584200D03*
D14*
X508508Y597662D02*
X508508Y606552D01*
X510977Y606552D01*
X511075Y606550D01*
X511173Y606544D01*
X511271Y606534D01*
X511368Y606521D01*
X511465Y606503D01*
X511561Y606482D01*
X511655Y606457D01*
X511749Y606428D01*
X511842Y606396D01*
X511933Y606359D01*
X512023Y606320D01*
X512111Y606276D01*
X512197Y606229D01*
X512282Y606179D01*
X512364Y606126D01*
X512444Y606069D01*
X512522Y606009D01*
X512597Y605946D01*
X512670Y605880D01*
X512740Y605811D01*
X512807Y605740D01*
X512872Y605666D01*
X512933Y605589D01*
X512992Y605510D01*
X513047Y605429D01*
X513099Y605346D01*
X513147Y605260D01*
X513192Y605173D01*
X513234Y605084D01*
X513272Y604994D01*
X513306Y604902D01*
X513337Y604809D01*
X513364Y604714D01*
X513387Y604619D01*
X513407Y604522D01*
X513422Y604426D01*
X513434Y604328D01*
X513442Y604230D01*
X513446Y604132D01*
X513446Y604034D01*
X513442Y603936D01*
X513434Y603838D01*
X513422Y603740D01*
X513407Y603644D01*
X513387Y603547D01*
X513364Y603452D01*
X513337Y603357D01*
X513306Y603264D01*
X513272Y603172D01*
X513234Y603082D01*
X513192Y602993D01*
X513147Y602906D01*
X513099Y602820D01*
X513047Y602737D01*
X512992Y602656D01*
X512933Y602577D01*
X512872Y602500D01*
X512807Y602426D01*
X512740Y602355D01*
X512670Y602286D01*
X512597Y602220D01*
X512522Y602157D01*
X512444Y602097D01*
X512364Y602040D01*
X512282Y601987D01*
X512197Y601937D01*
X512111Y601890D01*
X512023Y601846D01*
X511933Y601807D01*
X511842Y601770D01*
X511749Y601738D01*
X511655Y601709D01*
X511561Y601684D01*
X511465Y601663D01*
X511368Y601645D01*
X511271Y601632D01*
X511173Y601622D01*
X511075Y601616D01*
X510977Y601614D01*
X510977Y601613D02*
X508508Y601613D01*
X511471Y601613D02*
X513447Y597662D01*
X517358Y604576D02*
X519827Y606552D01*
X519827Y597662D01*
X517358Y597662D02*
X522297Y597662D01*
D15*
X444500Y444500D02*
X619000Y444500D01*
X619000Y622200D01*
X444500Y622200D01*
X444500Y444500D01*
M02*
