G04 EAGLE Gerber RS-274X export*
G75*
%MOMM*%
%FSLAX34Y34*%
%LPD*%
%INBottom Copper*%
%IPPOS*%
%AMOC8*
5,1,8,0,0,1.08239X$1,22.5*%
G01*
%ADD10P,1.429621X8X112.500000*%
%ADD11P,1.429621X8X22.500000*%
%ADD12C,1.320800*%
%ADD13P,1.429621X8X299.900000*%
%ADD14C,2.000000*%
%ADD15C,2.300000*%
%ADD16C,1.524000*%
%ADD17C,1.879600*%
%ADD18C,1.308000*%
%ADD19C,1.625600*%
%ADD20C,1.651000*%
%ADD21R,1.676400X2.895600*%
%ADD22C,0.406400*%
%ADD23C,0.152400*%

G36*
X587826Y10163D02*
X587826Y10163D01*
X587844Y10161D01*
X588026Y10182D01*
X588209Y10201D01*
X588226Y10206D01*
X588243Y10208D01*
X588418Y10265D01*
X588594Y10319D01*
X588609Y10327D01*
X588626Y10333D01*
X588786Y10423D01*
X588948Y10511D01*
X588961Y10522D01*
X588977Y10531D01*
X589116Y10651D01*
X589257Y10768D01*
X589268Y10782D01*
X589282Y10794D01*
X589394Y10939D01*
X589509Y11082D01*
X589517Y11098D01*
X589528Y11112D01*
X589610Y11277D01*
X589695Y11439D01*
X589700Y11456D01*
X589708Y11472D01*
X589755Y11651D01*
X589806Y11826D01*
X589808Y11844D01*
X589812Y11861D01*
X589839Y12192D01*
X589839Y587808D01*
X589837Y587826D01*
X589839Y587844D01*
X589818Y588026D01*
X589799Y588209D01*
X589794Y588226D01*
X589792Y588243D01*
X589735Y588418D01*
X589681Y588594D01*
X589673Y588609D01*
X589667Y588626D01*
X589577Y588786D01*
X589489Y588948D01*
X589478Y588961D01*
X589469Y588977D01*
X589349Y589116D01*
X589232Y589257D01*
X589218Y589268D01*
X589206Y589282D01*
X589061Y589394D01*
X588918Y589509D01*
X588902Y589517D01*
X588888Y589528D01*
X588723Y589610D01*
X588561Y589695D01*
X588544Y589700D01*
X588528Y589708D01*
X588349Y589755D01*
X588174Y589806D01*
X588156Y589808D01*
X588139Y589812D01*
X587808Y589839D01*
X12192Y589839D01*
X12174Y589837D01*
X12156Y589839D01*
X11974Y589818D01*
X11791Y589799D01*
X11774Y589794D01*
X11757Y589792D01*
X11582Y589735D01*
X11406Y589681D01*
X11391Y589673D01*
X11374Y589667D01*
X11214Y589577D01*
X11052Y589489D01*
X11039Y589478D01*
X11023Y589469D01*
X10884Y589349D01*
X10743Y589232D01*
X10732Y589218D01*
X10718Y589206D01*
X10606Y589061D01*
X10491Y588918D01*
X10483Y588902D01*
X10472Y588888D01*
X10390Y588723D01*
X10305Y588561D01*
X10300Y588544D01*
X10292Y588528D01*
X10245Y588349D01*
X10194Y588174D01*
X10192Y588156D01*
X10188Y588139D01*
X10161Y587808D01*
X10161Y12192D01*
X10163Y12174D01*
X10161Y12156D01*
X10182Y11974D01*
X10201Y11791D01*
X10206Y11774D01*
X10208Y11757D01*
X10265Y11582D01*
X10319Y11406D01*
X10327Y11391D01*
X10333Y11374D01*
X10423Y11214D01*
X10511Y11052D01*
X10522Y11039D01*
X10531Y11023D01*
X10651Y10884D01*
X10768Y10743D01*
X10782Y10732D01*
X10794Y10718D01*
X10939Y10606D01*
X11082Y10491D01*
X11098Y10483D01*
X11112Y10472D01*
X11277Y10390D01*
X11439Y10305D01*
X11456Y10300D01*
X11472Y10292D01*
X11651Y10245D01*
X11826Y10194D01*
X11844Y10192D01*
X11861Y10188D01*
X12192Y10161D01*
X587808Y10161D01*
X587826Y10163D01*
G37*
%LPC*%
G36*
X237618Y20283D02*
X237618Y20283D01*
X214885Y43017D01*
X214871Y43028D01*
X214860Y43042D01*
X214716Y43155D01*
X214573Y43272D01*
X214558Y43280D01*
X214544Y43291D01*
X214379Y43375D01*
X214218Y43460D01*
X214201Y43465D01*
X214185Y43473D01*
X214007Y43523D01*
X213832Y43575D01*
X213814Y43577D01*
X213797Y43581D01*
X213614Y43595D01*
X213431Y43611D01*
X213413Y43610D01*
X213395Y43611D01*
X213213Y43588D01*
X213031Y43568D01*
X213014Y43563D01*
X212996Y43560D01*
X212822Y43502D01*
X212647Y43447D01*
X212631Y43438D01*
X212614Y43432D01*
X212455Y43340D01*
X212294Y43252D01*
X212281Y43240D01*
X212265Y43231D01*
X212012Y43017D01*
X208067Y39071D01*
X201333Y39071D01*
X197356Y43048D01*
X197335Y43065D01*
X197318Y43086D01*
X197180Y43193D01*
X197044Y43303D01*
X197021Y43316D01*
X197000Y43332D01*
X196843Y43410D01*
X196689Y43492D01*
X196663Y43500D01*
X196639Y43512D01*
X196470Y43557D01*
X196303Y43607D01*
X196276Y43609D01*
X196250Y43616D01*
X195920Y43643D01*
X133083Y43643D01*
X118780Y57946D01*
X118773Y57951D01*
X118768Y57958D01*
X118618Y58079D01*
X118469Y58201D01*
X118461Y58205D01*
X118454Y58211D01*
X118284Y58299D01*
X118113Y58389D01*
X118104Y58392D01*
X118097Y58396D01*
X117912Y58449D01*
X117727Y58504D01*
X117718Y58505D01*
X117710Y58507D01*
X117518Y58523D01*
X117326Y58541D01*
X117317Y58540D01*
X117308Y58540D01*
X117119Y58518D01*
X116926Y58497D01*
X116917Y58494D01*
X116909Y58493D01*
X116727Y58434D01*
X116542Y58376D01*
X116534Y58371D01*
X116526Y58369D01*
X116357Y58274D01*
X116190Y58181D01*
X116183Y58175D01*
X116175Y58171D01*
X116029Y58045D01*
X115883Y57920D01*
X115877Y57913D01*
X115870Y57908D01*
X115753Y57756D01*
X115633Y57604D01*
X115629Y57596D01*
X115624Y57589D01*
X115538Y57417D01*
X115451Y57246D01*
X115448Y57237D01*
X115444Y57229D01*
X115394Y57042D01*
X115343Y56858D01*
X115342Y56849D01*
X115340Y56840D01*
X115313Y56509D01*
X115313Y53712D01*
X105288Y43687D01*
X91112Y43687D01*
X81087Y53712D01*
X81087Y71473D01*
X83171Y73557D01*
X83628Y73557D01*
X83646Y73559D01*
X83664Y73557D01*
X83846Y73578D01*
X84029Y73597D01*
X84046Y73602D01*
X84063Y73604D01*
X84238Y73661D01*
X84414Y73715D01*
X84429Y73723D01*
X84446Y73729D01*
X84606Y73819D01*
X84768Y73907D01*
X84781Y73918D01*
X84797Y73927D01*
X84936Y74047D01*
X85077Y74164D01*
X85088Y74178D01*
X85102Y74190D01*
X85214Y74335D01*
X85329Y74478D01*
X85337Y74494D01*
X85348Y74508D01*
X85430Y74673D01*
X85515Y74835D01*
X85520Y74852D01*
X85528Y74868D01*
X85575Y75047D01*
X85626Y75222D01*
X85628Y75240D01*
X85632Y75257D01*
X85659Y75588D01*
X85659Y77497D01*
X85658Y77505D01*
X85659Y77514D01*
X85638Y77708D01*
X85619Y77897D01*
X85617Y77906D01*
X85616Y77915D01*
X85558Y78098D01*
X85501Y78282D01*
X85497Y78290D01*
X85494Y78298D01*
X85402Y78466D01*
X85309Y78636D01*
X85304Y78643D01*
X85299Y78651D01*
X85175Y78798D01*
X85052Y78945D01*
X85045Y78951D01*
X85039Y78958D01*
X84887Y79078D01*
X84738Y79198D01*
X84730Y79202D01*
X84723Y79207D01*
X84550Y79295D01*
X84381Y79383D01*
X84372Y79386D01*
X84364Y79390D01*
X84178Y79442D01*
X83994Y79495D01*
X83985Y79495D01*
X83976Y79498D01*
X83783Y79512D01*
X83592Y79527D01*
X83584Y79526D01*
X83575Y79527D01*
X83382Y79503D01*
X83193Y79481D01*
X83184Y79478D01*
X83175Y79477D01*
X82992Y79415D01*
X82810Y79356D01*
X82802Y79351D01*
X82794Y79348D01*
X82627Y79252D01*
X82459Y79158D01*
X82452Y79152D01*
X82445Y79148D01*
X82192Y78933D01*
X71772Y68513D01*
X53566Y68513D01*
X53548Y68511D01*
X53530Y68513D01*
X53348Y68492D01*
X53165Y68473D01*
X53148Y68468D01*
X53131Y68466D01*
X52956Y68409D01*
X52780Y68355D01*
X52765Y68347D01*
X52748Y68341D01*
X52588Y68251D01*
X52426Y68163D01*
X52413Y68152D01*
X52397Y68143D01*
X52258Y68023D01*
X52117Y67906D01*
X52106Y67892D01*
X52092Y67880D01*
X51980Y67735D01*
X51865Y67592D01*
X51857Y67576D01*
X51846Y67562D01*
X51764Y67397D01*
X51679Y67235D01*
X51674Y67218D01*
X51666Y67202D01*
X51619Y67023D01*
X51568Y66848D01*
X51566Y66830D01*
X51562Y66813D01*
X51535Y66482D01*
X51535Y56709D01*
X49552Y51922D01*
X45888Y48258D01*
X41801Y46565D01*
X41101Y46275D01*
X35919Y46275D01*
X31132Y48258D01*
X27468Y51922D01*
X25485Y56709D01*
X25485Y84891D01*
X27468Y89678D01*
X31132Y93342D01*
X35919Y95325D01*
X41101Y95325D01*
X45888Y93342D01*
X49552Y89678D01*
X51535Y84891D01*
X51535Y75118D01*
X51537Y75100D01*
X51535Y75082D01*
X51556Y74900D01*
X51575Y74717D01*
X51580Y74700D01*
X51582Y74683D01*
X51639Y74508D01*
X51693Y74332D01*
X51701Y74317D01*
X51707Y74300D01*
X51797Y74139D01*
X51885Y73978D01*
X51896Y73965D01*
X51905Y73949D01*
X52025Y73810D01*
X52142Y73669D01*
X52156Y73658D01*
X52168Y73644D01*
X52313Y73532D01*
X52456Y73417D01*
X52472Y73409D01*
X52486Y73398D01*
X52651Y73316D01*
X52813Y73231D01*
X52830Y73226D01*
X52846Y73218D01*
X53025Y73171D01*
X53200Y73120D01*
X53218Y73118D01*
X53235Y73114D01*
X53566Y73087D01*
X69036Y73087D01*
X69063Y73089D01*
X69090Y73087D01*
X69264Y73109D01*
X69437Y73127D01*
X69462Y73134D01*
X69489Y73138D01*
X69655Y73193D01*
X69822Y73245D01*
X69845Y73258D01*
X69871Y73266D01*
X70022Y73353D01*
X70176Y73437D01*
X70196Y73454D01*
X70220Y73467D01*
X70473Y73682D01*
X92164Y95373D01*
X101297Y95373D01*
X101324Y95375D01*
X101351Y95373D01*
X101525Y95395D01*
X101698Y95413D01*
X101724Y95420D01*
X101750Y95424D01*
X101916Y95479D01*
X102083Y95531D01*
X102107Y95544D01*
X102132Y95552D01*
X102284Y95639D01*
X102437Y95723D01*
X102457Y95740D01*
X102481Y95753D01*
X102734Y95968D01*
X143374Y136608D01*
X143391Y136629D01*
X143412Y136646D01*
X143519Y136784D01*
X143629Y136920D01*
X143642Y136943D01*
X143658Y136965D01*
X143736Y137121D01*
X143818Y137275D01*
X143826Y137301D01*
X143838Y137325D01*
X143883Y137494D01*
X143933Y137661D01*
X143935Y137688D01*
X143942Y137714D01*
X143969Y138045D01*
X143969Y165110D01*
X144862Y166003D01*
X162890Y166003D01*
X163783Y165110D01*
X163783Y134890D01*
X162890Y133997D01*
X148073Y133997D01*
X148046Y133995D01*
X148019Y133997D01*
X147845Y133975D01*
X147672Y133957D01*
X147646Y133950D01*
X147620Y133946D01*
X147454Y133891D01*
X147287Y133839D01*
X147263Y133826D01*
X147238Y133818D01*
X147086Y133731D01*
X146933Y133647D01*
X146913Y133630D01*
X146889Y133617D01*
X146636Y133402D01*
X106421Y93187D01*
X106410Y93173D01*
X106396Y93162D01*
X106282Y93017D01*
X106166Y92875D01*
X106157Y92860D01*
X106146Y92846D01*
X106063Y92682D01*
X105977Y92520D01*
X105972Y92503D01*
X105964Y92487D01*
X105915Y92309D01*
X105862Y92134D01*
X105861Y92116D01*
X105856Y92099D01*
X105843Y91915D01*
X105826Y91733D01*
X105828Y91715D01*
X105827Y91697D01*
X105850Y91515D01*
X105869Y91333D01*
X105875Y91316D01*
X105877Y91298D01*
X105935Y91124D01*
X105991Y90949D01*
X106000Y90933D01*
X106005Y90916D01*
X106097Y90757D01*
X106186Y90596D01*
X106197Y90583D01*
X106206Y90567D01*
X106421Y90314D01*
X107765Y88970D01*
X108926Y87373D01*
X109822Y85614D01*
X110432Y83737D01*
X110741Y81787D01*
X110741Y75588D01*
X110743Y75570D01*
X110741Y75552D01*
X110762Y75370D01*
X110781Y75187D01*
X110786Y75170D01*
X110788Y75153D01*
X110845Y74977D01*
X110899Y74802D01*
X110907Y74787D01*
X110913Y74770D01*
X111003Y74610D01*
X111091Y74448D01*
X111102Y74435D01*
X111111Y74419D01*
X111231Y74280D01*
X111348Y74139D01*
X111362Y74128D01*
X111374Y74114D01*
X111519Y74002D01*
X111662Y73887D01*
X111678Y73879D01*
X111692Y73868D01*
X111857Y73786D01*
X112019Y73701D01*
X112036Y73696D01*
X112052Y73688D01*
X112231Y73641D01*
X112406Y73590D01*
X112424Y73588D01*
X112441Y73584D01*
X112772Y73557D01*
X113229Y73557D01*
X135434Y51352D01*
X135442Y51346D01*
X135444Y51343D01*
X135455Y51334D01*
X135473Y51314D01*
X135610Y51207D01*
X135746Y51097D01*
X135769Y51084D01*
X135791Y51068D01*
X135948Y50990D01*
X136102Y50908D01*
X136127Y50900D01*
X136151Y50888D01*
X136321Y50843D01*
X136487Y50793D01*
X136514Y50791D01*
X136540Y50784D01*
X136871Y50757D01*
X195920Y50757D01*
X195946Y50759D01*
X195973Y50757D01*
X196147Y50779D01*
X196320Y50797D01*
X196346Y50804D01*
X196372Y50808D01*
X196538Y50863D01*
X196705Y50915D01*
X196729Y50928D01*
X196754Y50936D01*
X196906Y51023D01*
X197059Y51107D01*
X197080Y51124D01*
X197103Y51137D01*
X197356Y51352D01*
X201333Y55329D01*
X208067Y55329D01*
X212044Y51352D01*
X212051Y51346D01*
X212053Y51343D01*
X212065Y51334D01*
X212082Y51314D01*
X212220Y51207D01*
X212356Y51097D01*
X212379Y51084D01*
X212400Y51068D01*
X212557Y50990D01*
X212711Y50908D01*
X212737Y50900D01*
X212761Y50888D01*
X212930Y50843D01*
X213097Y50793D01*
X213124Y50791D01*
X213150Y50784D01*
X213480Y50757D01*
X217205Y50757D01*
X217528Y50433D01*
X217542Y50422D01*
X217554Y50408D01*
X217697Y50295D01*
X217840Y50178D01*
X217855Y50170D01*
X217869Y50159D01*
X218033Y50076D01*
X218195Y49990D01*
X218212Y49985D01*
X218228Y49976D01*
X218405Y49927D01*
X218581Y49875D01*
X218599Y49873D01*
X218616Y49868D01*
X218799Y49855D01*
X218982Y49838D01*
X219000Y49840D01*
X219018Y49839D01*
X219200Y49862D01*
X219382Y49882D01*
X219399Y49887D01*
X219417Y49890D01*
X219592Y49948D01*
X219766Y50003D01*
X219782Y50012D01*
X219799Y50018D01*
X219958Y50110D01*
X220119Y50198D01*
X220132Y50210D01*
X220148Y50219D01*
X220401Y50433D01*
X226312Y56345D01*
X228069Y56345D01*
X228069Y47200D01*
X228070Y47183D01*
X228069Y47165D01*
X228090Y46982D01*
X228108Y46800D01*
X228114Y46783D01*
X228116Y46765D01*
X228173Y46589D01*
X228227Y46415D01*
X228235Y46399D01*
X228241Y46382D01*
X228331Y46222D01*
X228418Y46061D01*
X228430Y46047D01*
X228439Y46032D01*
X228559Y45892D01*
X228676Y45752D01*
X228690Y45740D01*
X228702Y45727D01*
X228847Y45614D01*
X228990Y45499D01*
X229006Y45491D01*
X229020Y45480D01*
X229185Y45398D01*
X229347Y45314D01*
X229364Y45309D01*
X229380Y45301D01*
X229558Y45253D01*
X229734Y45202D01*
X229752Y45201D01*
X229769Y45196D01*
X230100Y45169D01*
X230118Y45171D01*
X230135Y45169D01*
X230136Y45169D01*
X230318Y45191D01*
X230501Y45209D01*
X230518Y45214D01*
X230536Y45216D01*
X230710Y45273D01*
X230886Y45327D01*
X230901Y45336D01*
X230918Y45341D01*
X231079Y45432D01*
X231240Y45519D01*
X231253Y45530D01*
X231269Y45539D01*
X231408Y45659D01*
X231549Y45777D01*
X231560Y45791D01*
X231574Y45802D01*
X231686Y45947D01*
X231801Y46090D01*
X231810Y46106D01*
X231820Y46120D01*
X231902Y46285D01*
X231987Y46448D01*
X231992Y46465D01*
X232000Y46481D01*
X232048Y46659D01*
X232098Y46835D01*
X232100Y46852D01*
X232104Y46870D01*
X232131Y47200D01*
X232131Y56345D01*
X234412Y56345D01*
X234430Y56347D01*
X234448Y56345D01*
X234630Y56366D01*
X234813Y56385D01*
X234830Y56390D01*
X234847Y56392D01*
X235022Y56449D01*
X235198Y56503D01*
X235213Y56511D01*
X235230Y56517D01*
X235390Y56607D01*
X235552Y56695D01*
X235565Y56706D01*
X235581Y56715D01*
X235720Y56835D01*
X235861Y56952D01*
X235872Y56966D01*
X235886Y56978D01*
X235998Y57123D01*
X236113Y57266D01*
X236121Y57282D01*
X236132Y57296D01*
X236214Y57461D01*
X236299Y57623D01*
X236304Y57640D01*
X236312Y57656D01*
X236359Y57835D01*
X236410Y58010D01*
X236412Y58028D01*
X236416Y58045D01*
X236443Y58376D01*
X236443Y72960D01*
X236441Y72986D01*
X236443Y73013D01*
X236421Y73187D01*
X236403Y73360D01*
X236396Y73386D01*
X236392Y73412D01*
X236337Y73578D01*
X236285Y73745D01*
X236272Y73769D01*
X236264Y73794D01*
X236177Y73946D01*
X236093Y74099D01*
X236076Y74120D01*
X236063Y74143D01*
X235848Y74396D01*
X234816Y75428D01*
X234811Y75437D01*
X234727Y75591D01*
X234710Y75611D01*
X234697Y75635D01*
X234482Y75888D01*
X214594Y95776D01*
X214573Y95793D01*
X214555Y95814D01*
X214418Y95921D01*
X214282Y96031D01*
X214259Y96044D01*
X214237Y96060D01*
X214080Y96138D01*
X213926Y96220D01*
X213901Y96228D01*
X213877Y96240D01*
X213707Y96285D01*
X213541Y96335D01*
X213514Y96337D01*
X213488Y96344D01*
X213157Y96371D01*
X207533Y96371D01*
X202771Y101133D01*
X202771Y104803D01*
X202771Y104804D01*
X202771Y104805D01*
X202752Y104995D01*
X202731Y105203D01*
X202731Y105204D01*
X202731Y105206D01*
X202671Y105400D01*
X202613Y105588D01*
X202613Y105589D01*
X202612Y105590D01*
X202517Y105766D01*
X202421Y105942D01*
X202421Y105943D01*
X202420Y105944D01*
X202292Y106097D01*
X202164Y106251D01*
X202163Y106252D01*
X202162Y106253D01*
X201907Y106465D01*
X192202Y113275D01*
X192156Y113300D01*
X192115Y113332D01*
X191981Y113399D01*
X191851Y113472D01*
X191801Y113488D01*
X191755Y113512D01*
X191610Y113550D01*
X191468Y113597D01*
X191416Y113603D01*
X191366Y113616D01*
X191353Y113617D01*
X190629Y114341D01*
X190621Y114348D01*
X190614Y114356D01*
X190359Y114568D01*
X189514Y115161D01*
X189493Y115235D01*
X189469Y115282D01*
X189453Y115331D01*
X189378Y115461D01*
X189310Y115594D01*
X189278Y115635D01*
X189252Y115680D01*
X189105Y115853D01*
X189060Y115909D01*
X189049Y115919D01*
X189037Y115933D01*
X186443Y118527D01*
X186443Y121473D01*
X188527Y123557D01*
X200844Y123557D01*
X200853Y123558D01*
X200862Y123557D01*
X201053Y123578D01*
X201244Y123597D01*
X201253Y123599D01*
X201262Y123600D01*
X201446Y123659D01*
X201629Y123715D01*
X201637Y123719D01*
X201646Y123722D01*
X201813Y123814D01*
X201983Y123907D01*
X201990Y123912D01*
X201998Y123917D01*
X202146Y124042D01*
X202292Y124164D01*
X202298Y124171D01*
X202305Y124177D01*
X202425Y124329D01*
X202545Y124478D01*
X202549Y124486D01*
X202555Y124493D01*
X202641Y124663D01*
X202730Y124835D01*
X202733Y124844D01*
X202737Y124852D01*
X202788Y125037D01*
X202842Y125222D01*
X202842Y125231D01*
X202845Y125240D01*
X202859Y125430D01*
X202875Y125624D01*
X202874Y125633D01*
X202874Y125642D01*
X202850Y125833D01*
X202828Y126023D01*
X202825Y126032D01*
X202824Y126041D01*
X202771Y126197D01*
X202771Y133267D01*
X207533Y138029D01*
X214267Y138029D01*
X219029Y133267D01*
X219029Y131697D01*
X219030Y131679D01*
X219029Y131662D01*
X219050Y131479D01*
X219069Y131296D01*
X219074Y131279D01*
X219076Y131262D01*
X219133Y131087D01*
X219187Y130911D01*
X219195Y130896D01*
X219201Y130879D01*
X219291Y130719D01*
X219379Y130557D01*
X219390Y130544D01*
X219398Y130528D01*
X219519Y130388D01*
X219636Y130248D01*
X219650Y130237D01*
X219662Y130224D01*
X219807Y130111D01*
X219950Y129996D01*
X219966Y129987D01*
X219980Y129977D01*
X220274Y129824D01*
X221516Y129303D01*
X221542Y129295D01*
X221566Y129282D01*
X221735Y129235D01*
X221901Y129184D01*
X221928Y129182D01*
X221954Y129174D01*
X222128Y129162D01*
X222302Y129144D01*
X222328Y129147D01*
X222355Y129145D01*
X222529Y129167D01*
X222702Y129184D01*
X222728Y129192D01*
X222755Y129195D01*
X222920Y129251D01*
X223087Y129302D01*
X223111Y129315D01*
X223136Y129324D01*
X223288Y129411D01*
X223441Y129494D01*
X223462Y129511D01*
X223485Y129525D01*
X223738Y129739D01*
X244403Y150404D01*
X244408Y150411D01*
X244415Y150416D01*
X244536Y150566D01*
X244658Y150715D01*
X244662Y150723D01*
X244668Y150730D01*
X244757Y150901D01*
X244846Y151071D01*
X244849Y151079D01*
X244853Y151087D01*
X244906Y151273D01*
X244961Y151457D01*
X244962Y151466D01*
X244965Y151474D01*
X244980Y151666D01*
X244998Y151858D01*
X244997Y151867D01*
X244997Y151876D01*
X244975Y152065D01*
X244954Y152258D01*
X244952Y152267D01*
X244951Y152275D01*
X244891Y152457D01*
X244833Y152642D01*
X244828Y152650D01*
X244826Y152658D01*
X244731Y152827D01*
X244638Y152994D01*
X244632Y153001D01*
X244628Y153009D01*
X244502Y153155D01*
X244377Y153301D01*
X244370Y153307D01*
X244365Y153314D01*
X244213Y153431D01*
X244062Y153551D01*
X244054Y153555D01*
X244047Y153560D01*
X243874Y153646D01*
X243703Y153733D01*
X243694Y153736D01*
X243686Y153740D01*
X243500Y153790D01*
X243315Y153841D01*
X243306Y153842D01*
X243297Y153844D01*
X242966Y153871D01*
X193596Y153871D01*
X161019Y186448D01*
X160998Y186465D01*
X160981Y186486D01*
X160843Y186593D01*
X160707Y186703D01*
X160684Y186716D01*
X160663Y186732D01*
X160506Y186810D01*
X160352Y186892D01*
X160326Y186900D01*
X160302Y186912D01*
X160133Y186957D01*
X159966Y187007D01*
X159939Y187009D01*
X159913Y187016D01*
X159583Y187043D01*
X111002Y187043D01*
X110980Y187041D01*
X110958Y187043D01*
X110780Y187021D01*
X110602Y187003D01*
X110580Y186997D01*
X110558Y186994D01*
X110388Y186938D01*
X110217Y186885D01*
X110197Y186875D01*
X110176Y186868D01*
X110020Y186779D01*
X109863Y186693D01*
X109845Y186679D01*
X109826Y186668D01*
X109691Y186550D01*
X109553Y186436D01*
X109539Y186418D01*
X109523Y186404D01*
X109413Y186261D01*
X109301Y186122D01*
X109291Y186102D01*
X109277Y186084D01*
X109126Y185789D01*
X108973Y185420D01*
X106400Y182847D01*
X105945Y182659D01*
X103039Y181455D01*
X84161Y181455D01*
X80800Y182847D01*
X78227Y185420D01*
X76835Y188781D01*
X76835Y192419D01*
X78227Y195780D01*
X80800Y198353D01*
X82906Y199225D01*
X84161Y199745D01*
X103039Y199745D01*
X106400Y198353D01*
X108973Y195780D01*
X109126Y195411D01*
X109136Y195391D01*
X109143Y195370D01*
X109231Y195214D01*
X109316Y195056D01*
X109330Y195039D01*
X109341Y195019D01*
X109458Y194883D01*
X109572Y194745D01*
X109589Y194731D01*
X109604Y194714D01*
X109745Y194605D01*
X109885Y194492D01*
X109905Y194481D01*
X109922Y194468D01*
X110082Y194388D01*
X110241Y194305D01*
X110263Y194298D01*
X110283Y194288D01*
X110456Y194242D01*
X110628Y194192D01*
X110650Y194190D01*
X110671Y194184D01*
X111002Y194157D01*
X156309Y194157D01*
X156318Y194158D01*
X156327Y194157D01*
X156521Y194178D01*
X156710Y194197D01*
X156718Y194199D01*
X156727Y194200D01*
X156912Y194259D01*
X157095Y194315D01*
X157103Y194319D01*
X157111Y194322D01*
X157280Y194415D01*
X157449Y194507D01*
X157456Y194512D01*
X157464Y194517D01*
X157611Y194641D01*
X157758Y194764D01*
X157764Y194771D01*
X157771Y194777D01*
X157890Y194929D01*
X158011Y195078D01*
X158015Y195086D01*
X158020Y195093D01*
X158108Y195266D01*
X158196Y195435D01*
X158199Y195444D01*
X158203Y195452D01*
X158255Y195638D01*
X158307Y195822D01*
X158308Y195831D01*
X158311Y195840D01*
X158325Y196033D01*
X158340Y196224D01*
X158339Y196232D01*
X158340Y196241D01*
X158316Y196434D01*
X158293Y196623D01*
X158291Y196632D01*
X158290Y196641D01*
X158228Y196823D01*
X158169Y197006D01*
X158164Y197014D01*
X158161Y197022D01*
X158065Y197189D01*
X157971Y197357D01*
X157965Y197364D01*
X157960Y197371D01*
X157746Y197624D01*
X113832Y241538D01*
X113825Y241543D01*
X113820Y241550D01*
X113670Y241671D01*
X113521Y241793D01*
X113513Y241797D01*
X113506Y241803D01*
X113335Y241891D01*
X113165Y241981D01*
X113157Y241984D01*
X113149Y241988D01*
X112963Y242041D01*
X112779Y242096D01*
X112770Y242097D01*
X112762Y242099D01*
X112570Y242115D01*
X112378Y242133D01*
X112369Y242132D01*
X112360Y242132D01*
X112171Y242110D01*
X111978Y242089D01*
X111969Y242086D01*
X111961Y242085D01*
X111779Y242026D01*
X111594Y241968D01*
X111586Y241963D01*
X111578Y241961D01*
X111409Y241866D01*
X111242Y241773D01*
X111235Y241767D01*
X111227Y241763D01*
X111081Y241637D01*
X110935Y241512D01*
X110929Y241505D01*
X110922Y241500D01*
X110805Y241348D01*
X110685Y241196D01*
X110681Y241188D01*
X110676Y241181D01*
X110590Y241009D01*
X110503Y240838D01*
X110500Y240829D01*
X110496Y240821D01*
X110446Y240632D01*
X110395Y240450D01*
X110394Y240441D01*
X110392Y240432D01*
X110365Y240101D01*
X110365Y239581D01*
X108973Y236220D01*
X106400Y233647D01*
X103039Y232255D01*
X89253Y232255D01*
X89244Y232254D01*
X89235Y232255D01*
X89044Y232234D01*
X88853Y232215D01*
X88844Y232213D01*
X88835Y232212D01*
X88653Y232154D01*
X88468Y232097D01*
X88460Y232093D01*
X88451Y232090D01*
X88283Y231997D01*
X88114Y231905D01*
X88107Y231900D01*
X88099Y231895D01*
X87952Y231771D01*
X87804Y231648D01*
X87799Y231641D01*
X87792Y231635D01*
X87673Y231484D01*
X87552Y231334D01*
X87548Y231326D01*
X87542Y231319D01*
X87455Y231146D01*
X87367Y230977D01*
X87364Y230968D01*
X87360Y230960D01*
X87308Y230774D01*
X87255Y230590D01*
X87254Y230581D01*
X87252Y230572D01*
X87238Y230379D01*
X87222Y230188D01*
X87223Y230180D01*
X87223Y230171D01*
X87247Y229978D01*
X87269Y229789D01*
X87272Y229780D01*
X87273Y229771D01*
X87335Y229588D01*
X87394Y229406D01*
X87399Y229398D01*
X87401Y229390D01*
X87497Y229223D01*
X87592Y229055D01*
X87598Y229048D01*
X87602Y229041D01*
X87817Y228788D01*
X90865Y225740D01*
X90886Y225723D01*
X90903Y225702D01*
X91041Y225596D01*
X91177Y225485D01*
X91200Y225472D01*
X91221Y225456D01*
X91378Y225378D01*
X91532Y225296D01*
X91558Y225288D01*
X91582Y225276D01*
X91751Y225231D01*
X91918Y225181D01*
X91945Y225179D01*
X91971Y225172D01*
X92301Y225145D01*
X103039Y225145D01*
X106400Y223753D01*
X108973Y221180D01*
X110365Y217819D01*
X110365Y214181D01*
X108973Y210820D01*
X106400Y208247D01*
X103039Y206855D01*
X84161Y206855D01*
X80800Y208247D01*
X78227Y210820D01*
X76835Y214181D01*
X76835Y217819D01*
X78227Y221180D01*
X80360Y223312D01*
X80371Y223326D01*
X80385Y223338D01*
X80498Y223481D01*
X80615Y223624D01*
X80623Y223640D01*
X80634Y223654D01*
X80718Y223818D01*
X80803Y223980D01*
X80808Y223997D01*
X80817Y224013D01*
X80866Y224190D01*
X80918Y224365D01*
X80920Y224383D01*
X80925Y224400D01*
X80938Y224584D01*
X80955Y224766D01*
X80953Y224784D01*
X80954Y224802D01*
X80931Y224984D01*
X80911Y225167D01*
X80906Y225184D01*
X80904Y225201D01*
X80845Y225375D01*
X80790Y225551D01*
X80781Y225566D01*
X80775Y225583D01*
X80683Y225743D01*
X80595Y225903D01*
X80583Y225916D01*
X80574Y225932D01*
X80360Y226185D01*
X65659Y240885D01*
X65659Y318115D01*
X79877Y332333D01*
X102233Y332333D01*
X102242Y332334D01*
X102251Y332333D01*
X102443Y332354D01*
X102634Y332373D01*
X102643Y332375D01*
X102651Y332376D01*
X102834Y332434D01*
X103019Y332491D01*
X103027Y332495D01*
X103035Y332498D01*
X103204Y332591D01*
X103373Y332683D01*
X103380Y332688D01*
X103388Y332693D01*
X103535Y332817D01*
X103682Y332940D01*
X103688Y332947D01*
X103695Y332953D01*
X103814Y333104D01*
X103935Y333254D01*
X103939Y333262D01*
X103944Y333269D01*
X104032Y333442D01*
X104120Y333611D01*
X104123Y333620D01*
X104127Y333628D01*
X104179Y333814D01*
X104231Y333998D01*
X104232Y334007D01*
X104235Y334016D01*
X104249Y334209D01*
X104264Y334400D01*
X104263Y334408D01*
X104264Y334417D01*
X104240Y334610D01*
X104217Y334799D01*
X104215Y334808D01*
X104214Y334817D01*
X104152Y335000D01*
X104093Y335182D01*
X104088Y335190D01*
X104085Y335198D01*
X103989Y335365D01*
X103895Y335533D01*
X103889Y335540D01*
X103884Y335547D01*
X103670Y335800D01*
X98310Y341160D01*
X98289Y341177D01*
X98271Y341198D01*
X98134Y341305D01*
X97998Y341415D01*
X97975Y341428D01*
X97953Y341444D01*
X97796Y341522D01*
X97642Y341604D01*
X97617Y341612D01*
X97593Y341624D01*
X97423Y341669D01*
X97257Y341719D01*
X97230Y341721D01*
X97204Y341728D01*
X96873Y341755D01*
X84161Y341755D01*
X80800Y343147D01*
X78227Y345720D01*
X76835Y349081D01*
X76835Y352719D01*
X78227Y356080D01*
X80800Y358653D01*
X83314Y359694D01*
X84161Y360045D01*
X103039Y360045D01*
X105872Y358871D01*
X105877Y358870D01*
X105881Y358868D01*
X106071Y358811D01*
X106258Y358755D01*
X106262Y358754D01*
X106266Y358753D01*
X106465Y358735D01*
X106659Y358717D01*
X106663Y358717D01*
X106667Y358717D01*
X106866Y358738D01*
X107059Y358758D01*
X107063Y358760D01*
X107068Y358760D01*
X107255Y358819D01*
X107443Y358878D01*
X107447Y358880D01*
X107452Y358882D01*
X107625Y358977D01*
X107797Y359071D01*
X107800Y359074D01*
X107804Y359076D01*
X107954Y359203D01*
X108105Y359330D01*
X108108Y359334D01*
X108111Y359337D01*
X108232Y359491D01*
X108356Y359645D01*
X108358Y359649D01*
X108360Y359653D01*
X108450Y359830D01*
X108540Y360003D01*
X108541Y360008D01*
X108543Y360012D01*
X108597Y360205D01*
X108649Y360391D01*
X108650Y360395D01*
X108651Y360400D01*
X108666Y360600D01*
X108680Y360792D01*
X108680Y360796D01*
X108680Y360801D01*
X108655Y361002D01*
X108632Y361192D01*
X108630Y361196D01*
X108630Y361201D01*
X108567Y361388D01*
X108505Y361574D01*
X108503Y361578D01*
X108502Y361582D01*
X108403Y361753D01*
X108306Y361924D01*
X108303Y361927D01*
X108301Y361931D01*
X108086Y362184D01*
X103710Y366560D01*
X103689Y366577D01*
X103671Y366598D01*
X103534Y366704D01*
X103398Y366815D01*
X103374Y366828D01*
X103353Y366844D01*
X103197Y366922D01*
X103042Y367004D01*
X103017Y367012D01*
X102993Y367024D01*
X102824Y367069D01*
X102657Y367119D01*
X102630Y367121D01*
X102604Y367128D01*
X102273Y367155D01*
X84161Y367155D01*
X80800Y368547D01*
X78227Y371120D01*
X76835Y374481D01*
X76835Y378119D01*
X78227Y381480D01*
X80360Y383612D01*
X80371Y383626D01*
X80385Y383638D01*
X80499Y383782D01*
X80615Y383924D01*
X80623Y383940D01*
X80634Y383954D01*
X80718Y384118D01*
X80803Y384280D01*
X80808Y384297D01*
X80817Y384313D01*
X80866Y384490D01*
X80918Y384665D01*
X80920Y384683D01*
X80925Y384700D01*
X80938Y384883D01*
X80955Y385066D01*
X80953Y385084D01*
X80954Y385102D01*
X80931Y385284D01*
X80911Y385467D01*
X80906Y385484D01*
X80904Y385501D01*
X80845Y385675D01*
X80790Y385851D01*
X80781Y385866D01*
X80775Y385883D01*
X80684Y386042D01*
X80595Y386203D01*
X80583Y386216D01*
X80574Y386232D01*
X80360Y386485D01*
X73926Y392919D01*
X71247Y395597D01*
X71247Y433203D01*
X73925Y435881D01*
X73926Y435881D01*
X77199Y439154D01*
X80360Y442315D01*
X80371Y442329D01*
X80385Y442340D01*
X80499Y442485D01*
X80615Y442627D01*
X80623Y442642D01*
X80634Y442656D01*
X80718Y442820D01*
X80803Y442982D01*
X80808Y442999D01*
X80817Y443015D01*
X80866Y443192D01*
X80918Y443368D01*
X80920Y443386D01*
X80925Y443403D01*
X80938Y443586D01*
X80955Y443769D01*
X80953Y443787D01*
X80954Y443805D01*
X80931Y443986D01*
X80911Y444169D01*
X80906Y444186D01*
X80904Y444204D01*
X80845Y444378D01*
X80790Y444553D01*
X80781Y444569D01*
X80775Y444586D01*
X80683Y444745D01*
X80595Y444906D01*
X80583Y444919D01*
X80574Y444935D01*
X80360Y445188D01*
X78227Y447320D01*
X76835Y450681D01*
X76835Y454319D01*
X78227Y457680D01*
X80800Y460253D01*
X84161Y461645D01*
X88012Y461645D01*
X88030Y461647D01*
X88048Y461645D01*
X88230Y461666D01*
X88413Y461685D01*
X88430Y461690D01*
X88447Y461692D01*
X88622Y461749D01*
X88798Y461803D01*
X88813Y461811D01*
X88830Y461817D01*
X88990Y461907D01*
X89152Y461995D01*
X89165Y462006D01*
X89181Y462015D01*
X89320Y462135D01*
X89461Y462252D01*
X89472Y462266D01*
X89486Y462278D01*
X89598Y462423D01*
X89713Y462566D01*
X89721Y462582D01*
X89732Y462596D01*
X89814Y462761D01*
X89899Y462923D01*
X89904Y462940D01*
X89912Y462956D01*
X89959Y463135D01*
X90010Y463310D01*
X90012Y463328D01*
X90016Y463345D01*
X90043Y463676D01*
X90043Y482473D01*
X104576Y497006D01*
X104593Y497027D01*
X104614Y497045D01*
X104721Y497182D01*
X104831Y497318D01*
X104844Y497341D01*
X104860Y497363D01*
X104938Y497520D01*
X105020Y497674D01*
X105028Y497699D01*
X105040Y497723D01*
X105085Y497893D01*
X105135Y498059D01*
X105137Y498086D01*
X105144Y498112D01*
X105171Y498443D01*
X105171Y504067D01*
X109933Y508829D01*
X116667Y508829D01*
X121429Y504067D01*
X121429Y497333D01*
X116667Y492571D01*
X111043Y492571D01*
X111016Y492569D01*
X110989Y492571D01*
X110815Y492549D01*
X110642Y492531D01*
X110617Y492524D01*
X110590Y492520D01*
X110424Y492465D01*
X110257Y492413D01*
X110234Y492400D01*
X110208Y492392D01*
X110057Y492305D01*
X109903Y492221D01*
X109883Y492204D01*
X109859Y492191D01*
X109606Y491976D01*
X97752Y480122D01*
X97735Y480101D01*
X97714Y480083D01*
X97607Y479946D01*
X97497Y479810D01*
X97484Y479787D01*
X97468Y479765D01*
X97390Y479608D01*
X97308Y479454D01*
X97300Y479429D01*
X97288Y479405D01*
X97243Y479235D01*
X97193Y479069D01*
X97191Y479042D01*
X97184Y479016D01*
X97157Y478685D01*
X97157Y463676D01*
X97159Y463658D01*
X97157Y463640D01*
X97178Y463458D01*
X97197Y463275D01*
X97202Y463258D01*
X97204Y463241D01*
X97261Y463066D01*
X97315Y462890D01*
X97323Y462875D01*
X97329Y462858D01*
X97419Y462698D01*
X97507Y462536D01*
X97518Y462523D01*
X97527Y462507D01*
X97647Y462368D01*
X97764Y462227D01*
X97778Y462216D01*
X97790Y462202D01*
X97935Y462090D01*
X98078Y461975D01*
X98094Y461967D01*
X98108Y461956D01*
X98273Y461874D01*
X98435Y461789D01*
X98452Y461784D01*
X98468Y461776D01*
X98647Y461729D01*
X98822Y461678D01*
X98840Y461676D01*
X98857Y461672D01*
X99188Y461645D01*
X103039Y461645D01*
X106400Y460253D01*
X108973Y457680D01*
X109126Y457311D01*
X109136Y457291D01*
X109143Y457270D01*
X109231Y457114D01*
X109316Y456956D01*
X109330Y456939D01*
X109341Y456919D01*
X109458Y456783D01*
X109572Y456645D01*
X109589Y456631D01*
X109604Y456614D01*
X109745Y456505D01*
X109885Y456392D01*
X109905Y456381D01*
X109922Y456368D01*
X110082Y456288D01*
X110241Y456205D01*
X110263Y456198D01*
X110283Y456188D01*
X110456Y456142D01*
X110628Y456092D01*
X110650Y456090D01*
X110671Y456084D01*
X111002Y456057D01*
X168273Y456057D01*
X222692Y401638D01*
X222699Y401633D01*
X222704Y401626D01*
X222854Y401505D01*
X223003Y401383D01*
X223011Y401379D01*
X223018Y401373D01*
X223189Y401285D01*
X223359Y401195D01*
X223367Y401192D01*
X223375Y401188D01*
X223561Y401135D01*
X223745Y401080D01*
X223754Y401079D01*
X223762Y401077D01*
X223954Y401061D01*
X224146Y401043D01*
X224155Y401044D01*
X224164Y401044D01*
X224353Y401066D01*
X224546Y401087D01*
X224555Y401090D01*
X224563Y401091D01*
X224745Y401150D01*
X224930Y401208D01*
X224938Y401213D01*
X224946Y401215D01*
X225115Y401310D01*
X225282Y401403D01*
X225289Y401409D01*
X225297Y401413D01*
X225443Y401539D01*
X225589Y401664D01*
X225595Y401671D01*
X225602Y401676D01*
X225719Y401828D01*
X225839Y401980D01*
X225843Y401988D01*
X225848Y401995D01*
X225933Y402165D01*
X226021Y402338D01*
X226024Y402347D01*
X226028Y402355D01*
X226078Y402542D01*
X226129Y402726D01*
X226130Y402735D01*
X226132Y402744D01*
X226159Y403075D01*
X226159Y458169D01*
X226157Y458196D01*
X226159Y458223D01*
X226137Y458397D01*
X226119Y458570D01*
X226112Y458595D01*
X226108Y458622D01*
X226053Y458788D01*
X226001Y458955D01*
X225988Y458978D01*
X225980Y459004D01*
X225893Y459155D01*
X225809Y459309D01*
X225792Y459329D01*
X225779Y459353D01*
X225564Y459606D01*
X193194Y491976D01*
X193173Y491993D01*
X193156Y492014D01*
X193018Y492121D01*
X192882Y492231D01*
X192859Y492244D01*
X192837Y492260D01*
X192680Y492338D01*
X192526Y492420D01*
X192501Y492428D01*
X192477Y492440D01*
X192307Y492485D01*
X192141Y492535D01*
X192114Y492537D01*
X192088Y492544D01*
X191757Y492571D01*
X186133Y492571D01*
X181371Y497333D01*
X181371Y504067D01*
X186133Y508829D01*
X192867Y508829D01*
X197629Y504067D01*
X197629Y498443D01*
X197631Y498416D01*
X197629Y498389D01*
X197651Y498215D01*
X197669Y498042D01*
X197676Y498016D01*
X197680Y497990D01*
X197735Y497824D01*
X197787Y497657D01*
X197800Y497633D01*
X197808Y497608D01*
X197895Y497457D01*
X197979Y497303D01*
X197996Y497283D01*
X198009Y497259D01*
X198224Y497006D01*
X222692Y472538D01*
X222699Y472533D01*
X222704Y472526D01*
X222854Y472405D01*
X223003Y472283D01*
X223011Y472279D01*
X223018Y472273D01*
X223189Y472185D01*
X223359Y472095D01*
X223367Y472092D01*
X223375Y472088D01*
X223561Y472035D01*
X223745Y471980D01*
X223754Y471979D01*
X223762Y471977D01*
X223954Y471961D01*
X224146Y471943D01*
X224155Y471944D01*
X224164Y471944D01*
X224353Y471966D01*
X224546Y471987D01*
X224555Y471990D01*
X224563Y471991D01*
X224745Y472050D01*
X224930Y472108D01*
X224938Y472113D01*
X224946Y472115D01*
X225115Y472210D01*
X225282Y472303D01*
X225289Y472309D01*
X225297Y472313D01*
X225443Y472439D01*
X225589Y472564D01*
X225595Y472571D01*
X225602Y472576D01*
X225719Y472728D01*
X225839Y472880D01*
X225843Y472888D01*
X225848Y472895D01*
X225934Y473067D01*
X226021Y473238D01*
X226024Y473247D01*
X226028Y473255D01*
X226078Y473442D01*
X226129Y473626D01*
X226130Y473635D01*
X226132Y473644D01*
X226159Y473975D01*
X226159Y485813D01*
X228838Y488491D01*
X232409Y492062D01*
X235061Y494715D01*
X235073Y494729D01*
X235086Y494740D01*
X235200Y494885D01*
X235316Y495027D01*
X235325Y495042D01*
X235336Y495056D01*
X235419Y495220D01*
X235505Y495382D01*
X235510Y495399D01*
X235518Y495415D01*
X235567Y495592D01*
X235620Y495768D01*
X235621Y495786D01*
X235626Y495803D01*
X235640Y495986D01*
X235656Y496169D01*
X235654Y496187D01*
X235656Y496205D01*
X235633Y496387D01*
X235613Y496569D01*
X235607Y496586D01*
X235605Y496604D01*
X235547Y496778D01*
X235491Y496953D01*
X235483Y496969D01*
X235477Y496986D01*
X235385Y497145D01*
X235296Y497306D01*
X235285Y497319D01*
X235276Y497335D01*
X235061Y497588D01*
X233217Y499432D01*
X231747Y502980D01*
X231747Y506820D01*
X233217Y510368D01*
X235932Y513083D01*
X239480Y514553D01*
X243320Y514553D01*
X246868Y513083D01*
X249583Y510368D01*
X249855Y509711D01*
X249866Y509691D01*
X249873Y509670D01*
X249961Y509514D01*
X250046Y509356D01*
X250060Y509339D01*
X250071Y509319D01*
X250188Y509183D01*
X250302Y509045D01*
X250319Y509031D01*
X250334Y509014D01*
X250475Y508905D01*
X250615Y508792D01*
X250634Y508781D01*
X250652Y508768D01*
X250812Y508688D01*
X250971Y508605D01*
X250992Y508598D01*
X251013Y508588D01*
X251186Y508542D01*
X251358Y508492D01*
X251380Y508490D01*
X251401Y508484D01*
X251732Y508457D01*
X302550Y508457D01*
X304696Y506310D01*
X304706Y506302D01*
X304715Y506291D01*
X304862Y506174D01*
X305008Y506055D01*
X305019Y506049D01*
X305030Y506041D01*
X305198Y505954D01*
X305363Y505867D01*
X305376Y505863D01*
X305388Y505857D01*
X305569Y505805D01*
X305749Y505752D01*
X305763Y505751D01*
X305775Y505747D01*
X305961Y505732D01*
X306150Y505715D01*
X306164Y505717D01*
X306177Y505716D01*
X306361Y505738D01*
X306550Y505759D01*
X306563Y505763D01*
X306577Y505764D01*
X306754Y505823D01*
X306934Y505880D01*
X306946Y505887D01*
X306959Y505891D01*
X307123Y505984D01*
X307287Y506075D01*
X307297Y506084D01*
X307308Y506090D01*
X307451Y506214D01*
X307594Y506336D01*
X307602Y506346D01*
X307612Y506355D01*
X307726Y506504D01*
X307843Y506651D01*
X307849Y506663D01*
X307857Y506674D01*
X308009Y506969D01*
X309417Y510368D01*
X312132Y513083D01*
X315680Y514553D01*
X319520Y514553D01*
X323068Y513083D01*
X325783Y510368D01*
X326055Y509711D01*
X326066Y509691D01*
X326073Y509670D01*
X326161Y509514D01*
X326246Y509356D01*
X326260Y509339D01*
X326271Y509319D01*
X326388Y509183D01*
X326502Y509045D01*
X326519Y509031D01*
X326534Y509014D01*
X326675Y508905D01*
X326815Y508792D01*
X326834Y508781D01*
X326852Y508768D01*
X327012Y508688D01*
X327171Y508605D01*
X327192Y508598D01*
X327213Y508588D01*
X327386Y508542D01*
X327558Y508492D01*
X327580Y508490D01*
X327601Y508484D01*
X327932Y508457D01*
X451638Y508457D01*
X451651Y508458D01*
X451665Y508457D01*
X451851Y508478D01*
X452039Y508497D01*
X452051Y508501D01*
X452065Y508502D01*
X452243Y508559D01*
X452423Y508615D01*
X452435Y508621D01*
X452448Y508625D01*
X452612Y508717D01*
X452777Y508807D01*
X452788Y508815D01*
X452799Y508822D01*
X452943Y508944D01*
X453087Y509064D01*
X453095Y509075D01*
X453105Y509083D01*
X453222Y509232D01*
X453339Y509378D01*
X453345Y509390D01*
X453354Y509400D01*
X453438Y509569D01*
X453525Y509735D01*
X453528Y509748D01*
X453534Y509760D01*
X453584Y509942D01*
X453636Y510122D01*
X453637Y510136D01*
X453641Y510149D01*
X453654Y510337D01*
X453669Y510524D01*
X453667Y510537D01*
X453668Y510550D01*
X453644Y510738D01*
X453622Y510923D01*
X453618Y510936D01*
X453616Y510949D01*
X453515Y511265D01*
X453135Y512181D01*
X453135Y515819D01*
X454527Y519180D01*
X457100Y521753D01*
X460461Y523145D01*
X479339Y523145D01*
X482700Y521753D01*
X485273Y519180D01*
X486665Y515819D01*
X486665Y512181D01*
X485273Y508820D01*
X482700Y506247D01*
X479339Y504855D01*
X466627Y504855D01*
X466600Y504853D01*
X466573Y504855D01*
X466399Y504833D01*
X466226Y504815D01*
X466201Y504808D01*
X466174Y504804D01*
X466008Y504749D01*
X465841Y504697D01*
X465818Y504684D01*
X465792Y504676D01*
X465641Y504589D01*
X465487Y504505D01*
X465467Y504488D01*
X465443Y504475D01*
X465190Y504260D01*
X464952Y504022D01*
X462142Y501212D01*
X462137Y501205D01*
X462130Y501200D01*
X462009Y501050D01*
X461887Y500901D01*
X461883Y500893D01*
X461877Y500886D01*
X461789Y500716D01*
X461699Y500545D01*
X461696Y500536D01*
X461692Y500529D01*
X461639Y500344D01*
X461584Y500159D01*
X461583Y500150D01*
X461581Y500142D01*
X461565Y499951D01*
X461547Y499758D01*
X461548Y499749D01*
X461548Y499740D01*
X461570Y499551D01*
X461591Y499358D01*
X461594Y499349D01*
X461595Y499341D01*
X461654Y499159D01*
X461712Y498974D01*
X461717Y498966D01*
X461719Y498958D01*
X461814Y498789D01*
X461907Y498622D01*
X461913Y498615D01*
X461917Y498607D01*
X462043Y498461D01*
X462168Y498315D01*
X462175Y498309D01*
X462180Y498302D01*
X462332Y498185D01*
X462484Y498065D01*
X462492Y498061D01*
X462499Y498056D01*
X462671Y497970D01*
X462842Y497883D01*
X462851Y497880D01*
X462859Y497876D01*
X463045Y497826D01*
X463230Y497775D01*
X463239Y497774D01*
X463248Y497772D01*
X463579Y497745D01*
X479339Y497745D01*
X482700Y496353D01*
X485273Y493780D01*
X486665Y490419D01*
X486665Y486781D01*
X485273Y483420D01*
X482700Y480847D01*
X479339Y479455D01*
X460461Y479455D01*
X457100Y480847D01*
X454527Y483420D01*
X453135Y486781D01*
X453135Y487628D01*
X453133Y487646D01*
X453135Y487664D01*
X453114Y487846D01*
X453095Y488029D01*
X453090Y488046D01*
X453088Y488063D01*
X453031Y488238D01*
X452977Y488414D01*
X452969Y488429D01*
X452963Y488446D01*
X452873Y488606D01*
X452785Y488768D01*
X452774Y488781D01*
X452765Y488797D01*
X452645Y488936D01*
X452528Y489077D01*
X452514Y489088D01*
X452502Y489102D01*
X452357Y489214D01*
X452214Y489329D01*
X452198Y489337D01*
X452184Y489348D01*
X452020Y489430D01*
X451857Y489515D01*
X451840Y489520D01*
X451824Y489528D01*
X451645Y489575D01*
X451470Y489626D01*
X451452Y489628D01*
X451435Y489632D01*
X451104Y489659D01*
X325996Y489659D01*
X325987Y489658D01*
X325978Y489659D01*
X325786Y489638D01*
X325595Y489619D01*
X325586Y489617D01*
X325578Y489616D01*
X325395Y489558D01*
X325210Y489501D01*
X325202Y489497D01*
X325194Y489494D01*
X325025Y489401D01*
X324856Y489309D01*
X324849Y489304D01*
X324841Y489299D01*
X324694Y489174D01*
X324547Y489052D01*
X324541Y489045D01*
X324534Y489039D01*
X324414Y488887D01*
X324294Y488738D01*
X324290Y488730D01*
X324285Y488723D01*
X324197Y488551D01*
X324109Y488381D01*
X324106Y488372D01*
X324102Y488364D01*
X324051Y488178D01*
X323998Y487994D01*
X323997Y487985D01*
X323994Y487976D01*
X323980Y487782D01*
X323965Y487592D01*
X323966Y487584D01*
X323965Y487575D01*
X323989Y487382D01*
X324012Y487193D01*
X324014Y487184D01*
X324015Y487175D01*
X324077Y486992D01*
X324136Y486810D01*
X324141Y486802D01*
X324144Y486794D01*
X324239Y486628D01*
X324334Y486459D01*
X324340Y486452D01*
X324345Y486445D01*
X324559Y486192D01*
X325783Y484968D01*
X327253Y481420D01*
X327253Y477580D01*
X325845Y474181D01*
X325841Y474168D01*
X325835Y474157D01*
X325783Y473977D01*
X325728Y473796D01*
X325727Y473783D01*
X325724Y473770D01*
X325708Y473582D01*
X325690Y473395D01*
X325692Y473382D01*
X325691Y473368D01*
X325712Y473182D01*
X325732Y472995D01*
X325736Y472982D01*
X325738Y472969D01*
X325796Y472790D01*
X325852Y472610D01*
X325858Y472599D01*
X325862Y472586D01*
X325955Y472422D01*
X326045Y472257D01*
X326054Y472247D01*
X326060Y472235D01*
X326183Y472093D01*
X326304Y471949D01*
X326315Y471941D01*
X326323Y471930D01*
X326471Y471816D01*
X326619Y471698D01*
X326631Y471692D01*
X326642Y471684D01*
X326810Y471600D01*
X326977Y471514D01*
X326990Y471510D01*
X327002Y471504D01*
X327185Y471455D01*
X327365Y471404D01*
X327378Y471403D01*
X327391Y471400D01*
X327722Y471373D01*
X457710Y471373D01*
X457741Y471376D01*
X457773Y471374D01*
X457942Y471396D01*
X458111Y471413D01*
X458141Y471422D01*
X458172Y471426D01*
X458488Y471527D01*
X460461Y472345D01*
X479339Y472345D01*
X482700Y470953D01*
X485273Y468380D01*
X486665Y465019D01*
X486665Y461381D01*
X485273Y458020D01*
X483140Y455888D01*
X483129Y455874D01*
X483115Y455862D01*
X483001Y455718D01*
X482885Y455576D01*
X482877Y455560D01*
X482866Y455546D01*
X482782Y455382D01*
X482697Y455220D01*
X482692Y455203D01*
X482683Y455187D01*
X482634Y455010D01*
X482582Y454835D01*
X482580Y454817D01*
X482575Y454800D01*
X482562Y454616D01*
X482545Y454434D01*
X482547Y454416D01*
X482546Y454398D01*
X482569Y454216D01*
X482589Y454033D01*
X482594Y454016D01*
X482596Y453999D01*
X482655Y453825D01*
X482710Y453649D01*
X482719Y453634D01*
X482725Y453617D01*
X482817Y453457D01*
X482905Y453297D01*
X482917Y453284D01*
X482926Y453268D01*
X483140Y453015D01*
X497950Y438205D01*
X500629Y435527D01*
X500629Y334073D01*
X497950Y331395D01*
X490048Y323492D01*
X484292Y317736D01*
X484280Y317722D01*
X484267Y317711D01*
X484153Y317567D01*
X484037Y317425D01*
X484028Y317409D01*
X484017Y317395D01*
X483934Y317231D01*
X483848Y317069D01*
X483843Y317052D01*
X483835Y317036D01*
X483785Y316859D01*
X483733Y316683D01*
X483732Y316665D01*
X483727Y316648D01*
X483713Y316465D01*
X483697Y316282D01*
X483699Y316264D01*
X483697Y316247D01*
X483720Y316065D01*
X483740Y315882D01*
X483746Y315865D01*
X483748Y315847D01*
X483806Y315673D01*
X483862Y315498D01*
X483870Y315482D01*
X483876Y315466D01*
X483968Y315306D01*
X484056Y315146D01*
X484068Y315132D01*
X484077Y315117D01*
X484292Y314864D01*
X500629Y298527D01*
X500629Y199171D01*
X483137Y181679D01*
X427151Y181679D01*
X427124Y181677D01*
X427097Y181679D01*
X426923Y181657D01*
X426750Y181639D01*
X426725Y181632D01*
X426698Y181628D01*
X426532Y181573D01*
X426365Y181521D01*
X426342Y181508D01*
X426316Y181500D01*
X426165Y181413D01*
X426011Y181329D01*
X425991Y181312D01*
X425967Y181299D01*
X425714Y181084D01*
X409024Y164394D01*
X409007Y164373D01*
X408986Y164355D01*
X408879Y164218D01*
X408769Y164082D01*
X408756Y164059D01*
X408740Y164037D01*
X408662Y163880D01*
X408580Y163726D01*
X408572Y163701D01*
X408560Y163677D01*
X408515Y163507D01*
X408465Y163341D01*
X408463Y163314D01*
X408456Y163288D01*
X408429Y162957D01*
X408429Y161188D01*
X408431Y161170D01*
X408429Y161152D01*
X408450Y160970D01*
X408469Y160787D01*
X408474Y160770D01*
X408476Y160753D01*
X408533Y160578D01*
X408587Y160402D01*
X408595Y160387D01*
X408601Y160370D01*
X408691Y160210D01*
X408779Y160048D01*
X408790Y160035D01*
X408799Y160019D01*
X408919Y159880D01*
X409036Y159739D01*
X409050Y159728D01*
X409062Y159714D01*
X409207Y159602D01*
X409350Y159487D01*
X409366Y159479D01*
X409380Y159468D01*
X409545Y159386D01*
X409707Y159301D01*
X409724Y159296D01*
X409740Y159288D01*
X409919Y159241D01*
X410094Y159190D01*
X410112Y159188D01*
X410129Y159184D01*
X410460Y159157D01*
X417958Y159157D01*
X417980Y159159D01*
X418002Y159157D01*
X418179Y159179D01*
X418358Y159197D01*
X418379Y159203D01*
X418402Y159206D01*
X418571Y159262D01*
X418743Y159315D01*
X418763Y159325D01*
X418784Y159332D01*
X418939Y159421D01*
X419097Y159507D01*
X419114Y159521D01*
X419134Y159532D01*
X419269Y159650D01*
X419406Y159764D01*
X419420Y159782D01*
X419437Y159796D01*
X419546Y159938D01*
X419659Y160078D01*
X419669Y160098D01*
X419683Y160116D01*
X419707Y160162D01*
X422035Y162491D01*
X425023Y163729D01*
X428257Y163729D01*
X431245Y162491D01*
X433531Y160205D01*
X433907Y159296D01*
X433909Y159292D01*
X433911Y159288D01*
X434004Y159115D01*
X434098Y158942D01*
X434100Y158938D01*
X434103Y158934D01*
X434228Y158784D01*
X434354Y158631D01*
X434357Y158628D01*
X434360Y158625D01*
X434511Y158503D01*
X434667Y158377D01*
X434671Y158375D01*
X434674Y158373D01*
X434846Y158283D01*
X435023Y158190D01*
X435027Y158189D01*
X435031Y158187D01*
X435219Y158133D01*
X435410Y158077D01*
X435414Y158077D01*
X435418Y158076D01*
X435616Y158059D01*
X435811Y158043D01*
X435815Y158043D01*
X435820Y158043D01*
X436015Y158066D01*
X436211Y158088D01*
X436215Y158089D01*
X436219Y158090D01*
X436407Y158151D01*
X436594Y158211D01*
X436598Y158213D01*
X436602Y158214D01*
X436775Y158312D01*
X436946Y158407D01*
X436949Y158410D01*
X436953Y158412D01*
X437101Y158540D01*
X437251Y158669D01*
X437254Y158673D01*
X437258Y158676D01*
X437378Y158831D01*
X437500Y158986D01*
X437502Y158990D01*
X437504Y158994D01*
X437587Y159159D01*
X443172Y164745D01*
X444929Y164745D01*
X444929Y155600D01*
X444929Y146455D01*
X443172Y146455D01*
X437589Y152038D01*
X437560Y152092D01*
X437465Y152266D01*
X437463Y152269D01*
X437460Y152273D01*
X437334Y152424D01*
X437208Y152575D01*
X437204Y152578D01*
X437201Y152581D01*
X437046Y152705D01*
X436894Y152827D01*
X436890Y152830D01*
X436886Y152832D01*
X436709Y152923D01*
X436537Y153013D01*
X436532Y153014D01*
X436528Y153016D01*
X436336Y153071D01*
X436150Y153124D01*
X436145Y153125D01*
X436141Y153126D01*
X435945Y153141D01*
X435748Y153157D01*
X435744Y153157D01*
X435740Y153157D01*
X435545Y153133D01*
X435349Y153110D01*
X435344Y153109D01*
X435340Y153108D01*
X435154Y153047D01*
X434966Y152986D01*
X434962Y152983D01*
X434958Y152982D01*
X434789Y152886D01*
X434615Y152788D01*
X434612Y152785D01*
X434608Y152782D01*
X434459Y152653D01*
X434311Y152524D01*
X434308Y152521D01*
X434304Y152518D01*
X434183Y152360D01*
X434064Y152206D01*
X434062Y152202D01*
X434059Y152199D01*
X433907Y151904D01*
X433531Y150995D01*
X431245Y148709D01*
X428257Y147471D01*
X425023Y147471D01*
X422035Y148709D01*
X419695Y151049D01*
X419644Y151144D01*
X419630Y151161D01*
X419619Y151181D01*
X419502Y151316D01*
X419388Y151455D01*
X419370Y151469D01*
X419356Y151486D01*
X419214Y151595D01*
X419075Y151708D01*
X419055Y151719D01*
X419038Y151732D01*
X418877Y151812D01*
X418718Y151895D01*
X418697Y151902D01*
X418677Y151912D01*
X418503Y151958D01*
X418332Y152008D01*
X418310Y152010D01*
X418288Y152016D01*
X417958Y152043D01*
X411883Y152043D01*
X411857Y152041D01*
X411830Y152043D01*
X411656Y152021D01*
X411482Y152003D01*
X411457Y151996D01*
X411430Y151992D01*
X411265Y151937D01*
X411098Y151885D01*
X411074Y151872D01*
X411049Y151864D01*
X410897Y151777D01*
X410744Y151693D01*
X410723Y151676D01*
X410700Y151663D01*
X410447Y151448D01*
X405982Y146983D01*
X394618Y146983D01*
X391940Y149662D01*
X385803Y155798D01*
X385789Y155810D01*
X385778Y155823D01*
X385634Y155937D01*
X385492Y156053D01*
X385476Y156062D01*
X385462Y156073D01*
X385298Y156156D01*
X385136Y156242D01*
X385119Y156247D01*
X385103Y156255D01*
X384926Y156304D01*
X384750Y156357D01*
X384733Y156358D01*
X384715Y156363D01*
X384532Y156376D01*
X384349Y156393D01*
X384332Y156391D01*
X384314Y156392D01*
X384132Y156369D01*
X383949Y156350D01*
X383932Y156344D01*
X383914Y156342D01*
X383741Y156284D01*
X383565Y156228D01*
X383550Y156219D01*
X383533Y156214D01*
X383373Y156122D01*
X383213Y156033D01*
X383199Y156022D01*
X383184Y156013D01*
X382931Y155798D01*
X378688Y151555D01*
X376931Y151555D01*
X376931Y160700D01*
X376930Y160717D01*
X376931Y160735D01*
X376910Y160918D01*
X376891Y161100D01*
X376886Y161117D01*
X376884Y161135D01*
X376827Y161309D01*
X376773Y161485D01*
X376765Y161501D01*
X376759Y161518D01*
X376669Y161678D01*
X376582Y161839D01*
X376570Y161853D01*
X376561Y161868D01*
X376441Y162008D01*
X376324Y162148D01*
X376310Y162160D01*
X376298Y162173D01*
X376153Y162286D01*
X376010Y162401D01*
X375994Y162409D01*
X375980Y162420D01*
X375815Y162502D01*
X375653Y162586D01*
X375636Y162591D01*
X375620Y162599D01*
X375442Y162647D01*
X375266Y162698D01*
X375248Y162699D01*
X375231Y162704D01*
X374900Y162731D01*
X374882Y162729D01*
X374865Y162731D01*
X374864Y162731D01*
X374682Y162709D01*
X374499Y162691D01*
X374482Y162686D01*
X374464Y162684D01*
X374290Y162627D01*
X374114Y162573D01*
X374099Y162564D01*
X374082Y162559D01*
X373921Y162468D01*
X373760Y162381D01*
X373747Y162370D01*
X373731Y162361D01*
X373592Y162241D01*
X373451Y162123D01*
X373440Y162109D01*
X373426Y162098D01*
X373314Y161953D01*
X373199Y161810D01*
X373190Y161794D01*
X373180Y161780D01*
X373098Y161615D01*
X373013Y161452D01*
X373008Y161435D01*
X373000Y161419D01*
X372952Y161241D01*
X372902Y161065D01*
X372900Y161048D01*
X372896Y161030D01*
X372869Y160700D01*
X372869Y151555D01*
X370328Y151555D01*
X370310Y151553D01*
X370292Y151555D01*
X370110Y151534D01*
X369927Y151515D01*
X369910Y151510D01*
X369893Y151508D01*
X369718Y151451D01*
X369542Y151397D01*
X369527Y151389D01*
X369510Y151383D01*
X369350Y151293D01*
X369188Y151205D01*
X369175Y151194D01*
X369159Y151185D01*
X369020Y151065D01*
X368879Y150948D01*
X368868Y150934D01*
X368854Y150922D01*
X368742Y150777D01*
X368627Y150634D01*
X368619Y150618D01*
X368608Y150604D01*
X368526Y150439D01*
X368441Y150277D01*
X368436Y150260D01*
X368428Y150244D01*
X368381Y150065D01*
X368330Y149890D01*
X368328Y149872D01*
X368324Y149855D01*
X368297Y149524D01*
X368297Y110341D01*
X365618Y107663D01*
X335780Y77824D01*
X335774Y77817D01*
X335768Y77812D01*
X335647Y77662D01*
X335525Y77513D01*
X335521Y77505D01*
X335515Y77498D01*
X335426Y77327D01*
X335336Y77157D01*
X335334Y77149D01*
X335330Y77141D01*
X335276Y76955D01*
X335222Y76771D01*
X335221Y76762D01*
X335218Y76754D01*
X335203Y76562D01*
X335185Y76370D01*
X335186Y76361D01*
X335185Y76352D01*
X335208Y76163D01*
X335229Y75970D01*
X335231Y75961D01*
X335232Y75953D01*
X335292Y75768D01*
X335350Y75586D01*
X335354Y75578D01*
X335357Y75570D01*
X335452Y75401D01*
X335545Y75234D01*
X335551Y75227D01*
X335555Y75219D01*
X335681Y75073D01*
X335805Y74927D01*
X335812Y74921D01*
X335818Y74914D01*
X335970Y74797D01*
X336121Y74677D01*
X336129Y74673D01*
X336136Y74668D01*
X336308Y74582D01*
X336480Y74495D01*
X336489Y74492D01*
X336497Y74488D01*
X336683Y74438D01*
X336868Y74387D01*
X336877Y74386D01*
X336886Y74384D01*
X337216Y74357D01*
X362787Y74357D01*
X362809Y74359D01*
X362831Y74357D01*
X363009Y74379D01*
X363187Y74397D01*
X363209Y74403D01*
X363231Y74406D01*
X363401Y74462D01*
X363572Y74515D01*
X363592Y74525D01*
X363613Y74532D01*
X363769Y74622D01*
X363926Y74707D01*
X363944Y74721D01*
X363963Y74732D01*
X364099Y74850D01*
X364236Y74964D01*
X364250Y74982D01*
X364267Y74996D01*
X364376Y75139D01*
X364488Y75278D01*
X364498Y75298D01*
X364512Y75316D01*
X364514Y75319D01*
X366832Y77637D01*
X369796Y78865D01*
X373004Y78865D01*
X375968Y77637D01*
X378237Y75368D01*
X379465Y72404D01*
X379465Y69196D01*
X378584Y67069D01*
X378580Y67056D01*
X378574Y67045D01*
X378522Y66865D01*
X378467Y66684D01*
X378466Y66671D01*
X378462Y66658D01*
X378447Y66470D01*
X378429Y66283D01*
X378431Y66270D01*
X378430Y66256D01*
X378451Y66070D01*
X378471Y65883D01*
X378475Y65870D01*
X378476Y65857D01*
X378535Y65677D01*
X378591Y65498D01*
X378597Y65487D01*
X378601Y65474D01*
X378694Y65310D01*
X378784Y65145D01*
X378793Y65135D01*
X378799Y65123D01*
X378922Y64981D01*
X379043Y64837D01*
X379054Y64829D01*
X379062Y64818D01*
X379210Y64704D01*
X379358Y64586D01*
X379370Y64580D01*
X379380Y64572D01*
X379549Y64488D01*
X379716Y64402D01*
X379729Y64398D01*
X379741Y64392D01*
X379924Y64343D01*
X380104Y64292D01*
X380117Y64291D01*
X380130Y64288D01*
X380461Y64261D01*
X386626Y64261D01*
X386719Y64270D01*
X386812Y64269D01*
X386918Y64290D01*
X387026Y64301D01*
X387116Y64328D01*
X387207Y64346D01*
X387307Y64387D01*
X387411Y64419D01*
X387493Y64463D01*
X387580Y64499D01*
X387670Y64559D01*
X387765Y64611D01*
X387837Y64670D01*
X387915Y64722D01*
X387991Y64799D01*
X388075Y64868D01*
X388133Y64941D01*
X388199Y65007D01*
X388259Y65097D01*
X388327Y65182D01*
X388370Y65265D01*
X388421Y65343D01*
X388462Y65443D01*
X388512Y65539D01*
X388538Y65629D01*
X388573Y65715D01*
X388594Y65822D01*
X388624Y65926D01*
X388631Y66019D01*
X388649Y66111D01*
X388648Y66219D01*
X388657Y66328D01*
X388646Y66420D01*
X388645Y66514D01*
X388622Y66620D01*
X388610Y66727D01*
X388581Y66816D01*
X388561Y66907D01*
X388511Y67031D01*
X388485Y67110D01*
X388460Y67153D01*
X388435Y67214D01*
X388385Y67314D01*
X387943Y68674D01*
X387928Y68769D01*
X396800Y68769D01*
X396817Y68770D01*
X396835Y68769D01*
X397018Y68790D01*
X397200Y68808D01*
X397217Y68814D01*
X397235Y68816D01*
X397410Y68873D01*
X397585Y68927D01*
X397601Y68935D01*
X397618Y68941D01*
X397778Y69031D01*
X397939Y69118D01*
X397953Y69130D01*
X397968Y69139D01*
X398108Y69259D01*
X398248Y69376D01*
X398249Y69376D01*
X398249Y69377D01*
X398260Y69390D01*
X398273Y69402D01*
X398274Y69402D01*
X398386Y69547D01*
X398501Y69690D01*
X398510Y69706D01*
X398520Y69720D01*
X398602Y69885D01*
X398687Y70048D01*
X398692Y70065D01*
X398700Y70081D01*
X398748Y70259D01*
X398798Y70435D01*
X398800Y70452D01*
X398804Y70470D01*
X398831Y70800D01*
X398831Y79672D01*
X398926Y79657D01*
X400286Y79215D01*
X401559Y78567D01*
X402716Y77726D01*
X403726Y76716D01*
X404567Y75559D01*
X405215Y74286D01*
X405250Y74179D01*
X405288Y74094D01*
X405316Y74005D01*
X405368Y73910D01*
X405412Y73810D01*
X405465Y73734D01*
X405511Y73652D01*
X405581Y73570D01*
X405643Y73481D01*
X405711Y73416D01*
X405771Y73345D01*
X405856Y73278D01*
X405935Y73203D01*
X406014Y73154D01*
X406087Y73096D01*
X406184Y73047D01*
X406276Y72989D01*
X406363Y72956D01*
X406446Y72913D01*
X406550Y72884D01*
X406652Y72846D01*
X406744Y72830D01*
X406834Y72805D01*
X406942Y72798D01*
X407049Y72780D01*
X407142Y72783D01*
X407235Y72776D01*
X407343Y72790D01*
X407451Y72793D01*
X407542Y72815D01*
X407635Y72827D01*
X407738Y72861D01*
X407843Y72886D01*
X407928Y72925D01*
X408017Y72955D01*
X408111Y73009D01*
X408209Y73054D01*
X408254Y73087D01*
X413061Y73087D01*
X413083Y73089D01*
X413105Y73087D01*
X413283Y73109D01*
X413461Y73127D01*
X413483Y73133D01*
X413505Y73136D01*
X413674Y73192D01*
X413846Y73245D01*
X413866Y73255D01*
X413887Y73262D01*
X414042Y73351D01*
X414200Y73437D01*
X414217Y73451D01*
X414237Y73462D01*
X414372Y73580D01*
X414510Y73694D01*
X414524Y73712D01*
X414540Y73726D01*
X414649Y73868D01*
X414762Y74008D01*
X414772Y74028D01*
X414786Y74046D01*
X414937Y74341D01*
X415363Y75368D01*
X417632Y77637D01*
X420596Y78865D01*
X423804Y78865D01*
X426768Y77637D01*
X429037Y75368D01*
X430265Y72404D01*
X430265Y69196D01*
X429037Y66232D01*
X426768Y63963D01*
X423804Y62735D01*
X420596Y62735D01*
X417632Y63963D01*
X415363Y66232D01*
X414937Y67259D01*
X414927Y67279D01*
X414920Y67300D01*
X414832Y67456D01*
X414747Y67614D01*
X414733Y67631D01*
X414722Y67651D01*
X414605Y67786D01*
X414491Y67925D01*
X414473Y67939D01*
X414459Y67956D01*
X414317Y68065D01*
X414178Y68178D01*
X414158Y68189D01*
X414141Y68202D01*
X413980Y68282D01*
X413822Y68365D01*
X413800Y68372D01*
X413780Y68382D01*
X413607Y68428D01*
X413435Y68478D01*
X413413Y68480D01*
X413391Y68486D01*
X413061Y68513D01*
X411070Y68513D01*
X411044Y68511D01*
X411017Y68513D01*
X410843Y68491D01*
X410670Y68473D01*
X410644Y68466D01*
X410618Y68462D01*
X410452Y68407D01*
X410285Y68355D01*
X410261Y68342D01*
X410236Y68334D01*
X410084Y68247D01*
X409931Y68163D01*
X409910Y68146D01*
X409887Y68133D01*
X409634Y67918D01*
X401403Y59687D01*
X319173Y59687D01*
X317239Y61622D01*
X304576Y74285D01*
X302641Y76219D01*
X302641Y87793D01*
X310825Y95977D01*
X337508Y95977D01*
X337535Y95979D01*
X337562Y95977D01*
X337736Y95999D01*
X337909Y96017D01*
X337935Y96024D01*
X337961Y96028D01*
X338127Y96083D01*
X338294Y96135D01*
X338318Y96148D01*
X338343Y96156D01*
X338495Y96243D01*
X338648Y96327D01*
X338669Y96344D01*
X338692Y96357D01*
X338945Y96572D01*
X344960Y102587D01*
X345032Y102675D01*
X345112Y102757D01*
X345160Y102831D01*
X345215Y102898D01*
X345269Y103000D01*
X345331Y103096D01*
X345363Y103177D01*
X345404Y103254D01*
X345436Y103364D01*
X345478Y103470D01*
X345494Y103556D01*
X345519Y103640D01*
X345529Y103754D01*
X345549Y103867D01*
X345547Y103954D01*
X345555Y104041D01*
X345543Y104155D01*
X345540Y104269D01*
X345521Y104354D01*
X345512Y104441D01*
X345477Y104551D01*
X345452Y104662D01*
X345416Y104742D01*
X345390Y104825D01*
X345335Y104925D01*
X345288Y105030D01*
X345237Y105101D01*
X345195Y105177D01*
X345121Y105265D01*
X345055Y105358D01*
X344991Y105418D01*
X344935Y105484D01*
X344845Y105555D01*
X344762Y105634D01*
X344687Y105680D01*
X344619Y105734D01*
X344517Y105786D01*
X344420Y105846D01*
X344323Y105884D01*
X344260Y105916D01*
X344197Y105934D01*
X344111Y105968D01*
X341647Y106712D01*
X338831Y109016D01*
X337112Y112222D01*
X335237Y131007D01*
X336289Y134490D01*
X338593Y137305D01*
X341799Y139024D01*
X345419Y139385D01*
X348902Y138334D01*
X350691Y136869D01*
X350782Y136809D01*
X350868Y136740D01*
X350950Y136698D01*
X351026Y136646D01*
X351128Y136605D01*
X351225Y136555D01*
X351314Y136529D01*
X351399Y136494D01*
X351507Y136473D01*
X351612Y136443D01*
X351704Y136436D01*
X351795Y136418D01*
X351904Y136419D01*
X352013Y136410D01*
X352105Y136421D01*
X352197Y136422D01*
X352305Y136444D01*
X352413Y136457D01*
X352501Y136486D01*
X352591Y136505D01*
X352692Y136548D01*
X352796Y136582D01*
X352876Y136627D01*
X352961Y136664D01*
X353051Y136726D01*
X353147Y136780D01*
X353216Y136840D01*
X353292Y136893D01*
X353368Y136972D01*
X353451Y137043D01*
X353508Y137116D01*
X353572Y137182D01*
X353631Y137275D01*
X353698Y137361D01*
X353739Y137444D01*
X353789Y137521D01*
X353829Y137623D01*
X353877Y137722D01*
X353901Y137811D01*
X353935Y137897D01*
X353953Y138005D01*
X353982Y138110D01*
X353991Y138220D01*
X354004Y138293D01*
X354002Y138355D01*
X354009Y138441D01*
X354009Y163518D01*
X355943Y165452D01*
X376831Y186340D01*
X376836Y186347D01*
X376843Y186352D01*
X376964Y186502D01*
X377086Y186651D01*
X377090Y186659D01*
X377096Y186666D01*
X377184Y186837D01*
X377274Y187007D01*
X377277Y187015D01*
X377281Y187023D01*
X377334Y187209D01*
X377389Y187393D01*
X377390Y187402D01*
X377392Y187410D01*
X377408Y187600D01*
X377426Y187794D01*
X377425Y187803D01*
X377425Y187812D01*
X377403Y188001D01*
X377382Y188194D01*
X377379Y188203D01*
X377378Y188211D01*
X377319Y188393D01*
X377261Y188578D01*
X377256Y188586D01*
X377254Y188594D01*
X377159Y188763D01*
X377066Y188930D01*
X377060Y188937D01*
X377056Y188945D01*
X376930Y189091D01*
X376805Y189237D01*
X376798Y189243D01*
X376793Y189250D01*
X376641Y189367D01*
X376489Y189487D01*
X376481Y189491D01*
X376474Y189496D01*
X376302Y189582D01*
X376131Y189669D01*
X376122Y189672D01*
X376114Y189676D01*
X375927Y189726D01*
X375743Y189777D01*
X375734Y189778D01*
X375725Y189780D01*
X375394Y189807D01*
X371027Y189807D01*
X371001Y189805D01*
X370974Y189807D01*
X370800Y189785D01*
X370627Y189767D01*
X370601Y189760D01*
X370574Y189756D01*
X370409Y189701D01*
X370242Y189649D01*
X370218Y189636D01*
X370193Y189628D01*
X370041Y189541D01*
X369888Y189457D01*
X369867Y189440D01*
X369844Y189427D01*
X369591Y189212D01*
X320314Y139936D01*
X320242Y139847D01*
X320162Y139765D01*
X320115Y139692D01*
X320059Y139624D01*
X320006Y139523D01*
X319944Y139427D01*
X319912Y139346D01*
X319871Y139269D01*
X319838Y139159D01*
X319796Y139052D01*
X319781Y138966D01*
X319756Y138883D01*
X319745Y138769D01*
X319725Y138656D01*
X319727Y138569D01*
X319719Y138482D01*
X319732Y138368D01*
X319734Y138254D01*
X319753Y138168D01*
X319763Y138081D01*
X319797Y137972D01*
X319822Y137861D01*
X319858Y137781D01*
X319884Y137698D01*
X319940Y137598D01*
X319986Y137493D01*
X320037Y137422D01*
X320079Y137345D01*
X320153Y137258D01*
X320219Y137165D01*
X320283Y137105D01*
X320340Y137038D01*
X320429Y136967D01*
X320513Y136889D01*
X320587Y136843D01*
X320656Y136789D01*
X320758Y136737D01*
X320855Y136676D01*
X320951Y136639D01*
X321015Y136606D01*
X321078Y136589D01*
X321164Y136555D01*
X323628Y135811D01*
X326443Y133507D01*
X328162Y130301D01*
X330037Y111516D01*
X328985Y108033D01*
X326681Y105218D01*
X323475Y103499D01*
X319855Y103138D01*
X316372Y104189D01*
X313557Y106493D01*
X311838Y109699D01*
X310289Y125218D01*
X310267Y125326D01*
X310256Y125435D01*
X310228Y125523D01*
X310209Y125613D01*
X310167Y125714D01*
X310134Y125819D01*
X310089Y125899D01*
X310054Y125984D01*
X309992Y126075D01*
X309939Y126171D01*
X309880Y126241D01*
X309828Y126318D01*
X309750Y126394D01*
X309679Y126478D01*
X309606Y126535D01*
X309541Y126600D01*
X309449Y126660D01*
X309363Y126727D01*
X309281Y126769D01*
X309203Y126820D01*
X309102Y126860D01*
X309004Y126910D01*
X308915Y126935D01*
X308829Y126969D01*
X308722Y126988D01*
X308616Y127018D01*
X308524Y127025D01*
X308433Y127041D01*
X308324Y127039D01*
X308214Y127047D01*
X308123Y127036D01*
X308031Y127034D01*
X307924Y127011D01*
X307815Y126997D01*
X307727Y126967D01*
X307637Y126948D01*
X307537Y126904D01*
X307433Y126869D01*
X307353Y126823D01*
X307269Y126785D01*
X307180Y126722D01*
X307084Y126668D01*
X307000Y126596D01*
X306940Y126554D01*
X306897Y126509D01*
X306831Y126453D01*
X304046Y123668D01*
X303965Y123569D01*
X303877Y123476D01*
X303838Y123414D01*
X303791Y123356D01*
X303731Y123244D01*
X303663Y123135D01*
X303637Y123066D01*
X303603Y123001D01*
X303566Y122878D01*
X303521Y122759D01*
X303509Y122686D01*
X303488Y122615D01*
X303476Y122487D01*
X303455Y122361D01*
X303457Y122275D01*
X303451Y122214D01*
X303459Y122140D01*
X303461Y122030D01*
X304763Y108993D01*
X303711Y105510D01*
X301407Y102695D01*
X298201Y100976D01*
X294581Y100615D01*
X291098Y101666D01*
X288283Y103971D01*
X286564Y107177D01*
X285634Y116488D01*
X285612Y116596D01*
X285601Y116705D01*
X285573Y116793D01*
X285555Y116883D01*
X285512Y116984D01*
X285479Y117089D01*
X285435Y117169D01*
X285399Y117254D01*
X285337Y117345D01*
X285284Y117441D01*
X285225Y117511D01*
X285173Y117588D01*
X285095Y117664D01*
X285024Y117748D01*
X284951Y117805D01*
X284886Y117870D01*
X284794Y117930D01*
X284708Y117997D01*
X284626Y118039D01*
X284548Y118090D01*
X284447Y118130D01*
X284349Y118180D01*
X284260Y118205D01*
X284174Y118239D01*
X284067Y118258D01*
X283961Y118288D01*
X283869Y118295D01*
X283778Y118311D01*
X283669Y118309D01*
X283560Y118317D01*
X283468Y118306D01*
X283376Y118304D01*
X283269Y118280D01*
X283160Y118267D01*
X283073Y118237D01*
X282983Y118218D01*
X282882Y118173D01*
X282778Y118139D01*
X282699Y118093D01*
X282614Y118055D01*
X282525Y117992D01*
X282430Y117938D01*
X282346Y117866D01*
X282285Y117824D01*
X282242Y117779D01*
X282177Y117723D01*
X268694Y104240D01*
X268677Y104219D01*
X268656Y104202D01*
X268549Y104064D01*
X268439Y103928D01*
X268426Y103905D01*
X268410Y103884D01*
X268332Y103727D01*
X268250Y103573D01*
X268242Y103547D01*
X268230Y103523D01*
X268185Y103354D01*
X268135Y103187D01*
X268133Y103160D01*
X268126Y103134D01*
X268099Y102804D01*
X268099Y29955D01*
X258427Y20283D01*
X237618Y20283D01*
G37*
%LPD*%
G36*
X448933Y305259D02*
X448933Y305259D01*
X448955Y305257D01*
X449133Y305279D01*
X449311Y305297D01*
X449333Y305303D01*
X449355Y305306D01*
X449525Y305362D01*
X449696Y305415D01*
X449716Y305425D01*
X449737Y305432D01*
X449893Y305521D01*
X450050Y305607D01*
X450068Y305621D01*
X450087Y305632D01*
X450222Y305749D01*
X450360Y305864D01*
X450374Y305882D01*
X450390Y305896D01*
X450500Y306038D01*
X450612Y306178D01*
X450622Y306198D01*
X450636Y306216D01*
X450787Y306511D01*
X450984Y306985D01*
X450990Y307006D01*
X451000Y307026D01*
X451048Y307199D01*
X451100Y307370D01*
X451102Y307392D01*
X451108Y307414D01*
X451122Y307593D01*
X451138Y307771D01*
X451136Y307793D01*
X451138Y307815D01*
X451115Y307994D01*
X451097Y308172D01*
X451090Y308193D01*
X451087Y308215D01*
X451030Y308385D01*
X450977Y308556D01*
X450966Y308576D01*
X450959Y308597D01*
X450870Y308752D01*
X450784Y308909D01*
X450769Y308926D01*
X450758Y308945D01*
X450544Y309198D01*
X437594Y322148D01*
X437573Y322165D01*
X437555Y322186D01*
X437418Y322293D01*
X437282Y322403D01*
X437259Y322416D01*
X437237Y322432D01*
X437080Y322510D01*
X436926Y322592D01*
X436901Y322600D01*
X436877Y322612D01*
X436707Y322657D01*
X436541Y322707D01*
X436514Y322709D01*
X436488Y322716D01*
X436157Y322743D01*
X411069Y322743D01*
X411047Y322741D01*
X411025Y322743D01*
X410848Y322721D01*
X410669Y322703D01*
X410647Y322697D01*
X410625Y322694D01*
X410456Y322638D01*
X410284Y322585D01*
X410264Y322575D01*
X410243Y322568D01*
X410088Y322479D01*
X409930Y322393D01*
X409913Y322379D01*
X409893Y322368D01*
X409758Y322250D01*
X409621Y322136D01*
X409607Y322118D01*
X409590Y322104D01*
X409481Y321962D01*
X409368Y321822D01*
X409358Y321802D01*
X409344Y321784D01*
X409193Y321489D01*
X408891Y320760D01*
X406140Y318009D01*
X402545Y316520D01*
X398655Y316520D01*
X395060Y318009D01*
X392309Y320760D01*
X390820Y324355D01*
X390820Y328245D01*
X391122Y328974D01*
X391129Y328996D01*
X391139Y329016D01*
X391187Y329189D01*
X391239Y329360D01*
X391241Y329382D01*
X391247Y329404D01*
X391260Y329583D01*
X391277Y329761D01*
X391275Y329783D01*
X391276Y329805D01*
X391254Y329983D01*
X391235Y330161D01*
X391229Y330182D01*
X391226Y330204D01*
X391169Y330374D01*
X391115Y330545D01*
X391105Y330565D01*
X391098Y330586D01*
X391008Y330742D01*
X390922Y330899D01*
X390908Y330916D01*
X390897Y330935D01*
X390682Y331188D01*
X362715Y359155D01*
X362715Y360628D01*
X362713Y360646D01*
X362715Y360664D01*
X362694Y360846D01*
X362675Y361029D01*
X362670Y361046D01*
X362668Y361063D01*
X362611Y361238D01*
X362557Y361414D01*
X362549Y361429D01*
X362543Y361446D01*
X362453Y361606D01*
X362365Y361768D01*
X362354Y361781D01*
X362345Y361797D01*
X362225Y361936D01*
X362108Y362077D01*
X362094Y362088D01*
X362082Y362102D01*
X361937Y362214D01*
X361794Y362329D01*
X361778Y362337D01*
X361764Y362348D01*
X361599Y362430D01*
X361437Y362515D01*
X361420Y362520D01*
X361404Y362528D01*
X361225Y362575D01*
X361050Y362626D01*
X361032Y362628D01*
X361015Y362632D01*
X360684Y362659D01*
X327393Y362659D01*
X327342Y362654D01*
X327291Y362657D01*
X327142Y362634D01*
X326992Y362619D01*
X326943Y362604D01*
X326893Y362597D01*
X326751Y362545D01*
X326607Y362501D01*
X326562Y362477D01*
X326514Y362459D01*
X326385Y362381D01*
X326253Y362309D01*
X326214Y362277D01*
X326170Y362250D01*
X326059Y362148D01*
X325944Y362052D01*
X325912Y362012D01*
X325874Y361977D01*
X325786Y361855D01*
X325692Y361738D01*
X325668Y361693D01*
X325638Y361651D01*
X325575Y361514D01*
X325506Y361381D01*
X325492Y361332D01*
X325471Y361285D01*
X325436Y361138D01*
X325395Y360994D01*
X325390Y360943D01*
X325379Y360893D01*
X325374Y360742D01*
X325362Y360592D01*
X325368Y360542D01*
X325366Y360491D01*
X325391Y360342D01*
X325409Y360193D01*
X325425Y360144D01*
X325433Y360094D01*
X325487Y359953D01*
X325533Y359810D01*
X325559Y359765D01*
X325577Y359718D01*
X325697Y359520D01*
X325731Y359459D01*
X325741Y359449D01*
X325749Y359434D01*
X326725Y358092D01*
X327487Y356595D01*
X328006Y354998D01*
X328080Y354531D01*
X317600Y354531D01*
X307120Y354531D01*
X307194Y354998D01*
X307713Y356595D01*
X308475Y358092D01*
X309451Y359434D01*
X309476Y359478D01*
X309508Y359518D01*
X309578Y359652D01*
X309654Y359782D01*
X309670Y359830D01*
X309694Y359875D01*
X309736Y360020D01*
X309784Y360162D01*
X309791Y360213D01*
X309805Y360262D01*
X309818Y360413D01*
X309837Y360562D01*
X309834Y360613D01*
X309838Y360664D01*
X309821Y360813D01*
X309811Y360963D01*
X309797Y361013D01*
X309791Y361063D01*
X309745Y361207D01*
X309705Y361352D01*
X309682Y361398D01*
X309667Y361446D01*
X309593Y361577D01*
X309525Y361712D01*
X309494Y361752D01*
X309469Y361797D01*
X309370Y361911D01*
X309278Y362029D01*
X309239Y362063D01*
X309205Y362102D01*
X309087Y362194D01*
X308972Y362292D01*
X308928Y362317D01*
X308887Y362348D01*
X308753Y362415D01*
X308621Y362489D01*
X308573Y362505D01*
X308527Y362528D01*
X308381Y362567D01*
X308238Y362613D01*
X308188Y362619D01*
X308138Y362632D01*
X307907Y362651D01*
X307838Y362659D01*
X307825Y362658D01*
X307807Y362659D01*
X302411Y362659D01*
X246191Y418879D01*
X246174Y418893D01*
X246159Y418910D01*
X246019Y419020D01*
X245879Y419134D01*
X245860Y419145D01*
X245842Y419158D01*
X245682Y419239D01*
X245524Y419323D01*
X245502Y419329D01*
X245482Y419339D01*
X245309Y419387D01*
X245138Y419438D01*
X245115Y419440D01*
X245094Y419446D01*
X244916Y419458D01*
X244737Y419474D01*
X244714Y419472D01*
X244692Y419473D01*
X244516Y419450D01*
X244337Y419431D01*
X244315Y419424D01*
X244293Y419421D01*
X243977Y419319D01*
X243320Y419047D01*
X239480Y419047D01*
X236081Y420455D01*
X236068Y420459D01*
X236057Y420465D01*
X235877Y420517D01*
X235696Y420572D01*
X235683Y420573D01*
X235670Y420576D01*
X235482Y420592D01*
X235295Y420610D01*
X235282Y420608D01*
X235268Y420609D01*
X235082Y420588D01*
X234895Y420568D01*
X234882Y420564D01*
X234869Y420562D01*
X234690Y420504D01*
X234510Y420448D01*
X234499Y420442D01*
X234486Y420438D01*
X234322Y420345D01*
X234157Y420255D01*
X234147Y420246D01*
X234135Y420240D01*
X233993Y420117D01*
X233849Y419996D01*
X233841Y419985D01*
X233830Y419977D01*
X233716Y419829D01*
X233598Y419681D01*
X233592Y419669D01*
X233584Y419658D01*
X233500Y419490D01*
X233414Y419323D01*
X233410Y419310D01*
X233404Y419298D01*
X233355Y419114D01*
X233304Y418935D01*
X233303Y418922D01*
X233300Y418909D01*
X233273Y418578D01*
X233273Y413422D01*
X233274Y413408D01*
X233273Y413395D01*
X233294Y413209D01*
X233313Y413021D01*
X233317Y413008D01*
X233318Y412995D01*
X233376Y412816D01*
X233431Y412636D01*
X233437Y412624D01*
X233441Y412612D01*
X233533Y412447D01*
X233623Y412282D01*
X233631Y412272D01*
X233638Y412260D01*
X233760Y412117D01*
X233880Y411973D01*
X233891Y411964D01*
X233899Y411954D01*
X234048Y411838D01*
X234194Y411720D01*
X234206Y411714D01*
X234216Y411706D01*
X234386Y411621D01*
X234551Y411535D01*
X234564Y411531D01*
X234576Y411525D01*
X234759Y411475D01*
X234938Y411424D01*
X234952Y411422D01*
X234965Y411419D01*
X235153Y411406D01*
X235340Y411391D01*
X235353Y411392D01*
X235366Y411391D01*
X235554Y411416D01*
X235739Y411438D01*
X235752Y411442D01*
X235765Y411443D01*
X236081Y411545D01*
X239480Y412953D01*
X243320Y412953D01*
X246868Y411483D01*
X249583Y408768D01*
X251053Y405220D01*
X251053Y401380D01*
X249583Y397832D01*
X247739Y395988D01*
X247727Y395974D01*
X247714Y395962D01*
X247600Y395818D01*
X247484Y395676D01*
X247475Y395660D01*
X247464Y395646D01*
X247381Y395482D01*
X247295Y395320D01*
X247290Y395303D01*
X247282Y395287D01*
X247232Y395110D01*
X247180Y394935D01*
X247179Y394917D01*
X247174Y394900D01*
X247160Y394717D01*
X247144Y394534D01*
X247146Y394516D01*
X247144Y394498D01*
X247167Y394316D01*
X247187Y394133D01*
X247193Y394116D01*
X247195Y394099D01*
X247253Y393925D01*
X247309Y393749D01*
X247317Y393734D01*
X247323Y393717D01*
X247414Y393558D01*
X247503Y393397D01*
X247515Y393383D01*
X247524Y393368D01*
X247739Y393115D01*
X306794Y334059D01*
X307415Y333439D01*
X307429Y333427D01*
X307440Y333414D01*
X307585Y333300D01*
X307726Y333184D01*
X307742Y333175D01*
X307756Y333164D01*
X307920Y333081D01*
X308082Y332995D01*
X308099Y332990D01*
X308115Y332982D01*
X308292Y332933D01*
X308468Y332880D01*
X308486Y332879D01*
X308503Y332874D01*
X308686Y332860D01*
X308869Y332844D01*
X308887Y332846D01*
X308905Y332844D01*
X309087Y332867D01*
X309269Y332887D01*
X309286Y332893D01*
X309304Y332895D01*
X309478Y332953D01*
X309653Y333009D01*
X309669Y333017D01*
X309686Y333023D01*
X309845Y333115D01*
X310006Y333203D01*
X310019Y333215D01*
X310035Y333224D01*
X310288Y333439D01*
X312132Y335283D01*
X315680Y336753D01*
X319520Y336753D01*
X323068Y335283D01*
X325783Y332568D01*
X327253Y329020D01*
X327253Y325180D01*
X325783Y321632D01*
X323068Y318917D01*
X322672Y318753D01*
X319520Y317447D01*
X315680Y317447D01*
X312281Y318855D01*
X312268Y318859D01*
X312257Y318865D01*
X312077Y318917D01*
X311896Y318972D01*
X311883Y318973D01*
X311870Y318976D01*
X311682Y318992D01*
X311495Y319010D01*
X311482Y319008D01*
X311468Y319009D01*
X311282Y318988D01*
X311095Y318968D01*
X311082Y318964D01*
X311069Y318962D01*
X310890Y318904D01*
X310710Y318848D01*
X310699Y318842D01*
X310686Y318838D01*
X310522Y318745D01*
X310357Y318655D01*
X310347Y318646D01*
X310335Y318640D01*
X310193Y318517D01*
X310049Y318396D01*
X310041Y318385D01*
X310030Y318377D01*
X309916Y318229D01*
X309798Y318081D01*
X309792Y318069D01*
X309784Y318058D01*
X309700Y317890D01*
X309614Y317723D01*
X309610Y317710D01*
X309604Y317698D01*
X309555Y317515D01*
X309504Y317335D01*
X309503Y317322D01*
X309500Y317309D01*
X309473Y316978D01*
X309473Y311822D01*
X309474Y311808D01*
X309473Y311795D01*
X309494Y311609D01*
X309513Y311421D01*
X309517Y311408D01*
X309518Y311395D01*
X309576Y311216D01*
X309631Y311036D01*
X309637Y311024D01*
X309641Y311012D01*
X309733Y310847D01*
X309823Y310682D01*
X309831Y310672D01*
X309838Y310660D01*
X309960Y310517D01*
X310080Y310373D01*
X310091Y310364D01*
X310099Y310354D01*
X310248Y310238D01*
X310394Y310120D01*
X310406Y310114D01*
X310416Y310106D01*
X310586Y310021D01*
X310751Y309935D01*
X310764Y309931D01*
X310776Y309925D01*
X310959Y309875D01*
X311138Y309824D01*
X311152Y309822D01*
X311165Y309819D01*
X311353Y309806D01*
X311540Y309791D01*
X311553Y309792D01*
X311566Y309791D01*
X311754Y309816D01*
X311939Y309838D01*
X311952Y309842D01*
X311965Y309843D01*
X312281Y309945D01*
X315680Y311353D01*
X319520Y311353D01*
X323068Y309883D01*
X325783Y307168D01*
X326055Y306511D01*
X326066Y306491D01*
X326073Y306470D01*
X326161Y306314D01*
X326246Y306156D01*
X326260Y306139D01*
X326271Y306119D01*
X326388Y305983D01*
X326502Y305845D01*
X326519Y305831D01*
X326534Y305814D01*
X326675Y305705D01*
X326815Y305592D01*
X326834Y305581D01*
X326852Y305568D01*
X327012Y305488D01*
X327171Y305405D01*
X327192Y305398D01*
X327213Y305388D01*
X327386Y305342D01*
X327558Y305292D01*
X327580Y305290D01*
X327601Y305284D01*
X327932Y305257D01*
X448911Y305257D01*
X448933Y305259D01*
G37*
G36*
X233013Y342342D02*
X233013Y342342D01*
X233022Y342341D01*
X233214Y342362D01*
X233405Y342381D01*
X233414Y342383D01*
X233422Y342384D01*
X233605Y342442D01*
X233790Y342499D01*
X233798Y342503D01*
X233806Y342506D01*
X233975Y342599D01*
X234144Y342691D01*
X234151Y342696D01*
X234159Y342701D01*
X234305Y342825D01*
X234453Y342948D01*
X234459Y342955D01*
X234466Y342961D01*
X234586Y343113D01*
X234706Y343262D01*
X234710Y343270D01*
X234715Y343277D01*
X234803Y343449D01*
X234891Y343619D01*
X234894Y343628D01*
X234898Y343636D01*
X234949Y343821D01*
X235002Y344006D01*
X235003Y344015D01*
X235006Y344024D01*
X235020Y344215D01*
X235035Y344408D01*
X235034Y344416D01*
X235035Y344425D01*
X235011Y344618D01*
X234988Y344807D01*
X234986Y344816D01*
X234985Y344825D01*
X234924Y345006D01*
X234864Y345190D01*
X234859Y345198D01*
X234856Y345206D01*
X234761Y345371D01*
X234666Y345541D01*
X234660Y345548D01*
X234655Y345555D01*
X234441Y345808D01*
X233217Y347032D01*
X231747Y350580D01*
X231747Y354420D01*
X233155Y357819D01*
X233159Y357832D01*
X233165Y357843D01*
X233217Y358023D01*
X233272Y358204D01*
X233273Y358217D01*
X233276Y358230D01*
X233292Y358418D01*
X233310Y358605D01*
X233308Y358618D01*
X233309Y358632D01*
X233288Y358818D01*
X233268Y359005D01*
X233264Y359018D01*
X233262Y359031D01*
X233204Y359210D01*
X233148Y359390D01*
X233142Y359401D01*
X233138Y359414D01*
X233045Y359578D01*
X232955Y359743D01*
X232946Y359753D01*
X232940Y359765D01*
X232817Y359907D01*
X232696Y360051D01*
X232685Y360059D01*
X232677Y360070D01*
X232529Y360184D01*
X232381Y360302D01*
X232369Y360308D01*
X232358Y360316D01*
X232190Y360400D01*
X232023Y360486D01*
X232010Y360490D01*
X231998Y360496D01*
X231815Y360545D01*
X231635Y360596D01*
X231622Y360597D01*
X231609Y360600D01*
X231278Y360627D01*
X202245Y360627D01*
X128748Y434124D01*
X128740Y434131D01*
X128737Y434134D01*
X128726Y434143D01*
X128710Y434162D01*
X128572Y434269D01*
X128437Y434379D01*
X128413Y434392D01*
X128392Y434408D01*
X128235Y434486D01*
X128081Y434568D01*
X128056Y434576D01*
X128032Y434588D01*
X127862Y434633D01*
X127695Y434683D01*
X127669Y434685D01*
X127643Y434692D01*
X127312Y434719D01*
X112056Y434719D01*
X111963Y434710D01*
X111870Y434711D01*
X111763Y434690D01*
X111655Y434679D01*
X111566Y434652D01*
X111475Y434634D01*
X111374Y434593D01*
X111271Y434561D01*
X111189Y434517D01*
X111102Y434481D01*
X111012Y434421D01*
X110917Y434369D01*
X110845Y434310D01*
X110767Y434258D01*
X110691Y434181D01*
X110607Y434112D01*
X110549Y434039D01*
X110483Y433973D01*
X110423Y433883D01*
X110355Y433798D01*
X110312Y433715D01*
X110260Y433638D01*
X110219Y433537D01*
X110169Y433441D01*
X110144Y433351D01*
X110108Y433265D01*
X110088Y433158D01*
X110058Y433054D01*
X110050Y432961D01*
X110033Y432869D01*
X110034Y432761D01*
X110025Y432652D01*
X110036Y432560D01*
X110037Y432467D01*
X110059Y432360D01*
X110072Y432253D01*
X110101Y432164D01*
X110120Y432073D01*
X110171Y431949D01*
X110197Y431870D01*
X110209Y431849D01*
X110211Y431843D01*
X110225Y431817D01*
X110246Y431766D01*
X110636Y431000D01*
X111079Y429639D01*
X94108Y429639D01*
X94090Y429637D01*
X94073Y429639D01*
X93890Y429618D01*
X93708Y429599D01*
X93691Y429594D01*
X93673Y429592D01*
X93498Y429535D01*
X93323Y429481D01*
X93307Y429473D01*
X93290Y429467D01*
X93130Y429377D01*
X92969Y429289D01*
X92955Y429278D01*
X92939Y429269D01*
X92800Y429149D01*
X92659Y429032D01*
X92648Y429018D01*
X92635Y429006D01*
X92522Y428861D01*
X92407Y428718D01*
X92399Y428702D01*
X92388Y428688D01*
X92306Y428523D01*
X92266Y428447D01*
X92114Y428361D01*
X91952Y428273D01*
X91939Y428262D01*
X91923Y428253D01*
X91784Y428133D01*
X91643Y428015D01*
X91632Y428002D01*
X91618Y427990D01*
X91506Y427845D01*
X91391Y427702D01*
X91383Y427686D01*
X91372Y427672D01*
X91290Y427507D01*
X91205Y427344D01*
X91200Y427327D01*
X91192Y427311D01*
X91144Y427133D01*
X91094Y426958D01*
X91092Y426940D01*
X91088Y426923D01*
X91061Y426592D01*
X91061Y416939D01*
X85180Y416939D01*
X83601Y417189D01*
X82080Y417684D01*
X81314Y418074D01*
X81227Y418108D01*
X81145Y418151D01*
X81040Y418181D01*
X80939Y418220D01*
X80847Y418236D01*
X80758Y418262D01*
X80649Y418271D01*
X80543Y418290D01*
X80449Y418287D01*
X80356Y418295D01*
X80249Y418282D01*
X80140Y418279D01*
X80049Y418259D01*
X79957Y418248D01*
X79853Y418214D01*
X79747Y418190D01*
X79662Y418152D01*
X79574Y418123D01*
X79479Y418070D01*
X79380Y418025D01*
X79304Y417971D01*
X79223Y417925D01*
X79141Y417854D01*
X79053Y417791D01*
X78989Y417723D01*
X78918Y417662D01*
X78852Y417576D01*
X78778Y417497D01*
X78729Y417417D01*
X78672Y417344D01*
X78623Y417247D01*
X78566Y417154D01*
X78534Y417067D01*
X78492Y416983D01*
X78464Y416878D01*
X78427Y416777D01*
X78412Y416685D01*
X78388Y416595D01*
X78377Y416461D01*
X78364Y416379D01*
X78366Y416329D01*
X78361Y416264D01*
X78361Y411482D01*
X78362Y411469D01*
X78361Y411455D01*
X78382Y411269D01*
X78401Y411082D01*
X78405Y411069D01*
X78406Y411055D01*
X78464Y410875D01*
X78519Y410697D01*
X78525Y410685D01*
X78529Y410672D01*
X78621Y410507D01*
X78711Y410343D01*
X78719Y410332D01*
X78726Y410321D01*
X78848Y410177D01*
X78968Y410033D01*
X78979Y410025D01*
X78987Y410015D01*
X79136Y409898D01*
X79282Y409781D01*
X79294Y409775D01*
X79304Y409767D01*
X79474Y409682D01*
X79639Y409595D01*
X79652Y409592D01*
X79664Y409586D01*
X79847Y409536D01*
X80026Y409484D01*
X80040Y409483D01*
X80053Y409479D01*
X80241Y409467D01*
X80428Y409451D01*
X80441Y409453D01*
X80454Y409452D01*
X80642Y409476D01*
X80827Y409498D01*
X80840Y409502D01*
X80853Y409504D01*
X81169Y409606D01*
X84161Y410845D01*
X103039Y410845D01*
X106400Y409453D01*
X108973Y406880D01*
X110365Y403519D01*
X110365Y399881D01*
X108973Y396520D01*
X106400Y393947D01*
X103039Y392555D01*
X99188Y392555D01*
X99170Y392553D01*
X99152Y392555D01*
X98970Y392534D01*
X98787Y392515D01*
X98770Y392510D01*
X98753Y392508D01*
X98578Y392451D01*
X98402Y392397D01*
X98387Y392389D01*
X98370Y392383D01*
X98210Y392293D01*
X98048Y392205D01*
X98035Y392194D01*
X98019Y392185D01*
X97880Y392065D01*
X97739Y391948D01*
X97728Y391934D01*
X97714Y391922D01*
X97602Y391777D01*
X97487Y391634D01*
X97479Y391618D01*
X97468Y391604D01*
X97386Y391439D01*
X97301Y391277D01*
X97296Y391260D01*
X97288Y391244D01*
X97241Y391065D01*
X97190Y390890D01*
X97188Y390872D01*
X97184Y390855D01*
X97157Y390524D01*
X97157Y387476D01*
X97159Y387458D01*
X97157Y387440D01*
X97178Y387258D01*
X97197Y387075D01*
X97202Y387058D01*
X97204Y387041D01*
X97261Y386866D01*
X97315Y386690D01*
X97323Y386675D01*
X97329Y386658D01*
X97419Y386498D01*
X97507Y386336D01*
X97518Y386323D01*
X97527Y386307D01*
X97647Y386168D01*
X97764Y386027D01*
X97778Y386016D01*
X97790Y386002D01*
X97935Y385890D01*
X98078Y385775D01*
X98094Y385767D01*
X98108Y385756D01*
X98273Y385674D01*
X98435Y385589D01*
X98452Y385584D01*
X98468Y385576D01*
X98647Y385529D01*
X98822Y385478D01*
X98840Y385476D01*
X98857Y385472D01*
X99188Y385445D01*
X103039Y385445D01*
X106400Y384053D01*
X108973Y381480D01*
X110365Y378119D01*
X110365Y374481D01*
X109561Y372542D01*
X109555Y372520D01*
X109545Y372501D01*
X109497Y372328D01*
X109445Y372156D01*
X109443Y372134D01*
X109437Y372113D01*
X109424Y371934D01*
X109407Y371756D01*
X109409Y371734D01*
X109408Y371711D01*
X109430Y371533D01*
X109449Y371355D01*
X109455Y371334D01*
X109458Y371312D01*
X109515Y371142D01*
X109568Y370971D01*
X109579Y370951D01*
X109586Y370930D01*
X109676Y370775D01*
X109762Y370618D01*
X109776Y370600D01*
X109787Y370581D01*
X110002Y370328D01*
X122664Y357666D01*
X122684Y357649D01*
X122702Y357629D01*
X122840Y357522D01*
X122975Y357411D01*
X122999Y357399D01*
X123020Y357382D01*
X123177Y357304D01*
X123331Y357223D01*
X123356Y357215D01*
X123380Y357203D01*
X123550Y357158D01*
X123717Y357108D01*
X123743Y357106D01*
X123769Y357099D01*
X124100Y357071D01*
X162097Y357071D01*
X162124Y357074D01*
X162151Y357072D01*
X162325Y357094D01*
X162498Y357111D01*
X162523Y357119D01*
X162550Y357123D01*
X162716Y357178D01*
X162883Y357230D01*
X162906Y357242D01*
X162932Y357251D01*
X163083Y357338D01*
X163237Y357421D01*
X163257Y357438D01*
X163281Y357452D01*
X163534Y357666D01*
X166212Y360345D01*
X183479Y360345D01*
X200888Y342936D01*
X200909Y342919D01*
X200926Y342898D01*
X201064Y342791D01*
X201199Y342681D01*
X201223Y342668D01*
X201244Y342652D01*
X201401Y342574D01*
X201555Y342492D01*
X201581Y342484D01*
X201605Y342472D01*
X201774Y342427D01*
X201941Y342377D01*
X201968Y342375D01*
X201993Y342368D01*
X202324Y342341D01*
X233004Y342341D01*
X233013Y342342D01*
G37*
G36*
X231658Y316946D02*
X231658Y316946D01*
X231709Y316943D01*
X231858Y316966D01*
X232008Y316981D01*
X232057Y316996D01*
X232107Y317003D01*
X232249Y317055D01*
X232393Y317099D01*
X232438Y317123D01*
X232486Y317141D01*
X232615Y317219D01*
X232747Y317291D01*
X232786Y317323D01*
X232830Y317350D01*
X232941Y317452D01*
X233056Y317548D01*
X233088Y317588D01*
X233126Y317623D01*
X233214Y317745D01*
X233308Y317862D01*
X233332Y317907D01*
X233362Y317949D01*
X233425Y318086D01*
X233494Y318219D01*
X233508Y318268D01*
X233529Y318315D01*
X233564Y318462D01*
X233605Y318606D01*
X233610Y318657D01*
X233621Y318707D01*
X233626Y318858D01*
X233638Y319008D01*
X233632Y319058D01*
X233634Y319109D01*
X233609Y319258D01*
X233591Y319407D01*
X233575Y319456D01*
X233567Y319506D01*
X233513Y319647D01*
X233467Y319790D01*
X233441Y319835D01*
X233423Y319882D01*
X233303Y320080D01*
X233269Y320141D01*
X233259Y320151D01*
X233251Y320166D01*
X232275Y321508D01*
X231513Y323005D01*
X230994Y324602D01*
X230920Y325069D01*
X241400Y325069D01*
X241417Y325070D01*
X241435Y325069D01*
X241618Y325090D01*
X241800Y325108D01*
X241817Y325114D01*
X241835Y325116D01*
X242010Y325173D01*
X242185Y325227D01*
X242201Y325235D01*
X242218Y325241D01*
X242378Y325331D01*
X242539Y325418D01*
X242553Y325430D01*
X242568Y325439D01*
X242708Y325559D01*
X242848Y325676D01*
X242860Y325690D01*
X242873Y325702D01*
X242986Y325847D01*
X243101Y325990D01*
X243109Y326006D01*
X243120Y326020D01*
X243202Y326185D01*
X243286Y326347D01*
X243291Y326364D01*
X243299Y326380D01*
X243347Y326558D01*
X243398Y326734D01*
X243399Y326752D01*
X243404Y326769D01*
X243431Y327100D01*
X243429Y327118D01*
X243431Y327135D01*
X243431Y327136D01*
X243409Y327318D01*
X243391Y327501D01*
X243386Y327518D01*
X243384Y327536D01*
X243327Y327710D01*
X243273Y327886D01*
X243264Y327901D01*
X243259Y327918D01*
X243168Y328079D01*
X243081Y328240D01*
X243070Y328253D01*
X243061Y328269D01*
X242941Y328408D01*
X242823Y328549D01*
X242809Y328560D01*
X242798Y328574D01*
X242653Y328686D01*
X242510Y328801D01*
X242494Y328810D01*
X242480Y328820D01*
X242315Y328902D01*
X242152Y328987D01*
X242135Y328992D01*
X242119Y329000D01*
X241941Y329048D01*
X241765Y329098D01*
X241748Y329100D01*
X241730Y329104D01*
X241400Y329131D01*
X230920Y329131D01*
X230994Y329598D01*
X231513Y331195D01*
X232062Y332274D01*
X232094Y332356D01*
X232105Y332377D01*
X232106Y332380D01*
X232139Y332443D01*
X232169Y332548D01*
X232209Y332649D01*
X232225Y332741D01*
X232251Y332830D01*
X232259Y332939D01*
X232278Y333045D01*
X232276Y333139D01*
X232283Y333232D01*
X232271Y333339D01*
X232268Y333448D01*
X232247Y333539D01*
X232237Y333631D01*
X232203Y333735D01*
X232179Y333841D01*
X232141Y333926D01*
X232112Y334014D01*
X232058Y334109D01*
X232014Y334208D01*
X231960Y334284D01*
X231914Y334365D01*
X231843Y334447D01*
X231780Y334535D01*
X231712Y334599D01*
X231651Y334670D01*
X231565Y334736D01*
X231486Y334810D01*
X231406Y334859D01*
X231333Y334916D01*
X231235Y334965D01*
X231143Y335022D01*
X231055Y335054D01*
X230972Y335096D01*
X230867Y335124D01*
X230765Y335161D01*
X230673Y335176D01*
X230583Y335200D01*
X230450Y335211D01*
X230368Y335224D01*
X230318Y335222D01*
X230253Y335227D01*
X198536Y335227D01*
X181127Y352636D01*
X181106Y352653D01*
X181089Y352674D01*
X180951Y352781D01*
X180816Y352891D01*
X180792Y352904D01*
X180771Y352920D01*
X180614Y352998D01*
X180460Y353080D01*
X180434Y353088D01*
X180410Y353100D01*
X180241Y353145D01*
X180074Y353195D01*
X180047Y353197D01*
X180022Y353204D01*
X179691Y353231D01*
X170000Y353231D01*
X169973Y353229D01*
X169947Y353231D01*
X169773Y353209D01*
X169599Y353191D01*
X169574Y353184D01*
X169547Y353180D01*
X169382Y353125D01*
X169214Y353073D01*
X169191Y353061D01*
X169166Y353052D01*
X169014Y352965D01*
X168860Y352882D01*
X168840Y352864D01*
X168817Y352851D01*
X168564Y352636D01*
X165885Y349958D01*
X120312Y349958D01*
X117634Y352636D01*
X112504Y357766D01*
X112501Y357769D01*
X112498Y357772D01*
X112345Y357897D01*
X112193Y358021D01*
X112189Y358023D01*
X112185Y358026D01*
X112009Y358118D01*
X111837Y358210D01*
X111833Y358211D01*
X111829Y358213D01*
X111637Y358269D01*
X111451Y358324D01*
X111447Y358325D01*
X111442Y358326D01*
X111249Y358343D01*
X111050Y358361D01*
X111045Y358360D01*
X111041Y358361D01*
X110851Y358339D01*
X110650Y358317D01*
X110645Y358316D01*
X110641Y358316D01*
X110455Y358256D01*
X110266Y358196D01*
X110262Y358194D01*
X110258Y358192D01*
X110084Y358095D01*
X109914Y358001D01*
X109910Y357998D01*
X109906Y357996D01*
X109756Y357867D01*
X109607Y357741D01*
X109604Y357737D01*
X109600Y357734D01*
X109479Y357579D01*
X109357Y357425D01*
X109355Y357421D01*
X109352Y357417D01*
X109263Y357240D01*
X109175Y357066D01*
X109173Y357061D01*
X109171Y357057D01*
X109120Y356870D01*
X109067Y356678D01*
X109066Y356673D01*
X109065Y356669D01*
X109052Y356473D01*
X109037Y356276D01*
X109038Y356272D01*
X109037Y356267D01*
X109063Y356072D01*
X109088Y355877D01*
X109089Y355873D01*
X109090Y355868D01*
X109191Y355552D01*
X110365Y352719D01*
X110365Y349081D01*
X108973Y345720D01*
X107828Y344575D01*
X107816Y344561D01*
X107803Y344550D01*
X107688Y344405D01*
X107573Y344264D01*
X107564Y344248D01*
X107553Y344234D01*
X107470Y344070D01*
X107384Y343908D01*
X107379Y343891D01*
X107371Y343875D01*
X107321Y343698D01*
X107269Y343522D01*
X107268Y343504D01*
X107263Y343487D01*
X107249Y343304D01*
X107233Y343121D01*
X107235Y343103D01*
X107233Y343085D01*
X107256Y342903D01*
X107276Y342721D01*
X107282Y342704D01*
X107284Y342686D01*
X107342Y342512D01*
X107398Y342337D01*
X107406Y342321D01*
X107412Y342304D01*
X107503Y342145D01*
X107592Y341984D01*
X107604Y341971D01*
X107613Y341955D01*
X107828Y341702D01*
X131994Y317536D01*
X132015Y317519D01*
X132033Y317498D01*
X132170Y317391D01*
X132306Y317281D01*
X132329Y317268D01*
X132351Y317252D01*
X132508Y317174D01*
X132662Y317092D01*
X132687Y317084D01*
X132711Y317072D01*
X132881Y317027D01*
X133047Y316977D01*
X133074Y316975D01*
X133100Y316968D01*
X133431Y316941D01*
X231607Y316941D01*
X231658Y316946D01*
G37*
G36*
X258980Y45718D02*
X258980Y45718D01*
X258990Y45717D01*
X259179Y45739D01*
X259371Y45760D01*
X259380Y45763D01*
X259389Y45764D01*
X259572Y45823D01*
X259755Y45881D01*
X259763Y45886D01*
X259772Y45888D01*
X259939Y45983D01*
X260107Y46076D01*
X260115Y46082D01*
X260123Y46086D01*
X260267Y46211D01*
X260414Y46336D01*
X260420Y46343D01*
X260428Y46350D01*
X260544Y46500D01*
X260664Y46652D01*
X260669Y46660D01*
X260674Y46668D01*
X260759Y46839D01*
X260847Y47011D01*
X260849Y47020D01*
X260854Y47028D01*
X260903Y47213D01*
X260955Y47398D01*
X260956Y47408D01*
X260958Y47417D01*
X260985Y47748D01*
X260985Y70090D01*
X260980Y70141D01*
X260983Y70193D01*
X260960Y70341D01*
X260945Y70491D01*
X260930Y70540D01*
X260922Y70591D01*
X260871Y70732D01*
X260827Y70875D01*
X260803Y70921D01*
X260785Y70969D01*
X260707Y71097D01*
X260635Y71229D01*
X260602Y71269D01*
X260576Y71313D01*
X260474Y71424D01*
X260378Y71539D01*
X260338Y71571D01*
X260302Y71609D01*
X260181Y71697D01*
X260064Y71791D01*
X260018Y71815D01*
X259976Y71845D01*
X259840Y71908D01*
X259707Y71977D01*
X259657Y71991D01*
X259610Y72012D01*
X259464Y72046D01*
X259320Y72088D01*
X259268Y72092D01*
X259218Y72104D01*
X259068Y72109D01*
X258918Y72121D01*
X258867Y72115D01*
X258816Y72116D01*
X258667Y72091D01*
X258519Y72074D01*
X258470Y72058D01*
X258419Y72049D01*
X258278Y71996D01*
X258136Y71949D01*
X258091Y71924D01*
X258043Y71905D01*
X257947Y71847D01*
X256171Y70942D01*
X254384Y70361D01*
X254127Y70321D01*
X254127Y81498D01*
X254125Y81516D01*
X254127Y81533D01*
X254106Y81716D01*
X254087Y81898D01*
X254082Y81915D01*
X254080Y81933D01*
X254055Y82011D01*
X254094Y82148D01*
X254096Y82166D01*
X254100Y82183D01*
X254127Y82514D01*
X254127Y93691D01*
X254384Y93651D01*
X256171Y93070D01*
X257988Y92144D01*
X257995Y92142D01*
X258108Y92076D01*
X258156Y92059D01*
X258201Y92035D01*
X258346Y91994D01*
X258488Y91945D01*
X258539Y91938D01*
X258588Y91924D01*
X258738Y91912D01*
X258887Y91892D01*
X258939Y91895D01*
X258990Y91891D01*
X259139Y91909D01*
X259289Y91919D01*
X259339Y91932D01*
X259389Y91938D01*
X259532Y91985D01*
X259678Y92024D01*
X259724Y92047D01*
X259772Y92063D01*
X259903Y92137D01*
X260038Y92204D01*
X260078Y92236D01*
X260123Y92261D01*
X260237Y92359D01*
X260355Y92452D01*
X260389Y92491D01*
X260428Y92524D01*
X260520Y92643D01*
X260618Y92757D01*
X260643Y92802D01*
X260674Y92842D01*
X260741Y92977D01*
X260815Y93108D01*
X260831Y93157D01*
X260854Y93203D01*
X260893Y93348D01*
X260939Y93491D01*
X260945Y93542D01*
X260958Y93591D01*
X260977Y93822D01*
X260985Y93891D01*
X260984Y93905D01*
X260985Y93922D01*
X260985Y106592D01*
X316190Y161796D01*
X316198Y161806D01*
X316209Y161815D01*
X316326Y161962D01*
X316445Y162108D01*
X316451Y162119D01*
X316459Y162130D01*
X316546Y162298D01*
X316633Y162463D01*
X316637Y162476D01*
X316643Y162488D01*
X316695Y162669D01*
X316748Y162849D01*
X316749Y162863D01*
X316753Y162875D01*
X316768Y163061D01*
X316785Y163250D01*
X316783Y163264D01*
X316784Y163277D01*
X316762Y163461D01*
X316741Y163650D01*
X316737Y163663D01*
X316736Y163677D01*
X316677Y163854D01*
X316620Y164034D01*
X316613Y164046D01*
X316609Y164059D01*
X316516Y164223D01*
X316425Y164387D01*
X316416Y164397D01*
X316410Y164408D01*
X316286Y164551D01*
X316164Y164694D01*
X316154Y164702D01*
X316145Y164712D01*
X315996Y164826D01*
X315849Y164943D01*
X315837Y164949D01*
X315826Y164957D01*
X315531Y165109D01*
X312132Y166517D01*
X309417Y169232D01*
X309145Y169889D01*
X309134Y169909D01*
X309127Y169930D01*
X309039Y170086D01*
X308954Y170244D01*
X308940Y170261D01*
X308929Y170281D01*
X308812Y170417D01*
X308698Y170555D01*
X308681Y170569D01*
X308666Y170586D01*
X308525Y170695D01*
X308385Y170808D01*
X308366Y170819D01*
X308348Y170832D01*
X308188Y170912D01*
X308029Y170995D01*
X308008Y171002D01*
X307987Y171012D01*
X307814Y171058D01*
X307642Y171108D01*
X307620Y171110D01*
X307599Y171116D01*
X307268Y171143D01*
X297783Y171143D01*
X297757Y171141D01*
X297730Y171143D01*
X297556Y171121D01*
X297382Y171103D01*
X297357Y171096D01*
X297330Y171092D01*
X297165Y171037D01*
X296998Y170985D01*
X296974Y170972D01*
X296949Y170964D01*
X296797Y170877D01*
X296644Y170793D01*
X296623Y170776D01*
X296600Y170763D01*
X296347Y170548D01*
X229282Y103483D01*
X221851Y103483D01*
X221842Y103482D01*
X221833Y103483D01*
X221639Y103462D01*
X221450Y103443D01*
X221442Y103441D01*
X221433Y103440D01*
X221249Y103382D01*
X221065Y103325D01*
X221057Y103321D01*
X221049Y103318D01*
X220881Y103226D01*
X220711Y103133D01*
X220704Y103128D01*
X220696Y103123D01*
X220549Y102999D01*
X220402Y102876D01*
X220396Y102869D01*
X220389Y102863D01*
X220270Y102711D01*
X220149Y102562D01*
X220145Y102554D01*
X220140Y102547D01*
X220052Y102374D01*
X219964Y102205D01*
X219961Y102196D01*
X219957Y102188D01*
X219905Y102002D01*
X219853Y101818D01*
X219852Y101809D01*
X219849Y101800D01*
X219835Y101607D01*
X219820Y101416D01*
X219821Y101408D01*
X219820Y101399D01*
X219844Y101206D01*
X219867Y101017D01*
X219869Y101008D01*
X219870Y100999D01*
X219932Y100816D01*
X219991Y100634D01*
X219996Y100626D01*
X219999Y100618D01*
X220095Y100451D01*
X220189Y100283D01*
X220195Y100276D01*
X220200Y100269D01*
X220414Y100016D01*
X236541Y83889D01*
X236613Y83830D01*
X236679Y83763D01*
X236769Y83703D01*
X236853Y83634D01*
X236935Y83590D01*
X237012Y83538D01*
X237113Y83496D01*
X237208Y83445D01*
X237298Y83419D01*
X237384Y83383D01*
X237490Y83361D01*
X237594Y83330D01*
X237687Y83322D01*
X237779Y83304D01*
X237887Y83304D01*
X237995Y83294D01*
X238088Y83304D01*
X238181Y83304D01*
X238288Y83326D01*
X238396Y83337D01*
X238484Y83365D01*
X238576Y83384D01*
X238676Y83426D01*
X238779Y83459D01*
X238861Y83504D01*
X238947Y83540D01*
X239037Y83601D01*
X239132Y83654D01*
X239203Y83714D01*
X239280Y83766D01*
X239356Y83844D01*
X239439Y83914D01*
X239497Y83987D01*
X239562Y84054D01*
X239621Y84145D01*
X239688Y84230D01*
X239731Y84313D01*
X239781Y84391D01*
X239833Y84515D01*
X239871Y84589D01*
X239884Y84637D01*
X239909Y84697D01*
X240524Y86589D01*
X241377Y88263D01*
X242482Y89784D01*
X243810Y91112D01*
X245331Y92217D01*
X247005Y93070D01*
X248792Y93651D01*
X249049Y93691D01*
X249049Y82514D01*
X249050Y82496D01*
X249049Y82479D01*
X249070Y82296D01*
X249089Y82114D01*
X249094Y82097D01*
X249096Y82079D01*
X249121Y82001D01*
X249082Y81864D01*
X249080Y81846D01*
X249076Y81829D01*
X249049Y81498D01*
X249049Y70321D01*
X248792Y70361D01*
X247005Y70942D01*
X246510Y71194D01*
X246423Y71228D01*
X246341Y71271D01*
X246236Y71301D01*
X246135Y71340D01*
X246043Y71357D01*
X245954Y71382D01*
X245845Y71391D01*
X245739Y71410D01*
X245645Y71408D01*
X245552Y71415D01*
X245445Y71403D01*
X245336Y71400D01*
X245245Y71379D01*
X245153Y71368D01*
X245049Y71335D01*
X244943Y71311D01*
X244858Y71272D01*
X244770Y71243D01*
X244675Y71190D01*
X244576Y71146D01*
X244500Y71091D01*
X244419Y71046D01*
X244337Y70975D01*
X244249Y70911D01*
X244185Y70843D01*
X244114Y70782D01*
X244048Y70697D01*
X243974Y70617D01*
X243925Y70538D01*
X243868Y70464D01*
X243819Y70367D01*
X243762Y70275D01*
X243730Y70187D01*
X243688Y70104D01*
X243660Y69999D01*
X243623Y69897D01*
X243608Y69805D01*
X243584Y69715D01*
X243573Y69581D01*
X243560Y69499D01*
X243562Y69450D01*
X243557Y69384D01*
X243557Y53983D01*
X243559Y53957D01*
X243557Y53930D01*
X243579Y53756D01*
X243597Y53582D01*
X243604Y53557D01*
X243608Y53530D01*
X243663Y53365D01*
X243715Y53198D01*
X243728Y53174D01*
X243736Y53149D01*
X243817Y53009D01*
X243817Y50437D01*
X243819Y50410D01*
X243817Y50383D01*
X243839Y50209D01*
X243857Y50036D01*
X243864Y50011D01*
X243868Y49984D01*
X243923Y49818D01*
X243975Y49651D01*
X243988Y49628D01*
X243996Y49602D01*
X244083Y49451D01*
X244167Y49297D01*
X244184Y49277D01*
X244197Y49253D01*
X244412Y49000D01*
X245825Y47587D01*
X245842Y47573D01*
X245857Y47556D01*
X245998Y47445D01*
X246137Y47332D01*
X246156Y47321D01*
X246174Y47308D01*
X246335Y47227D01*
X246492Y47143D01*
X246514Y47137D01*
X246534Y47127D01*
X246707Y47079D01*
X246878Y47028D01*
X246900Y47026D01*
X246922Y47020D01*
X247101Y47008D01*
X247279Y46992D01*
X247301Y46994D01*
X247324Y46993D01*
X247501Y47016D01*
X247679Y47035D01*
X247701Y47042D01*
X247723Y47045D01*
X248039Y47147D01*
X249415Y47717D01*
X253761Y47717D01*
X258042Y45943D01*
X258184Y45868D01*
X258193Y45865D01*
X258201Y45861D01*
X258385Y45808D01*
X258570Y45753D01*
X258579Y45752D01*
X258588Y45750D01*
X258780Y45734D01*
X258971Y45716D01*
X258980Y45718D01*
G37*
%LPC*%
G36*
X55428Y106265D02*
X55428Y106265D01*
X51192Y108020D01*
X47950Y111262D01*
X46195Y115498D01*
X46195Y120082D01*
X47950Y124318D01*
X51192Y127560D01*
X55428Y129315D01*
X80012Y129315D01*
X84248Y127560D01*
X87490Y124318D01*
X89245Y120082D01*
X89245Y115498D01*
X87490Y111262D01*
X84248Y108020D01*
X83000Y107503D01*
X80012Y106265D01*
X55428Y106265D01*
G37*
%LPD*%
%LPC*%
G36*
X97110Y133997D02*
X97110Y133997D01*
X96217Y134890D01*
X96217Y165110D01*
X97110Y166003D01*
X115138Y166003D01*
X116031Y165110D01*
X116031Y134890D01*
X115138Y133997D01*
X97110Y133997D01*
G37*
%LPD*%
%LPC*%
G36*
X314439Y25871D02*
X314439Y25871D01*
X310425Y27534D01*
X307352Y30607D01*
X305689Y34621D01*
X305689Y38967D01*
X307352Y42981D01*
X310425Y46054D01*
X314439Y47717D01*
X318785Y47717D01*
X322799Y46054D01*
X325872Y42981D01*
X327535Y38967D01*
X327535Y34621D01*
X325872Y30607D01*
X322799Y27534D01*
X318785Y25871D01*
X314439Y25871D01*
G37*
%LPD*%
%LPC*%
G36*
X167666Y336197D02*
X167666Y336197D01*
X166798Y342875D01*
X170907Y348210D01*
X174861Y348724D01*
X174956Y348746D01*
X175052Y348758D01*
X175151Y348791D01*
X175253Y348815D01*
X175342Y348855D01*
X175434Y348886D01*
X175524Y348938D01*
X175620Y348981D01*
X175699Y349038D01*
X175783Y349087D01*
X175879Y349169D01*
X178849Y349169D01*
X180996Y347022D01*
X181019Y346947D01*
X181059Y346795D01*
X181078Y346755D01*
X181091Y346713D01*
X181166Y346574D01*
X181235Y346433D01*
X181262Y346398D01*
X181283Y346359D01*
X181383Y346238D01*
X181479Y346112D01*
X181516Y346079D01*
X181540Y346050D01*
X181608Y345995D01*
X181725Y345889D01*
X182920Y344969D01*
X183788Y338291D01*
X179679Y332955D01*
X173001Y332088D01*
X167666Y336197D01*
G37*
%LPD*%
G36*
X98686Y50803D02*
X98686Y50803D01*
X98704Y50801D01*
X98886Y50822D01*
X99069Y50841D01*
X99086Y50846D01*
X99103Y50848D01*
X99278Y50905D01*
X99454Y50959D01*
X99469Y50967D01*
X99486Y50973D01*
X99646Y51063D01*
X99808Y51151D01*
X99821Y51162D01*
X99837Y51171D01*
X99976Y51291D01*
X100117Y51408D01*
X100128Y51422D01*
X100142Y51434D01*
X100254Y51579D01*
X100369Y51722D01*
X100377Y51738D01*
X100388Y51752D01*
X100470Y51917D01*
X100555Y52079D01*
X100560Y52096D01*
X100568Y52112D01*
X100615Y52291D01*
X100666Y52466D01*
X100668Y52484D01*
X100672Y52501D01*
X100699Y52832D01*
X100699Y68301D01*
X106168Y68301D01*
X106186Y68302D01*
X106204Y68301D01*
X106386Y68322D01*
X106569Y68341D01*
X106586Y68346D01*
X106603Y68348D01*
X106778Y68405D01*
X106954Y68459D01*
X106969Y68467D01*
X106986Y68473D01*
X107146Y68563D01*
X107308Y68650D01*
X107321Y68662D01*
X107337Y68671D01*
X107476Y68791D01*
X107617Y68908D01*
X107628Y68922D01*
X107642Y68934D01*
X107754Y69079D01*
X107869Y69222D01*
X107877Y69238D01*
X107888Y69252D01*
X107970Y69417D01*
X108055Y69579D01*
X108060Y69596D01*
X108068Y69612D01*
X108115Y69791D01*
X108166Y69966D01*
X108168Y69984D01*
X108172Y70001D01*
X108199Y70332D01*
X108199Y71268D01*
X108197Y71286D01*
X108199Y71304D01*
X108178Y71486D01*
X108159Y71669D01*
X108154Y71686D01*
X108152Y71703D01*
X108095Y71878D01*
X108041Y72054D01*
X108033Y72069D01*
X108027Y72086D01*
X107937Y72246D01*
X107849Y72408D01*
X107838Y72421D01*
X107829Y72437D01*
X107709Y72576D01*
X107592Y72717D01*
X107578Y72728D01*
X107566Y72742D01*
X107421Y72854D01*
X107278Y72969D01*
X107262Y72977D01*
X107248Y72988D01*
X107083Y73070D01*
X106921Y73155D01*
X106904Y73160D01*
X106888Y73168D01*
X106709Y73215D01*
X106534Y73266D01*
X106516Y73268D01*
X106499Y73272D01*
X106168Y73299D01*
X98668Y73299D01*
X98650Y73297D01*
X98633Y73299D01*
X98450Y73278D01*
X98268Y73259D01*
X98251Y73254D01*
X98233Y73252D01*
X98058Y73195D01*
X97883Y73141D01*
X97867Y73133D01*
X97850Y73127D01*
X97690Y73037D01*
X97529Y72949D01*
X97515Y72938D01*
X97499Y72929D01*
X97360Y72809D01*
X97219Y72692D01*
X97208Y72678D01*
X97195Y72666D01*
X97082Y72521D01*
X96967Y72378D01*
X96959Y72362D01*
X96948Y72348D01*
X96866Y72183D01*
X96852Y72156D01*
X96754Y72101D01*
X96592Y72013D01*
X96579Y72002D01*
X96563Y71993D01*
X96424Y71873D01*
X96283Y71755D01*
X96272Y71742D01*
X96258Y71730D01*
X96146Y71585D01*
X96031Y71442D01*
X96023Y71426D01*
X96012Y71412D01*
X95930Y71247D01*
X95845Y71084D01*
X95840Y71067D01*
X95832Y71051D01*
X95784Y70873D01*
X95734Y70698D01*
X95732Y70680D01*
X95728Y70663D01*
X95701Y70332D01*
X95701Y52832D01*
X95702Y52814D01*
X95701Y52796D01*
X95722Y52614D01*
X95741Y52431D01*
X95746Y52414D01*
X95748Y52397D01*
X95805Y52222D01*
X95859Y52046D01*
X95867Y52031D01*
X95873Y52014D01*
X95963Y51854D01*
X96050Y51692D01*
X96062Y51679D01*
X96071Y51663D01*
X96191Y51524D01*
X96308Y51383D01*
X96322Y51372D01*
X96334Y51358D01*
X96479Y51246D01*
X96622Y51131D01*
X96638Y51123D01*
X96652Y51112D01*
X96817Y51030D01*
X96979Y50945D01*
X96996Y50940D01*
X97012Y50932D01*
X97191Y50885D01*
X97366Y50834D01*
X97384Y50832D01*
X97401Y50828D01*
X97732Y50801D01*
X98668Y50801D01*
X98686Y50803D01*
G37*
%LPC*%
G36*
X96139Y416939D02*
X96139Y416939D01*
X96139Y424561D01*
X111079Y424561D01*
X110636Y423200D01*
X109910Y421775D01*
X108970Y420481D01*
X107839Y419350D01*
X106545Y418410D01*
X105120Y417684D01*
X103599Y417189D01*
X102020Y416939D01*
X96139Y416939D01*
G37*
%LPD*%
%LPC*%
G36*
X319631Y350469D02*
X319631Y350469D01*
X328080Y350469D01*
X328006Y350002D01*
X327487Y348405D01*
X326725Y346908D01*
X325738Y345550D01*
X324550Y344362D01*
X323192Y343375D01*
X321695Y342613D01*
X320098Y342094D01*
X319631Y342020D01*
X319631Y350469D01*
G37*
%LPD*%
%LPC*%
G36*
X315102Y342094D02*
X315102Y342094D01*
X313505Y342613D01*
X312008Y343375D01*
X310650Y344362D01*
X309462Y345550D01*
X308475Y346908D01*
X307713Y348405D01*
X307194Y350002D01*
X307120Y350469D01*
X315569Y350469D01*
X315569Y342020D01*
X315102Y342094D01*
G37*
%LPD*%
%LPC*%
G36*
X448991Y157631D02*
X448991Y157631D01*
X448991Y164745D01*
X450748Y164745D01*
X456105Y159388D01*
X456105Y157631D01*
X448991Y157631D01*
G37*
%LPD*%
%LPC*%
G36*
X448991Y146455D02*
X448991Y146455D01*
X448991Y153569D01*
X456105Y153569D01*
X456105Y151812D01*
X450748Y146455D01*
X448991Y146455D01*
G37*
%LPD*%
%LPC*%
G36*
X387928Y72831D02*
X387928Y72831D01*
X387943Y72926D01*
X388385Y74286D01*
X389033Y75559D01*
X389874Y76716D01*
X390884Y77726D01*
X392041Y78567D01*
X393314Y79215D01*
X394674Y79657D01*
X394769Y79672D01*
X394769Y72831D01*
X387928Y72831D01*
G37*
%LPD*%
D10*
X210900Y104500D03*
X210900Y129900D03*
D11*
X320760Y395600D03*
D12*
X300440Y395600D03*
D11*
X113300Y500700D03*
X189500Y500700D03*
X446960Y155600D03*
D12*
X426640Y155600D03*
D13*
X175293Y340583D03*
X185107Y265017D03*
D11*
X204700Y47200D03*
X230100Y47200D03*
X374900Y160700D03*
X400300Y160700D03*
D14*
X98200Y80800D02*
X98200Y60800D01*
X77720Y117790D02*
X57720Y117790D01*
D15*
X38510Y82300D02*
X38510Y59300D01*
D16*
X85980Y350900D02*
X101220Y350900D01*
X101220Y376300D02*
X85980Y376300D01*
X85980Y401700D02*
X101220Y401700D01*
X101220Y427100D02*
X85980Y427100D01*
X85980Y452500D02*
X101220Y452500D01*
X101220Y190600D02*
X85980Y190600D01*
X85980Y216000D02*
X101220Y216000D01*
X101220Y241400D02*
X85980Y241400D01*
X85980Y266800D02*
X101220Y266800D01*
X101220Y292200D02*
X85980Y292200D01*
X85980Y317600D02*
X101220Y317600D01*
X459480Y202000D02*
X474720Y202000D01*
X474720Y227400D02*
X459480Y227400D01*
X459480Y252800D02*
X474720Y252800D01*
X474720Y278200D02*
X459480Y278200D01*
X459480Y303600D02*
X474720Y303600D01*
X474720Y329000D02*
X459480Y329000D01*
X459480Y354400D02*
X474720Y354400D01*
X474720Y379800D02*
X459480Y379800D01*
X462280Y514000D02*
X477520Y514000D01*
X477520Y488600D02*
X462280Y488600D01*
X462280Y463200D02*
X477520Y463200D01*
X477520Y437800D02*
X462280Y437800D01*
X462280Y412400D02*
X477520Y412400D01*
D17*
X251588Y82006D03*
X316612Y82006D03*
X251588Y36794D03*
X316612Y36794D03*
D18*
X371400Y70800D03*
X396800Y70800D03*
X422200Y70800D03*
D19*
X317600Y174700D03*
X317600Y200100D03*
X317600Y225500D03*
X317600Y250900D03*
X317600Y276300D03*
X317600Y301700D03*
X317600Y327100D03*
X317600Y352500D03*
X317600Y377900D03*
X317600Y403300D03*
X317600Y428700D03*
X317600Y454100D03*
X317600Y479500D03*
X317600Y504900D03*
X241400Y504900D03*
X241400Y479500D03*
X241400Y454100D03*
X241400Y428700D03*
X241400Y403300D03*
X241400Y377900D03*
X241400Y352500D03*
X241400Y327100D03*
X241400Y301700D03*
X241400Y276300D03*
X241400Y250900D03*
X241400Y225500D03*
X241400Y200100D03*
X241400Y174700D03*
D20*
X400600Y326300D03*
X400600Y377100D03*
D21*
X153876Y150000D03*
X106124Y150000D03*
D16*
X293969Y125060D02*
X295482Y109895D01*
X320757Y112418D02*
X319243Y127582D01*
X344518Y130105D02*
X346031Y114940D01*
D22*
X329200Y70800D02*
X371400Y70800D01*
X329200Y70800D02*
X326463Y73537D01*
X364740Y164908D02*
X370692Y170860D01*
X379108Y170860D01*
X385060Y164908D01*
X404508Y150540D02*
X409568Y155600D01*
X426640Y155600D01*
X364740Y111814D02*
X326463Y73537D01*
X385060Y161572D02*
X385060Y164908D01*
X385060Y161572D02*
X396092Y150540D01*
X404508Y150540D01*
X364740Y164908D02*
X364740Y111814D01*
X93600Y452500D02*
X93600Y481000D01*
X113300Y500700D01*
X93600Y452500D02*
X166800Y452500D01*
X241400Y377900D01*
D23*
X304928Y86846D02*
X304928Y77166D01*
X304928Y86846D02*
X311772Y93690D01*
X339297Y93690D01*
X356296Y110689D01*
X385819Y192094D02*
X478823Y192094D01*
X320120Y61974D02*
X304928Y77166D01*
X409282Y70800D02*
X422200Y70800D01*
X356296Y162571D02*
X385819Y192094D01*
X409282Y70800D02*
X400456Y61974D01*
X356296Y110689D02*
X356296Y162571D01*
X320120Y61974D02*
X400456Y61974D01*
X473235Y268294D02*
X324322Y268294D01*
X473235Y268294D02*
X490214Y251315D01*
X490214Y203485D01*
X478823Y192094D01*
X385819Y192094D02*
X369239Y192094D01*
X294726Y117581D02*
X294726Y117477D01*
X294726Y117581D02*
X369239Y192094D01*
D22*
X179691Y351200D02*
X170000Y351200D01*
X203791Y327100D02*
X241400Y327100D01*
X203791Y327100D02*
X179691Y351200D01*
X170000Y351200D02*
X170000Y390000D01*
X130700Y390000D02*
X93600Y427100D01*
X130700Y390000D02*
X170000Y390000D01*
X374900Y160700D02*
X396800Y138800D01*
X396800Y70800D01*
X98200Y70800D02*
X98200Y68200D01*
X90232Y60232D01*
X90232Y60000D01*
X98200Y67968D01*
X98200Y70800D01*
X104653Y70800D01*
X109441Y75588D01*
X201712Y75588D01*
X230100Y47200D01*
X230000Y47300D01*
X230000Y50000D01*
X234412Y54412D01*
X234412Y60000D01*
X264542Y31428D02*
X256954Y23840D01*
X330000Y179197D02*
X330401Y179599D01*
X264542Y105118D02*
X264542Y31428D01*
X256954Y23840D02*
X239092Y23840D01*
X264542Y105118D02*
X330000Y170576D01*
X330000Y179197D01*
X215732Y47200D02*
X204700Y47200D01*
X215732Y47200D02*
X239092Y23840D01*
X204700Y47200D02*
X134556Y47200D01*
X111756Y70000D01*
X111756Y55185D01*
X103815Y47244D01*
X92585Y47244D01*
X84644Y55185D01*
X84644Y70000D01*
X317600Y403300D02*
X326700Y403300D01*
X358196Y371804D02*
X360000Y371804D01*
X358196Y371804D02*
X326700Y403300D01*
X497072Y200644D02*
X481664Y185236D01*
X424836Y185236D02*
X400300Y160700D01*
X424836Y185236D02*
X481664Y185236D01*
X497072Y200644D02*
X497072Y297053D01*
X400600Y326300D02*
X366272Y360628D01*
X400600Y326300D02*
X438472Y326300D01*
X452423Y312349D01*
X481777Y312349D02*
X497072Y297053D01*
X236560Y391616D02*
X229716Y398460D01*
X229716Y460484D02*
X189500Y500700D01*
X236560Y391616D02*
X237968Y391616D01*
X240000Y389584D01*
X229716Y398460D02*
X229716Y460484D01*
X240000Y389584D02*
X246240Y389584D01*
X406876Y263976D02*
X317600Y174700D01*
X313400Y263976D02*
X406876Y263976D01*
X305916Y329908D02*
X246240Y389584D01*
X305916Y271460D02*
X313400Y263976D01*
X305916Y271460D02*
X305916Y329908D01*
X227808Y107040D02*
X219392Y107040D01*
X295468Y174700D02*
X317600Y174700D01*
X295468Y174700D02*
X227808Y107040D01*
X219392Y107040D02*
X206432Y120000D01*
X190000Y120000D01*
X192800Y117200D01*
X210900Y104500D01*
X240260Y48122D02*
X251588Y36794D01*
X240260Y48122D02*
X240260Y51408D01*
X240000Y51668D01*
X240000Y75274D02*
X238634Y76640D01*
X238634Y76766D01*
X210900Y104500D01*
X240000Y75274D02*
X240000Y51668D01*
X175293Y340583D02*
X175293Y343529D01*
X177376Y345612D01*
X177376Y342666D02*
X175293Y340583D01*
X177376Y342666D02*
X177376Y345612D01*
X238010Y403300D02*
X241400Y403300D01*
X238010Y403300D02*
X235395Y400684D01*
X238784Y400684D01*
X241400Y403300D01*
X317600Y200100D02*
X465200Y200100D01*
X467100Y202000D01*
X81351Y438276D02*
X74804Y431729D01*
X479349Y238576D02*
X485896Y232029D01*
X485896Y222771D01*
X93600Y376300D02*
X93600Y378275D01*
X74804Y397071D01*
X81351Y438276D02*
X129627Y438276D01*
X246240Y364184D02*
X275436Y334988D01*
X275436Y276540D01*
X476941Y213816D02*
X485896Y222771D01*
X313400Y238576D02*
X275436Y276540D01*
X313400Y238576D02*
X479349Y238576D01*
X203719Y364184D02*
X129627Y438276D01*
X203719Y364184D02*
X246240Y364184D01*
X331316Y213816D02*
X476941Y213816D01*
X331316Y213816D02*
X317600Y200100D01*
X74804Y397071D02*
X74804Y431729D01*
X317600Y225500D02*
X465200Y225500D01*
X467100Y227400D01*
X182006Y356788D02*
X167685Y356788D01*
X269848Y273252D02*
X317600Y225500D01*
X200010Y338784D02*
X182006Y356788D01*
X200010Y338784D02*
X246240Y338784D01*
X269848Y315176D01*
X269848Y273252D01*
X93600Y381700D02*
X93600Y401700D01*
X93600Y381700D02*
X121785Y353515D01*
X164412Y353515D01*
X167685Y356788D01*
X195069Y157428D02*
X248554Y157428D01*
X258672Y167546D01*
X195069Y157428D02*
X161897Y190600D01*
X93600Y190600D01*
X241400Y292824D02*
X241400Y301700D01*
X258672Y275552D02*
X258672Y167546D01*
X258672Y275552D02*
X241400Y292824D01*
X105849Y328776D02*
X81351Y328776D01*
X69216Y316641D02*
X69216Y242359D01*
X69216Y316641D02*
X81351Y328776D01*
X105849Y328776D02*
X180225Y254400D01*
X224400Y254400D01*
X240000Y270000D01*
X93600Y217975D02*
X93600Y216000D01*
X93600Y217975D02*
X69216Y242359D01*
X74804Y296829D02*
X81351Y303376D01*
X105849Y303376D01*
X183725Y225500D02*
X241400Y225500D01*
X183725Y225500D02*
X105849Y303376D01*
X93600Y243375D02*
X93600Y241400D01*
X93600Y243375D02*
X74804Y262171D01*
X74804Y296829D01*
X246240Y163016D02*
X253084Y169860D01*
X253084Y179540D01*
X197384Y163016D02*
X93600Y266800D01*
X197384Y163016D02*
X246240Y163016D01*
X253084Y179540D02*
X241400Y191224D01*
X241400Y200100D01*
X241400Y174700D02*
X211100Y174700D01*
X93600Y292200D01*
X317600Y250900D02*
X465200Y250900D01*
X467100Y252800D01*
X465200Y276300D02*
X317600Y276300D01*
X465200Y276300D02*
X467100Y278200D01*
X465200Y301700D02*
X317600Y301700D01*
X465200Y301700D02*
X467100Y303600D01*
X467100Y302900D01*
X470000Y300000D01*
X323696Y448004D02*
X317600Y454100D01*
X323696Y448004D02*
X356999Y448004D01*
X419615Y385388D02*
X449263Y385388D01*
X419615Y385388D02*
X356999Y448004D01*
X457651Y448976D02*
X482149Y448976D01*
X449263Y401709D02*
X449263Y385388D01*
X449263Y401709D02*
X445516Y405456D01*
X445516Y436841D01*
X457651Y448976D01*
X497072Y335547D02*
X485896Y324371D01*
X497072Y434053D02*
X482149Y448976D01*
X497072Y434053D02*
X497072Y335547D01*
X485896Y324371D02*
X479349Y317824D01*
X485896Y324371D02*
X485896Y333629D01*
X482014Y337511D01*
X482014Y337986D01*
X452311Y337636D02*
X448304Y333629D01*
X448304Y324371D01*
X454851Y317824D01*
X479349Y317824D01*
X467100Y379800D02*
X417300Y379800D01*
X236560Y491184D02*
X229716Y484340D01*
X229716Y474660D01*
X236560Y467816D01*
X308979Y479500D02*
X317600Y479500D01*
X354684Y442416D02*
X417300Y379800D01*
X287360Y467816D02*
X236560Y467816D01*
X287360Y467816D02*
X312760Y442416D01*
X354684Y442416D01*
X308979Y479500D02*
X297295Y491184D01*
X236560Y491184D01*
X460800Y504900D02*
X469900Y514000D01*
X460800Y504900D02*
X317600Y504900D01*
X301076Y504900D02*
X241400Y504900D01*
X301076Y504900D02*
X312760Y493216D01*
X465284Y493216D02*
X469900Y488600D01*
X465284Y493216D02*
X312760Y493216D01*
X301076Y479500D02*
X241400Y479500D01*
X301076Y479500D02*
X312760Y467816D01*
X465284Y467816D02*
X469900Y463200D01*
X465284Y467816D02*
X312760Y467816D01*
X395708Y365289D02*
X405492Y365289D01*
X479349Y368624D02*
X485896Y375171D01*
X485896Y384429D01*
X479349Y390976D01*
X408827Y368624D02*
X405492Y365289D01*
X467899Y390976D02*
X479349Y390976D01*
X395708Y365289D02*
X343981Y417016D01*
X408827Y368624D02*
X479349Y368624D01*
X278484Y417016D02*
X241400Y454100D01*
X278484Y417016D02*
X343981Y417016D01*
X451104Y407771D02*
X467899Y390976D01*
X451104Y407771D02*
X451104Y419004D01*
X469900Y437800D01*
X469900Y412400D02*
X469900Y408328D01*
X491484Y386744D01*
X491484Y355359D01*
X479349Y343224D01*
X409870Y343224D01*
X386878Y366216D01*
X303884Y366216D01*
X241400Y428700D01*
X210900Y129900D02*
X223600Y124571D01*
X264260Y165231D01*
X264260Y295364D02*
X246240Y313384D01*
X264260Y295364D02*
X264260Y165231D01*
X131116Y313384D02*
X93600Y350900D01*
X131116Y313384D02*
X246240Y313384D01*
D23*
X103086Y93086D02*
X93111Y93086D01*
X103086Y93086D02*
X150000Y140000D01*
X70825Y70800D02*
X38510Y70800D01*
X70825Y70800D02*
X93111Y93086D01*
X150000Y140000D02*
X160000Y140000D01*
X153876Y150000D02*
X150000Y150000D01*
M02*
