G04 EAGLE Gerber RS-274X export*
G75*
%MOMM*%
%FSLAX34Y34*%
%LPD*%
%INSilkscreen Top*%
%IPPOS*%
%AMOC8*
5,1,8,0,0,1.08239X$1,22.5*%
G01*
%ADD10C,0.152400*%
%ADD11C,0.304800*%
%ADD12C,0.050800*%
%ADD13R,0.381000X0.508000*%
%ADD14C,0.203200*%
%ADD15C,0.101600*%
%ADD16R,0.300000X0.300000*%
%ADD17C,0.127000*%
%ADD18C,0.254000*%


D10*
X217250Y95610D02*
X204550Y95610D01*
X204410Y95612D01*
X204270Y95618D01*
X204130Y95627D01*
X203991Y95641D01*
X203852Y95658D01*
X203714Y95679D01*
X203576Y95704D01*
X203439Y95733D01*
X203303Y95765D01*
X203168Y95802D01*
X203034Y95842D01*
X202901Y95885D01*
X202769Y95933D01*
X202638Y95983D01*
X202509Y96038D01*
X202382Y96096D01*
X202256Y96157D01*
X202132Y96222D01*
X202010Y96291D01*
X201890Y96362D01*
X201772Y96437D01*
X201655Y96515D01*
X201541Y96597D01*
X201430Y96681D01*
X201321Y96769D01*
X201214Y96859D01*
X201109Y96953D01*
X201008Y97049D01*
X200909Y97148D01*
X200813Y97249D01*
X200719Y97354D01*
X200629Y97461D01*
X200541Y97570D01*
X200457Y97681D01*
X200375Y97795D01*
X200297Y97912D01*
X200222Y98030D01*
X200151Y98150D01*
X200082Y98272D01*
X200017Y98396D01*
X199956Y98522D01*
X199898Y98649D01*
X199843Y98778D01*
X199793Y98909D01*
X199745Y99041D01*
X199702Y99174D01*
X199662Y99308D01*
X199625Y99443D01*
X199593Y99579D01*
X199564Y99716D01*
X199539Y99854D01*
X199518Y99992D01*
X199501Y100131D01*
X199487Y100270D01*
X199478Y100410D01*
X199472Y100550D01*
X199470Y100690D01*
X217250Y95610D02*
X217390Y95612D01*
X217530Y95618D01*
X217670Y95627D01*
X217809Y95641D01*
X217948Y95658D01*
X218086Y95679D01*
X218224Y95704D01*
X218361Y95733D01*
X218497Y95765D01*
X218632Y95802D01*
X218766Y95842D01*
X218899Y95885D01*
X219031Y95933D01*
X219162Y95983D01*
X219291Y96038D01*
X219418Y96096D01*
X219544Y96157D01*
X219668Y96222D01*
X219790Y96291D01*
X219910Y96362D01*
X220028Y96437D01*
X220145Y96515D01*
X220259Y96597D01*
X220370Y96681D01*
X220479Y96769D01*
X220586Y96859D01*
X220691Y96953D01*
X220792Y97049D01*
X220891Y97148D01*
X220987Y97249D01*
X221081Y97354D01*
X221171Y97461D01*
X221259Y97570D01*
X221343Y97681D01*
X221425Y97795D01*
X221503Y97912D01*
X221578Y98030D01*
X221649Y98150D01*
X221718Y98272D01*
X221783Y98396D01*
X221844Y98522D01*
X221902Y98649D01*
X221957Y98778D01*
X222007Y98909D01*
X222055Y99041D01*
X222098Y99174D01*
X222138Y99308D01*
X222175Y99443D01*
X222207Y99579D01*
X222236Y99716D01*
X222261Y99854D01*
X222282Y99992D01*
X222299Y100131D01*
X222313Y100270D01*
X222322Y100410D01*
X222328Y100550D01*
X222330Y100690D01*
X199470Y100690D02*
X199470Y133710D01*
X204550Y138790D02*
X217250Y138790D01*
X222330Y133710D02*
X222330Y100690D01*
X199470Y133710D02*
X199472Y133850D01*
X199478Y133990D01*
X199487Y134130D01*
X199501Y134269D01*
X199518Y134408D01*
X199539Y134546D01*
X199564Y134684D01*
X199593Y134821D01*
X199625Y134957D01*
X199662Y135092D01*
X199702Y135226D01*
X199745Y135359D01*
X199793Y135491D01*
X199843Y135622D01*
X199898Y135751D01*
X199956Y135878D01*
X200017Y136004D01*
X200082Y136128D01*
X200151Y136250D01*
X200222Y136370D01*
X200297Y136488D01*
X200375Y136605D01*
X200457Y136719D01*
X200541Y136830D01*
X200629Y136939D01*
X200719Y137046D01*
X200813Y137151D01*
X200909Y137252D01*
X201008Y137351D01*
X201109Y137447D01*
X201214Y137541D01*
X201321Y137631D01*
X201430Y137719D01*
X201541Y137803D01*
X201655Y137885D01*
X201772Y137963D01*
X201890Y138038D01*
X202010Y138109D01*
X202132Y138178D01*
X202256Y138243D01*
X202382Y138304D01*
X202509Y138362D01*
X202638Y138417D01*
X202769Y138467D01*
X202901Y138515D01*
X203034Y138558D01*
X203168Y138598D01*
X203303Y138635D01*
X203439Y138667D01*
X203576Y138696D01*
X203714Y138721D01*
X203852Y138742D01*
X203991Y138759D01*
X204130Y138773D01*
X204270Y138782D01*
X204410Y138788D01*
X204550Y138790D01*
X217250Y138790D02*
X217390Y138788D01*
X217530Y138782D01*
X217670Y138773D01*
X217809Y138759D01*
X217948Y138742D01*
X218086Y138721D01*
X218224Y138696D01*
X218361Y138667D01*
X218497Y138635D01*
X218632Y138598D01*
X218766Y138558D01*
X218899Y138515D01*
X219031Y138467D01*
X219162Y138417D01*
X219291Y138362D01*
X219418Y138304D01*
X219544Y138243D01*
X219668Y138178D01*
X219790Y138109D01*
X219910Y138038D01*
X220028Y137963D01*
X220145Y137885D01*
X220259Y137803D01*
X220370Y137719D01*
X220479Y137631D01*
X220586Y137541D01*
X220691Y137447D01*
X220792Y137351D01*
X220891Y137252D01*
X220987Y137151D01*
X221081Y137046D01*
X221171Y136939D01*
X221259Y136830D01*
X221343Y136719D01*
X221425Y136605D01*
X221503Y136488D01*
X221578Y136370D01*
X221649Y136250D01*
X221718Y136128D01*
X221783Y136004D01*
X221844Y135878D01*
X221902Y135751D01*
X221957Y135622D01*
X222007Y135491D01*
X222055Y135359D01*
X222098Y135226D01*
X222138Y135092D01*
X222175Y134957D01*
X222207Y134821D01*
X222236Y134684D01*
X222261Y134546D01*
X222282Y134408D01*
X222299Y134269D01*
X222313Y134130D01*
X222322Y133990D01*
X222328Y133850D01*
X222330Y133710D01*
D11*
X218520Y114152D02*
X203280Y114152D01*
X203280Y120502D02*
X218520Y120502D01*
D12*
X194430Y99674D02*
X194310Y99676D01*
X194190Y99682D01*
X194071Y99691D01*
X193952Y99705D01*
X193833Y99722D01*
X193715Y99744D01*
X193598Y99769D01*
X193481Y99798D01*
X193366Y99830D01*
X193251Y99867D01*
X193138Y99907D01*
X193027Y99950D01*
X192917Y99998D01*
X192808Y100048D01*
X192808Y100049D02*
X192751Y100070D01*
X192697Y100095D01*
X192643Y100124D01*
X192592Y100156D01*
X192544Y100191D01*
X192497Y100229D01*
X192453Y100271D01*
X192412Y100315D01*
X192374Y100361D01*
X192339Y100410D01*
X192307Y100462D01*
X192279Y100515D01*
X192254Y100570D01*
X192233Y100626D01*
X192215Y100684D01*
X192202Y100742D01*
X192192Y100802D01*
X192186Y100862D01*
X192184Y100922D01*
X192186Y100982D01*
X192192Y101042D01*
X192202Y101102D01*
X192215Y101160D01*
X192233Y101218D01*
X192254Y101274D01*
X192279Y101329D01*
X192307Y101382D01*
X192339Y101434D01*
X192374Y101483D01*
X192412Y101529D01*
X192453Y101573D01*
X192497Y101615D01*
X192543Y101653D01*
X192592Y101688D01*
X192643Y101720D01*
X192697Y101749D01*
X192751Y101774D01*
X192808Y101795D01*
X192808Y101796D02*
X192917Y101846D01*
X193027Y101894D01*
X193138Y101937D01*
X193251Y101977D01*
X193366Y102014D01*
X193481Y102046D01*
X193598Y102075D01*
X193715Y102100D01*
X193833Y102122D01*
X193952Y102139D01*
X194071Y102153D01*
X194190Y102162D01*
X194310Y102168D01*
X194430Y102170D01*
X194430Y99674D02*
X194550Y99676D01*
X194670Y99682D01*
X194789Y99691D01*
X194908Y99705D01*
X195027Y99722D01*
X195145Y99744D01*
X195262Y99769D01*
X195379Y99798D01*
X195494Y99830D01*
X195608Y99867D01*
X195722Y99907D01*
X195833Y99950D01*
X195943Y99998D01*
X196052Y100048D01*
X196052Y100049D02*
X196109Y100070D01*
X196163Y100095D01*
X196217Y100124D01*
X196268Y100156D01*
X196317Y100191D01*
X196363Y100229D01*
X196407Y100271D01*
X196448Y100315D01*
X196486Y100361D01*
X196521Y100410D01*
X196553Y100462D01*
X196581Y100515D01*
X196606Y100570D01*
X196627Y100626D01*
X196645Y100684D01*
X196658Y100742D01*
X196668Y100802D01*
X196674Y100862D01*
X196676Y100922D01*
X196052Y101796D02*
X195943Y101846D01*
X195833Y101894D01*
X195722Y101937D01*
X195608Y101977D01*
X195494Y102014D01*
X195379Y102046D01*
X195262Y102075D01*
X195145Y102100D01*
X195027Y102122D01*
X194908Y102139D01*
X194789Y102153D01*
X194670Y102162D01*
X194550Y102168D01*
X194430Y102170D01*
X196052Y101795D02*
X196109Y101774D01*
X196164Y101749D01*
X196217Y101720D01*
X196268Y101688D01*
X196317Y101653D01*
X196363Y101615D01*
X196407Y101573D01*
X196448Y101529D01*
X196486Y101483D01*
X196521Y101434D01*
X196553Y101382D01*
X196581Y101329D01*
X196606Y101274D01*
X196627Y101218D01*
X196645Y101160D01*
X196658Y101102D01*
X196668Y101042D01*
X196674Y100982D01*
X196676Y100922D01*
X195678Y99924D02*
X193182Y101920D01*
X196426Y103947D02*
X196676Y103947D01*
X196426Y103947D02*
X196426Y104197D01*
X196676Y104197D01*
X196676Y103947D01*
X193182Y105974D02*
X192184Y107222D01*
X196676Y107222D01*
X196676Y108469D02*
X196676Y105974D01*
X195428Y110624D02*
X192184Y110624D01*
X195428Y110624D02*
X195497Y110626D01*
X195565Y110632D01*
X195633Y110641D01*
X195701Y110654D01*
X195768Y110671D01*
X195833Y110692D01*
X195898Y110716D01*
X195961Y110743D01*
X196022Y110774D01*
X196082Y110809D01*
X196139Y110846D01*
X196195Y110887D01*
X196248Y110931D01*
X196298Y110977D01*
X196346Y111027D01*
X196391Y111079D01*
X196434Y111133D01*
X196473Y111189D01*
X196509Y111248D01*
X196542Y111308D01*
X196571Y111371D01*
X196597Y111434D01*
X196619Y111499D01*
X196638Y111566D01*
X196653Y111633D01*
X196664Y111701D01*
X196672Y111769D01*
X196676Y111838D01*
X196676Y111906D01*
X196672Y111975D01*
X196664Y112043D01*
X196653Y112111D01*
X196638Y112178D01*
X196619Y112245D01*
X196597Y112310D01*
X196571Y112373D01*
X196542Y112436D01*
X196509Y112496D01*
X196473Y112555D01*
X196434Y112611D01*
X196391Y112665D01*
X196346Y112717D01*
X196298Y112767D01*
X196248Y112813D01*
X196195Y112857D01*
X196139Y112898D01*
X196082Y112935D01*
X196022Y112970D01*
X195961Y113001D01*
X195898Y113028D01*
X195833Y113052D01*
X195768Y113073D01*
X195701Y113090D01*
X195633Y113103D01*
X195565Y113112D01*
X195497Y113118D01*
X195428Y113120D01*
X195428Y113119D02*
X192184Y113119D01*
X192184Y115434D02*
X196676Y115434D01*
X192184Y115434D02*
X192184Y117430D01*
X194180Y117430D02*
X194180Y115434D01*
D10*
X297900Y413380D02*
X302980Y413380D01*
X300440Y410840D02*
X300440Y415920D01*
X285200Y395600D02*
X285208Y396223D01*
X285231Y396846D01*
X285269Y397469D01*
X285322Y398090D01*
X285391Y398709D01*
X285475Y399327D01*
X285574Y399942D01*
X285688Y400555D01*
X285817Y401165D01*
X285961Y401772D01*
X286120Y402375D01*
X286294Y402973D01*
X286482Y403568D01*
X286685Y404157D01*
X286902Y404741D01*
X287133Y405320D01*
X287379Y405893D01*
X287639Y406460D01*
X287912Y407020D01*
X288199Y407573D01*
X288500Y408120D01*
X288814Y408658D01*
X289141Y409189D01*
X289481Y409711D01*
X289833Y410226D01*
X290199Y410731D01*
X290576Y411227D01*
X290966Y411714D01*
X291367Y412191D01*
X291780Y412658D01*
X292204Y413114D01*
X292639Y413561D01*
X293086Y413996D01*
X293542Y414420D01*
X294009Y414833D01*
X294486Y415234D01*
X294973Y415624D01*
X295469Y416001D01*
X295974Y416367D01*
X296489Y416719D01*
X297011Y417059D01*
X297542Y417386D01*
X298080Y417700D01*
X298627Y418001D01*
X299180Y418288D01*
X299740Y418561D01*
X300307Y418821D01*
X300880Y419067D01*
X301459Y419298D01*
X302043Y419515D01*
X302632Y419718D01*
X303227Y419906D01*
X303825Y420080D01*
X304428Y420239D01*
X305035Y420383D01*
X305645Y420512D01*
X306258Y420626D01*
X306873Y420725D01*
X307491Y420809D01*
X308110Y420878D01*
X308731Y420931D01*
X309354Y420969D01*
X309977Y420992D01*
X310600Y421000D01*
X311223Y420992D01*
X311846Y420969D01*
X312469Y420931D01*
X313090Y420878D01*
X313709Y420809D01*
X314327Y420725D01*
X314942Y420626D01*
X315555Y420512D01*
X316165Y420383D01*
X316772Y420239D01*
X317375Y420080D01*
X317973Y419906D01*
X318568Y419718D01*
X319157Y419515D01*
X319741Y419298D01*
X320320Y419067D01*
X320893Y418821D01*
X321460Y418561D01*
X322020Y418288D01*
X322573Y418001D01*
X323120Y417700D01*
X323658Y417386D01*
X324189Y417059D01*
X324711Y416719D01*
X325226Y416367D01*
X325731Y416001D01*
X326227Y415624D01*
X326714Y415234D01*
X327191Y414833D01*
X327658Y414420D01*
X328114Y413996D01*
X328561Y413561D01*
X328996Y413114D01*
X329420Y412658D01*
X329833Y412191D01*
X330234Y411714D01*
X330624Y411227D01*
X331001Y410731D01*
X331367Y410226D01*
X331719Y409711D01*
X332059Y409189D01*
X332386Y408658D01*
X332700Y408120D01*
X333001Y407573D01*
X333288Y407020D01*
X333561Y406460D01*
X333821Y405893D01*
X334067Y405320D01*
X334298Y404741D01*
X334515Y404157D01*
X334718Y403568D01*
X334906Y402973D01*
X335080Y402375D01*
X335239Y401772D01*
X335383Y401165D01*
X335512Y400555D01*
X335626Y399942D01*
X335725Y399327D01*
X335809Y398709D01*
X335878Y398090D01*
X335931Y397469D01*
X335969Y396846D01*
X335992Y396223D01*
X336000Y395600D01*
X335992Y394977D01*
X335969Y394354D01*
X335931Y393731D01*
X335878Y393110D01*
X335809Y392491D01*
X335725Y391873D01*
X335626Y391258D01*
X335512Y390645D01*
X335383Y390035D01*
X335239Y389428D01*
X335080Y388825D01*
X334906Y388227D01*
X334718Y387632D01*
X334515Y387043D01*
X334298Y386459D01*
X334067Y385880D01*
X333821Y385307D01*
X333561Y384740D01*
X333288Y384180D01*
X333001Y383627D01*
X332700Y383080D01*
X332386Y382542D01*
X332059Y382011D01*
X331719Y381489D01*
X331367Y380974D01*
X331001Y380469D01*
X330624Y379973D01*
X330234Y379486D01*
X329833Y379009D01*
X329420Y378542D01*
X328996Y378086D01*
X328561Y377639D01*
X328114Y377204D01*
X327658Y376780D01*
X327191Y376367D01*
X326714Y375966D01*
X326227Y375576D01*
X325731Y375199D01*
X325226Y374833D01*
X324711Y374481D01*
X324189Y374141D01*
X323658Y373814D01*
X323120Y373500D01*
X322573Y373199D01*
X322020Y372912D01*
X321460Y372639D01*
X320893Y372379D01*
X320320Y372133D01*
X319741Y371902D01*
X319157Y371685D01*
X318568Y371482D01*
X317973Y371294D01*
X317375Y371120D01*
X316772Y370961D01*
X316165Y370817D01*
X315555Y370688D01*
X314942Y370574D01*
X314327Y370475D01*
X313709Y370391D01*
X313090Y370322D01*
X312469Y370269D01*
X311846Y370231D01*
X311223Y370208D01*
X310600Y370200D01*
X309977Y370208D01*
X309354Y370231D01*
X308731Y370269D01*
X308110Y370322D01*
X307491Y370391D01*
X306873Y370475D01*
X306258Y370574D01*
X305645Y370688D01*
X305035Y370817D01*
X304428Y370961D01*
X303825Y371120D01*
X303227Y371294D01*
X302632Y371482D01*
X302043Y371685D01*
X301459Y371902D01*
X300880Y372133D01*
X300307Y372379D01*
X299740Y372639D01*
X299180Y372912D01*
X298627Y373199D01*
X298080Y373500D01*
X297542Y373814D01*
X297011Y374141D01*
X296489Y374481D01*
X295974Y374833D01*
X295469Y375199D01*
X294973Y375576D01*
X294486Y375966D01*
X294009Y376367D01*
X293542Y376780D01*
X293086Y377204D01*
X292639Y377639D01*
X292204Y378086D01*
X291780Y378542D01*
X291367Y379009D01*
X290966Y379486D01*
X290576Y379973D01*
X290199Y380469D01*
X289833Y380974D01*
X289481Y381489D01*
X289141Y382011D01*
X288814Y382542D01*
X288500Y383080D01*
X288199Y383627D01*
X287912Y384180D01*
X287639Y384740D01*
X287379Y385307D01*
X287133Y385880D01*
X286902Y386459D01*
X286685Y387043D01*
X286482Y387632D01*
X286294Y388227D01*
X286120Y388825D01*
X285961Y389428D01*
X285817Y390035D01*
X285688Y390645D01*
X285574Y391258D01*
X285475Y391873D01*
X285391Y392491D01*
X285322Y393110D01*
X285269Y393731D01*
X285231Y394354D01*
X285208Y394977D01*
X285200Y395600D01*
D12*
X336254Y409508D02*
X337502Y410506D01*
X337502Y406014D01*
X336254Y406014D02*
X338750Y406014D01*
X340754Y408260D02*
X340756Y408380D01*
X340762Y408500D01*
X340771Y408619D01*
X340785Y408738D01*
X340802Y408857D01*
X340824Y408975D01*
X340849Y409092D01*
X340878Y409209D01*
X340910Y409324D01*
X340947Y409439D01*
X340987Y409552D01*
X341030Y409663D01*
X341078Y409774D01*
X341128Y409882D01*
X341129Y409882D02*
X341150Y409939D01*
X341175Y409993D01*
X341204Y410047D01*
X341236Y410098D01*
X341271Y410147D01*
X341309Y410193D01*
X341351Y410237D01*
X341395Y410278D01*
X341441Y410316D01*
X341490Y410351D01*
X341542Y410383D01*
X341595Y410411D01*
X341650Y410436D01*
X341706Y410457D01*
X341764Y410475D01*
X341822Y410488D01*
X341882Y410498D01*
X341942Y410504D01*
X342002Y410506D01*
X342062Y410504D01*
X342122Y410498D01*
X342182Y410488D01*
X342240Y410475D01*
X342298Y410457D01*
X342354Y410436D01*
X342409Y410411D01*
X342462Y410383D01*
X342514Y410351D01*
X342563Y410316D01*
X342609Y410278D01*
X342653Y410237D01*
X342695Y410193D01*
X342733Y410147D01*
X342768Y410098D01*
X342800Y410047D01*
X342829Y409993D01*
X342854Y409939D01*
X342875Y409882D01*
X342876Y409882D02*
X342926Y409774D01*
X342974Y409663D01*
X343017Y409552D01*
X343057Y409439D01*
X343094Y409324D01*
X343126Y409209D01*
X343155Y409092D01*
X343180Y408975D01*
X343202Y408857D01*
X343219Y408738D01*
X343233Y408619D01*
X343242Y408500D01*
X343248Y408380D01*
X343250Y408260D01*
X340754Y408260D02*
X340756Y408140D01*
X340762Y408020D01*
X340771Y407901D01*
X340785Y407782D01*
X340802Y407663D01*
X340824Y407545D01*
X340849Y407428D01*
X340878Y407311D01*
X340910Y407196D01*
X340947Y407082D01*
X340987Y406968D01*
X341030Y406857D01*
X341078Y406747D01*
X341128Y406638D01*
X341129Y406638D02*
X341150Y406581D01*
X341175Y406527D01*
X341204Y406473D01*
X341236Y406422D01*
X341271Y406373D01*
X341309Y406327D01*
X341351Y406283D01*
X341395Y406242D01*
X341441Y406204D01*
X341490Y406169D01*
X341542Y406137D01*
X341595Y406109D01*
X341650Y406084D01*
X341706Y406063D01*
X341764Y406045D01*
X341822Y406032D01*
X341882Y406022D01*
X341942Y406016D01*
X342002Y406014D01*
X342876Y406638D02*
X342926Y406747D01*
X342974Y406857D01*
X343017Y406968D01*
X343057Y407082D01*
X343094Y407196D01*
X343126Y407311D01*
X343155Y407428D01*
X343180Y407545D01*
X343202Y407663D01*
X343219Y407782D01*
X343233Y407901D01*
X343242Y408020D01*
X343248Y408140D01*
X343250Y408260D01*
X342875Y406638D02*
X342854Y406581D01*
X342829Y406526D01*
X342800Y406473D01*
X342768Y406422D01*
X342733Y406373D01*
X342695Y406327D01*
X342653Y406283D01*
X342609Y406242D01*
X342563Y406204D01*
X342514Y406169D01*
X342462Y406137D01*
X342409Y406109D01*
X342354Y406084D01*
X342298Y406063D01*
X342240Y406045D01*
X342182Y406032D01*
X342122Y406022D01*
X342062Y406016D01*
X342002Y406014D01*
X341004Y407012D02*
X343000Y409508D01*
D10*
X128540Y510860D02*
X128440Y510858D01*
X128341Y510852D01*
X128241Y510842D01*
X128143Y510829D01*
X128044Y510811D01*
X127947Y510790D01*
X127851Y510765D01*
X127755Y510736D01*
X127661Y510703D01*
X127568Y510667D01*
X127477Y510627D01*
X127387Y510583D01*
X127299Y510536D01*
X127213Y510486D01*
X127129Y510432D01*
X127047Y510375D01*
X126968Y510315D01*
X126890Y510251D01*
X126816Y510185D01*
X126744Y510116D01*
X126675Y510044D01*
X126609Y509970D01*
X126545Y509892D01*
X126485Y509813D01*
X126428Y509731D01*
X126374Y509647D01*
X126324Y509561D01*
X126277Y509473D01*
X126233Y509383D01*
X126193Y509292D01*
X126157Y509199D01*
X126124Y509105D01*
X126095Y509009D01*
X126070Y508913D01*
X126049Y508816D01*
X126031Y508717D01*
X126018Y508619D01*
X126008Y508519D01*
X126002Y508420D01*
X126000Y508320D01*
X126000Y493080D02*
X126002Y492980D01*
X126008Y492881D01*
X126018Y492781D01*
X126031Y492683D01*
X126049Y492584D01*
X126070Y492487D01*
X126095Y492391D01*
X126124Y492295D01*
X126157Y492201D01*
X126193Y492108D01*
X126233Y492017D01*
X126277Y491927D01*
X126324Y491839D01*
X126374Y491753D01*
X126428Y491669D01*
X126485Y491587D01*
X126545Y491508D01*
X126609Y491430D01*
X126675Y491356D01*
X126744Y491284D01*
X126816Y491215D01*
X126890Y491149D01*
X126968Y491085D01*
X127047Y491025D01*
X127129Y490968D01*
X127213Y490914D01*
X127299Y490864D01*
X127387Y490817D01*
X127477Y490773D01*
X127568Y490733D01*
X127661Y490697D01*
X127755Y490664D01*
X127851Y490635D01*
X127947Y490610D01*
X128044Y490589D01*
X128143Y490571D01*
X128241Y490558D01*
X128341Y490548D01*
X128440Y490542D01*
X128540Y490540D01*
X174260Y490540D02*
X174360Y490542D01*
X174459Y490548D01*
X174559Y490558D01*
X174657Y490571D01*
X174756Y490589D01*
X174853Y490610D01*
X174949Y490635D01*
X175045Y490664D01*
X175139Y490697D01*
X175232Y490733D01*
X175323Y490773D01*
X175413Y490817D01*
X175501Y490864D01*
X175587Y490914D01*
X175671Y490968D01*
X175753Y491025D01*
X175832Y491085D01*
X175910Y491149D01*
X175984Y491215D01*
X176056Y491284D01*
X176125Y491356D01*
X176191Y491430D01*
X176255Y491508D01*
X176315Y491587D01*
X176372Y491669D01*
X176426Y491753D01*
X176476Y491839D01*
X176523Y491927D01*
X176567Y492017D01*
X176607Y492108D01*
X176643Y492201D01*
X176676Y492295D01*
X176705Y492391D01*
X176730Y492487D01*
X176751Y492584D01*
X176769Y492683D01*
X176782Y492781D01*
X176792Y492881D01*
X176798Y492980D01*
X176800Y493080D01*
X176800Y508320D02*
X176798Y508420D01*
X176792Y508519D01*
X176782Y508619D01*
X176769Y508717D01*
X176751Y508816D01*
X176730Y508913D01*
X176705Y509009D01*
X176676Y509105D01*
X176643Y509199D01*
X176607Y509292D01*
X176567Y509383D01*
X176523Y509473D01*
X176476Y509561D01*
X176426Y509647D01*
X176372Y509731D01*
X176315Y509813D01*
X176255Y509892D01*
X176191Y509970D01*
X176125Y510044D01*
X176056Y510116D01*
X175984Y510185D01*
X175910Y510251D01*
X175832Y510315D01*
X175753Y510375D01*
X175671Y510432D01*
X175587Y510486D01*
X175501Y510536D01*
X175413Y510583D01*
X175323Y510627D01*
X175232Y510667D01*
X175139Y510703D01*
X175045Y510736D01*
X174949Y510765D01*
X174853Y510790D01*
X174756Y510811D01*
X174657Y510829D01*
X174559Y510842D01*
X174459Y510852D01*
X174360Y510858D01*
X174260Y510860D01*
X126000Y508320D02*
X126000Y493080D01*
X128540Y510860D02*
X132350Y510860D01*
X133620Y509590D01*
X132350Y490540D02*
X128540Y490540D01*
X132350Y490540D02*
X133620Y491810D01*
X169180Y509590D02*
X170450Y510860D01*
X169180Y509590D02*
X133620Y509590D01*
X169180Y491810D02*
X170450Y490540D01*
X169180Y491810D02*
X133620Y491810D01*
X170450Y510860D02*
X174260Y510860D01*
X174260Y490540D02*
X170450Y490540D01*
X176800Y493080D02*
X176800Y508320D01*
D13*
X178705Y500700D03*
X124095Y500700D03*
D12*
X126254Y517402D02*
X127502Y518400D01*
X127502Y513908D01*
X126254Y513908D02*
X128750Y513908D01*
X130754Y516154D02*
X130756Y516274D01*
X130762Y516394D01*
X130771Y516513D01*
X130785Y516632D01*
X130802Y516751D01*
X130824Y516869D01*
X130849Y516986D01*
X130878Y517103D01*
X130910Y517218D01*
X130947Y517333D01*
X130987Y517446D01*
X131030Y517557D01*
X131078Y517668D01*
X131128Y517776D01*
X131129Y517776D02*
X131150Y517833D01*
X131175Y517887D01*
X131204Y517941D01*
X131236Y517992D01*
X131271Y518041D01*
X131309Y518087D01*
X131351Y518131D01*
X131395Y518172D01*
X131441Y518210D01*
X131490Y518245D01*
X131542Y518277D01*
X131595Y518305D01*
X131650Y518330D01*
X131706Y518351D01*
X131764Y518369D01*
X131822Y518382D01*
X131882Y518392D01*
X131942Y518398D01*
X132002Y518400D01*
X132062Y518398D01*
X132122Y518392D01*
X132182Y518382D01*
X132240Y518369D01*
X132298Y518351D01*
X132354Y518330D01*
X132409Y518305D01*
X132462Y518277D01*
X132514Y518245D01*
X132563Y518210D01*
X132609Y518172D01*
X132653Y518131D01*
X132695Y518087D01*
X132733Y518041D01*
X132768Y517992D01*
X132800Y517941D01*
X132829Y517887D01*
X132854Y517833D01*
X132875Y517776D01*
X132876Y517776D02*
X132926Y517668D01*
X132974Y517557D01*
X133017Y517446D01*
X133057Y517333D01*
X133094Y517218D01*
X133126Y517103D01*
X133155Y516986D01*
X133180Y516869D01*
X133202Y516751D01*
X133219Y516632D01*
X133233Y516513D01*
X133242Y516394D01*
X133248Y516274D01*
X133250Y516154D01*
X130754Y516154D02*
X130756Y516034D01*
X130762Y515914D01*
X130771Y515795D01*
X130785Y515676D01*
X130802Y515557D01*
X130824Y515439D01*
X130849Y515322D01*
X130878Y515205D01*
X130910Y515090D01*
X130947Y514976D01*
X130987Y514862D01*
X131030Y514751D01*
X131078Y514641D01*
X131128Y514532D01*
X131129Y514532D02*
X131150Y514475D01*
X131175Y514421D01*
X131204Y514367D01*
X131236Y514316D01*
X131271Y514267D01*
X131309Y514221D01*
X131351Y514177D01*
X131395Y514136D01*
X131441Y514098D01*
X131490Y514063D01*
X131542Y514031D01*
X131595Y514003D01*
X131650Y513978D01*
X131706Y513957D01*
X131764Y513939D01*
X131822Y513926D01*
X131882Y513916D01*
X131942Y513910D01*
X132002Y513908D01*
X132876Y514532D02*
X132926Y514641D01*
X132974Y514751D01*
X133017Y514862D01*
X133057Y514976D01*
X133094Y515090D01*
X133126Y515205D01*
X133155Y515322D01*
X133180Y515439D01*
X133202Y515557D01*
X133219Y515676D01*
X133233Y515795D01*
X133242Y515914D01*
X133248Y516034D01*
X133250Y516154D01*
X132875Y514532D02*
X132854Y514475D01*
X132829Y514420D01*
X132800Y514367D01*
X132768Y514316D01*
X132733Y514267D01*
X132695Y514221D01*
X132653Y514177D01*
X132609Y514136D01*
X132563Y514098D01*
X132514Y514063D01*
X132462Y514031D01*
X132409Y514003D01*
X132354Y513978D01*
X132298Y513957D01*
X132240Y513939D01*
X132182Y513926D01*
X132122Y513916D01*
X132062Y513910D01*
X132002Y513908D01*
X131004Y514906D02*
X133000Y517402D01*
X135480Y518400D02*
X135480Y513908D01*
X135480Y515655D02*
X137975Y518400D01*
X136478Y516653D02*
X137975Y513908D01*
D10*
X424100Y173380D02*
X429180Y173380D01*
X426640Y170840D02*
X426640Y175920D01*
X411400Y155600D02*
X411408Y156223D01*
X411431Y156846D01*
X411469Y157469D01*
X411522Y158090D01*
X411591Y158709D01*
X411675Y159327D01*
X411774Y159942D01*
X411888Y160555D01*
X412017Y161165D01*
X412161Y161772D01*
X412320Y162375D01*
X412494Y162973D01*
X412682Y163568D01*
X412885Y164157D01*
X413102Y164741D01*
X413333Y165320D01*
X413579Y165893D01*
X413839Y166460D01*
X414112Y167020D01*
X414399Y167573D01*
X414700Y168120D01*
X415014Y168658D01*
X415341Y169189D01*
X415681Y169711D01*
X416033Y170226D01*
X416399Y170731D01*
X416776Y171227D01*
X417166Y171714D01*
X417567Y172191D01*
X417980Y172658D01*
X418404Y173114D01*
X418839Y173561D01*
X419286Y173996D01*
X419742Y174420D01*
X420209Y174833D01*
X420686Y175234D01*
X421173Y175624D01*
X421669Y176001D01*
X422174Y176367D01*
X422689Y176719D01*
X423211Y177059D01*
X423742Y177386D01*
X424280Y177700D01*
X424827Y178001D01*
X425380Y178288D01*
X425940Y178561D01*
X426507Y178821D01*
X427080Y179067D01*
X427659Y179298D01*
X428243Y179515D01*
X428832Y179718D01*
X429427Y179906D01*
X430025Y180080D01*
X430628Y180239D01*
X431235Y180383D01*
X431845Y180512D01*
X432458Y180626D01*
X433073Y180725D01*
X433691Y180809D01*
X434310Y180878D01*
X434931Y180931D01*
X435554Y180969D01*
X436177Y180992D01*
X436800Y181000D01*
X437423Y180992D01*
X438046Y180969D01*
X438669Y180931D01*
X439290Y180878D01*
X439909Y180809D01*
X440527Y180725D01*
X441142Y180626D01*
X441755Y180512D01*
X442365Y180383D01*
X442972Y180239D01*
X443575Y180080D01*
X444173Y179906D01*
X444768Y179718D01*
X445357Y179515D01*
X445941Y179298D01*
X446520Y179067D01*
X447093Y178821D01*
X447660Y178561D01*
X448220Y178288D01*
X448773Y178001D01*
X449320Y177700D01*
X449858Y177386D01*
X450389Y177059D01*
X450911Y176719D01*
X451426Y176367D01*
X451931Y176001D01*
X452427Y175624D01*
X452914Y175234D01*
X453391Y174833D01*
X453858Y174420D01*
X454314Y173996D01*
X454761Y173561D01*
X455196Y173114D01*
X455620Y172658D01*
X456033Y172191D01*
X456434Y171714D01*
X456824Y171227D01*
X457201Y170731D01*
X457567Y170226D01*
X457919Y169711D01*
X458259Y169189D01*
X458586Y168658D01*
X458900Y168120D01*
X459201Y167573D01*
X459488Y167020D01*
X459761Y166460D01*
X460021Y165893D01*
X460267Y165320D01*
X460498Y164741D01*
X460715Y164157D01*
X460918Y163568D01*
X461106Y162973D01*
X461280Y162375D01*
X461439Y161772D01*
X461583Y161165D01*
X461712Y160555D01*
X461826Y159942D01*
X461925Y159327D01*
X462009Y158709D01*
X462078Y158090D01*
X462131Y157469D01*
X462169Y156846D01*
X462192Y156223D01*
X462200Y155600D01*
X462192Y154977D01*
X462169Y154354D01*
X462131Y153731D01*
X462078Y153110D01*
X462009Y152491D01*
X461925Y151873D01*
X461826Y151258D01*
X461712Y150645D01*
X461583Y150035D01*
X461439Y149428D01*
X461280Y148825D01*
X461106Y148227D01*
X460918Y147632D01*
X460715Y147043D01*
X460498Y146459D01*
X460267Y145880D01*
X460021Y145307D01*
X459761Y144740D01*
X459488Y144180D01*
X459201Y143627D01*
X458900Y143080D01*
X458586Y142542D01*
X458259Y142011D01*
X457919Y141489D01*
X457567Y140974D01*
X457201Y140469D01*
X456824Y139973D01*
X456434Y139486D01*
X456033Y139009D01*
X455620Y138542D01*
X455196Y138086D01*
X454761Y137639D01*
X454314Y137204D01*
X453858Y136780D01*
X453391Y136367D01*
X452914Y135966D01*
X452427Y135576D01*
X451931Y135199D01*
X451426Y134833D01*
X450911Y134481D01*
X450389Y134141D01*
X449858Y133814D01*
X449320Y133500D01*
X448773Y133199D01*
X448220Y132912D01*
X447660Y132639D01*
X447093Y132379D01*
X446520Y132133D01*
X445941Y131902D01*
X445357Y131685D01*
X444768Y131482D01*
X444173Y131294D01*
X443575Y131120D01*
X442972Y130961D01*
X442365Y130817D01*
X441755Y130688D01*
X441142Y130574D01*
X440527Y130475D01*
X439909Y130391D01*
X439290Y130322D01*
X438669Y130269D01*
X438046Y130231D01*
X437423Y130208D01*
X436800Y130200D01*
X436177Y130208D01*
X435554Y130231D01*
X434931Y130269D01*
X434310Y130322D01*
X433691Y130391D01*
X433073Y130475D01*
X432458Y130574D01*
X431845Y130688D01*
X431235Y130817D01*
X430628Y130961D01*
X430025Y131120D01*
X429427Y131294D01*
X428832Y131482D01*
X428243Y131685D01*
X427659Y131902D01*
X427080Y132133D01*
X426507Y132379D01*
X425940Y132639D01*
X425380Y132912D01*
X424827Y133199D01*
X424280Y133500D01*
X423742Y133814D01*
X423211Y134141D01*
X422689Y134481D01*
X422174Y134833D01*
X421669Y135199D01*
X421173Y135576D01*
X420686Y135966D01*
X420209Y136367D01*
X419742Y136780D01*
X419286Y137204D01*
X418839Y137639D01*
X418404Y138086D01*
X417980Y138542D01*
X417567Y139009D01*
X417166Y139486D01*
X416776Y139973D01*
X416399Y140469D01*
X416033Y140974D01*
X415681Y141489D01*
X415341Y142011D01*
X415014Y142542D01*
X414700Y143080D01*
X414399Y143627D01*
X414112Y144180D01*
X413839Y144740D01*
X413579Y145307D01*
X413333Y145880D01*
X413102Y146459D01*
X412885Y147043D01*
X412682Y147632D01*
X412494Y148227D01*
X412320Y148825D01*
X412161Y149428D01*
X412017Y150035D01*
X411888Y150645D01*
X411774Y151258D01*
X411675Y151873D01*
X411591Y152491D01*
X411522Y153110D01*
X411469Y153731D01*
X411431Y154354D01*
X411408Y154977D01*
X411400Y155600D01*
D12*
X462454Y169508D02*
X463702Y170506D01*
X463702Y166014D01*
X462454Y166014D02*
X464950Y166014D01*
X466954Y168260D02*
X466956Y168380D01*
X466962Y168500D01*
X466971Y168619D01*
X466985Y168738D01*
X467002Y168857D01*
X467024Y168975D01*
X467049Y169092D01*
X467078Y169209D01*
X467110Y169324D01*
X467147Y169439D01*
X467187Y169552D01*
X467230Y169663D01*
X467278Y169774D01*
X467328Y169882D01*
X467329Y169882D02*
X467350Y169939D01*
X467375Y169993D01*
X467404Y170047D01*
X467436Y170098D01*
X467471Y170147D01*
X467509Y170193D01*
X467551Y170237D01*
X467595Y170278D01*
X467641Y170316D01*
X467690Y170351D01*
X467742Y170383D01*
X467795Y170411D01*
X467850Y170436D01*
X467906Y170457D01*
X467964Y170475D01*
X468022Y170488D01*
X468082Y170498D01*
X468142Y170504D01*
X468202Y170506D01*
X468262Y170504D01*
X468322Y170498D01*
X468382Y170488D01*
X468440Y170475D01*
X468498Y170457D01*
X468554Y170436D01*
X468609Y170411D01*
X468662Y170383D01*
X468714Y170351D01*
X468763Y170316D01*
X468809Y170278D01*
X468853Y170237D01*
X468895Y170193D01*
X468933Y170147D01*
X468968Y170098D01*
X469000Y170047D01*
X469029Y169993D01*
X469054Y169939D01*
X469075Y169882D01*
X469076Y169882D02*
X469126Y169774D01*
X469174Y169663D01*
X469217Y169552D01*
X469257Y169439D01*
X469294Y169324D01*
X469326Y169209D01*
X469355Y169092D01*
X469380Y168975D01*
X469402Y168857D01*
X469419Y168738D01*
X469433Y168619D01*
X469442Y168500D01*
X469448Y168380D01*
X469450Y168260D01*
X466954Y168260D02*
X466956Y168140D01*
X466962Y168020D01*
X466971Y167901D01*
X466985Y167782D01*
X467002Y167663D01*
X467024Y167545D01*
X467049Y167428D01*
X467078Y167311D01*
X467110Y167196D01*
X467147Y167082D01*
X467187Y166968D01*
X467230Y166857D01*
X467278Y166747D01*
X467328Y166638D01*
X467329Y166638D02*
X467350Y166581D01*
X467375Y166527D01*
X467404Y166473D01*
X467436Y166422D01*
X467471Y166373D01*
X467509Y166327D01*
X467551Y166283D01*
X467595Y166242D01*
X467641Y166204D01*
X467690Y166169D01*
X467742Y166137D01*
X467795Y166109D01*
X467850Y166084D01*
X467906Y166063D01*
X467964Y166045D01*
X468022Y166032D01*
X468082Y166022D01*
X468142Y166016D01*
X468202Y166014D01*
X469076Y166638D02*
X469126Y166747D01*
X469174Y166857D01*
X469217Y166968D01*
X469257Y167082D01*
X469294Y167196D01*
X469326Y167311D01*
X469355Y167428D01*
X469380Y167545D01*
X469402Y167663D01*
X469419Y167782D01*
X469433Y167901D01*
X469442Y168020D01*
X469448Y168140D01*
X469450Y168260D01*
X469075Y166638D02*
X469054Y166581D01*
X469029Y166526D01*
X469000Y166473D01*
X468968Y166422D01*
X468933Y166373D01*
X468895Y166327D01*
X468853Y166283D01*
X468809Y166242D01*
X468763Y166204D01*
X468714Y166169D01*
X468662Y166137D01*
X468609Y166109D01*
X468554Y166084D01*
X468498Y166063D01*
X468440Y166045D01*
X468382Y166032D01*
X468322Y166022D01*
X468262Y166016D01*
X468202Y166014D01*
X467204Y167012D02*
X469200Y169508D01*
X471604Y170506D02*
X471604Y167262D01*
X471606Y167193D01*
X471612Y167125D01*
X471621Y167057D01*
X471634Y166989D01*
X471651Y166922D01*
X471672Y166857D01*
X471696Y166792D01*
X471723Y166729D01*
X471754Y166668D01*
X471789Y166608D01*
X471826Y166551D01*
X471867Y166495D01*
X471911Y166442D01*
X471957Y166392D01*
X472007Y166344D01*
X472059Y166299D01*
X472113Y166256D01*
X472169Y166217D01*
X472228Y166181D01*
X472288Y166148D01*
X472351Y166119D01*
X472414Y166093D01*
X472479Y166071D01*
X472546Y166052D01*
X472613Y166037D01*
X472681Y166026D01*
X472749Y166018D01*
X472818Y166014D01*
X472886Y166014D01*
X472955Y166018D01*
X473023Y166026D01*
X473091Y166037D01*
X473158Y166052D01*
X473225Y166071D01*
X473290Y166093D01*
X473353Y166119D01*
X473416Y166148D01*
X473476Y166181D01*
X473535Y166217D01*
X473591Y166256D01*
X473645Y166299D01*
X473697Y166344D01*
X473747Y166392D01*
X473793Y166442D01*
X473837Y166495D01*
X473878Y166551D01*
X473915Y166608D01*
X473950Y166668D01*
X473981Y166729D01*
X474008Y166792D01*
X474032Y166857D01*
X474053Y166922D01*
X474070Y166989D01*
X474083Y167057D01*
X474092Y167125D01*
X474098Y167193D01*
X474100Y167262D01*
X474099Y167262D02*
X474099Y170506D01*
X476414Y170506D02*
X476414Y166014D01*
X476414Y170506D02*
X478410Y170506D01*
X478410Y168510D02*
X476414Y168510D01*
D10*
X187773Y333239D02*
X187758Y333338D01*
X187739Y333436D01*
X187717Y333533D01*
X187691Y333629D01*
X187661Y333724D01*
X187627Y333818D01*
X187589Y333911D01*
X187548Y334001D01*
X187504Y334091D01*
X187456Y334178D01*
X187405Y334264D01*
X187350Y334347D01*
X187292Y334428D01*
X187231Y334507D01*
X187167Y334583D01*
X187099Y334657D01*
X187030Y334728D01*
X186957Y334797D01*
X186882Y334862D01*
X186804Y334924D01*
X186724Y334984D01*
X186641Y335040D01*
X186556Y335093D01*
X186470Y335142D01*
X186381Y335188D01*
X186291Y335231D01*
X186199Y335270D01*
X186106Y335305D01*
X186011Y335336D01*
X185916Y335364D01*
X185819Y335388D01*
X185721Y335409D01*
X185623Y335425D01*
X185524Y335438D01*
X185425Y335446D01*
X185325Y335451D01*
X185225Y335452D01*
X185125Y335449D01*
X185026Y335442D01*
X184927Y335431D01*
X167295Y333141D02*
X167196Y333126D01*
X167098Y333107D01*
X167001Y333085D01*
X166905Y333059D01*
X166810Y333029D01*
X166716Y332995D01*
X166623Y332957D01*
X166533Y332916D01*
X166443Y332872D01*
X166356Y332824D01*
X166270Y332773D01*
X166187Y332718D01*
X166106Y332660D01*
X166027Y332599D01*
X165951Y332535D01*
X165877Y332468D01*
X165806Y332398D01*
X165737Y332325D01*
X165672Y332250D01*
X165610Y332172D01*
X165550Y332092D01*
X165494Y332009D01*
X165441Y331924D01*
X165392Y331838D01*
X165346Y331749D01*
X165303Y331659D01*
X165264Y331567D01*
X165229Y331474D01*
X165198Y331379D01*
X165170Y331284D01*
X165146Y331187D01*
X165125Y331089D01*
X165109Y330991D01*
X165096Y330892D01*
X165088Y330793D01*
X165083Y330693D01*
X165082Y330593D01*
X165085Y330493D01*
X165092Y330394D01*
X165103Y330295D01*
X172627Y272361D02*
X172642Y272262D01*
X172661Y272164D01*
X172683Y272067D01*
X172709Y271971D01*
X172739Y271876D01*
X172773Y271782D01*
X172811Y271689D01*
X172852Y271599D01*
X172896Y271509D01*
X172944Y271422D01*
X172995Y271336D01*
X173050Y271253D01*
X173108Y271172D01*
X173169Y271093D01*
X173233Y271017D01*
X173301Y270943D01*
X173370Y270872D01*
X173443Y270803D01*
X173518Y270738D01*
X173596Y270676D01*
X173676Y270616D01*
X173759Y270560D01*
X173844Y270507D01*
X173930Y270458D01*
X174019Y270412D01*
X174109Y270369D01*
X174201Y270330D01*
X174294Y270295D01*
X174389Y270264D01*
X174484Y270236D01*
X174581Y270212D01*
X174679Y270191D01*
X174777Y270175D01*
X174876Y270162D01*
X174975Y270154D01*
X175075Y270149D01*
X175175Y270148D01*
X175275Y270151D01*
X175374Y270158D01*
X175473Y270169D01*
X193105Y272459D02*
X193204Y272474D01*
X193302Y272493D01*
X193399Y272515D01*
X193495Y272541D01*
X193590Y272571D01*
X193684Y272605D01*
X193777Y272643D01*
X193867Y272684D01*
X193957Y272728D01*
X194044Y272776D01*
X194130Y272827D01*
X194213Y272882D01*
X194294Y272940D01*
X194373Y273001D01*
X194449Y273065D01*
X194523Y273132D01*
X194594Y273202D01*
X194663Y273275D01*
X194728Y273350D01*
X194790Y273428D01*
X194850Y273508D01*
X194906Y273591D01*
X194959Y273676D01*
X195008Y273762D01*
X195054Y273851D01*
X195097Y273941D01*
X195136Y274033D01*
X195171Y274126D01*
X195202Y274221D01*
X195230Y274316D01*
X195254Y274413D01*
X195275Y274511D01*
X195291Y274609D01*
X195304Y274708D01*
X195312Y274807D01*
X195317Y274907D01*
X195318Y275007D01*
X195315Y275107D01*
X195308Y275206D01*
X195297Y275305D01*
X188263Y329461D02*
X187773Y333239D01*
X188263Y329461D02*
X187168Y328038D01*
X165594Y326516D02*
X165103Y330295D01*
X165594Y326516D02*
X167017Y325420D01*
X193383Y280180D02*
X194806Y279084D01*
X193383Y280180D02*
X187168Y328038D01*
X173232Y277562D02*
X172137Y276139D01*
X173232Y277562D02*
X167017Y325420D01*
X194806Y279084D02*
X195297Y275305D01*
X172627Y272361D02*
X172137Y276139D01*
D12*
X194729Y327527D02*
X194793Y327538D01*
X194857Y327552D01*
X194920Y327569D01*
X194982Y327591D01*
X195042Y327616D01*
X195101Y327644D01*
X195158Y327676D01*
X195213Y327711D01*
X195266Y327749D01*
X195317Y327790D01*
X195365Y327834D01*
X195411Y327881D01*
X195453Y327930D01*
X195493Y327982D01*
X195530Y328036D01*
X195564Y328092D01*
X195594Y328150D01*
X195621Y328209D01*
X195644Y328270D01*
X195664Y328333D01*
X195680Y328396D01*
X195692Y328460D01*
X195701Y328525D01*
X195706Y328590D01*
X195707Y328655D01*
X195704Y328721D01*
X195698Y328786D01*
X195687Y328858D01*
X195672Y328929D01*
X195654Y328999D01*
X195632Y329068D01*
X195607Y329136D01*
X195578Y329203D01*
X195546Y329268D01*
X195511Y329331D01*
X195473Y329393D01*
X195431Y329453D01*
X195387Y329510D01*
X195340Y329565D01*
X195290Y329618D01*
X195237Y329668D01*
X195182Y329716D01*
X195125Y329760D01*
X195066Y329802D01*
X195004Y329841D01*
X194941Y329876D01*
X194876Y329908D01*
X194809Y329937D01*
X194741Y329963D01*
X194672Y329985D01*
X194602Y330004D01*
X194531Y330019D01*
X193815Y327787D02*
X193867Y327747D01*
X193921Y327710D01*
X193976Y327677D01*
X194034Y327646D01*
X194093Y327618D01*
X194153Y327594D01*
X194215Y327573D01*
X194277Y327555D01*
X194341Y327541D01*
X194405Y327530D01*
X194469Y327523D01*
X194534Y327519D01*
X194600Y327518D01*
X194665Y327521D01*
X194729Y327528D01*
X193815Y327786D02*
X191067Y329569D01*
X191388Y327094D01*
X196278Y324324D02*
X196284Y324259D01*
X196287Y324193D01*
X196286Y324128D01*
X196281Y324063D01*
X196272Y323998D01*
X196260Y323934D01*
X196244Y323871D01*
X196224Y323808D01*
X196201Y323747D01*
X196174Y323688D01*
X196144Y323630D01*
X196110Y323574D01*
X196073Y323520D01*
X196033Y323468D01*
X195991Y323419D01*
X195945Y323372D01*
X195897Y323328D01*
X195846Y323287D01*
X195793Y323249D01*
X195738Y323214D01*
X195681Y323182D01*
X195622Y323154D01*
X195562Y323129D01*
X195500Y323107D01*
X195437Y323090D01*
X195373Y323076D01*
X195309Y323065D01*
X196278Y324324D02*
X196267Y324396D01*
X196252Y324467D01*
X196234Y324537D01*
X196212Y324606D01*
X196187Y324674D01*
X196158Y324741D01*
X196126Y324806D01*
X196091Y324869D01*
X196053Y324931D01*
X196011Y324991D01*
X195967Y325048D01*
X195920Y325103D01*
X195870Y325156D01*
X195817Y325206D01*
X195762Y325254D01*
X195705Y325298D01*
X195646Y325340D01*
X195584Y325379D01*
X195521Y325414D01*
X195456Y325446D01*
X195389Y325475D01*
X195321Y325501D01*
X195252Y325523D01*
X195182Y325542D01*
X195111Y325557D01*
X194394Y323325D02*
X194446Y323285D01*
X194500Y323248D01*
X194555Y323215D01*
X194613Y323184D01*
X194672Y323156D01*
X194732Y323132D01*
X194794Y323111D01*
X194856Y323093D01*
X194920Y323079D01*
X194984Y323068D01*
X195048Y323061D01*
X195113Y323057D01*
X195179Y323056D01*
X195244Y323059D01*
X195308Y323066D01*
X194394Y323324D02*
X191646Y325106D01*
X191968Y322631D01*
X194453Y320933D02*
X194573Y320947D01*
X194692Y320956D01*
X194812Y320962D01*
X194932Y320964D01*
X195052Y320962D01*
X195171Y320956D01*
X195291Y320946D01*
X195410Y320933D01*
X195529Y320915D01*
X195647Y320894D01*
X195764Y320869D01*
X195880Y320840D01*
X195996Y320807D01*
X196110Y320771D01*
X196110Y320770D02*
X196169Y320756D01*
X196226Y320739D01*
X196283Y320717D01*
X196338Y320692D01*
X196391Y320664D01*
X196442Y320632D01*
X196491Y320596D01*
X196537Y320558D01*
X196581Y320517D01*
X196622Y320472D01*
X196660Y320426D01*
X196695Y320377D01*
X196727Y320325D01*
X196755Y320272D01*
X196780Y320217D01*
X196801Y320161D01*
X196818Y320103D01*
X196832Y320044D01*
X196841Y319985D01*
X196847Y319925D01*
X196849Y319865D01*
X196847Y319805D01*
X196841Y319745D01*
X196831Y319685D01*
X196817Y319626D01*
X196800Y319569D01*
X196779Y319512D01*
X196754Y319458D01*
X196725Y319404D01*
X196693Y319353D01*
X196658Y319304D01*
X196620Y319258D01*
X196579Y319214D01*
X196535Y319172D01*
X196488Y319134D01*
X196440Y319099D01*
X196388Y319067D01*
X196335Y319039D01*
X196335Y319038D02*
X196234Y318974D01*
X196130Y318913D01*
X196025Y318855D01*
X195918Y318801D01*
X195810Y318750D01*
X195699Y318703D01*
X195588Y318659D01*
X195475Y318619D01*
X195360Y318583D01*
X195245Y318550D01*
X195128Y318521D01*
X195011Y318496D01*
X194893Y318475D01*
X194774Y318458D01*
X194453Y320933D02*
X194334Y320916D01*
X194216Y320895D01*
X194099Y320869D01*
X193982Y320841D01*
X193867Y320808D01*
X193752Y320772D01*
X193639Y320732D01*
X193528Y320688D01*
X193417Y320641D01*
X193309Y320590D01*
X193202Y320536D01*
X193097Y320478D01*
X192993Y320417D01*
X192892Y320353D01*
X192893Y320352D02*
X192840Y320324D01*
X192789Y320292D01*
X192740Y320257D01*
X192693Y320219D01*
X192649Y320177D01*
X192608Y320133D01*
X192570Y320087D01*
X192535Y320038D01*
X192503Y319987D01*
X192474Y319933D01*
X192449Y319879D01*
X192428Y319822D01*
X192411Y319765D01*
X192397Y319706D01*
X192387Y319646D01*
X192381Y319586D01*
X192379Y319526D01*
X192381Y319466D01*
X192387Y319406D01*
X193118Y318620D02*
X193232Y318584D01*
X193348Y318551D01*
X193464Y318522D01*
X193581Y318497D01*
X193699Y318476D01*
X193818Y318458D01*
X193937Y318445D01*
X194057Y318435D01*
X194177Y318429D01*
X194296Y318427D01*
X194416Y318429D01*
X194536Y318435D01*
X194656Y318444D01*
X194775Y318458D01*
X193118Y318621D02*
X193059Y318635D01*
X193001Y318652D01*
X192945Y318674D01*
X192890Y318699D01*
X192837Y318728D01*
X192786Y318760D01*
X192737Y318795D01*
X192691Y318833D01*
X192647Y318875D01*
X192606Y318919D01*
X192568Y318965D01*
X192533Y319014D01*
X192501Y319066D01*
X192473Y319119D01*
X192448Y319174D01*
X192427Y319230D01*
X192410Y319288D01*
X192396Y319347D01*
X192387Y319406D01*
X193248Y320525D02*
X195980Y318866D01*
X192826Y316022D02*
X193083Y314042D01*
X192826Y316022D02*
X197281Y316601D01*
X197538Y314621D01*
X195494Y314859D02*
X195301Y316344D01*
D10*
X195810Y53550D02*
X195810Y40850D01*
X195810Y53550D02*
X195812Y53690D01*
X195818Y53830D01*
X195827Y53970D01*
X195841Y54109D01*
X195858Y54248D01*
X195879Y54386D01*
X195904Y54524D01*
X195933Y54661D01*
X195965Y54797D01*
X196002Y54932D01*
X196042Y55066D01*
X196085Y55199D01*
X196133Y55331D01*
X196183Y55462D01*
X196238Y55591D01*
X196296Y55718D01*
X196357Y55844D01*
X196422Y55968D01*
X196491Y56090D01*
X196562Y56210D01*
X196637Y56328D01*
X196715Y56445D01*
X196797Y56559D01*
X196881Y56670D01*
X196969Y56779D01*
X197059Y56886D01*
X197153Y56991D01*
X197249Y57092D01*
X197348Y57191D01*
X197449Y57287D01*
X197554Y57381D01*
X197661Y57471D01*
X197770Y57559D01*
X197881Y57643D01*
X197995Y57725D01*
X198112Y57803D01*
X198230Y57878D01*
X198350Y57949D01*
X198472Y58018D01*
X198596Y58083D01*
X198722Y58144D01*
X198849Y58202D01*
X198978Y58257D01*
X199109Y58307D01*
X199241Y58355D01*
X199374Y58398D01*
X199508Y58438D01*
X199643Y58475D01*
X199779Y58507D01*
X199916Y58536D01*
X200054Y58561D01*
X200192Y58582D01*
X200331Y58599D01*
X200470Y58613D01*
X200610Y58622D01*
X200750Y58628D01*
X200890Y58630D01*
X195810Y40850D02*
X195812Y40710D01*
X195818Y40570D01*
X195827Y40430D01*
X195841Y40291D01*
X195858Y40152D01*
X195879Y40014D01*
X195904Y39876D01*
X195933Y39739D01*
X195965Y39603D01*
X196002Y39468D01*
X196042Y39334D01*
X196085Y39201D01*
X196133Y39069D01*
X196183Y38938D01*
X196238Y38809D01*
X196296Y38682D01*
X196357Y38556D01*
X196422Y38432D01*
X196491Y38310D01*
X196562Y38190D01*
X196637Y38072D01*
X196715Y37955D01*
X196797Y37841D01*
X196881Y37730D01*
X196969Y37621D01*
X197059Y37514D01*
X197153Y37409D01*
X197249Y37308D01*
X197348Y37209D01*
X197449Y37113D01*
X197554Y37019D01*
X197661Y36929D01*
X197770Y36841D01*
X197881Y36757D01*
X197995Y36675D01*
X198112Y36597D01*
X198230Y36522D01*
X198350Y36451D01*
X198472Y36382D01*
X198596Y36317D01*
X198722Y36256D01*
X198849Y36198D01*
X198978Y36143D01*
X199109Y36093D01*
X199241Y36045D01*
X199374Y36002D01*
X199508Y35962D01*
X199643Y35925D01*
X199779Y35893D01*
X199916Y35864D01*
X200054Y35839D01*
X200192Y35818D01*
X200331Y35801D01*
X200470Y35787D01*
X200610Y35778D01*
X200750Y35772D01*
X200890Y35770D01*
X200890Y58630D02*
X233910Y58630D01*
X238990Y53550D02*
X238990Y40850D01*
X233910Y35770D02*
X200890Y35770D01*
X233910Y58630D02*
X234050Y58628D01*
X234190Y58622D01*
X234330Y58613D01*
X234469Y58599D01*
X234608Y58582D01*
X234746Y58561D01*
X234884Y58536D01*
X235021Y58507D01*
X235157Y58475D01*
X235292Y58438D01*
X235426Y58398D01*
X235559Y58355D01*
X235691Y58307D01*
X235822Y58257D01*
X235951Y58202D01*
X236078Y58144D01*
X236204Y58083D01*
X236328Y58018D01*
X236450Y57949D01*
X236570Y57878D01*
X236688Y57803D01*
X236805Y57725D01*
X236919Y57643D01*
X237030Y57559D01*
X237139Y57471D01*
X237246Y57381D01*
X237351Y57287D01*
X237452Y57191D01*
X237551Y57092D01*
X237647Y56991D01*
X237741Y56886D01*
X237831Y56779D01*
X237919Y56670D01*
X238003Y56559D01*
X238085Y56445D01*
X238163Y56328D01*
X238238Y56210D01*
X238309Y56090D01*
X238378Y55968D01*
X238443Y55844D01*
X238504Y55718D01*
X238562Y55591D01*
X238617Y55462D01*
X238667Y55331D01*
X238715Y55199D01*
X238758Y55066D01*
X238798Y54932D01*
X238835Y54797D01*
X238867Y54661D01*
X238896Y54524D01*
X238921Y54386D01*
X238942Y54248D01*
X238959Y54109D01*
X238973Y53970D01*
X238982Y53830D01*
X238988Y53690D01*
X238990Y53550D01*
X238990Y40850D02*
X238988Y40710D01*
X238982Y40570D01*
X238973Y40430D01*
X238959Y40291D01*
X238942Y40152D01*
X238921Y40014D01*
X238896Y39876D01*
X238867Y39739D01*
X238835Y39603D01*
X238798Y39468D01*
X238758Y39334D01*
X238715Y39201D01*
X238667Y39069D01*
X238617Y38938D01*
X238562Y38809D01*
X238504Y38682D01*
X238443Y38556D01*
X238378Y38432D01*
X238309Y38310D01*
X238238Y38190D01*
X238163Y38072D01*
X238085Y37955D01*
X238003Y37841D01*
X237919Y37730D01*
X237831Y37621D01*
X237741Y37514D01*
X237647Y37409D01*
X237551Y37308D01*
X237452Y37209D01*
X237351Y37113D01*
X237246Y37019D01*
X237139Y36929D01*
X237030Y36841D01*
X236919Y36757D01*
X236805Y36675D01*
X236688Y36597D01*
X236570Y36522D01*
X236450Y36451D01*
X236328Y36382D01*
X236204Y36317D01*
X236078Y36256D01*
X235951Y36198D01*
X235822Y36143D01*
X235691Y36093D01*
X235559Y36045D01*
X235426Y36002D01*
X235292Y35962D01*
X235157Y35925D01*
X235021Y35893D01*
X234884Y35864D01*
X234746Y35839D01*
X234608Y35818D01*
X234469Y35801D01*
X234330Y35787D01*
X234190Y35778D01*
X234050Y35772D01*
X233910Y35770D01*
D11*
X214352Y39580D02*
X214352Y54820D01*
X220702Y54820D02*
X220702Y39580D01*
D12*
X202370Y64793D02*
X202368Y64858D01*
X202362Y64923D01*
X202353Y64988D01*
X202340Y65052D01*
X202323Y65115D01*
X202302Y65177D01*
X202278Y65238D01*
X202251Y65297D01*
X202220Y65355D01*
X202185Y65410D01*
X202148Y65464D01*
X202107Y65515D01*
X202064Y65564D01*
X202018Y65610D01*
X201969Y65653D01*
X201918Y65694D01*
X201864Y65731D01*
X201809Y65766D01*
X201751Y65797D01*
X201692Y65824D01*
X201631Y65848D01*
X201569Y65869D01*
X201506Y65886D01*
X201442Y65899D01*
X201377Y65908D01*
X201312Y65914D01*
X201247Y65916D01*
X201174Y65914D01*
X201102Y65909D01*
X201030Y65900D01*
X200959Y65887D01*
X200888Y65871D01*
X200818Y65851D01*
X200749Y65827D01*
X200682Y65801D01*
X200616Y65771D01*
X200551Y65737D01*
X200489Y65701D01*
X200428Y65661D01*
X200369Y65618D01*
X200313Y65573D01*
X200259Y65524D01*
X200207Y65473D01*
X200158Y65420D01*
X200112Y65364D01*
X200068Y65306D01*
X200028Y65245D01*
X199991Y65183D01*
X199957Y65119D01*
X199926Y65053D01*
X199898Y64986D01*
X199874Y64918D01*
X201995Y63920D02*
X202041Y63966D01*
X202084Y64014D01*
X202125Y64065D01*
X202163Y64118D01*
X202198Y64173D01*
X202229Y64230D01*
X202258Y64288D01*
X202284Y64348D01*
X202306Y64409D01*
X202325Y64471D01*
X202341Y64535D01*
X202353Y64599D01*
X202362Y64663D01*
X202367Y64728D01*
X202369Y64793D01*
X201995Y63920D02*
X199874Y61424D01*
X202370Y61424D01*
X205747Y65916D02*
X205812Y65914D01*
X205877Y65908D01*
X205942Y65899D01*
X206006Y65886D01*
X206069Y65869D01*
X206131Y65848D01*
X206192Y65824D01*
X206251Y65797D01*
X206309Y65766D01*
X206364Y65731D01*
X206418Y65694D01*
X206469Y65653D01*
X206518Y65610D01*
X206564Y65564D01*
X206607Y65515D01*
X206648Y65464D01*
X206685Y65410D01*
X206720Y65355D01*
X206751Y65297D01*
X206778Y65238D01*
X206802Y65177D01*
X206823Y65115D01*
X206840Y65052D01*
X206853Y64988D01*
X206862Y64923D01*
X206868Y64858D01*
X206870Y64793D01*
X205747Y65916D02*
X205674Y65914D01*
X205602Y65909D01*
X205530Y65900D01*
X205459Y65887D01*
X205388Y65871D01*
X205318Y65851D01*
X205249Y65827D01*
X205182Y65801D01*
X205116Y65771D01*
X205051Y65737D01*
X204989Y65701D01*
X204928Y65661D01*
X204869Y65618D01*
X204813Y65573D01*
X204759Y65524D01*
X204707Y65473D01*
X204658Y65420D01*
X204612Y65364D01*
X204568Y65306D01*
X204528Y65245D01*
X204491Y65183D01*
X204457Y65119D01*
X204426Y65053D01*
X204398Y64986D01*
X204374Y64918D01*
X206495Y63920D02*
X206541Y63966D01*
X206584Y64014D01*
X206625Y64065D01*
X206663Y64118D01*
X206698Y64173D01*
X206729Y64230D01*
X206758Y64288D01*
X206784Y64348D01*
X206806Y64409D01*
X206825Y64471D01*
X206841Y64535D01*
X206853Y64599D01*
X206862Y64663D01*
X206867Y64728D01*
X206869Y64793D01*
X206495Y63920D02*
X204374Y61424D01*
X206870Y61424D01*
X209100Y61424D02*
X209100Y65916D01*
X210347Y65916D01*
X210416Y65914D01*
X210484Y65908D01*
X210552Y65899D01*
X210620Y65886D01*
X210687Y65869D01*
X210752Y65848D01*
X210817Y65824D01*
X210880Y65797D01*
X210941Y65766D01*
X211001Y65731D01*
X211058Y65694D01*
X211114Y65653D01*
X211167Y65609D01*
X211217Y65563D01*
X211265Y65513D01*
X211310Y65461D01*
X211353Y65407D01*
X211392Y65351D01*
X211428Y65292D01*
X211461Y65232D01*
X211490Y65169D01*
X211516Y65106D01*
X211538Y65041D01*
X211557Y64974D01*
X211572Y64907D01*
X211583Y64839D01*
X211591Y64771D01*
X211595Y64702D01*
X211595Y64634D01*
X211591Y64565D01*
X211583Y64497D01*
X211572Y64429D01*
X211557Y64362D01*
X211538Y64295D01*
X211516Y64230D01*
X211490Y64167D01*
X211461Y64104D01*
X211428Y64044D01*
X211392Y63985D01*
X211353Y63929D01*
X211310Y63875D01*
X211265Y63823D01*
X211217Y63773D01*
X211167Y63727D01*
X211114Y63683D01*
X211058Y63642D01*
X211001Y63605D01*
X210941Y63570D01*
X210880Y63539D01*
X210817Y63512D01*
X210752Y63488D01*
X210687Y63467D01*
X210620Y63450D01*
X210552Y63437D01*
X210484Y63428D01*
X210416Y63422D01*
X210347Y63420D01*
X209100Y63420D01*
X213534Y61424D02*
X213534Y65916D01*
X215530Y65916D01*
X215530Y63920D02*
X213534Y63920D01*
D10*
X366010Y154350D02*
X366010Y167050D01*
X366012Y167190D01*
X366018Y167330D01*
X366027Y167470D01*
X366041Y167609D01*
X366058Y167748D01*
X366079Y167886D01*
X366104Y168024D01*
X366133Y168161D01*
X366165Y168297D01*
X366202Y168432D01*
X366242Y168566D01*
X366285Y168699D01*
X366333Y168831D01*
X366383Y168962D01*
X366438Y169091D01*
X366496Y169218D01*
X366557Y169344D01*
X366622Y169468D01*
X366691Y169590D01*
X366762Y169710D01*
X366837Y169828D01*
X366915Y169945D01*
X366997Y170059D01*
X367081Y170170D01*
X367169Y170279D01*
X367259Y170386D01*
X367353Y170491D01*
X367449Y170592D01*
X367548Y170691D01*
X367649Y170787D01*
X367754Y170881D01*
X367861Y170971D01*
X367970Y171059D01*
X368081Y171143D01*
X368195Y171225D01*
X368312Y171303D01*
X368430Y171378D01*
X368550Y171449D01*
X368672Y171518D01*
X368796Y171583D01*
X368922Y171644D01*
X369049Y171702D01*
X369178Y171757D01*
X369309Y171807D01*
X369441Y171855D01*
X369574Y171898D01*
X369708Y171938D01*
X369843Y171975D01*
X369979Y172007D01*
X370116Y172036D01*
X370254Y172061D01*
X370392Y172082D01*
X370531Y172099D01*
X370670Y172113D01*
X370810Y172122D01*
X370950Y172128D01*
X371090Y172130D01*
X366010Y154350D02*
X366012Y154210D01*
X366018Y154070D01*
X366027Y153930D01*
X366041Y153791D01*
X366058Y153652D01*
X366079Y153514D01*
X366104Y153376D01*
X366133Y153239D01*
X366165Y153103D01*
X366202Y152968D01*
X366242Y152834D01*
X366285Y152701D01*
X366333Y152569D01*
X366383Y152438D01*
X366438Y152309D01*
X366496Y152182D01*
X366557Y152056D01*
X366622Y151932D01*
X366691Y151810D01*
X366762Y151690D01*
X366837Y151572D01*
X366915Y151455D01*
X366997Y151341D01*
X367081Y151230D01*
X367169Y151121D01*
X367259Y151014D01*
X367353Y150909D01*
X367449Y150808D01*
X367548Y150709D01*
X367649Y150613D01*
X367754Y150519D01*
X367861Y150429D01*
X367970Y150341D01*
X368081Y150257D01*
X368195Y150175D01*
X368312Y150097D01*
X368430Y150022D01*
X368550Y149951D01*
X368672Y149882D01*
X368796Y149817D01*
X368922Y149756D01*
X369049Y149698D01*
X369178Y149643D01*
X369309Y149593D01*
X369441Y149545D01*
X369574Y149502D01*
X369708Y149462D01*
X369843Y149425D01*
X369979Y149393D01*
X370116Y149364D01*
X370254Y149339D01*
X370392Y149318D01*
X370531Y149301D01*
X370670Y149287D01*
X370810Y149278D01*
X370950Y149272D01*
X371090Y149270D01*
X371090Y172130D02*
X404110Y172130D01*
X409190Y167050D02*
X409190Y154350D01*
X404110Y149270D02*
X371090Y149270D01*
X404110Y172130D02*
X404250Y172128D01*
X404390Y172122D01*
X404530Y172113D01*
X404669Y172099D01*
X404808Y172082D01*
X404946Y172061D01*
X405084Y172036D01*
X405221Y172007D01*
X405357Y171975D01*
X405492Y171938D01*
X405626Y171898D01*
X405759Y171855D01*
X405891Y171807D01*
X406022Y171757D01*
X406151Y171702D01*
X406278Y171644D01*
X406404Y171583D01*
X406528Y171518D01*
X406650Y171449D01*
X406770Y171378D01*
X406888Y171303D01*
X407005Y171225D01*
X407119Y171143D01*
X407230Y171059D01*
X407339Y170971D01*
X407446Y170881D01*
X407551Y170787D01*
X407652Y170691D01*
X407751Y170592D01*
X407847Y170491D01*
X407941Y170386D01*
X408031Y170279D01*
X408119Y170170D01*
X408203Y170059D01*
X408285Y169945D01*
X408363Y169828D01*
X408438Y169710D01*
X408509Y169590D01*
X408578Y169468D01*
X408643Y169344D01*
X408704Y169218D01*
X408762Y169091D01*
X408817Y168962D01*
X408867Y168831D01*
X408915Y168699D01*
X408958Y168566D01*
X408998Y168432D01*
X409035Y168297D01*
X409067Y168161D01*
X409096Y168024D01*
X409121Y167886D01*
X409142Y167748D01*
X409159Y167609D01*
X409173Y167470D01*
X409182Y167330D01*
X409188Y167190D01*
X409190Y167050D01*
X409190Y154350D02*
X409188Y154210D01*
X409182Y154070D01*
X409173Y153930D01*
X409159Y153791D01*
X409142Y153652D01*
X409121Y153514D01*
X409096Y153376D01*
X409067Y153239D01*
X409035Y153103D01*
X408998Y152968D01*
X408958Y152834D01*
X408915Y152701D01*
X408867Y152569D01*
X408817Y152438D01*
X408762Y152309D01*
X408704Y152182D01*
X408643Y152056D01*
X408578Y151932D01*
X408509Y151810D01*
X408438Y151690D01*
X408363Y151572D01*
X408285Y151455D01*
X408203Y151341D01*
X408119Y151230D01*
X408031Y151121D01*
X407941Y151014D01*
X407847Y150909D01*
X407751Y150808D01*
X407652Y150709D01*
X407551Y150613D01*
X407446Y150519D01*
X407339Y150429D01*
X407230Y150341D01*
X407119Y150257D01*
X407005Y150175D01*
X406888Y150097D01*
X406770Y150022D01*
X406650Y149951D01*
X406528Y149882D01*
X406404Y149817D01*
X406278Y149756D01*
X406151Y149698D01*
X406022Y149643D01*
X405891Y149593D01*
X405759Y149545D01*
X405626Y149502D01*
X405492Y149462D01*
X405357Y149425D01*
X405221Y149393D01*
X405084Y149364D01*
X404946Y149339D01*
X404808Y149318D01*
X404669Y149301D01*
X404530Y149287D01*
X404390Y149278D01*
X404250Y149272D01*
X404110Y149270D01*
D11*
X384552Y153080D02*
X384552Y168320D01*
X390902Y168320D02*
X390902Y153080D01*
D12*
X372070Y174924D02*
X371072Y174924D01*
X371012Y174926D01*
X370952Y174931D01*
X370892Y174940D01*
X370833Y174953D01*
X370775Y174969D01*
X370718Y174989D01*
X370662Y175012D01*
X370608Y175038D01*
X370556Y175068D01*
X370505Y175101D01*
X370457Y175136D01*
X370410Y175175D01*
X370366Y175216D01*
X370325Y175260D01*
X370286Y175307D01*
X370251Y175355D01*
X370218Y175406D01*
X370188Y175458D01*
X370162Y175512D01*
X370139Y175568D01*
X370119Y175625D01*
X370103Y175683D01*
X370090Y175742D01*
X370081Y175802D01*
X370076Y175862D01*
X370074Y175922D01*
X370074Y178418D01*
X370076Y178481D01*
X370082Y178543D01*
X370092Y178605D01*
X370105Y178666D01*
X370123Y178726D01*
X370144Y178785D01*
X370169Y178843D01*
X370197Y178899D01*
X370229Y178953D01*
X370265Y179005D01*
X370303Y179054D01*
X370344Y179101D01*
X370389Y179145D01*
X370436Y179187D01*
X370485Y179225D01*
X370537Y179261D01*
X370591Y179293D01*
X370647Y179321D01*
X370705Y179346D01*
X370764Y179367D01*
X370824Y179385D01*
X370885Y179398D01*
X370947Y179408D01*
X371009Y179414D01*
X371072Y179416D01*
X372070Y179416D01*
X373839Y174924D02*
X375087Y174924D01*
X375156Y174926D01*
X375224Y174932D01*
X375292Y174941D01*
X375360Y174954D01*
X375427Y174971D01*
X375492Y174992D01*
X375557Y175016D01*
X375620Y175043D01*
X375681Y175074D01*
X375741Y175109D01*
X375798Y175146D01*
X375854Y175187D01*
X375907Y175231D01*
X375957Y175277D01*
X376005Y175327D01*
X376050Y175379D01*
X376093Y175433D01*
X376132Y175489D01*
X376168Y175548D01*
X376201Y175608D01*
X376230Y175671D01*
X376256Y175734D01*
X376278Y175799D01*
X376297Y175866D01*
X376312Y175933D01*
X376323Y176001D01*
X376331Y176069D01*
X376335Y176138D01*
X376335Y176206D01*
X376331Y176275D01*
X376323Y176343D01*
X376312Y176411D01*
X376297Y176478D01*
X376278Y176545D01*
X376256Y176610D01*
X376230Y176673D01*
X376201Y176736D01*
X376168Y176796D01*
X376132Y176855D01*
X376093Y176911D01*
X376050Y176965D01*
X376005Y177017D01*
X375957Y177067D01*
X375907Y177113D01*
X375854Y177157D01*
X375798Y177198D01*
X375741Y177235D01*
X375681Y177270D01*
X375620Y177301D01*
X375557Y177328D01*
X375492Y177352D01*
X375427Y177373D01*
X375360Y177390D01*
X375292Y177403D01*
X375224Y177412D01*
X375156Y177418D01*
X375087Y177420D01*
X375336Y179416D02*
X373839Y179416D01*
X375336Y179416D02*
X375397Y179414D01*
X375459Y179408D01*
X375519Y179399D01*
X375579Y179386D01*
X375639Y179369D01*
X375697Y179349D01*
X375753Y179325D01*
X375808Y179297D01*
X375861Y179267D01*
X375913Y179233D01*
X375962Y179196D01*
X376008Y179156D01*
X376052Y179113D01*
X376094Y179067D01*
X376132Y179019D01*
X376168Y178969D01*
X376200Y178917D01*
X376229Y178863D01*
X376255Y178807D01*
X376277Y178750D01*
X376296Y178691D01*
X376311Y178632D01*
X376322Y178571D01*
X376330Y178510D01*
X376334Y178449D01*
X376334Y178387D01*
X376330Y178326D01*
X376322Y178265D01*
X376311Y178204D01*
X376296Y178145D01*
X376277Y178086D01*
X376255Y178029D01*
X376229Y177973D01*
X376200Y177919D01*
X376168Y177867D01*
X376132Y177817D01*
X376094Y177769D01*
X376052Y177723D01*
X376008Y177680D01*
X375962Y177640D01*
X375913Y177603D01*
X375861Y177569D01*
X375808Y177539D01*
X375753Y177511D01*
X375697Y177487D01*
X375639Y177467D01*
X375579Y177450D01*
X375519Y177437D01*
X375459Y177428D01*
X375397Y177422D01*
X375336Y177420D01*
X374338Y177420D01*
D14*
X41200Y115800D02*
X41200Y97800D01*
X41200Y115800D02*
X42200Y115800D01*
X41200Y42800D02*
X41200Y25800D01*
D15*
X57036Y41193D02*
X57036Y44292D01*
X57036Y41193D02*
X57034Y41135D01*
X57028Y41077D01*
X57019Y41020D01*
X57006Y40964D01*
X56989Y40909D01*
X56969Y40854D01*
X56945Y40802D01*
X56917Y40751D01*
X56887Y40701D01*
X56853Y40654D01*
X56816Y40609D01*
X56777Y40567D01*
X56735Y40528D01*
X56690Y40491D01*
X56643Y40457D01*
X56594Y40427D01*
X56542Y40399D01*
X56490Y40375D01*
X56435Y40355D01*
X56380Y40338D01*
X56324Y40325D01*
X56267Y40316D01*
X56209Y40310D01*
X56151Y40308D01*
X55708Y40308D01*
X59440Y43407D02*
X60547Y44292D01*
X60547Y40308D01*
X59440Y40308D02*
X61654Y40308D01*
D10*
X80900Y420750D02*
X80900Y433450D01*
X87250Y439800D01*
X99950Y439800D01*
X106300Y433450D01*
X80900Y395350D02*
X87250Y389000D01*
X80900Y395350D02*
X80900Y408050D01*
X87250Y414400D01*
X99950Y414400D01*
X106300Y408050D01*
X106300Y395350D01*
X99950Y389000D01*
X87250Y414400D02*
X80900Y420750D01*
X99950Y414400D02*
X106300Y420750D01*
X106300Y433450D01*
X80900Y357250D02*
X80900Y344550D01*
X80900Y357250D02*
X87250Y363600D01*
X99950Y363600D01*
X106300Y357250D01*
X87250Y363600D02*
X80900Y369950D01*
X80900Y382650D01*
X87250Y389000D01*
X99950Y389000D01*
X106300Y382650D01*
X106300Y369950D01*
X99950Y363600D01*
X99950Y338200D02*
X87250Y338200D01*
X80900Y344550D01*
X99950Y338200D02*
X106300Y344550D01*
X106300Y357250D01*
X80900Y446150D02*
X80900Y458850D01*
X87250Y465200D01*
X99950Y465200D01*
X106300Y458850D01*
X87250Y439800D02*
X80900Y446150D01*
X99950Y439800D02*
X106300Y446150D01*
X106300Y458850D01*
D12*
X74060Y339189D02*
X70566Y339189D01*
X74060Y339189D02*
X74120Y339187D01*
X74180Y339182D01*
X74240Y339173D01*
X74299Y339160D01*
X74357Y339144D01*
X74414Y339124D01*
X74470Y339101D01*
X74524Y339075D01*
X74576Y339045D01*
X74627Y339012D01*
X74675Y338977D01*
X74722Y338938D01*
X74766Y338897D01*
X74807Y338853D01*
X74846Y338806D01*
X74881Y338758D01*
X74914Y338707D01*
X74944Y338655D01*
X74970Y338601D01*
X74993Y338545D01*
X75013Y338488D01*
X75029Y338430D01*
X75042Y338371D01*
X75051Y338311D01*
X75056Y338251D01*
X75058Y338191D01*
X75058Y337692D01*
X75058Y341549D02*
X70566Y341549D01*
X70566Y342796D01*
X70568Y342865D01*
X70574Y342933D01*
X70583Y343001D01*
X70596Y343069D01*
X70613Y343136D01*
X70634Y343201D01*
X70658Y343266D01*
X70685Y343329D01*
X70716Y343390D01*
X70751Y343450D01*
X70788Y343507D01*
X70829Y343563D01*
X70873Y343616D01*
X70919Y343666D01*
X70969Y343714D01*
X71021Y343759D01*
X71075Y343802D01*
X71131Y343841D01*
X71190Y343877D01*
X71250Y343910D01*
X71313Y343939D01*
X71376Y343965D01*
X71441Y343987D01*
X71508Y344006D01*
X71575Y344021D01*
X71643Y344032D01*
X71711Y344040D01*
X71780Y344044D01*
X71848Y344044D01*
X71917Y344040D01*
X71985Y344032D01*
X72053Y344021D01*
X72120Y344006D01*
X72187Y343987D01*
X72252Y343965D01*
X72315Y343939D01*
X72378Y343910D01*
X72438Y343877D01*
X72497Y343841D01*
X72553Y343802D01*
X72607Y343759D01*
X72659Y343714D01*
X72709Y343666D01*
X72755Y343616D01*
X72799Y343563D01*
X72840Y343507D01*
X72877Y343450D01*
X72912Y343390D01*
X72943Y343329D01*
X72970Y343266D01*
X72994Y343201D01*
X73015Y343136D01*
X73032Y343069D01*
X73045Y343001D01*
X73054Y342933D01*
X73060Y342865D01*
X73062Y342796D01*
X73062Y341549D01*
X71564Y345823D02*
X70566Y347071D01*
X75058Y347071D01*
X75058Y348318D02*
X75058Y345823D01*
D10*
X80900Y273150D02*
X80900Y260450D01*
X80900Y273150D02*
X87250Y279500D01*
X99950Y279500D01*
X106300Y273150D01*
X87250Y279500D02*
X80900Y285850D01*
X80900Y298550D01*
X87250Y304900D01*
X99950Y304900D01*
X106300Y298550D01*
X106300Y285850D01*
X99950Y279500D01*
X80900Y235050D02*
X87250Y228700D01*
X80900Y235050D02*
X80900Y247750D01*
X87250Y254100D01*
X99950Y254100D01*
X106300Y247750D01*
X106300Y235050D01*
X99950Y228700D01*
X87250Y254100D02*
X80900Y260450D01*
X99950Y254100D02*
X106300Y260450D01*
X106300Y273150D01*
X80900Y196950D02*
X80900Y184250D01*
X80900Y196950D02*
X87250Y203300D01*
X99950Y203300D01*
X106300Y196950D01*
X87250Y203300D02*
X80900Y209650D01*
X80900Y222350D01*
X87250Y228700D01*
X99950Y228700D01*
X106300Y222350D01*
X106300Y209650D01*
X99950Y203300D01*
X99950Y177900D02*
X87250Y177900D01*
X80900Y184250D01*
X99950Y177900D02*
X106300Y184250D01*
X106300Y196950D01*
X80900Y311250D02*
X80900Y323950D01*
X87250Y330300D01*
X99950Y330300D01*
X106300Y323950D01*
X87250Y304900D02*
X80900Y311250D01*
X99950Y304900D02*
X106300Y311250D01*
X106300Y323950D01*
D12*
X74060Y178889D02*
X70566Y178889D01*
X74060Y178889D02*
X74120Y178887D01*
X74180Y178882D01*
X74240Y178873D01*
X74299Y178860D01*
X74357Y178844D01*
X74414Y178824D01*
X74470Y178801D01*
X74524Y178775D01*
X74576Y178745D01*
X74627Y178712D01*
X74675Y178677D01*
X74722Y178638D01*
X74766Y178597D01*
X74807Y178553D01*
X74846Y178506D01*
X74881Y178458D01*
X74914Y178407D01*
X74944Y178355D01*
X74970Y178301D01*
X74993Y178245D01*
X75013Y178188D01*
X75029Y178130D01*
X75042Y178071D01*
X75051Y178011D01*
X75056Y177951D01*
X75058Y177891D01*
X75058Y177392D01*
X75058Y181249D02*
X70566Y181249D01*
X70566Y182496D01*
X70568Y182565D01*
X70574Y182633D01*
X70583Y182701D01*
X70596Y182769D01*
X70613Y182836D01*
X70634Y182901D01*
X70658Y182966D01*
X70685Y183029D01*
X70716Y183090D01*
X70751Y183150D01*
X70788Y183207D01*
X70829Y183263D01*
X70873Y183316D01*
X70919Y183366D01*
X70969Y183414D01*
X71021Y183459D01*
X71075Y183502D01*
X71131Y183541D01*
X71190Y183577D01*
X71250Y183610D01*
X71313Y183639D01*
X71376Y183665D01*
X71441Y183687D01*
X71508Y183706D01*
X71575Y183721D01*
X71643Y183732D01*
X71711Y183740D01*
X71780Y183744D01*
X71848Y183744D01*
X71917Y183740D01*
X71985Y183732D01*
X72053Y183721D01*
X72120Y183706D01*
X72187Y183687D01*
X72252Y183665D01*
X72315Y183639D01*
X72378Y183610D01*
X72438Y183577D01*
X72497Y183541D01*
X72553Y183502D01*
X72607Y183459D01*
X72659Y183414D01*
X72709Y183366D01*
X72755Y183316D01*
X72799Y183263D01*
X72840Y183207D01*
X72877Y183150D01*
X72912Y183090D01*
X72943Y183029D01*
X72970Y182966D01*
X72994Y182901D01*
X73015Y182836D01*
X73032Y182769D01*
X73045Y182701D01*
X73054Y182633D01*
X73060Y182565D01*
X73062Y182496D01*
X73062Y181249D01*
X70566Y186895D02*
X70568Y186960D01*
X70574Y187025D01*
X70583Y187090D01*
X70596Y187154D01*
X70613Y187217D01*
X70634Y187279D01*
X70658Y187340D01*
X70685Y187399D01*
X70716Y187457D01*
X70751Y187512D01*
X70788Y187566D01*
X70829Y187617D01*
X70872Y187666D01*
X70918Y187712D01*
X70967Y187755D01*
X71018Y187796D01*
X71072Y187833D01*
X71128Y187868D01*
X71185Y187899D01*
X71244Y187926D01*
X71305Y187950D01*
X71367Y187971D01*
X71430Y187988D01*
X71494Y188001D01*
X71559Y188010D01*
X71624Y188016D01*
X71689Y188018D01*
X70566Y186895D02*
X70568Y186822D01*
X70573Y186750D01*
X70582Y186678D01*
X70595Y186607D01*
X70611Y186536D01*
X70631Y186466D01*
X70655Y186397D01*
X70681Y186330D01*
X70711Y186264D01*
X70745Y186199D01*
X70781Y186137D01*
X70821Y186076D01*
X70864Y186017D01*
X70909Y185961D01*
X70958Y185907D01*
X71009Y185855D01*
X71062Y185806D01*
X71118Y185760D01*
X71176Y185716D01*
X71237Y185676D01*
X71299Y185639D01*
X71363Y185605D01*
X71429Y185574D01*
X71496Y185546D01*
X71564Y185522D01*
X72562Y187644D02*
X72516Y187690D01*
X72468Y187733D01*
X72417Y187774D01*
X72364Y187812D01*
X72309Y187847D01*
X72252Y187878D01*
X72194Y187907D01*
X72134Y187933D01*
X72073Y187955D01*
X72011Y187974D01*
X71947Y187990D01*
X71883Y188002D01*
X71819Y188011D01*
X71754Y188016D01*
X71689Y188018D01*
X72562Y187644D02*
X75058Y185523D01*
X75058Y188018D01*
D10*
X454400Y348050D02*
X454400Y360750D01*
X460750Y367100D01*
X473450Y367100D01*
X479800Y360750D01*
X454400Y322650D02*
X460750Y316300D01*
X454400Y322650D02*
X454400Y335350D01*
X460750Y341700D01*
X473450Y341700D01*
X479800Y335350D01*
X479800Y322650D01*
X473450Y316300D01*
X460750Y341700D02*
X454400Y348050D01*
X473450Y341700D02*
X479800Y348050D01*
X479800Y360750D01*
X454400Y284550D02*
X454400Y271850D01*
X454400Y284550D02*
X460750Y290900D01*
X473450Y290900D01*
X479800Y284550D01*
X460750Y290900D02*
X454400Y297250D01*
X454400Y309950D01*
X460750Y316300D01*
X473450Y316300D01*
X479800Y309950D01*
X479800Y297250D01*
X473450Y290900D01*
X454400Y246450D02*
X460750Y240100D01*
X454400Y246450D02*
X454400Y259150D01*
X460750Y265500D01*
X473450Y265500D01*
X479800Y259150D01*
X479800Y246450D01*
X473450Y240100D01*
X460750Y265500D02*
X454400Y271850D01*
X473450Y265500D02*
X479800Y271850D01*
X479800Y284550D01*
X454400Y208350D02*
X454400Y195650D01*
X454400Y208350D02*
X460750Y214700D01*
X473450Y214700D01*
X479800Y208350D01*
X460750Y214700D02*
X454400Y221050D01*
X454400Y233750D01*
X460750Y240100D01*
X473450Y240100D01*
X479800Y233750D01*
X479800Y221050D01*
X473450Y214700D01*
X473450Y189300D02*
X460750Y189300D01*
X454400Y195650D01*
X473450Y189300D02*
X479800Y195650D01*
X479800Y208350D01*
X454400Y373450D02*
X454400Y386150D01*
X460750Y392500D01*
X473450Y392500D01*
X479800Y386150D01*
X460750Y367100D02*
X454400Y373450D01*
X473450Y367100D02*
X479800Y373450D01*
X479800Y386150D01*
D12*
X447560Y190289D02*
X444066Y190289D01*
X447560Y190289D02*
X447620Y190287D01*
X447680Y190282D01*
X447740Y190273D01*
X447799Y190260D01*
X447857Y190244D01*
X447914Y190224D01*
X447970Y190201D01*
X448024Y190175D01*
X448076Y190145D01*
X448127Y190112D01*
X448175Y190077D01*
X448222Y190038D01*
X448266Y189997D01*
X448307Y189953D01*
X448346Y189906D01*
X448381Y189858D01*
X448414Y189807D01*
X448444Y189755D01*
X448470Y189701D01*
X448493Y189645D01*
X448513Y189588D01*
X448529Y189530D01*
X448542Y189471D01*
X448551Y189411D01*
X448556Y189351D01*
X448558Y189291D01*
X448558Y188792D01*
X448558Y192649D02*
X444066Y192649D01*
X444066Y193896D01*
X444068Y193965D01*
X444074Y194033D01*
X444083Y194101D01*
X444096Y194169D01*
X444113Y194236D01*
X444134Y194301D01*
X444158Y194366D01*
X444185Y194429D01*
X444216Y194490D01*
X444251Y194550D01*
X444288Y194607D01*
X444329Y194663D01*
X444373Y194716D01*
X444419Y194766D01*
X444469Y194814D01*
X444521Y194859D01*
X444575Y194902D01*
X444631Y194941D01*
X444690Y194977D01*
X444750Y195010D01*
X444813Y195039D01*
X444876Y195065D01*
X444941Y195087D01*
X445008Y195106D01*
X445075Y195121D01*
X445143Y195132D01*
X445211Y195140D01*
X445280Y195144D01*
X445348Y195144D01*
X445417Y195140D01*
X445485Y195132D01*
X445553Y195121D01*
X445620Y195106D01*
X445687Y195087D01*
X445752Y195065D01*
X445815Y195039D01*
X445878Y195010D01*
X445938Y194977D01*
X445997Y194941D01*
X446053Y194902D01*
X446107Y194859D01*
X446159Y194814D01*
X446209Y194766D01*
X446255Y194716D01*
X446299Y194663D01*
X446340Y194607D01*
X446377Y194550D01*
X446412Y194490D01*
X446443Y194429D01*
X446470Y194366D01*
X446494Y194301D01*
X446515Y194236D01*
X446532Y194169D01*
X446545Y194101D01*
X446554Y194033D01*
X446560Y193965D01*
X446562Y193896D01*
X446562Y192649D01*
X448558Y196923D02*
X448558Y198171D01*
X448556Y198240D01*
X448550Y198308D01*
X448541Y198376D01*
X448528Y198444D01*
X448511Y198511D01*
X448490Y198576D01*
X448466Y198641D01*
X448439Y198704D01*
X448408Y198765D01*
X448373Y198825D01*
X448336Y198882D01*
X448295Y198938D01*
X448251Y198991D01*
X448205Y199041D01*
X448155Y199089D01*
X448103Y199134D01*
X448049Y199177D01*
X447993Y199216D01*
X447934Y199252D01*
X447874Y199285D01*
X447811Y199314D01*
X447748Y199340D01*
X447683Y199362D01*
X447616Y199381D01*
X447549Y199396D01*
X447481Y199407D01*
X447413Y199415D01*
X447344Y199419D01*
X447276Y199419D01*
X447207Y199415D01*
X447139Y199407D01*
X447071Y199396D01*
X447004Y199381D01*
X446937Y199362D01*
X446872Y199340D01*
X446809Y199314D01*
X446746Y199285D01*
X446686Y199252D01*
X446627Y199216D01*
X446571Y199177D01*
X446517Y199134D01*
X446465Y199089D01*
X446415Y199041D01*
X446369Y198991D01*
X446325Y198938D01*
X446284Y198882D01*
X446247Y198825D01*
X446212Y198765D01*
X446181Y198704D01*
X446154Y198641D01*
X446130Y198576D01*
X446109Y198511D01*
X446092Y198444D01*
X446079Y198376D01*
X446070Y198308D01*
X446064Y198240D01*
X446062Y198171D01*
X444066Y198420D02*
X444066Y196923D01*
X444066Y198420D02*
X444068Y198481D01*
X444074Y198543D01*
X444083Y198603D01*
X444096Y198663D01*
X444113Y198723D01*
X444133Y198781D01*
X444157Y198837D01*
X444185Y198892D01*
X444215Y198945D01*
X444249Y198997D01*
X444286Y199046D01*
X444326Y199092D01*
X444369Y199136D01*
X444415Y199178D01*
X444463Y199216D01*
X444513Y199252D01*
X444565Y199284D01*
X444619Y199313D01*
X444675Y199339D01*
X444732Y199361D01*
X444791Y199380D01*
X444850Y199395D01*
X444911Y199406D01*
X444972Y199414D01*
X445033Y199418D01*
X445095Y199418D01*
X445156Y199414D01*
X445217Y199406D01*
X445278Y199395D01*
X445337Y199380D01*
X445396Y199361D01*
X445453Y199339D01*
X445509Y199313D01*
X445563Y199284D01*
X445615Y199252D01*
X445665Y199216D01*
X445713Y199178D01*
X445759Y199136D01*
X445802Y199092D01*
X445842Y199046D01*
X445879Y198997D01*
X445913Y198945D01*
X445943Y198892D01*
X445971Y198837D01*
X445995Y198781D01*
X446015Y198723D01*
X446032Y198663D01*
X446045Y198603D01*
X446054Y198543D01*
X446060Y198481D01*
X446062Y198420D01*
X446062Y197422D01*
D10*
X482600Y431450D02*
X482600Y444150D01*
X482600Y431450D02*
X476250Y425100D01*
X463550Y425100D01*
X457200Y431450D01*
X482600Y469550D02*
X476250Y475900D01*
X482600Y469550D02*
X482600Y456850D01*
X476250Y450500D01*
X463550Y450500D01*
X457200Y456850D01*
X457200Y469550D01*
X463550Y475900D01*
X476250Y450500D02*
X482600Y444150D01*
X463550Y450500D02*
X457200Y444150D01*
X457200Y431450D01*
X482600Y507650D02*
X482600Y520350D01*
X482600Y507650D02*
X476250Y501300D01*
X463550Y501300D01*
X457200Y507650D01*
X476250Y501300D02*
X482600Y494950D01*
X482600Y482250D01*
X476250Y475900D01*
X463550Y475900D01*
X457200Y482250D01*
X457200Y494950D01*
X463550Y501300D01*
X463550Y526700D02*
X476250Y526700D01*
X482600Y520350D01*
X463550Y526700D02*
X457200Y520350D01*
X457200Y507650D01*
X482600Y418750D02*
X482600Y406050D01*
X476250Y399700D01*
X463550Y399700D01*
X457200Y406050D01*
X476250Y425100D02*
X482600Y418750D01*
X463550Y425100D02*
X457200Y418750D01*
X457200Y406050D01*
D12*
X488442Y518079D02*
X491936Y518079D01*
X491996Y518077D01*
X492056Y518072D01*
X492116Y518063D01*
X492175Y518050D01*
X492233Y518034D01*
X492290Y518014D01*
X492346Y517991D01*
X492400Y517965D01*
X492452Y517935D01*
X492503Y517902D01*
X492551Y517867D01*
X492598Y517828D01*
X492642Y517787D01*
X492683Y517743D01*
X492722Y517696D01*
X492757Y517648D01*
X492790Y517597D01*
X492820Y517545D01*
X492846Y517491D01*
X492869Y517435D01*
X492889Y517378D01*
X492905Y517320D01*
X492918Y517261D01*
X492927Y517201D01*
X492932Y517141D01*
X492934Y517081D01*
X492934Y516582D01*
X492934Y520438D02*
X488442Y520438D01*
X488442Y521686D01*
X488444Y521755D01*
X488450Y521823D01*
X488459Y521891D01*
X488472Y521959D01*
X488489Y522026D01*
X488510Y522091D01*
X488534Y522156D01*
X488561Y522219D01*
X488592Y522280D01*
X488627Y522340D01*
X488664Y522397D01*
X488705Y522453D01*
X488749Y522506D01*
X488795Y522556D01*
X488845Y522604D01*
X488897Y522649D01*
X488951Y522692D01*
X489007Y522731D01*
X489066Y522767D01*
X489126Y522800D01*
X489189Y522829D01*
X489252Y522855D01*
X489317Y522877D01*
X489384Y522896D01*
X489451Y522911D01*
X489519Y522922D01*
X489587Y522930D01*
X489656Y522934D01*
X489724Y522934D01*
X489793Y522930D01*
X489861Y522922D01*
X489929Y522911D01*
X489996Y522896D01*
X490063Y522877D01*
X490128Y522855D01*
X490191Y522829D01*
X490254Y522800D01*
X490314Y522767D01*
X490373Y522731D01*
X490429Y522692D01*
X490483Y522649D01*
X490535Y522604D01*
X490585Y522556D01*
X490631Y522506D01*
X490675Y522453D01*
X490716Y522397D01*
X490753Y522340D01*
X490788Y522280D01*
X490819Y522219D01*
X490846Y522156D01*
X490870Y522091D01*
X490891Y522026D01*
X490908Y521959D01*
X490921Y521891D01*
X490930Y521823D01*
X490936Y521755D01*
X490938Y521686D01*
X490938Y520438D01*
X491936Y524712D02*
X488442Y525711D01*
X491936Y524712D02*
X491936Y527208D01*
X490938Y526459D02*
X492934Y526459D01*
D15*
X169000Y402700D02*
X169000Y390700D01*
X162000Y390700D02*
X162000Y402700D01*
D16*
X165500Y394700D03*
D12*
X158896Y384254D02*
X154404Y384254D01*
X158896Y384254D02*
X158896Y386250D01*
X158896Y388154D02*
X158896Y390150D01*
X158896Y388154D02*
X154404Y388154D01*
X154404Y390150D01*
X156400Y389651D02*
X156400Y388154D01*
X154404Y392044D02*
X158896Y392044D01*
X154404Y392044D02*
X154404Y393292D01*
X154406Y393360D01*
X154411Y393427D01*
X154420Y393494D01*
X154433Y393560D01*
X154449Y393626D01*
X154469Y393690D01*
X154493Y393754D01*
X154519Y393816D01*
X154549Y393877D01*
X154583Y393935D01*
X154619Y393992D01*
X154658Y394047D01*
X154701Y394100D01*
X154746Y394150D01*
X154794Y394198D01*
X154844Y394243D01*
X154897Y394286D01*
X154952Y394325D01*
X155009Y394361D01*
X155067Y394395D01*
X155128Y394425D01*
X155190Y394451D01*
X155254Y394475D01*
X155318Y394495D01*
X155384Y394511D01*
X155450Y394524D01*
X155517Y394533D01*
X155584Y394538D01*
X155652Y394540D01*
X155652Y394539D02*
X157648Y394539D01*
X157648Y394540D02*
X157716Y394538D01*
X157783Y394533D01*
X157850Y394524D01*
X157916Y394511D01*
X157982Y394495D01*
X158046Y394475D01*
X158110Y394451D01*
X158172Y394425D01*
X158233Y394395D01*
X158291Y394361D01*
X158348Y394325D01*
X158403Y394286D01*
X158456Y394243D01*
X158506Y394198D01*
X158554Y394150D01*
X158599Y394100D01*
X158642Y394047D01*
X158681Y393992D01*
X158717Y393935D01*
X158751Y393877D01*
X158781Y393816D01*
X158807Y393754D01*
X158831Y393690D01*
X158851Y393626D01*
X158867Y393560D01*
X158880Y393494D01*
X158889Y393427D01*
X158894Y393360D01*
X158896Y393292D01*
X158896Y392044D01*
X155402Y396694D02*
X154404Y397942D01*
X158896Y397942D01*
X158896Y399189D02*
X158896Y396694D01*
D14*
X262510Y89880D02*
X305690Y89880D01*
X305690Y28920D02*
X262510Y28920D01*
X314580Y49240D02*
X314580Y69380D01*
X253620Y69680D02*
X253620Y49240D01*
X266320Y59400D02*
X266325Y59836D01*
X266341Y60272D01*
X266368Y60708D01*
X266406Y61143D01*
X266454Y61576D01*
X266512Y62009D01*
X266582Y62440D01*
X266662Y62869D01*
X266752Y63296D01*
X266853Y63720D01*
X266964Y64142D01*
X267086Y64561D01*
X267217Y64977D01*
X267359Y65390D01*
X267511Y65799D01*
X267673Y66204D01*
X267845Y66605D01*
X268027Y67002D01*
X268218Y67394D01*
X268419Y67781D01*
X268630Y68164D01*
X268850Y68541D01*
X269079Y68912D01*
X269316Y69278D01*
X269563Y69638D01*
X269819Y69992D01*
X270083Y70339D01*
X270356Y70680D01*
X270637Y71013D01*
X270926Y71340D01*
X271223Y71660D01*
X271528Y71972D01*
X271840Y72277D01*
X272160Y72574D01*
X272487Y72863D01*
X272820Y73144D01*
X273161Y73417D01*
X273508Y73681D01*
X273862Y73937D01*
X274222Y74184D01*
X274588Y74421D01*
X274959Y74650D01*
X275336Y74870D01*
X275719Y75081D01*
X276106Y75282D01*
X276498Y75473D01*
X276895Y75655D01*
X277296Y75827D01*
X277701Y75989D01*
X278110Y76141D01*
X278523Y76283D01*
X278939Y76414D01*
X279358Y76536D01*
X279780Y76647D01*
X280204Y76748D01*
X280631Y76838D01*
X281060Y76918D01*
X281491Y76988D01*
X281924Y77046D01*
X282357Y77094D01*
X282792Y77132D01*
X283228Y77159D01*
X283664Y77175D01*
X284100Y77180D01*
X284536Y77175D01*
X284972Y77159D01*
X285408Y77132D01*
X285843Y77094D01*
X286276Y77046D01*
X286709Y76988D01*
X287140Y76918D01*
X287569Y76838D01*
X287996Y76748D01*
X288420Y76647D01*
X288842Y76536D01*
X289261Y76414D01*
X289677Y76283D01*
X290090Y76141D01*
X290499Y75989D01*
X290904Y75827D01*
X291305Y75655D01*
X291702Y75473D01*
X292094Y75282D01*
X292481Y75081D01*
X292864Y74870D01*
X293241Y74650D01*
X293612Y74421D01*
X293978Y74184D01*
X294338Y73937D01*
X294692Y73681D01*
X295039Y73417D01*
X295380Y73144D01*
X295713Y72863D01*
X296040Y72574D01*
X296360Y72277D01*
X296672Y71972D01*
X296977Y71660D01*
X297274Y71340D01*
X297563Y71013D01*
X297844Y70680D01*
X298117Y70339D01*
X298381Y69992D01*
X298637Y69638D01*
X298884Y69278D01*
X299121Y68912D01*
X299350Y68541D01*
X299570Y68164D01*
X299781Y67781D01*
X299982Y67394D01*
X300173Y67002D01*
X300355Y66605D01*
X300527Y66204D01*
X300689Y65799D01*
X300841Y65390D01*
X300983Y64977D01*
X301114Y64561D01*
X301236Y64142D01*
X301347Y63720D01*
X301448Y63296D01*
X301538Y62869D01*
X301618Y62440D01*
X301688Y62009D01*
X301746Y61576D01*
X301794Y61143D01*
X301832Y60708D01*
X301859Y60272D01*
X301875Y59836D01*
X301880Y59400D01*
X301875Y58964D01*
X301859Y58528D01*
X301832Y58092D01*
X301794Y57657D01*
X301746Y57224D01*
X301688Y56791D01*
X301618Y56360D01*
X301538Y55931D01*
X301448Y55504D01*
X301347Y55080D01*
X301236Y54658D01*
X301114Y54239D01*
X300983Y53823D01*
X300841Y53410D01*
X300689Y53001D01*
X300527Y52596D01*
X300355Y52195D01*
X300173Y51798D01*
X299982Y51406D01*
X299781Y51019D01*
X299570Y50636D01*
X299350Y50259D01*
X299121Y49888D01*
X298884Y49522D01*
X298637Y49162D01*
X298381Y48808D01*
X298117Y48461D01*
X297844Y48120D01*
X297563Y47787D01*
X297274Y47460D01*
X296977Y47140D01*
X296672Y46828D01*
X296360Y46523D01*
X296040Y46226D01*
X295713Y45937D01*
X295380Y45656D01*
X295039Y45383D01*
X294692Y45119D01*
X294338Y44863D01*
X293978Y44616D01*
X293612Y44379D01*
X293241Y44150D01*
X292864Y43930D01*
X292481Y43719D01*
X292094Y43518D01*
X291702Y43327D01*
X291305Y43145D01*
X290904Y42973D01*
X290499Y42811D01*
X290090Y42659D01*
X289677Y42517D01*
X289261Y42386D01*
X288842Y42264D01*
X288420Y42153D01*
X287996Y42052D01*
X287569Y41962D01*
X287140Y41882D01*
X286709Y41812D01*
X286276Y41754D01*
X285843Y41706D01*
X285408Y41668D01*
X284972Y41641D01*
X284536Y41625D01*
X284100Y41620D01*
X283664Y41625D01*
X283228Y41641D01*
X282792Y41668D01*
X282357Y41706D01*
X281924Y41754D01*
X281491Y41812D01*
X281060Y41882D01*
X280631Y41962D01*
X280204Y42052D01*
X279780Y42153D01*
X279358Y42264D01*
X278939Y42386D01*
X278523Y42517D01*
X278110Y42659D01*
X277701Y42811D01*
X277296Y42973D01*
X276895Y43145D01*
X276498Y43327D01*
X276106Y43518D01*
X275719Y43719D01*
X275336Y43930D01*
X274959Y44150D01*
X274588Y44379D01*
X274222Y44616D01*
X273862Y44863D01*
X273508Y45119D01*
X273161Y45383D01*
X272820Y45656D01*
X272487Y45937D01*
X272160Y46226D01*
X271840Y46523D01*
X271528Y46828D01*
X271223Y47140D01*
X270926Y47460D01*
X270637Y47787D01*
X270356Y48120D01*
X270083Y48461D01*
X269819Y48808D01*
X269563Y49162D01*
X269316Y49522D01*
X269079Y49888D01*
X268850Y50259D01*
X268630Y50636D01*
X268419Y51019D01*
X268218Y51406D01*
X268027Y51798D01*
X267845Y52195D01*
X267673Y52596D01*
X267511Y53001D01*
X267359Y53410D01*
X267217Y53823D01*
X267086Y54239D01*
X266964Y54658D01*
X266853Y55080D01*
X266752Y55504D01*
X266662Y55931D01*
X266582Y56360D01*
X266512Y56791D01*
X266454Y57224D01*
X266406Y57657D01*
X266368Y58092D01*
X266341Y58528D01*
X266325Y58964D01*
X266320Y59400D01*
D15*
X277946Y92928D02*
X278004Y92930D01*
X278062Y92936D01*
X278119Y92945D01*
X278175Y92958D01*
X278230Y92975D01*
X278285Y92995D01*
X278337Y93019D01*
X278389Y93047D01*
X278438Y93077D01*
X278485Y93111D01*
X278530Y93148D01*
X278572Y93187D01*
X278611Y93229D01*
X278648Y93274D01*
X278682Y93321D01*
X278712Y93371D01*
X278740Y93422D01*
X278764Y93474D01*
X278784Y93529D01*
X278801Y93584D01*
X278814Y93640D01*
X278823Y93697D01*
X278829Y93755D01*
X278831Y93813D01*
X277946Y92928D02*
X277864Y92930D01*
X277782Y92935D01*
X277701Y92944D01*
X277620Y92957D01*
X277539Y92973D01*
X277460Y92992D01*
X277381Y93015D01*
X277303Y93042D01*
X277227Y93072D01*
X277152Y93105D01*
X277078Y93141D01*
X277007Y93181D01*
X276937Y93224D01*
X276868Y93270D01*
X276802Y93318D01*
X276739Y93370D01*
X276677Y93424D01*
X276618Y93481D01*
X276729Y96027D02*
X276731Y96085D01*
X276737Y96143D01*
X276746Y96200D01*
X276759Y96256D01*
X276776Y96311D01*
X276796Y96366D01*
X276820Y96418D01*
X276848Y96470D01*
X276878Y96519D01*
X276912Y96566D01*
X276949Y96611D01*
X276988Y96653D01*
X277030Y96692D01*
X277075Y96729D01*
X277122Y96763D01*
X277172Y96793D01*
X277223Y96821D01*
X277275Y96845D01*
X277330Y96865D01*
X277385Y96882D01*
X277441Y96895D01*
X277499Y96904D01*
X277556Y96910D01*
X277614Y96912D01*
X277690Y96910D01*
X277766Y96905D01*
X277842Y96896D01*
X277918Y96884D01*
X277992Y96868D01*
X278066Y96849D01*
X278139Y96827D01*
X278211Y96801D01*
X278281Y96772D01*
X278350Y96740D01*
X278418Y96704D01*
X278484Y96666D01*
X278548Y96624D01*
X278610Y96580D01*
X277172Y95252D02*
X277122Y95284D01*
X277075Y95318D01*
X277030Y95355D01*
X276988Y95396D01*
X276948Y95438D01*
X276912Y95484D01*
X276878Y95531D01*
X276847Y95581D01*
X276820Y95633D01*
X276796Y95686D01*
X276776Y95740D01*
X276759Y95796D01*
X276746Y95853D01*
X276737Y95911D01*
X276731Y95969D01*
X276729Y96027D01*
X278388Y94588D02*
X278438Y94556D01*
X278485Y94522D01*
X278530Y94485D01*
X278572Y94444D01*
X278612Y94402D01*
X278648Y94356D01*
X278682Y94309D01*
X278713Y94259D01*
X278740Y94207D01*
X278764Y94154D01*
X278784Y94100D01*
X278801Y94044D01*
X278814Y93987D01*
X278823Y93929D01*
X278829Y93871D01*
X278831Y93813D01*
X278389Y94588D02*
X277172Y95252D01*
X281236Y96912D02*
X281236Y92928D01*
X281236Y96912D02*
X282343Y96912D01*
X282409Y96910D01*
X282474Y96904D01*
X282539Y96895D01*
X282603Y96881D01*
X282666Y96864D01*
X282728Y96843D01*
X282789Y96818D01*
X282848Y96790D01*
X282906Y96758D01*
X282961Y96723D01*
X283015Y96685D01*
X283066Y96644D01*
X283114Y96599D01*
X283160Y96552D01*
X283203Y96503D01*
X283242Y96450D01*
X283279Y96396D01*
X283312Y96339D01*
X283342Y96281D01*
X283369Y96221D01*
X283392Y96160D01*
X283411Y96097D01*
X283426Y96033D01*
X283438Y95968D01*
X283446Y95903D01*
X283450Y95838D01*
X283450Y95772D01*
X283446Y95707D01*
X283438Y95642D01*
X283426Y95577D01*
X283411Y95513D01*
X283392Y95450D01*
X283369Y95389D01*
X283342Y95329D01*
X283312Y95271D01*
X283279Y95214D01*
X283242Y95160D01*
X283203Y95107D01*
X283160Y95058D01*
X283114Y95011D01*
X283066Y94966D01*
X283015Y94925D01*
X282961Y94887D01*
X282906Y94852D01*
X282848Y94820D01*
X282789Y94792D01*
X282728Y94767D01*
X282666Y94746D01*
X282603Y94729D01*
X282539Y94715D01*
X282474Y94706D01*
X282409Y94700D01*
X282343Y94698D01*
X282343Y94699D02*
X281236Y94699D01*
X286646Y92928D02*
X286704Y92930D01*
X286762Y92936D01*
X286819Y92945D01*
X286875Y92958D01*
X286930Y92975D01*
X286985Y92995D01*
X287037Y93019D01*
X287089Y93047D01*
X287138Y93077D01*
X287185Y93111D01*
X287230Y93148D01*
X287272Y93187D01*
X287311Y93229D01*
X287348Y93274D01*
X287382Y93321D01*
X287412Y93371D01*
X287440Y93422D01*
X287464Y93474D01*
X287484Y93529D01*
X287501Y93584D01*
X287514Y93640D01*
X287523Y93697D01*
X287529Y93755D01*
X287531Y93813D01*
X286646Y92928D02*
X286564Y92930D01*
X286482Y92935D01*
X286401Y92944D01*
X286320Y92957D01*
X286239Y92973D01*
X286160Y92992D01*
X286081Y93015D01*
X286003Y93042D01*
X285927Y93072D01*
X285852Y93105D01*
X285778Y93141D01*
X285707Y93181D01*
X285637Y93224D01*
X285568Y93270D01*
X285502Y93318D01*
X285439Y93370D01*
X285377Y93424D01*
X285318Y93481D01*
X285429Y96027D02*
X285431Y96085D01*
X285437Y96143D01*
X285446Y96200D01*
X285459Y96256D01*
X285476Y96311D01*
X285496Y96366D01*
X285520Y96418D01*
X285548Y96470D01*
X285578Y96519D01*
X285612Y96566D01*
X285649Y96611D01*
X285688Y96653D01*
X285730Y96692D01*
X285775Y96729D01*
X285822Y96763D01*
X285872Y96793D01*
X285923Y96821D01*
X285975Y96845D01*
X286030Y96865D01*
X286085Y96882D01*
X286141Y96895D01*
X286199Y96904D01*
X286256Y96910D01*
X286314Y96912D01*
X286390Y96910D01*
X286466Y96905D01*
X286542Y96896D01*
X286618Y96884D01*
X286692Y96868D01*
X286766Y96849D01*
X286839Y96827D01*
X286911Y96801D01*
X286981Y96772D01*
X287050Y96740D01*
X287118Y96704D01*
X287184Y96666D01*
X287248Y96624D01*
X287310Y96580D01*
X285872Y95252D02*
X285822Y95284D01*
X285775Y95318D01*
X285730Y95355D01*
X285688Y95396D01*
X285648Y95438D01*
X285612Y95484D01*
X285578Y95531D01*
X285547Y95581D01*
X285520Y95633D01*
X285496Y95686D01*
X285476Y95740D01*
X285459Y95796D01*
X285446Y95853D01*
X285437Y95911D01*
X285431Y95969D01*
X285429Y96027D01*
X287088Y94588D02*
X287138Y94556D01*
X287185Y94522D01*
X287230Y94485D01*
X287272Y94444D01*
X287312Y94402D01*
X287348Y94356D01*
X287382Y94309D01*
X287413Y94259D01*
X287440Y94207D01*
X287464Y94154D01*
X287484Y94100D01*
X287501Y94044D01*
X287514Y93987D01*
X287523Y93929D01*
X287529Y93871D01*
X287531Y93813D01*
X287089Y94588D02*
X285872Y95252D01*
X290475Y96912D02*
X290475Y92928D01*
X289368Y96912D02*
X291582Y96912D01*
D17*
X339294Y135785D02*
X455294Y135785D01*
X339294Y135785D02*
X339294Y50785D01*
X455294Y50785D01*
X455294Y135785D01*
D12*
X349548Y143257D02*
X349548Y146501D01*
X349548Y143257D02*
X349550Y143188D01*
X349556Y143120D01*
X349565Y143052D01*
X349578Y142984D01*
X349595Y142917D01*
X349616Y142852D01*
X349640Y142787D01*
X349667Y142724D01*
X349698Y142663D01*
X349733Y142603D01*
X349770Y142546D01*
X349811Y142490D01*
X349855Y142437D01*
X349901Y142387D01*
X349951Y142339D01*
X350003Y142294D01*
X350057Y142251D01*
X350113Y142212D01*
X350172Y142176D01*
X350232Y142143D01*
X350295Y142114D01*
X350358Y142088D01*
X350423Y142066D01*
X350490Y142047D01*
X350557Y142032D01*
X350625Y142021D01*
X350693Y142013D01*
X350762Y142009D01*
X350830Y142009D01*
X350899Y142013D01*
X350967Y142021D01*
X351035Y142032D01*
X351102Y142047D01*
X351169Y142066D01*
X351234Y142088D01*
X351297Y142114D01*
X351360Y142143D01*
X351420Y142176D01*
X351479Y142212D01*
X351535Y142251D01*
X351589Y142294D01*
X351641Y142339D01*
X351691Y142387D01*
X351737Y142437D01*
X351781Y142490D01*
X351822Y142546D01*
X351859Y142603D01*
X351894Y142663D01*
X351925Y142724D01*
X351952Y142787D01*
X351976Y142852D01*
X351997Y142917D01*
X352014Y142984D01*
X352027Y143052D01*
X352036Y143120D01*
X352042Y143188D01*
X352044Y143257D01*
X352044Y146501D01*
X354198Y145503D02*
X355446Y146501D01*
X355446Y142009D01*
X354198Y142009D02*
X356694Y142009D01*
D14*
X254100Y162000D02*
X254100Y517600D01*
X304900Y517600D02*
X304900Y162000D01*
X304900Y517600D02*
X254100Y517600D01*
X254100Y162000D02*
X269340Y162000D01*
X289660Y162000D02*
X304900Y162000D01*
X289660Y162000D02*
X289657Y162247D01*
X289648Y162495D01*
X289633Y162742D01*
X289612Y162988D01*
X289585Y163234D01*
X289552Y163479D01*
X289513Y163724D01*
X289468Y163967D01*
X289417Y164209D01*
X289360Y164450D01*
X289298Y164689D01*
X289229Y164927D01*
X289155Y165163D01*
X289075Y165397D01*
X288990Y165629D01*
X288898Y165859D01*
X288802Y166087D01*
X288699Y166312D01*
X288592Y166535D01*
X288478Y166755D01*
X288360Y166972D01*
X288236Y167187D01*
X288107Y167398D01*
X287973Y167606D01*
X287834Y167811D01*
X287690Y168012D01*
X287542Y168210D01*
X287388Y168404D01*
X287230Y168594D01*
X287067Y168780D01*
X286900Y168962D01*
X286728Y169140D01*
X286552Y169314D01*
X286372Y169484D01*
X286187Y169649D01*
X285999Y169809D01*
X285807Y169965D01*
X285611Y170117D01*
X285412Y170263D01*
X285209Y170405D01*
X285002Y170541D01*
X284793Y170673D01*
X284580Y170799D01*
X284364Y170920D01*
X284146Y171036D01*
X283924Y171146D01*
X283700Y171251D01*
X283474Y171351D01*
X283245Y171445D01*
X283014Y171533D01*
X282780Y171616D01*
X282545Y171693D01*
X282308Y171764D01*
X282070Y171830D01*
X281830Y171889D01*
X281588Y171943D01*
X281345Y171991D01*
X281102Y172033D01*
X280857Y172069D01*
X280611Y172099D01*
X280365Y172123D01*
X280118Y172141D01*
X279871Y172153D01*
X279624Y172159D01*
X279376Y172159D01*
X279129Y172153D01*
X278882Y172141D01*
X278635Y172123D01*
X278389Y172099D01*
X278143Y172069D01*
X277898Y172033D01*
X277655Y171991D01*
X277412Y171943D01*
X277170Y171889D01*
X276930Y171830D01*
X276692Y171764D01*
X276455Y171693D01*
X276220Y171616D01*
X275986Y171533D01*
X275755Y171445D01*
X275526Y171351D01*
X275300Y171251D01*
X275076Y171146D01*
X274854Y171036D01*
X274636Y170920D01*
X274420Y170799D01*
X274207Y170673D01*
X273998Y170541D01*
X273791Y170405D01*
X273588Y170263D01*
X273389Y170117D01*
X273193Y169965D01*
X273001Y169809D01*
X272813Y169649D01*
X272628Y169484D01*
X272448Y169314D01*
X272272Y169140D01*
X272100Y168962D01*
X271933Y168780D01*
X271770Y168594D01*
X271612Y168404D01*
X271458Y168210D01*
X271310Y168012D01*
X271166Y167811D01*
X271027Y167606D01*
X270893Y167398D01*
X270764Y167187D01*
X270640Y166972D01*
X270522Y166755D01*
X270408Y166535D01*
X270301Y166312D01*
X270198Y166087D01*
X270102Y165859D01*
X270010Y165629D01*
X269925Y165397D01*
X269845Y165163D01*
X269771Y164927D01*
X269702Y164689D01*
X269640Y164450D01*
X269583Y164209D01*
X269532Y163967D01*
X269487Y163724D01*
X269448Y163479D01*
X269415Y163234D01*
X269388Y162988D01*
X269367Y162742D01*
X269352Y162495D01*
X269343Y162247D01*
X269340Y162000D01*
D18*
X306170Y155650D02*
X306172Y155792D01*
X306178Y155935D01*
X306188Y156077D01*
X306202Y156219D01*
X306220Y156360D01*
X306242Y156501D01*
X306268Y156641D01*
X306297Y156780D01*
X306331Y156919D01*
X306369Y157056D01*
X306410Y157193D01*
X306455Y157328D01*
X306504Y157462D01*
X306557Y157594D01*
X306613Y157725D01*
X306673Y157854D01*
X306737Y157982D01*
X306804Y158107D01*
X306875Y158231D01*
X306949Y158353D01*
X307026Y158472D01*
X307107Y158590D01*
X307191Y158705D01*
X307278Y158817D01*
X307369Y158927D01*
X307462Y159035D01*
X307559Y159140D01*
X307658Y159242D01*
X307760Y159341D01*
X307865Y159438D01*
X307973Y159531D01*
X308083Y159622D01*
X308195Y159709D01*
X308310Y159793D01*
X308428Y159874D01*
X308547Y159951D01*
X308669Y160025D01*
X308793Y160096D01*
X308918Y160163D01*
X309046Y160227D01*
X309175Y160287D01*
X309306Y160343D01*
X309438Y160396D01*
X309572Y160445D01*
X309707Y160490D01*
X309844Y160531D01*
X309981Y160569D01*
X310120Y160603D01*
X310259Y160632D01*
X310399Y160658D01*
X310540Y160680D01*
X310681Y160698D01*
X310823Y160712D01*
X310965Y160722D01*
X311108Y160728D01*
X311250Y160730D01*
X311392Y160728D01*
X311535Y160722D01*
X311677Y160712D01*
X311819Y160698D01*
X311960Y160680D01*
X312101Y160658D01*
X312241Y160632D01*
X312380Y160603D01*
X312519Y160569D01*
X312656Y160531D01*
X312793Y160490D01*
X312928Y160445D01*
X313062Y160396D01*
X313194Y160343D01*
X313325Y160287D01*
X313454Y160227D01*
X313582Y160163D01*
X313707Y160096D01*
X313831Y160025D01*
X313953Y159951D01*
X314072Y159874D01*
X314190Y159793D01*
X314305Y159709D01*
X314417Y159622D01*
X314527Y159531D01*
X314635Y159438D01*
X314740Y159341D01*
X314842Y159242D01*
X314941Y159140D01*
X315038Y159035D01*
X315131Y158927D01*
X315222Y158817D01*
X315309Y158705D01*
X315393Y158590D01*
X315474Y158472D01*
X315551Y158353D01*
X315625Y158231D01*
X315696Y158107D01*
X315763Y157982D01*
X315827Y157854D01*
X315887Y157725D01*
X315943Y157594D01*
X315996Y157462D01*
X316045Y157328D01*
X316090Y157193D01*
X316131Y157056D01*
X316169Y156919D01*
X316203Y156780D01*
X316232Y156641D01*
X316258Y156501D01*
X316280Y156360D01*
X316298Y156219D01*
X316312Y156077D01*
X316322Y155935D01*
X316328Y155792D01*
X316330Y155650D01*
X316328Y155508D01*
X316322Y155365D01*
X316312Y155223D01*
X316298Y155081D01*
X316280Y154940D01*
X316258Y154799D01*
X316232Y154659D01*
X316203Y154520D01*
X316169Y154381D01*
X316131Y154244D01*
X316090Y154107D01*
X316045Y153972D01*
X315996Y153838D01*
X315943Y153706D01*
X315887Y153575D01*
X315827Y153446D01*
X315763Y153318D01*
X315696Y153193D01*
X315625Y153069D01*
X315551Y152947D01*
X315474Y152828D01*
X315393Y152710D01*
X315309Y152595D01*
X315222Y152483D01*
X315131Y152373D01*
X315038Y152265D01*
X314941Y152160D01*
X314842Y152058D01*
X314740Y151959D01*
X314635Y151862D01*
X314527Y151769D01*
X314417Y151678D01*
X314305Y151591D01*
X314190Y151507D01*
X314072Y151426D01*
X313953Y151349D01*
X313831Y151275D01*
X313707Y151204D01*
X313582Y151137D01*
X313454Y151073D01*
X313325Y151013D01*
X313194Y150957D01*
X313062Y150904D01*
X312928Y150855D01*
X312793Y150810D01*
X312656Y150769D01*
X312519Y150731D01*
X312380Y150697D01*
X312241Y150668D01*
X312101Y150642D01*
X311960Y150620D01*
X311819Y150602D01*
X311677Y150588D01*
X311535Y150578D01*
X311392Y150572D01*
X311250Y150570D01*
X311108Y150572D01*
X310965Y150578D01*
X310823Y150588D01*
X310681Y150602D01*
X310540Y150620D01*
X310399Y150642D01*
X310259Y150668D01*
X310120Y150697D01*
X309981Y150731D01*
X309844Y150769D01*
X309707Y150810D01*
X309572Y150855D01*
X309438Y150904D01*
X309306Y150957D01*
X309175Y151013D01*
X309046Y151073D01*
X308918Y151137D01*
X308793Y151204D01*
X308669Y151275D01*
X308547Y151349D01*
X308428Y151426D01*
X308310Y151507D01*
X308195Y151591D01*
X308083Y151678D01*
X307973Y151769D01*
X307865Y151862D01*
X307760Y151959D01*
X307658Y152058D01*
X307559Y152160D01*
X307462Y152265D01*
X307369Y152373D01*
X307278Y152483D01*
X307191Y152595D01*
X307107Y152710D01*
X307026Y152828D01*
X306949Y152947D01*
X306875Y153069D01*
X306804Y153193D01*
X306737Y153318D01*
X306673Y153446D01*
X306613Y153575D01*
X306557Y153706D01*
X306504Y153838D01*
X306455Y153972D01*
X306410Y154107D01*
X306369Y154244D01*
X306331Y154381D01*
X306297Y154520D01*
X306268Y154659D01*
X306242Y154799D01*
X306220Y154940D01*
X306202Y155081D01*
X306188Y155223D01*
X306178Y155365D01*
X306172Y155508D01*
X306170Y155650D01*
D15*
X276068Y155142D02*
X276068Y152265D01*
X276070Y152199D01*
X276076Y152134D01*
X276085Y152069D01*
X276099Y152005D01*
X276116Y151942D01*
X276137Y151880D01*
X276162Y151819D01*
X276190Y151760D01*
X276222Y151702D01*
X276257Y151647D01*
X276295Y151593D01*
X276336Y151542D01*
X276381Y151494D01*
X276428Y151448D01*
X276477Y151405D01*
X276530Y151366D01*
X276584Y151329D01*
X276641Y151296D01*
X276699Y151266D01*
X276759Y151239D01*
X276820Y151216D01*
X276883Y151197D01*
X276947Y151182D01*
X277012Y151170D01*
X277077Y151162D01*
X277142Y151158D01*
X277208Y151158D01*
X277273Y151162D01*
X277338Y151170D01*
X277403Y151182D01*
X277467Y151197D01*
X277530Y151216D01*
X277591Y151239D01*
X277651Y151266D01*
X277709Y151296D01*
X277766Y151329D01*
X277820Y151366D01*
X277873Y151405D01*
X277922Y151448D01*
X277969Y151494D01*
X278014Y151542D01*
X278055Y151593D01*
X278093Y151647D01*
X278128Y151702D01*
X278160Y151760D01*
X278188Y151819D01*
X278213Y151880D01*
X278234Y151942D01*
X278251Y152005D01*
X278265Y152069D01*
X278274Y152134D01*
X278280Y152199D01*
X278282Y152265D01*
X278282Y155142D01*
X281936Y155142D02*
X281996Y155140D01*
X282056Y155135D01*
X282116Y155126D01*
X282174Y155113D01*
X282232Y155097D01*
X282289Y155077D01*
X282345Y155054D01*
X282399Y155028D01*
X282451Y154998D01*
X282502Y154966D01*
X282550Y154930D01*
X282596Y154892D01*
X282640Y154850D01*
X282682Y154806D01*
X282720Y154760D01*
X282756Y154712D01*
X282788Y154661D01*
X282818Y154609D01*
X282844Y154555D01*
X282867Y154499D01*
X282887Y154442D01*
X282903Y154384D01*
X282916Y154326D01*
X282925Y154266D01*
X282930Y154206D01*
X282932Y154146D01*
X281936Y155142D02*
X281866Y155140D01*
X281796Y155134D01*
X281727Y155125D01*
X281658Y155112D01*
X281590Y155094D01*
X281524Y155074D01*
X281458Y155049D01*
X281394Y155021D01*
X281331Y154990D01*
X281270Y154955D01*
X281212Y154917D01*
X281155Y154876D01*
X281101Y154832D01*
X281049Y154785D01*
X281000Y154735D01*
X280954Y154683D01*
X280910Y154628D01*
X280870Y154570D01*
X280833Y154511D01*
X280799Y154450D01*
X280769Y154387D01*
X280742Y154322D01*
X280718Y154256D01*
X282600Y153371D02*
X282643Y153415D01*
X282684Y153462D01*
X282723Y153510D01*
X282758Y153561D01*
X282790Y153614D01*
X282819Y153668D01*
X282845Y153725D01*
X282868Y153782D01*
X282888Y153841D01*
X282903Y153901D01*
X282916Y153961D01*
X282925Y154022D01*
X282930Y154084D01*
X282932Y154146D01*
X282600Y153371D02*
X280718Y151158D01*
X282932Y151158D01*
D14*
X423460Y317410D02*
X423460Y385990D01*
X377740Y385990D02*
X377740Y317410D01*
X377740Y385990D02*
X377747Y386547D01*
X377767Y387103D01*
X377801Y387659D01*
X377848Y388213D01*
X377909Y388767D01*
X377984Y389318D01*
X378071Y389868D01*
X378172Y390416D01*
X378287Y390960D01*
X378415Y391502D01*
X378555Y392041D01*
X378709Y392576D01*
X378876Y393107D01*
X379056Y393634D01*
X379248Y394156D01*
X379454Y394674D01*
X379671Y395186D01*
X379901Y395693D01*
X380144Y396194D01*
X380398Y396689D01*
X380665Y397178D01*
X380943Y397660D01*
X381233Y398135D01*
X381535Y398603D01*
X381848Y399064D01*
X382172Y399517D01*
X382506Y399961D01*
X382852Y400398D01*
X383208Y400826D01*
X383575Y401245D01*
X383951Y401655D01*
X384337Y402056D01*
X384733Y402447D01*
X385139Y402828D01*
X385554Y403200D01*
X385977Y403561D01*
X386409Y403912D01*
X386850Y404252D01*
X387299Y404582D01*
X387755Y404900D01*
X388220Y405207D01*
X388691Y405503D01*
X389170Y405787D01*
X389655Y406060D01*
X390147Y406320D01*
X390646Y406569D01*
X391150Y406805D01*
X391659Y407029D01*
X392174Y407241D01*
X392694Y407439D01*
X393219Y407626D01*
X393748Y407799D01*
X394281Y407959D01*
X394818Y408107D01*
X395358Y408241D01*
X395902Y408362D01*
X396448Y408470D01*
X396996Y408564D01*
X397547Y408645D01*
X398100Y408713D01*
X398654Y408767D01*
X399209Y408808D01*
X399765Y408835D01*
X400322Y408848D01*
X400878Y408848D01*
X401435Y408835D01*
X401991Y408808D01*
X402546Y408767D01*
X403100Y408713D01*
X403653Y408645D01*
X404204Y408564D01*
X404752Y408470D01*
X405298Y408362D01*
X405842Y408241D01*
X406382Y408107D01*
X406919Y407959D01*
X407452Y407799D01*
X407981Y407626D01*
X408506Y407439D01*
X409026Y407241D01*
X409541Y407029D01*
X410050Y406805D01*
X410554Y406569D01*
X411053Y406320D01*
X411545Y406060D01*
X412030Y405787D01*
X412509Y405503D01*
X412980Y405207D01*
X413445Y404900D01*
X413901Y404582D01*
X414350Y404252D01*
X414791Y403912D01*
X415223Y403561D01*
X415646Y403200D01*
X416061Y402828D01*
X416467Y402447D01*
X416863Y402056D01*
X417249Y401655D01*
X417625Y401245D01*
X417992Y400826D01*
X418348Y400398D01*
X418694Y399961D01*
X419028Y399517D01*
X419352Y399064D01*
X419665Y398603D01*
X419967Y398135D01*
X420257Y397660D01*
X420535Y397178D01*
X420802Y396689D01*
X421056Y396194D01*
X421299Y395693D01*
X421529Y395186D01*
X421746Y394674D01*
X421952Y394156D01*
X422144Y393634D01*
X422324Y393107D01*
X422491Y392576D01*
X422645Y392041D01*
X422785Y391502D01*
X422913Y390960D01*
X423028Y390416D01*
X423129Y389868D01*
X423216Y389318D01*
X423291Y388767D01*
X423352Y388213D01*
X423399Y387659D01*
X423433Y387103D01*
X423453Y386547D01*
X423460Y385990D01*
X423460Y317410D02*
X423453Y316853D01*
X423433Y316297D01*
X423399Y315741D01*
X423352Y315187D01*
X423291Y314633D01*
X423216Y314082D01*
X423129Y313532D01*
X423028Y312984D01*
X422913Y312440D01*
X422785Y311898D01*
X422645Y311359D01*
X422491Y310824D01*
X422324Y310293D01*
X422144Y309766D01*
X421952Y309244D01*
X421746Y308726D01*
X421529Y308214D01*
X421299Y307707D01*
X421056Y307206D01*
X420802Y306711D01*
X420535Y306222D01*
X420257Y305740D01*
X419967Y305265D01*
X419665Y304797D01*
X419352Y304336D01*
X419028Y303883D01*
X418694Y303439D01*
X418348Y303002D01*
X417992Y302574D01*
X417625Y302155D01*
X417249Y301745D01*
X416863Y301344D01*
X416467Y300953D01*
X416061Y300572D01*
X415646Y300200D01*
X415223Y299839D01*
X414791Y299488D01*
X414350Y299148D01*
X413901Y298818D01*
X413445Y298500D01*
X412980Y298193D01*
X412509Y297897D01*
X412030Y297613D01*
X411545Y297340D01*
X411053Y297080D01*
X410554Y296831D01*
X410050Y296595D01*
X409541Y296371D01*
X409026Y296159D01*
X408506Y295961D01*
X407981Y295774D01*
X407452Y295601D01*
X406919Y295441D01*
X406382Y295293D01*
X405842Y295159D01*
X405298Y295038D01*
X404752Y294930D01*
X404204Y294836D01*
X403653Y294755D01*
X403100Y294687D01*
X402546Y294633D01*
X401991Y294592D01*
X401435Y294565D01*
X400878Y294552D01*
X400322Y294552D01*
X399765Y294565D01*
X399209Y294592D01*
X398654Y294633D01*
X398100Y294687D01*
X397547Y294755D01*
X396996Y294836D01*
X396448Y294930D01*
X395902Y295038D01*
X395358Y295159D01*
X394818Y295293D01*
X394281Y295441D01*
X393748Y295601D01*
X393219Y295774D01*
X392694Y295961D01*
X392174Y296159D01*
X391659Y296371D01*
X391150Y296595D01*
X390646Y296831D01*
X390147Y297080D01*
X389655Y297340D01*
X389170Y297613D01*
X388691Y297897D01*
X388220Y298193D01*
X387755Y298500D01*
X387299Y298818D01*
X386850Y299148D01*
X386409Y299488D01*
X385977Y299839D01*
X385554Y300200D01*
X385139Y300572D01*
X384733Y300953D01*
X384337Y301344D01*
X383951Y301745D01*
X383575Y302155D01*
X383208Y302574D01*
X382852Y303002D01*
X382506Y303439D01*
X382172Y303883D01*
X381848Y304336D01*
X381535Y304797D01*
X381233Y305265D01*
X380943Y305740D01*
X380665Y306222D01*
X380398Y306711D01*
X380144Y307206D01*
X379901Y307707D01*
X379671Y308214D01*
X379454Y308726D01*
X379248Y309244D01*
X379056Y309766D01*
X378876Y310293D01*
X378709Y310824D01*
X378555Y311359D01*
X378415Y311898D01*
X378287Y312440D01*
X378172Y312984D01*
X378071Y313532D01*
X377984Y314082D01*
X377909Y314633D01*
X377848Y315187D01*
X377801Y315741D01*
X377767Y316297D01*
X377747Y316853D01*
X377740Y317410D01*
D15*
X370708Y348233D02*
X372589Y349561D01*
X370708Y350889D01*
X372589Y349561D02*
X374692Y349561D01*
X371593Y352954D02*
X370708Y354061D01*
X374692Y354061D01*
X374692Y355167D02*
X374692Y352954D01*
D10*
X299783Y130745D02*
X287146Y129484D01*
X299783Y130745D02*
X306732Y125057D01*
X307993Y112420D01*
X302306Y105471D01*
X306732Y125057D02*
X312420Y132007D01*
X325057Y133268D01*
X332007Y127580D01*
X333268Y114943D01*
X327580Y107993D01*
X314943Y106732D01*
X307993Y112420D01*
X282719Y109897D02*
X281458Y122535D01*
X287146Y129484D01*
X282719Y109897D02*
X289668Y104209D01*
X302306Y105471D01*
X332007Y127580D02*
X337694Y134529D01*
X350332Y135791D01*
X357281Y130103D01*
X358542Y117465D01*
X352854Y110516D01*
X340217Y109255D01*
X333268Y114943D01*
D12*
X281132Y135758D02*
X280785Y139234D01*
X281132Y135758D02*
X281136Y135696D01*
X281137Y135633D01*
X281133Y135570D01*
X281126Y135508D01*
X281114Y135446D01*
X281099Y135386D01*
X281080Y135326D01*
X281057Y135267D01*
X281031Y135211D01*
X281001Y135155D01*
X280967Y135102D01*
X280931Y135051D01*
X280891Y135003D01*
X280848Y134957D01*
X280803Y134914D01*
X280755Y134874D01*
X280704Y134837D01*
X280652Y134803D01*
X280597Y134772D01*
X280540Y134745D01*
X280482Y134722D01*
X280422Y134702D01*
X280362Y134686D01*
X280300Y134674D01*
X280238Y134666D01*
X280238Y134665D02*
X279741Y134616D01*
X283579Y134999D02*
X283133Y139469D01*
X284374Y139592D01*
X284374Y139593D02*
X284444Y139598D01*
X284514Y139599D01*
X284584Y139596D01*
X284654Y139589D01*
X284723Y139579D01*
X284791Y139564D01*
X284859Y139546D01*
X284925Y139524D01*
X284990Y139498D01*
X285054Y139468D01*
X285116Y139436D01*
X285175Y139399D01*
X285233Y139360D01*
X285288Y139317D01*
X285341Y139271D01*
X285392Y139222D01*
X285439Y139171D01*
X285484Y139117D01*
X285525Y139060D01*
X285563Y139001D01*
X285598Y138941D01*
X285629Y138878D01*
X285657Y138814D01*
X285681Y138748D01*
X285702Y138681D01*
X285718Y138613D01*
X285731Y138544D01*
X285740Y138475D01*
X285745Y138405D01*
X285746Y138335D01*
X285743Y138265D01*
X285736Y138196D01*
X285726Y138126D01*
X285711Y138058D01*
X285693Y137990D01*
X285671Y137924D01*
X285645Y137859D01*
X285615Y137795D01*
X285583Y137733D01*
X285546Y137674D01*
X285507Y137616D01*
X285464Y137561D01*
X285418Y137508D01*
X285369Y137457D01*
X285318Y137410D01*
X285264Y137365D01*
X285207Y137324D01*
X285149Y137286D01*
X285088Y137251D01*
X285025Y137220D01*
X284961Y137192D01*
X284895Y137168D01*
X284828Y137147D01*
X284760Y137131D01*
X284691Y137118D01*
X284622Y137109D01*
X283380Y136985D01*
X287832Y135423D02*
X289322Y135572D01*
X289382Y135580D01*
X289441Y135591D01*
X289499Y135606D01*
X289557Y135625D01*
X289613Y135646D01*
X289668Y135672D01*
X289721Y135700D01*
X289772Y135732D01*
X289822Y135766D01*
X289869Y135804D01*
X289913Y135844D01*
X289956Y135887D01*
X289995Y135933D01*
X290032Y135981D01*
X290066Y136031D01*
X290097Y136082D01*
X290124Y136136D01*
X290148Y136191D01*
X290169Y136248D01*
X290187Y136306D01*
X290201Y136364D01*
X290211Y136424D01*
X290218Y136484D01*
X290221Y136544D01*
X290220Y136604D01*
X290216Y136664D01*
X290166Y137161D01*
X290158Y137221D01*
X290147Y137280D01*
X290132Y137338D01*
X290113Y137396D01*
X290092Y137452D01*
X290066Y137507D01*
X290038Y137560D01*
X290006Y137611D01*
X289972Y137661D01*
X289934Y137708D01*
X289894Y137752D01*
X289851Y137795D01*
X289805Y137834D01*
X289757Y137871D01*
X289707Y137905D01*
X289656Y137936D01*
X289602Y137963D01*
X289547Y137987D01*
X289490Y138008D01*
X289432Y138026D01*
X289374Y138040D01*
X289314Y138050D01*
X289254Y138057D01*
X289194Y138060D01*
X289134Y138059D01*
X289074Y138055D01*
X287584Y137906D01*
X287386Y139893D01*
X289869Y140141D01*
M02*
