M48
;GenerationSoftware,Autodesk,EAGLE,9.6.2*%
;CreationDate,2023-04-02T16:48:06Z*%
FMAT,2
ICI,OFF
METRIC,TZ,000.000
T5C0.700
T4C0.800
T3C0.813
T2C1.000
T1C1.016
%
G90
M71
T1
X9360Y42710
X9360Y31760
X46710Y20200
X46710Y22740
X46710Y25280
X46710Y27820
X46710Y30360
X46710Y32900
X46710Y35440
X46710Y37980
X46990Y41240
X46990Y51400
X46990Y48860
X46990Y46320
X34527Y12252
X29473Y11748
X32000Y12000
X9360Y35090
X9360Y37630
X9360Y40170
X46990Y43780
X9360Y45250
X9360Y19060
X9360Y21600
X9360Y24140
X9360Y26680
X9360Y29220
X25159Y8201
X31661Y8201
X25159Y3679
X31661Y3679
T2
X9820Y7080
X6772Y11779
X3851Y7080
T3
X17529Y34058
X18511Y26502
X23010Y4720
X37490Y16070
X40030Y16070
X20470Y4720
X21090Y10450
X21090Y12990
X32076Y39560
X30044Y39560
X11330Y50070
X31760Y17470
X31760Y20010
X31760Y22550
X31760Y25090
X31760Y27630
X31760Y30170
X31760Y32710
X31760Y35250
X31760Y37790
X31760Y40330
X31760Y42870
X31760Y45410
X18950Y50070
X31760Y50490
X24140Y50490
X24140Y47950
X24140Y45410
X24140Y42870
X24140Y40330
X24140Y37790
X24140Y35250
X24140Y32710
X31760Y47950
X24140Y27630
X24140Y25090
X24140Y22550
X24140Y20010
X24140Y17470
X44696Y15560
X42664Y15560
X24140Y30170
T4
X39680Y7080
X42220Y7080
X37140Y7080
T5
X40060Y32630
X40060Y37710
M30