G04 EAGLE Gerber RS-274X export*
G75*
%MOMM*%
%FSLAX34Y34*%
%LPD*%
%INBottom Copper*%
%IPPOS*%
%AMOC8*
5,1,8,0,0,1.08239X$1,22.5*%
G01*
%ADD10P,1.429621X8X22.500000*%
%ADD11C,1.320800*%
%ADD12P,1.649562X8X22.500000*%
%ADD13C,1.524000*%
%ADD14P,1.429621X8X112.500000*%
%ADD15P,1.429621X8X202.500000*%
%ADD16C,0.152400*%

G36*
X811298Y226064D02*
X811298Y226064D01*
X811317Y226062D01*
X811419Y226084D01*
X811521Y226100D01*
X811538Y226110D01*
X811558Y226114D01*
X811647Y226167D01*
X811738Y226216D01*
X811752Y226230D01*
X811769Y226240D01*
X811836Y226319D01*
X811908Y226394D01*
X811916Y226412D01*
X811929Y226427D01*
X811968Y226523D01*
X812011Y226617D01*
X812013Y226637D01*
X812021Y226655D01*
X812039Y226822D01*
X812039Y509678D01*
X812036Y509698D01*
X812038Y509717D01*
X812016Y509819D01*
X812000Y509921D01*
X811990Y509938D01*
X811986Y509958D01*
X811933Y510047D01*
X811884Y510138D01*
X811870Y510152D01*
X811860Y510169D01*
X811781Y510236D01*
X811706Y510308D01*
X811688Y510316D01*
X811673Y510329D01*
X811577Y510368D01*
X811483Y510411D01*
X811463Y510413D01*
X811445Y510421D01*
X811278Y510439D01*
X455422Y510439D01*
X455402Y510436D01*
X455383Y510438D01*
X455281Y510416D01*
X455179Y510400D01*
X455162Y510390D01*
X455142Y510386D01*
X455053Y510333D01*
X454962Y510284D01*
X454948Y510270D01*
X454931Y510260D01*
X454864Y510181D01*
X454792Y510106D01*
X454784Y510088D01*
X454771Y510073D01*
X454732Y509977D01*
X454689Y509883D01*
X454687Y509863D01*
X454679Y509845D01*
X454661Y509678D01*
X454661Y226822D01*
X454664Y226802D01*
X454662Y226783D01*
X454684Y226681D01*
X454700Y226579D01*
X454710Y226562D01*
X454714Y226542D01*
X454767Y226453D01*
X454816Y226362D01*
X454830Y226348D01*
X454840Y226331D01*
X454919Y226264D01*
X454994Y226192D01*
X455012Y226184D01*
X455027Y226171D01*
X455123Y226132D01*
X455217Y226089D01*
X455237Y226087D01*
X455255Y226079D01*
X455422Y226061D01*
X811278Y226061D01*
X811298Y226064D01*
G37*
%LPC*%
G36*
X580833Y283971D02*
X580833Y283971D01*
X576071Y288733D01*
X576071Y295467D01*
X580833Y300229D01*
X581152Y300229D01*
X581172Y300232D01*
X581191Y300230D01*
X581293Y300252D01*
X581395Y300268D01*
X581412Y300278D01*
X581432Y300282D01*
X581521Y300335D01*
X581612Y300384D01*
X581626Y300398D01*
X581643Y300408D01*
X581710Y300487D01*
X581782Y300562D01*
X581790Y300580D01*
X581803Y300595D01*
X581842Y300691D01*
X581885Y300785D01*
X581887Y300805D01*
X581895Y300823D01*
X581913Y300990D01*
X581913Y341637D01*
X581899Y341728D01*
X581891Y341818D01*
X581879Y341848D01*
X581874Y341880D01*
X581831Y341961D01*
X581795Y342045D01*
X581769Y342077D01*
X581758Y342098D01*
X581735Y342120D01*
X581690Y342176D01*
X538518Y385348D01*
X538444Y385401D01*
X538374Y385461D01*
X538344Y385473D01*
X538318Y385492D01*
X538231Y385519D01*
X538146Y385553D01*
X538105Y385557D01*
X538083Y385564D01*
X538051Y385563D01*
X537980Y385571D01*
X525179Y385571D01*
X522191Y386809D01*
X519905Y389095D01*
X518667Y392083D01*
X518667Y395317D01*
X519905Y398305D01*
X522191Y400591D01*
X525179Y401829D01*
X541621Y401829D01*
X544609Y400591D01*
X546895Y398305D01*
X547661Y396457D01*
X547723Y396357D01*
X547782Y396257D01*
X547787Y396253D01*
X547790Y396248D01*
X547881Y396173D01*
X547969Y396097D01*
X547975Y396095D01*
X547980Y396091D01*
X548088Y396049D01*
X548197Y396005D01*
X548205Y396004D01*
X548209Y396003D01*
X548228Y396002D01*
X548364Y395987D01*
X585147Y395987D01*
X604482Y376652D01*
X604556Y376599D01*
X604626Y376539D01*
X604656Y376527D01*
X604682Y376508D01*
X604769Y376481D01*
X604854Y376447D01*
X604895Y376443D01*
X604917Y376436D01*
X604949Y376437D01*
X605020Y376429D01*
X617821Y376429D01*
X620809Y375191D01*
X623095Y372905D01*
X623861Y371057D01*
X623923Y370957D01*
X623982Y370857D01*
X623987Y370853D01*
X623990Y370848D01*
X624081Y370773D01*
X624169Y370697D01*
X624175Y370695D01*
X624180Y370691D01*
X624288Y370649D01*
X624397Y370605D01*
X624405Y370604D01*
X624409Y370603D01*
X624428Y370602D01*
X624564Y370587D01*
X710065Y370587D01*
X710155Y370601D01*
X710246Y370609D01*
X710276Y370621D01*
X710308Y370626D01*
X710389Y370669D01*
X710472Y370705D01*
X710505Y370731D01*
X710525Y370742D01*
X710547Y370765D01*
X710603Y370810D01*
X719270Y379477D01*
X728530Y379477D01*
X735077Y372930D01*
X735077Y339090D01*
X735080Y339070D01*
X735078Y339051D01*
X735100Y338949D01*
X735116Y338847D01*
X735126Y338830D01*
X735130Y338810D01*
X735183Y338721D01*
X735232Y338630D01*
X735246Y338616D01*
X735256Y338599D01*
X735335Y338532D01*
X735410Y338460D01*
X735428Y338452D01*
X735443Y338439D01*
X735539Y338400D01*
X735633Y338357D01*
X735653Y338355D01*
X735671Y338347D01*
X735838Y338329D01*
X739967Y338329D01*
X744729Y333567D01*
X744729Y326833D01*
X739967Y322071D01*
X733233Y322071D01*
X728471Y326833D01*
X728471Y333567D01*
X730280Y335376D01*
X730333Y335450D01*
X730393Y335519D01*
X730405Y335550D01*
X730424Y335576D01*
X730451Y335663D01*
X730485Y335748D01*
X730489Y335789D01*
X730496Y335811D01*
X730495Y335843D01*
X730503Y335914D01*
X730503Y361570D01*
X730500Y361587D01*
X730502Y361603D01*
X730491Y361653D01*
X730490Y361712D01*
X730472Y361761D01*
X730464Y361812D01*
X730452Y361835D01*
X730450Y361843D01*
X730429Y361878D01*
X730405Y361943D01*
X730373Y361984D01*
X730348Y362030D01*
X730325Y362052D01*
X730324Y362054D01*
X730314Y362062D01*
X730296Y362079D01*
X730252Y362135D01*
X730208Y362163D01*
X730170Y362199D01*
X730105Y362229D01*
X730045Y362268D01*
X729994Y362281D01*
X729947Y362303D01*
X729876Y362311D01*
X729806Y362328D01*
X729754Y362324D01*
X729703Y362330D01*
X729632Y362315D01*
X729561Y362309D01*
X729513Y362289D01*
X729500Y362286D01*
X729493Y362285D01*
X729492Y362284D01*
X729462Y362278D01*
X729401Y362241D01*
X729335Y362213D01*
X729291Y362178D01*
X729275Y362170D01*
X729267Y362161D01*
X729251Y362151D01*
X729236Y362134D01*
X729204Y362108D01*
X727267Y360171D01*
X726948Y360171D01*
X726928Y360168D01*
X726909Y360170D01*
X726807Y360148D01*
X726705Y360132D01*
X726688Y360122D01*
X726668Y360118D01*
X726579Y360065D01*
X726488Y360016D01*
X726474Y360002D01*
X726457Y359992D01*
X726390Y359913D01*
X726318Y359838D01*
X726310Y359820D01*
X726297Y359805D01*
X726258Y359709D01*
X726215Y359615D01*
X726213Y359595D01*
X726205Y359577D01*
X726187Y359410D01*
X726187Y354653D01*
X668303Y296769D01*
X668291Y296753D01*
X668276Y296741D01*
X668220Y296653D01*
X668160Y296569D01*
X668154Y296550D01*
X668143Y296534D01*
X668118Y296433D01*
X668087Y296334D01*
X668088Y296314D01*
X668083Y296295D01*
X668091Y296192D01*
X668094Y296089D01*
X668100Y296070D01*
X668102Y296050D01*
X668142Y295955D01*
X668178Y295857D01*
X668191Y295842D01*
X668198Y295824D01*
X668303Y295693D01*
X668529Y295467D01*
X668529Y288733D01*
X663767Y283971D01*
X657033Y283971D01*
X652271Y288733D01*
X652271Y295467D01*
X657033Y300229D01*
X663767Y300229D01*
X663993Y300003D01*
X664009Y299991D01*
X664021Y299976D01*
X664108Y299920D01*
X664192Y299860D01*
X664211Y299854D01*
X664228Y299843D01*
X664329Y299818D01*
X664427Y299787D01*
X664447Y299788D01*
X664467Y299783D01*
X664570Y299791D01*
X664673Y299794D01*
X664692Y299800D01*
X664712Y299802D01*
X664807Y299842D01*
X664904Y299878D01*
X664920Y299891D01*
X664938Y299898D01*
X665069Y300003D01*
X721390Y356324D01*
X721443Y356398D01*
X721503Y356468D01*
X721515Y356498D01*
X721534Y356524D01*
X721561Y356611D01*
X721595Y356696D01*
X721599Y356737D01*
X721606Y356759D01*
X721605Y356791D01*
X721613Y356863D01*
X721613Y359410D01*
X721610Y359430D01*
X721612Y359449D01*
X721590Y359551D01*
X721574Y359653D01*
X721564Y359670D01*
X721560Y359690D01*
X721507Y359779D01*
X721458Y359870D01*
X721444Y359884D01*
X721434Y359901D01*
X721355Y359968D01*
X721280Y360040D01*
X721262Y360048D01*
X721247Y360061D01*
X721151Y360100D01*
X721057Y360143D01*
X721037Y360145D01*
X721019Y360153D01*
X720852Y360171D01*
X720533Y360171D01*
X715771Y364933D01*
X715771Y367672D01*
X715769Y367684D01*
X715770Y367693D01*
X715761Y367737D01*
X715760Y367743D01*
X715758Y367814D01*
X715740Y367863D01*
X715732Y367915D01*
X715698Y367978D01*
X715673Y368045D01*
X715641Y368086D01*
X715616Y368132D01*
X715564Y368181D01*
X715520Y368237D01*
X715476Y368266D01*
X715438Y368301D01*
X715373Y368332D01*
X715313Y368370D01*
X715262Y368383D01*
X715215Y368405D01*
X715144Y368413D01*
X715074Y368430D01*
X715022Y368426D01*
X714971Y368432D01*
X714900Y368417D01*
X714829Y368411D01*
X714781Y368391D01*
X714730Y368380D01*
X714669Y368343D01*
X714603Y368315D01*
X714547Y368270D01*
X714519Y368254D01*
X714504Y368236D01*
X714472Y368210D01*
X712275Y366013D01*
X624564Y366013D01*
X624449Y365994D01*
X624333Y365977D01*
X624327Y365975D01*
X624321Y365974D01*
X624219Y365919D01*
X624114Y365866D01*
X624109Y365861D01*
X624104Y365858D01*
X624024Y365774D01*
X623941Y365690D01*
X623938Y365684D01*
X623934Y365680D01*
X623927Y365663D01*
X623861Y365543D01*
X623095Y363695D01*
X620809Y361409D01*
X617821Y360171D01*
X601379Y360171D01*
X598391Y361409D01*
X596105Y363695D01*
X594867Y366683D01*
X594867Y369917D01*
X596105Y372905D01*
X598395Y375195D01*
X598407Y375211D01*
X598422Y375223D01*
X598478Y375310D01*
X598538Y375394D01*
X598544Y375413D01*
X598555Y375430D01*
X598580Y375531D01*
X598611Y375629D01*
X598610Y375649D01*
X598615Y375669D01*
X598607Y375772D01*
X598604Y375875D01*
X598598Y375894D01*
X598596Y375914D01*
X598556Y376008D01*
X598520Y376106D01*
X598507Y376122D01*
X598500Y376140D01*
X598395Y376271D01*
X583476Y391190D01*
X583402Y391243D01*
X583332Y391303D01*
X583302Y391315D01*
X583276Y391334D01*
X583189Y391361D01*
X583104Y391395D01*
X583063Y391399D01*
X583041Y391406D01*
X583009Y391405D01*
X582937Y391413D01*
X548364Y391413D01*
X548249Y391394D01*
X548133Y391377D01*
X548127Y391375D01*
X548121Y391374D01*
X548019Y391319D01*
X547914Y391266D01*
X547909Y391261D01*
X547904Y391258D01*
X547824Y391174D01*
X547741Y391090D01*
X547738Y391084D01*
X547734Y391080D01*
X547727Y391063D01*
X547661Y390943D01*
X546895Y389095D01*
X544605Y386805D01*
X544593Y386789D01*
X544578Y386777D01*
X544522Y386690D01*
X544462Y386606D01*
X544456Y386587D01*
X544445Y386570D01*
X544420Y386469D01*
X544389Y386371D01*
X544390Y386351D01*
X544385Y386331D01*
X544393Y386228D01*
X544396Y386125D01*
X544402Y386106D01*
X544404Y386086D01*
X544444Y385991D01*
X544480Y385894D01*
X544493Y385878D01*
X544500Y385860D01*
X544605Y385729D01*
X584924Y345410D01*
X586487Y343847D01*
X586487Y300990D01*
X586490Y300970D01*
X586488Y300951D01*
X586510Y300849D01*
X586526Y300747D01*
X586536Y300730D01*
X586540Y300710D01*
X586593Y300621D01*
X586642Y300530D01*
X586656Y300516D01*
X586666Y300499D01*
X586745Y300432D01*
X586820Y300360D01*
X586838Y300352D01*
X586853Y300339D01*
X586949Y300300D01*
X587043Y300257D01*
X587063Y300255D01*
X587081Y300247D01*
X587248Y300229D01*
X587567Y300229D01*
X592329Y295467D01*
X592329Y288733D01*
X587567Y283971D01*
X580833Y283971D01*
G37*
%LPD*%
%LPC*%
G36*
X720533Y436371D02*
X720533Y436371D01*
X715771Y441133D01*
X715771Y447867D01*
X715997Y448093D01*
X716009Y448109D01*
X716024Y448121D01*
X716080Y448208D01*
X716140Y448292D01*
X716146Y448311D01*
X716157Y448328D01*
X716182Y448429D01*
X716213Y448527D01*
X716212Y448547D01*
X716217Y448567D01*
X716209Y448670D01*
X716206Y448773D01*
X716200Y448792D01*
X716198Y448812D01*
X716158Y448907D01*
X716122Y449004D01*
X716109Y449020D01*
X716102Y449038D01*
X715997Y449169D01*
X699554Y465612D01*
X699480Y465665D01*
X699410Y465725D01*
X699380Y465737D01*
X699354Y465756D01*
X699267Y465783D01*
X699182Y465817D01*
X699141Y465821D01*
X699119Y465828D01*
X699087Y465827D01*
X699016Y465835D01*
X696681Y465835D01*
X693320Y467227D01*
X690747Y469800D01*
X689355Y473161D01*
X689355Y492039D01*
X690747Y495400D01*
X693320Y497973D01*
X696681Y499365D01*
X700319Y499365D01*
X703680Y497973D01*
X706253Y495400D01*
X707645Y492039D01*
X707645Y473161D01*
X706253Y469800D01*
X704582Y468129D01*
X704570Y468113D01*
X704554Y468100D01*
X704498Y468013D01*
X704438Y467929D01*
X704432Y467910D01*
X704421Y467893D01*
X704396Y467793D01*
X704366Y467694D01*
X704366Y467674D01*
X704361Y467655D01*
X704369Y467552D01*
X704372Y467448D01*
X704379Y467429D01*
X704380Y467410D01*
X704421Y467315D01*
X704456Y467217D01*
X704469Y467202D01*
X704477Y467183D01*
X704582Y467052D01*
X719231Y452403D01*
X719247Y452391D01*
X719259Y452376D01*
X719347Y452320D01*
X719431Y452260D01*
X719450Y452254D01*
X719466Y452243D01*
X719567Y452218D01*
X719666Y452187D01*
X719686Y452188D01*
X719705Y452183D01*
X719808Y452191D01*
X719912Y452194D01*
X719930Y452200D01*
X719950Y452202D01*
X720045Y452242D01*
X720143Y452278D01*
X720158Y452291D01*
X720176Y452298D01*
X720307Y452403D01*
X720533Y452629D01*
X727267Y452629D01*
X732029Y447867D01*
X732029Y441133D01*
X727267Y436371D01*
X720533Y436371D01*
G37*
%LPD*%
%LPC*%
G36*
X601379Y410971D02*
X601379Y410971D01*
X598391Y412209D01*
X596105Y414495D01*
X594867Y417483D01*
X594867Y420717D01*
X596105Y423705D01*
X598391Y425991D01*
X601379Y427229D01*
X617821Y427229D01*
X620809Y425991D01*
X623095Y423705D01*
X624333Y420717D01*
X624333Y417483D01*
X623095Y414495D01*
X620809Y412209D01*
X617821Y410971D01*
X601379Y410971D01*
G37*
%LPD*%
%LPC*%
G36*
X601379Y385571D02*
X601379Y385571D01*
X598391Y386809D01*
X596105Y389095D01*
X594867Y392083D01*
X594867Y395317D01*
X596105Y398305D01*
X598391Y400591D01*
X601379Y401829D01*
X617821Y401829D01*
X620809Y400591D01*
X623095Y398305D01*
X624333Y395317D01*
X624333Y392083D01*
X623095Y389095D01*
X620809Y386809D01*
X617821Y385571D01*
X601379Y385571D01*
G37*
%LPD*%
%LPC*%
G36*
X525179Y360171D02*
X525179Y360171D01*
X522191Y361409D01*
X519905Y363695D01*
X518667Y366683D01*
X518667Y369917D01*
X519905Y372905D01*
X522191Y375191D01*
X525179Y376429D01*
X541621Y376429D01*
X544609Y375191D01*
X546895Y372905D01*
X548133Y369917D01*
X548133Y366683D01*
X546895Y363695D01*
X544609Y361409D01*
X541621Y360171D01*
X525179Y360171D01*
G37*
%LPD*%
%LPC*%
G36*
X601379Y334771D02*
X601379Y334771D01*
X598391Y336009D01*
X596105Y338295D01*
X594867Y341283D01*
X594867Y344517D01*
X596105Y347505D01*
X598391Y349791D01*
X601379Y351029D01*
X617821Y351029D01*
X620809Y349791D01*
X623095Y347505D01*
X624333Y344517D01*
X624333Y341283D01*
X623095Y338295D01*
X620809Y336009D01*
X617821Y334771D01*
X601379Y334771D01*
G37*
%LPD*%
%LPC*%
G36*
X525179Y334771D02*
X525179Y334771D01*
X522191Y336009D01*
X519905Y338295D01*
X518667Y341283D01*
X518667Y344517D01*
X519905Y347505D01*
X522191Y349791D01*
X525179Y351029D01*
X541621Y351029D01*
X544609Y349791D01*
X546895Y347505D01*
X548133Y344517D01*
X548133Y341283D01*
X546895Y338295D01*
X544609Y336009D01*
X541621Y334771D01*
X525179Y334771D01*
G37*
%LPD*%
%LPC*%
G36*
X478812Y359155D02*
X478812Y359155D01*
X473455Y364512D01*
X473455Y372088D01*
X478812Y377445D01*
X486388Y377445D01*
X491745Y372088D01*
X491745Y364512D01*
X486388Y359155D01*
X478812Y359155D01*
G37*
%LPD*%
%LPC*%
G36*
X707833Y258571D02*
X707833Y258571D01*
X703071Y263333D01*
X703071Y270067D01*
X707833Y274829D01*
X714567Y274829D01*
X719329Y270067D01*
X719329Y263333D01*
X714567Y258571D01*
X707833Y258571D01*
G37*
%LPD*%
%LPC*%
G36*
X725423Y484123D02*
X725423Y484123D01*
X725423Y500266D01*
X726279Y500131D01*
X727800Y499636D01*
X729225Y498910D01*
X730519Y497970D01*
X731650Y496839D01*
X732590Y495545D01*
X733316Y494120D01*
X733811Y492599D01*
X734061Y491020D01*
X734061Y484123D01*
X725423Y484123D01*
G37*
%LPD*%
%LPC*%
G36*
X725423Y481077D02*
X725423Y481077D01*
X734061Y481077D01*
X734061Y474180D01*
X733811Y472601D01*
X733316Y471080D01*
X732590Y469655D01*
X731650Y468361D01*
X730519Y467230D01*
X729225Y466290D01*
X727800Y465564D01*
X726279Y465069D01*
X725423Y464934D01*
X725423Y481077D01*
G37*
%LPD*%
%LPC*%
G36*
X713739Y484123D02*
X713739Y484123D01*
X713739Y491020D01*
X713989Y492599D01*
X714484Y494120D01*
X715210Y495545D01*
X716150Y496839D01*
X717281Y497970D01*
X718575Y498910D01*
X720000Y499636D01*
X721521Y500131D01*
X722377Y500266D01*
X722377Y484123D01*
X713739Y484123D01*
G37*
%LPD*%
%LPC*%
G36*
X721521Y465069D02*
X721521Y465069D01*
X720000Y465564D01*
X718575Y466290D01*
X717281Y467230D01*
X716150Y468361D01*
X715210Y469655D01*
X714484Y471080D01*
X713989Y472601D01*
X713739Y474180D01*
X713739Y481077D01*
X722377Y481077D01*
X722377Y464934D01*
X721521Y465069D01*
G37*
%LPD*%
%LPC*%
G36*
X534923Y420623D02*
X534923Y420623D01*
X534923Y428245D01*
X540905Y428245D01*
X542671Y427893D01*
X544336Y427204D01*
X545834Y426203D01*
X547107Y424930D01*
X548108Y423432D01*
X548797Y421767D01*
X549025Y420623D01*
X534923Y420623D01*
G37*
%LPD*%
%LPC*%
G36*
X517775Y420623D02*
X517775Y420623D01*
X518003Y421767D01*
X518692Y423432D01*
X519693Y424930D01*
X520966Y426203D01*
X522464Y427204D01*
X524129Y427893D01*
X525895Y428245D01*
X531877Y428245D01*
X531877Y420623D01*
X517775Y420623D01*
G37*
%LPD*%
%LPC*%
G36*
X534923Y409955D02*
X534923Y409955D01*
X534923Y417577D01*
X549025Y417577D01*
X548797Y416433D01*
X548108Y414768D01*
X547107Y413270D01*
X545834Y411997D01*
X544336Y410996D01*
X542671Y410307D01*
X540905Y409955D01*
X534923Y409955D01*
G37*
%LPD*%
%LPC*%
G36*
X525895Y409955D02*
X525895Y409955D01*
X524129Y410307D01*
X522464Y410996D01*
X520966Y411997D01*
X519693Y413270D01*
X518692Y414768D01*
X518003Y416433D01*
X517775Y417577D01*
X531877Y417577D01*
X531877Y409955D01*
X525895Y409955D01*
G37*
%LPD*%
%LPC*%
G36*
X788923Y331723D02*
X788923Y331723D01*
X788923Y339345D01*
X791188Y339345D01*
X796545Y333988D01*
X796545Y331723D01*
X788923Y331723D01*
G37*
%LPD*%
%LPC*%
G36*
X763523Y268223D02*
X763523Y268223D01*
X763523Y275845D01*
X765788Y275845D01*
X771145Y270488D01*
X771145Y268223D01*
X763523Y268223D01*
G37*
%LPD*%
%LPC*%
G36*
X778255Y331723D02*
X778255Y331723D01*
X778255Y333988D01*
X783612Y339345D01*
X785877Y339345D01*
X785877Y331723D01*
X778255Y331723D01*
G37*
%LPD*%
%LPC*%
G36*
X752855Y268223D02*
X752855Y268223D01*
X752855Y270488D01*
X758212Y275845D01*
X760477Y275845D01*
X760477Y268223D01*
X752855Y268223D01*
G37*
%LPD*%
%LPC*%
G36*
X788923Y321055D02*
X788923Y321055D01*
X788923Y328677D01*
X796545Y328677D01*
X796545Y326412D01*
X791188Y321055D01*
X788923Y321055D01*
G37*
%LPD*%
%LPC*%
G36*
X763523Y257555D02*
X763523Y257555D01*
X763523Y265177D01*
X771145Y265177D01*
X771145Y262912D01*
X765788Y257555D01*
X763523Y257555D01*
G37*
%LPD*%
%LPC*%
G36*
X783612Y321055D02*
X783612Y321055D01*
X778255Y326412D01*
X778255Y328677D01*
X785877Y328677D01*
X785877Y321055D01*
X783612Y321055D01*
G37*
%LPD*%
%LPC*%
G36*
X758212Y257555D02*
X758212Y257555D01*
X752855Y262912D01*
X752855Y265177D01*
X760477Y265177D01*
X760477Y257555D01*
X758212Y257555D01*
G37*
%LPD*%
%LPC*%
G36*
X723899Y482599D02*
X723899Y482599D01*
X723899Y482601D01*
X723901Y482601D01*
X723901Y482599D01*
X723899Y482599D01*
G37*
%LPD*%
%LPC*%
G36*
X533399Y419099D02*
X533399Y419099D01*
X533399Y419101D01*
X533401Y419101D01*
X533401Y419099D01*
X533399Y419099D01*
G37*
%LPD*%
%LPC*%
G36*
X787399Y330199D02*
X787399Y330199D01*
X787399Y330201D01*
X787401Y330201D01*
X787401Y330199D01*
X787399Y330199D01*
G37*
%LPD*%
%LPC*%
G36*
X761999Y266699D02*
X761999Y266699D01*
X761999Y266701D01*
X762001Y266701D01*
X762001Y266699D01*
X761999Y266699D01*
G37*
%LPD*%
D10*
X736600Y330200D03*
X787400Y330200D03*
X711200Y266700D03*
X762000Y266700D03*
D11*
X540004Y419100D02*
X526796Y419100D01*
X526796Y393700D02*
X540004Y393700D01*
X602996Y393700D02*
X616204Y393700D01*
X616204Y419100D02*
X602996Y419100D01*
X540004Y368300D02*
X526796Y368300D01*
X526796Y342900D02*
X540004Y342900D01*
X602996Y368300D02*
X616204Y368300D01*
X616204Y342900D02*
X602996Y342900D01*
D12*
X482600Y368300D03*
D13*
X723900Y474980D02*
X723900Y490220D01*
X698500Y490220D02*
X698500Y474980D01*
D14*
X723900Y368300D03*
X723900Y444500D03*
D15*
X660400Y292100D03*
X584200Y292100D03*
D16*
X723900Y444500D02*
X698500Y469900D01*
X698500Y482600D01*
X584200Y342900D02*
X533400Y393700D01*
X584200Y342900D02*
X584200Y292100D01*
X584200Y393700D02*
X533400Y393700D01*
X584200Y393700D02*
X609600Y368300D01*
X720218Y377190D02*
X727582Y377190D01*
X732790Y371982D01*
X732790Y334010D02*
X736600Y330200D01*
X732790Y334010D02*
X732790Y371982D01*
X711328Y368300D02*
X609600Y368300D01*
X711328Y368300D02*
X720218Y377190D01*
X723900Y368300D02*
X723900Y355600D01*
X660400Y292100D01*
M02*
