G04 EAGLE Gerber RS-274X export*
G75*
%MOMM*%
%FSLAX34Y34*%
%LPD*%
%INTop Copper*%
%IPPOS*%
%AMOC8*
5,1,8,0,0,1.08239X$1,22.5*%
G01*
%ADD10P,1.429621X8X22.500000*%
%ADD11C,1.320800*%
%ADD12P,1.649562X8X22.500000*%
%ADD13C,1.524000*%
%ADD14P,1.429621X8X112.500000*%
%ADD15P,1.429621X8X202.500000*%
%ADD16C,0.152400*%


D10*
X736600Y330200D03*
X787400Y330200D03*
X711200Y266700D03*
X762000Y266700D03*
D11*
X540004Y419100D02*
X526796Y419100D01*
X526796Y393700D02*
X540004Y393700D01*
X602996Y393700D02*
X616204Y393700D01*
X616204Y419100D02*
X602996Y419100D01*
X540004Y368300D02*
X526796Y368300D01*
X526796Y342900D02*
X540004Y342900D01*
X602996Y368300D02*
X616204Y368300D01*
X616204Y342900D02*
X602996Y342900D01*
D12*
X482600Y368300D03*
D13*
X723900Y474980D02*
X723900Y490220D01*
X698500Y490220D02*
X698500Y474980D01*
D14*
X723900Y368300D03*
X723900Y444500D03*
D15*
X660400Y292100D03*
X584200Y292100D03*
D16*
X698500Y419100D02*
X723900Y444500D01*
X698500Y419100D02*
X609600Y419100D01*
X533400Y342900D01*
X609600Y393700D02*
X698500Y393700D01*
X723900Y368300D01*
X635000Y342900D02*
X711200Y266700D01*
X635000Y342900D02*
X609600Y342900D01*
X723900Y482600D02*
X723900Y500126D01*
X533400Y492252D02*
X533400Y419100D01*
X533400Y492252D02*
X525526Y500126D01*
X723900Y500126D01*
X723900Y482600D02*
X787400Y419100D01*
X787400Y330200D01*
X787400Y292100D01*
X762000Y266700D01*
X533400Y368300D02*
X482600Y368300D01*
M02*
