G04 EAGLE Gerber RS-274X export*
G75*
%MOMM*%
%FSLAX34Y34*%
%LPD*%
%INSilkscreen Top*%
%IPPOS*%
%AMOC8*
5,1,8,0,0,1.08239X$1,22.5*%
G01*
%ADD10C,0.152400*%
%ADD11C,0.304800*%
%ADD12C,0.127000*%
%ADD13R,0.508000X0.381000*%
%ADD14C,0.101600*%
%ADD15R,0.381000X0.508000*%


D10*
X745490Y341630D02*
X745350Y341628D01*
X745210Y341622D01*
X745070Y341613D01*
X744931Y341599D01*
X744792Y341582D01*
X744654Y341561D01*
X744516Y341536D01*
X744379Y341507D01*
X744243Y341475D01*
X744108Y341438D01*
X743974Y341398D01*
X743841Y341355D01*
X743709Y341307D01*
X743578Y341257D01*
X743449Y341202D01*
X743322Y341144D01*
X743196Y341083D01*
X743072Y341018D01*
X742950Y340949D01*
X742830Y340878D01*
X742712Y340803D01*
X742595Y340725D01*
X742481Y340643D01*
X742370Y340559D01*
X742261Y340471D01*
X742154Y340381D01*
X742049Y340287D01*
X741948Y340191D01*
X741849Y340092D01*
X741753Y339991D01*
X741659Y339886D01*
X741569Y339779D01*
X741481Y339670D01*
X741397Y339559D01*
X741315Y339445D01*
X741237Y339328D01*
X741162Y339210D01*
X741091Y339090D01*
X741022Y338968D01*
X740957Y338844D01*
X740896Y338718D01*
X740838Y338591D01*
X740783Y338462D01*
X740733Y338331D01*
X740685Y338199D01*
X740642Y338066D01*
X740602Y337932D01*
X740565Y337797D01*
X740533Y337661D01*
X740504Y337524D01*
X740479Y337386D01*
X740458Y337248D01*
X740441Y337109D01*
X740427Y336970D01*
X740418Y336830D01*
X740412Y336690D01*
X740410Y336550D01*
X740410Y323850D02*
X740412Y323710D01*
X740418Y323570D01*
X740427Y323430D01*
X740441Y323291D01*
X740458Y323152D01*
X740479Y323014D01*
X740504Y322876D01*
X740533Y322739D01*
X740565Y322603D01*
X740602Y322468D01*
X740642Y322334D01*
X740685Y322201D01*
X740733Y322069D01*
X740783Y321938D01*
X740838Y321809D01*
X740896Y321682D01*
X740957Y321556D01*
X741022Y321432D01*
X741091Y321310D01*
X741162Y321190D01*
X741237Y321072D01*
X741315Y320955D01*
X741397Y320841D01*
X741481Y320730D01*
X741569Y320621D01*
X741659Y320514D01*
X741753Y320409D01*
X741849Y320308D01*
X741948Y320209D01*
X742049Y320113D01*
X742154Y320019D01*
X742261Y319929D01*
X742370Y319841D01*
X742481Y319757D01*
X742595Y319675D01*
X742712Y319597D01*
X742830Y319522D01*
X742950Y319451D01*
X743072Y319382D01*
X743196Y319317D01*
X743322Y319256D01*
X743449Y319198D01*
X743578Y319143D01*
X743709Y319093D01*
X743841Y319045D01*
X743974Y319002D01*
X744108Y318962D01*
X744243Y318925D01*
X744379Y318893D01*
X744516Y318864D01*
X744654Y318839D01*
X744792Y318818D01*
X744931Y318801D01*
X745070Y318787D01*
X745210Y318778D01*
X745350Y318772D01*
X745490Y318770D01*
X745490Y341630D02*
X778510Y341630D01*
X778510Y318770D02*
X745490Y318770D01*
X778510Y341630D02*
X778650Y341628D01*
X778790Y341622D01*
X778930Y341613D01*
X779069Y341599D01*
X779208Y341582D01*
X779346Y341561D01*
X779484Y341536D01*
X779621Y341507D01*
X779757Y341475D01*
X779892Y341438D01*
X780026Y341398D01*
X780159Y341355D01*
X780291Y341307D01*
X780422Y341257D01*
X780551Y341202D01*
X780678Y341144D01*
X780804Y341083D01*
X780928Y341018D01*
X781050Y340949D01*
X781170Y340878D01*
X781288Y340803D01*
X781405Y340725D01*
X781519Y340643D01*
X781630Y340559D01*
X781739Y340471D01*
X781846Y340381D01*
X781951Y340287D01*
X782052Y340191D01*
X782151Y340092D01*
X782247Y339991D01*
X782341Y339886D01*
X782431Y339779D01*
X782519Y339670D01*
X782603Y339559D01*
X782685Y339445D01*
X782763Y339328D01*
X782838Y339210D01*
X782909Y339090D01*
X782978Y338968D01*
X783043Y338844D01*
X783104Y338718D01*
X783162Y338591D01*
X783217Y338462D01*
X783267Y338331D01*
X783315Y338199D01*
X783358Y338066D01*
X783398Y337932D01*
X783435Y337797D01*
X783467Y337661D01*
X783496Y337524D01*
X783521Y337386D01*
X783542Y337248D01*
X783559Y337109D01*
X783573Y336970D01*
X783582Y336830D01*
X783588Y336690D01*
X783590Y336550D01*
X783590Y323850D02*
X783588Y323710D01*
X783582Y323570D01*
X783573Y323430D01*
X783559Y323291D01*
X783542Y323152D01*
X783521Y323014D01*
X783496Y322876D01*
X783467Y322739D01*
X783435Y322603D01*
X783398Y322468D01*
X783358Y322334D01*
X783315Y322201D01*
X783267Y322069D01*
X783217Y321938D01*
X783162Y321809D01*
X783104Y321682D01*
X783043Y321556D01*
X782978Y321432D01*
X782909Y321310D01*
X782838Y321190D01*
X782763Y321072D01*
X782685Y320955D01*
X782603Y320841D01*
X782519Y320730D01*
X782431Y320621D01*
X782341Y320514D01*
X782247Y320409D01*
X782151Y320308D01*
X782052Y320209D01*
X781951Y320113D01*
X781846Y320019D01*
X781739Y319929D01*
X781630Y319841D01*
X781519Y319757D01*
X781405Y319675D01*
X781288Y319597D01*
X781170Y319522D01*
X781050Y319451D01*
X780928Y319382D01*
X780804Y319317D01*
X780678Y319256D01*
X780551Y319198D01*
X780422Y319143D01*
X780291Y319093D01*
X780159Y319045D01*
X780026Y319002D01*
X779892Y318962D01*
X779757Y318925D01*
X779621Y318893D01*
X779484Y318864D01*
X779346Y318839D01*
X779208Y318818D01*
X779069Y318801D01*
X778930Y318787D01*
X778790Y318778D01*
X778650Y318772D01*
X778510Y318770D01*
D11*
X758952Y330200D02*
X758952Y337820D01*
X758952Y330200D02*
X758952Y322580D01*
X765302Y330200D02*
X765302Y337820D01*
X765302Y330200D02*
X765302Y322580D01*
D10*
X765302Y330200D02*
X774700Y330200D01*
X758952Y330200D02*
X749300Y330200D01*
D12*
X746125Y344805D02*
X743585Y344805D01*
X743485Y344807D01*
X743386Y344813D01*
X743286Y344823D01*
X743188Y344836D01*
X743089Y344854D01*
X742992Y344875D01*
X742896Y344900D01*
X742800Y344929D01*
X742706Y344962D01*
X742613Y344998D01*
X742522Y345038D01*
X742432Y345082D01*
X742344Y345129D01*
X742258Y345179D01*
X742174Y345233D01*
X742092Y345290D01*
X742013Y345350D01*
X741935Y345414D01*
X741861Y345480D01*
X741789Y345549D01*
X741720Y345621D01*
X741654Y345695D01*
X741590Y345773D01*
X741530Y345852D01*
X741473Y345934D01*
X741419Y346018D01*
X741369Y346104D01*
X741322Y346192D01*
X741278Y346282D01*
X741238Y346373D01*
X741202Y346466D01*
X741169Y346560D01*
X741140Y346656D01*
X741115Y346752D01*
X741094Y346849D01*
X741076Y346948D01*
X741063Y347046D01*
X741053Y347146D01*
X741047Y347245D01*
X741045Y347345D01*
X741045Y353695D01*
X741047Y353795D01*
X741053Y353894D01*
X741063Y353994D01*
X741076Y354092D01*
X741094Y354191D01*
X741115Y354288D01*
X741140Y354384D01*
X741169Y354480D01*
X741202Y354574D01*
X741238Y354667D01*
X741278Y354758D01*
X741322Y354848D01*
X741369Y354936D01*
X741419Y355022D01*
X741473Y355106D01*
X741530Y355188D01*
X741590Y355267D01*
X741654Y355345D01*
X741720Y355419D01*
X741789Y355491D01*
X741861Y355560D01*
X741935Y355626D01*
X742013Y355690D01*
X742092Y355750D01*
X742174Y355807D01*
X742258Y355861D01*
X742344Y355911D01*
X742432Y355958D01*
X742522Y356002D01*
X742613Y356042D01*
X742706Y356078D01*
X742800Y356111D01*
X742896Y356140D01*
X742992Y356165D01*
X743089Y356186D01*
X743188Y356204D01*
X743286Y356217D01*
X743386Y356227D01*
X743485Y356233D01*
X743585Y356235D01*
X746125Y356235D01*
X750607Y353695D02*
X753782Y356235D01*
X753782Y344805D01*
X750607Y344805D02*
X756957Y344805D01*
D10*
X720090Y278130D02*
X719950Y278128D01*
X719810Y278122D01*
X719670Y278113D01*
X719531Y278099D01*
X719392Y278082D01*
X719254Y278061D01*
X719116Y278036D01*
X718979Y278007D01*
X718843Y277975D01*
X718708Y277938D01*
X718574Y277898D01*
X718441Y277855D01*
X718309Y277807D01*
X718178Y277757D01*
X718049Y277702D01*
X717922Y277644D01*
X717796Y277583D01*
X717672Y277518D01*
X717550Y277449D01*
X717430Y277378D01*
X717312Y277303D01*
X717195Y277225D01*
X717081Y277143D01*
X716970Y277059D01*
X716861Y276971D01*
X716754Y276881D01*
X716649Y276787D01*
X716548Y276691D01*
X716449Y276592D01*
X716353Y276491D01*
X716259Y276386D01*
X716169Y276279D01*
X716081Y276170D01*
X715997Y276059D01*
X715915Y275945D01*
X715837Y275828D01*
X715762Y275710D01*
X715691Y275590D01*
X715622Y275468D01*
X715557Y275344D01*
X715496Y275218D01*
X715438Y275091D01*
X715383Y274962D01*
X715333Y274831D01*
X715285Y274699D01*
X715242Y274566D01*
X715202Y274432D01*
X715165Y274297D01*
X715133Y274161D01*
X715104Y274024D01*
X715079Y273886D01*
X715058Y273748D01*
X715041Y273609D01*
X715027Y273470D01*
X715018Y273330D01*
X715012Y273190D01*
X715010Y273050D01*
X715010Y260350D02*
X715012Y260210D01*
X715018Y260070D01*
X715027Y259930D01*
X715041Y259791D01*
X715058Y259652D01*
X715079Y259514D01*
X715104Y259376D01*
X715133Y259239D01*
X715165Y259103D01*
X715202Y258968D01*
X715242Y258834D01*
X715285Y258701D01*
X715333Y258569D01*
X715383Y258438D01*
X715438Y258309D01*
X715496Y258182D01*
X715557Y258056D01*
X715622Y257932D01*
X715691Y257810D01*
X715762Y257690D01*
X715837Y257572D01*
X715915Y257455D01*
X715997Y257341D01*
X716081Y257230D01*
X716169Y257121D01*
X716259Y257014D01*
X716353Y256909D01*
X716449Y256808D01*
X716548Y256709D01*
X716649Y256613D01*
X716754Y256519D01*
X716861Y256429D01*
X716970Y256341D01*
X717081Y256257D01*
X717195Y256175D01*
X717312Y256097D01*
X717430Y256022D01*
X717550Y255951D01*
X717672Y255882D01*
X717796Y255817D01*
X717922Y255756D01*
X718049Y255698D01*
X718178Y255643D01*
X718309Y255593D01*
X718441Y255545D01*
X718574Y255502D01*
X718708Y255462D01*
X718843Y255425D01*
X718979Y255393D01*
X719116Y255364D01*
X719254Y255339D01*
X719392Y255318D01*
X719531Y255301D01*
X719670Y255287D01*
X719810Y255278D01*
X719950Y255272D01*
X720090Y255270D01*
X720090Y278130D02*
X753110Y278130D01*
X753110Y255270D02*
X720090Y255270D01*
X753110Y278130D02*
X753250Y278128D01*
X753390Y278122D01*
X753530Y278113D01*
X753669Y278099D01*
X753808Y278082D01*
X753946Y278061D01*
X754084Y278036D01*
X754221Y278007D01*
X754357Y277975D01*
X754492Y277938D01*
X754626Y277898D01*
X754759Y277855D01*
X754891Y277807D01*
X755022Y277757D01*
X755151Y277702D01*
X755278Y277644D01*
X755404Y277583D01*
X755528Y277518D01*
X755650Y277449D01*
X755770Y277378D01*
X755888Y277303D01*
X756005Y277225D01*
X756119Y277143D01*
X756230Y277059D01*
X756339Y276971D01*
X756446Y276881D01*
X756551Y276787D01*
X756652Y276691D01*
X756751Y276592D01*
X756847Y276491D01*
X756941Y276386D01*
X757031Y276279D01*
X757119Y276170D01*
X757203Y276059D01*
X757285Y275945D01*
X757363Y275828D01*
X757438Y275710D01*
X757509Y275590D01*
X757578Y275468D01*
X757643Y275344D01*
X757704Y275218D01*
X757762Y275091D01*
X757817Y274962D01*
X757867Y274831D01*
X757915Y274699D01*
X757958Y274566D01*
X757998Y274432D01*
X758035Y274297D01*
X758067Y274161D01*
X758096Y274024D01*
X758121Y273886D01*
X758142Y273748D01*
X758159Y273609D01*
X758173Y273470D01*
X758182Y273330D01*
X758188Y273190D01*
X758190Y273050D01*
X758190Y260350D02*
X758188Y260210D01*
X758182Y260070D01*
X758173Y259930D01*
X758159Y259791D01*
X758142Y259652D01*
X758121Y259514D01*
X758096Y259376D01*
X758067Y259239D01*
X758035Y259103D01*
X757998Y258968D01*
X757958Y258834D01*
X757915Y258701D01*
X757867Y258569D01*
X757817Y258438D01*
X757762Y258309D01*
X757704Y258182D01*
X757643Y258056D01*
X757578Y257932D01*
X757509Y257810D01*
X757438Y257690D01*
X757363Y257572D01*
X757285Y257455D01*
X757203Y257341D01*
X757119Y257230D01*
X757031Y257121D01*
X756941Y257014D01*
X756847Y256909D01*
X756751Y256808D01*
X756652Y256709D01*
X756551Y256613D01*
X756446Y256519D01*
X756339Y256429D01*
X756230Y256341D01*
X756119Y256257D01*
X756005Y256175D01*
X755888Y256097D01*
X755770Y256022D01*
X755650Y255951D01*
X755528Y255882D01*
X755404Y255817D01*
X755278Y255756D01*
X755151Y255698D01*
X755022Y255643D01*
X754891Y255593D01*
X754759Y255545D01*
X754626Y255502D01*
X754492Y255462D01*
X754357Y255425D01*
X754221Y255393D01*
X754084Y255364D01*
X753946Y255339D01*
X753808Y255318D01*
X753669Y255301D01*
X753530Y255287D01*
X753390Y255278D01*
X753250Y255272D01*
X753110Y255270D01*
D11*
X733552Y266700D02*
X733552Y274320D01*
X733552Y266700D02*
X733552Y259080D01*
X739902Y266700D02*
X739902Y274320D01*
X739902Y266700D02*
X739902Y259080D01*
D10*
X739902Y266700D02*
X749300Y266700D01*
X733552Y266700D02*
X723900Y266700D01*
D12*
X720725Y281305D02*
X718185Y281305D01*
X718085Y281307D01*
X717986Y281313D01*
X717886Y281323D01*
X717788Y281336D01*
X717689Y281354D01*
X717592Y281375D01*
X717496Y281400D01*
X717400Y281429D01*
X717306Y281462D01*
X717213Y281498D01*
X717122Y281538D01*
X717032Y281582D01*
X716944Y281629D01*
X716858Y281679D01*
X716774Y281733D01*
X716692Y281790D01*
X716613Y281850D01*
X716535Y281914D01*
X716461Y281980D01*
X716389Y282049D01*
X716320Y282121D01*
X716254Y282195D01*
X716190Y282273D01*
X716130Y282352D01*
X716073Y282434D01*
X716019Y282518D01*
X715969Y282604D01*
X715922Y282692D01*
X715878Y282782D01*
X715838Y282873D01*
X715802Y282966D01*
X715769Y283060D01*
X715740Y283156D01*
X715715Y283252D01*
X715694Y283349D01*
X715676Y283448D01*
X715663Y283546D01*
X715653Y283646D01*
X715647Y283745D01*
X715645Y283845D01*
X715645Y290195D01*
X715647Y290295D01*
X715653Y290394D01*
X715663Y290494D01*
X715676Y290592D01*
X715694Y290691D01*
X715715Y290788D01*
X715740Y290884D01*
X715769Y290980D01*
X715802Y291074D01*
X715838Y291167D01*
X715878Y291258D01*
X715922Y291348D01*
X715969Y291436D01*
X716019Y291522D01*
X716073Y291606D01*
X716130Y291688D01*
X716190Y291767D01*
X716254Y291845D01*
X716320Y291919D01*
X716389Y291991D01*
X716461Y292060D01*
X716535Y292126D01*
X716613Y292190D01*
X716692Y292250D01*
X716774Y292307D01*
X716858Y292361D01*
X716944Y292411D01*
X717032Y292458D01*
X717122Y292502D01*
X717213Y292542D01*
X717306Y292578D01*
X717400Y292611D01*
X717496Y292640D01*
X717592Y292665D01*
X717689Y292686D01*
X717788Y292704D01*
X717886Y292717D01*
X717986Y292727D01*
X718085Y292733D01*
X718185Y292735D01*
X720725Y292735D01*
X728700Y292736D02*
X728804Y292734D01*
X728909Y292728D01*
X729013Y292719D01*
X729116Y292706D01*
X729219Y292688D01*
X729321Y292668D01*
X729423Y292643D01*
X729523Y292615D01*
X729623Y292583D01*
X729721Y292547D01*
X729818Y292508D01*
X729913Y292466D01*
X730007Y292420D01*
X730099Y292370D01*
X730189Y292318D01*
X730277Y292262D01*
X730363Y292202D01*
X730447Y292140D01*
X730528Y292075D01*
X730607Y292007D01*
X730684Y291935D01*
X730757Y291862D01*
X730829Y291785D01*
X730897Y291706D01*
X730962Y291625D01*
X731024Y291541D01*
X731084Y291455D01*
X731140Y291367D01*
X731192Y291277D01*
X731242Y291185D01*
X731288Y291091D01*
X731330Y290996D01*
X731369Y290899D01*
X731405Y290801D01*
X731437Y290701D01*
X731465Y290601D01*
X731490Y290499D01*
X731510Y290397D01*
X731528Y290294D01*
X731541Y290191D01*
X731550Y290087D01*
X731556Y289982D01*
X731558Y289878D01*
X728700Y292735D02*
X728582Y292733D01*
X728463Y292727D01*
X728345Y292718D01*
X728228Y292705D01*
X728111Y292687D01*
X727994Y292667D01*
X727878Y292642D01*
X727763Y292614D01*
X727650Y292581D01*
X727537Y292546D01*
X727425Y292506D01*
X727315Y292464D01*
X727206Y292417D01*
X727098Y292367D01*
X726993Y292314D01*
X726889Y292257D01*
X726787Y292197D01*
X726687Y292134D01*
X726589Y292067D01*
X726493Y291998D01*
X726400Y291925D01*
X726309Y291849D01*
X726220Y291771D01*
X726134Y291689D01*
X726051Y291605D01*
X725970Y291519D01*
X725893Y291429D01*
X725818Y291338D01*
X725746Y291244D01*
X725677Y291147D01*
X725612Y291049D01*
X725549Y290948D01*
X725490Y290845D01*
X725434Y290741D01*
X725382Y290635D01*
X725333Y290527D01*
X725288Y290418D01*
X725246Y290307D01*
X725208Y290195D01*
X730605Y287656D02*
X730681Y287731D01*
X730756Y287810D01*
X730827Y287891D01*
X730896Y287975D01*
X730961Y288061D01*
X731023Y288149D01*
X731083Y288239D01*
X731139Y288331D01*
X731192Y288426D01*
X731241Y288522D01*
X731287Y288620D01*
X731330Y288719D01*
X731369Y288820D01*
X731404Y288922D01*
X731436Y289025D01*
X731464Y289129D01*
X731489Y289234D01*
X731510Y289341D01*
X731527Y289447D01*
X731540Y289554D01*
X731549Y289662D01*
X731555Y289770D01*
X731557Y289878D01*
X730605Y287655D02*
X725207Y281305D01*
X731557Y281305D01*
D10*
X600710Y330200D02*
X600710Y431800D01*
X542290Y431800D02*
X542290Y330200D01*
X600710Y330200D01*
X600710Y431800D02*
X581660Y431800D01*
X561340Y431800D02*
X542290Y431800D01*
X561340Y431800D02*
X561343Y431553D01*
X561352Y431305D01*
X561367Y431058D01*
X561388Y430812D01*
X561415Y430566D01*
X561448Y430321D01*
X561487Y430076D01*
X561532Y429833D01*
X561583Y429591D01*
X561640Y429350D01*
X561702Y429111D01*
X561771Y428873D01*
X561845Y428637D01*
X561925Y428403D01*
X562010Y428171D01*
X562102Y427941D01*
X562198Y427713D01*
X562301Y427488D01*
X562408Y427265D01*
X562522Y427045D01*
X562640Y426828D01*
X562764Y426613D01*
X562893Y426402D01*
X563027Y426194D01*
X563166Y425989D01*
X563310Y425788D01*
X563458Y425590D01*
X563612Y425396D01*
X563770Y425206D01*
X563933Y425020D01*
X564100Y424838D01*
X564272Y424660D01*
X564448Y424486D01*
X564628Y424316D01*
X564813Y424151D01*
X565001Y423991D01*
X565193Y423835D01*
X565389Y423683D01*
X565588Y423537D01*
X565791Y423395D01*
X565998Y423259D01*
X566207Y423127D01*
X566420Y423001D01*
X566636Y422880D01*
X566854Y422764D01*
X567076Y422654D01*
X567300Y422549D01*
X567526Y422449D01*
X567755Y422355D01*
X567986Y422267D01*
X568220Y422184D01*
X568455Y422107D01*
X568692Y422036D01*
X568930Y421970D01*
X569170Y421911D01*
X569412Y421857D01*
X569655Y421809D01*
X569898Y421767D01*
X570143Y421731D01*
X570389Y421701D01*
X570635Y421677D01*
X570882Y421659D01*
X571129Y421647D01*
X571376Y421641D01*
X571624Y421641D01*
X571871Y421647D01*
X572118Y421659D01*
X572365Y421677D01*
X572611Y421701D01*
X572857Y421731D01*
X573102Y421767D01*
X573345Y421809D01*
X573588Y421857D01*
X573830Y421911D01*
X574070Y421970D01*
X574308Y422036D01*
X574545Y422107D01*
X574780Y422184D01*
X575014Y422267D01*
X575245Y422355D01*
X575474Y422449D01*
X575700Y422549D01*
X575924Y422654D01*
X576146Y422764D01*
X576364Y422880D01*
X576580Y423001D01*
X576793Y423127D01*
X577002Y423259D01*
X577209Y423395D01*
X577412Y423537D01*
X577611Y423683D01*
X577807Y423835D01*
X577999Y423991D01*
X578187Y424151D01*
X578372Y424316D01*
X578552Y424486D01*
X578728Y424660D01*
X578900Y424838D01*
X579067Y425020D01*
X579230Y425206D01*
X579388Y425396D01*
X579542Y425590D01*
X579690Y425788D01*
X579834Y425989D01*
X579973Y426194D01*
X580107Y426402D01*
X580236Y426613D01*
X580360Y426828D01*
X580478Y427045D01*
X580592Y427265D01*
X580699Y427488D01*
X580802Y427713D01*
X580898Y427941D01*
X580990Y428171D01*
X581075Y428403D01*
X581155Y428637D01*
X581229Y428873D01*
X581298Y429111D01*
X581360Y429350D01*
X581417Y429591D01*
X581468Y429833D01*
X581513Y430076D01*
X581552Y430321D01*
X581585Y430566D01*
X581612Y430812D01*
X581633Y431058D01*
X581648Y431305D01*
X581657Y431553D01*
X581660Y431800D01*
D12*
X544195Y434975D02*
X544195Y446405D01*
X542925Y434975D02*
X545465Y434975D01*
X545465Y446405D02*
X542925Y446405D01*
X552667Y434975D02*
X555207Y434975D01*
X552667Y434975D02*
X552567Y434977D01*
X552468Y434983D01*
X552368Y434993D01*
X552270Y435006D01*
X552171Y435024D01*
X552074Y435045D01*
X551978Y435070D01*
X551882Y435099D01*
X551788Y435132D01*
X551695Y435168D01*
X551604Y435208D01*
X551514Y435252D01*
X551426Y435299D01*
X551340Y435349D01*
X551256Y435403D01*
X551174Y435460D01*
X551095Y435520D01*
X551017Y435584D01*
X550943Y435650D01*
X550871Y435719D01*
X550802Y435791D01*
X550736Y435865D01*
X550672Y435943D01*
X550612Y436022D01*
X550555Y436104D01*
X550501Y436188D01*
X550451Y436274D01*
X550404Y436362D01*
X550360Y436452D01*
X550320Y436543D01*
X550284Y436636D01*
X550251Y436730D01*
X550222Y436826D01*
X550197Y436922D01*
X550176Y437019D01*
X550158Y437118D01*
X550145Y437216D01*
X550135Y437316D01*
X550129Y437415D01*
X550127Y437515D01*
X550127Y443865D01*
X550129Y443965D01*
X550135Y444064D01*
X550145Y444164D01*
X550158Y444262D01*
X550176Y444361D01*
X550197Y444458D01*
X550222Y444554D01*
X550251Y444650D01*
X550284Y444744D01*
X550320Y444837D01*
X550360Y444928D01*
X550404Y445018D01*
X550451Y445106D01*
X550501Y445192D01*
X550555Y445276D01*
X550612Y445358D01*
X550672Y445437D01*
X550736Y445515D01*
X550802Y445589D01*
X550871Y445661D01*
X550943Y445730D01*
X551017Y445796D01*
X551095Y445860D01*
X551174Y445920D01*
X551256Y445977D01*
X551340Y446031D01*
X551426Y446081D01*
X551514Y446128D01*
X551604Y446172D01*
X551695Y446212D01*
X551788Y446248D01*
X551882Y446281D01*
X551978Y446310D01*
X552074Y446335D01*
X552171Y446356D01*
X552270Y446374D01*
X552368Y446387D01*
X552468Y446397D01*
X552567Y446403D01*
X552667Y446405D01*
X555207Y446405D01*
X559689Y443865D02*
X562864Y446405D01*
X562864Y434975D01*
X559689Y434975D02*
X566039Y434975D01*
D10*
X488950Y381000D02*
X476250Y381000D01*
X488950Y381000D02*
X495300Y374650D01*
X495300Y361950D01*
X488950Y355600D01*
X469900Y361950D02*
X469900Y374650D01*
X476250Y381000D01*
X469900Y361950D02*
X476250Y355600D01*
X488950Y355600D01*
D12*
X473583Y389763D02*
X473583Y398653D01*
X473583Y389763D02*
X473581Y389663D01*
X473575Y389564D01*
X473565Y389464D01*
X473552Y389366D01*
X473534Y389267D01*
X473513Y389170D01*
X473488Y389074D01*
X473459Y388978D01*
X473426Y388884D01*
X473390Y388791D01*
X473350Y388700D01*
X473306Y388610D01*
X473259Y388522D01*
X473209Y388436D01*
X473155Y388352D01*
X473098Y388270D01*
X473038Y388191D01*
X472974Y388113D01*
X472908Y388039D01*
X472839Y387967D01*
X472767Y387898D01*
X472693Y387832D01*
X472615Y387768D01*
X472536Y387708D01*
X472454Y387651D01*
X472370Y387597D01*
X472284Y387547D01*
X472196Y387500D01*
X472106Y387456D01*
X472015Y387416D01*
X471922Y387380D01*
X471828Y387347D01*
X471732Y387318D01*
X471636Y387293D01*
X471539Y387272D01*
X471440Y387254D01*
X471342Y387241D01*
X471242Y387231D01*
X471143Y387225D01*
X471043Y387223D01*
X469773Y387223D01*
X479563Y387223D02*
X479563Y398653D01*
X482738Y398653D01*
X482849Y398651D01*
X482959Y398645D01*
X483070Y398636D01*
X483180Y398622D01*
X483289Y398605D01*
X483398Y398584D01*
X483506Y398559D01*
X483613Y398530D01*
X483719Y398498D01*
X483824Y398462D01*
X483927Y398422D01*
X484029Y398379D01*
X484130Y398332D01*
X484229Y398281D01*
X484326Y398228D01*
X484420Y398171D01*
X484513Y398110D01*
X484604Y398047D01*
X484693Y397980D01*
X484779Y397910D01*
X484862Y397837D01*
X484944Y397762D01*
X485022Y397684D01*
X485097Y397602D01*
X485170Y397519D01*
X485240Y397433D01*
X485307Y397344D01*
X485370Y397253D01*
X485431Y397160D01*
X485488Y397065D01*
X485541Y396969D01*
X485592Y396870D01*
X485639Y396769D01*
X485682Y396667D01*
X485722Y396564D01*
X485758Y396459D01*
X485790Y396353D01*
X485819Y396246D01*
X485844Y396138D01*
X485865Y396029D01*
X485882Y395920D01*
X485896Y395810D01*
X485905Y395699D01*
X485911Y395589D01*
X485913Y395478D01*
X485911Y395367D01*
X485905Y395257D01*
X485896Y395146D01*
X485882Y395036D01*
X485865Y394927D01*
X485844Y394818D01*
X485819Y394710D01*
X485790Y394603D01*
X485758Y394497D01*
X485722Y394392D01*
X485682Y394289D01*
X485639Y394187D01*
X485592Y394086D01*
X485541Y393987D01*
X485488Y393890D01*
X485431Y393796D01*
X485370Y393703D01*
X485307Y393612D01*
X485240Y393523D01*
X485170Y393437D01*
X485097Y393354D01*
X485022Y393272D01*
X484944Y393194D01*
X484862Y393119D01*
X484779Y393046D01*
X484693Y392976D01*
X484604Y392909D01*
X484513Y392846D01*
X484420Y392785D01*
X484326Y392728D01*
X484229Y392675D01*
X484130Y392624D01*
X484029Y392577D01*
X483927Y392534D01*
X483824Y392494D01*
X483719Y392458D01*
X483613Y392426D01*
X483506Y392397D01*
X483398Y392372D01*
X483289Y392351D01*
X483180Y392334D01*
X483070Y392320D01*
X482959Y392311D01*
X482849Y392305D01*
X482738Y392303D01*
X479563Y392303D01*
X490422Y396113D02*
X493597Y398653D01*
X493597Y387223D01*
X490422Y387223D02*
X496772Y387223D01*
D10*
X717550Y469900D02*
X730250Y469900D01*
X717550Y469900D02*
X711200Y476250D01*
X711200Y488950D01*
X717550Y495300D01*
X736600Y488950D02*
X736600Y476250D01*
X730250Y469900D01*
X736600Y488950D02*
X730250Y495300D01*
X717550Y495300D01*
X711200Y476250D02*
X704850Y469900D01*
X692150Y469900D01*
X685800Y476250D01*
X685800Y488950D01*
X692150Y495300D01*
X704850Y495300D01*
X711200Y488950D01*
D12*
X713538Y463677D02*
X713538Y454787D01*
X713536Y454687D01*
X713530Y454588D01*
X713520Y454488D01*
X713507Y454390D01*
X713489Y454291D01*
X713468Y454194D01*
X713443Y454098D01*
X713414Y454002D01*
X713381Y453908D01*
X713345Y453815D01*
X713305Y453724D01*
X713261Y453634D01*
X713214Y453546D01*
X713164Y453460D01*
X713110Y453376D01*
X713053Y453294D01*
X712993Y453215D01*
X712929Y453137D01*
X712863Y453063D01*
X712794Y452991D01*
X712722Y452922D01*
X712648Y452856D01*
X712570Y452792D01*
X712491Y452732D01*
X712409Y452675D01*
X712325Y452621D01*
X712239Y452571D01*
X712151Y452524D01*
X712061Y452480D01*
X711970Y452440D01*
X711877Y452404D01*
X711783Y452371D01*
X711687Y452342D01*
X711591Y452317D01*
X711494Y452296D01*
X711395Y452278D01*
X711297Y452265D01*
X711197Y452255D01*
X711098Y452249D01*
X710998Y452247D01*
X709728Y452247D01*
X719519Y452247D02*
X719519Y463677D01*
X722694Y463677D01*
X722805Y463675D01*
X722915Y463669D01*
X723026Y463660D01*
X723136Y463646D01*
X723245Y463629D01*
X723354Y463608D01*
X723462Y463583D01*
X723569Y463554D01*
X723675Y463522D01*
X723780Y463486D01*
X723883Y463446D01*
X723985Y463403D01*
X724086Y463356D01*
X724185Y463305D01*
X724282Y463252D01*
X724376Y463195D01*
X724469Y463134D01*
X724560Y463071D01*
X724649Y463004D01*
X724735Y462934D01*
X724818Y462861D01*
X724900Y462786D01*
X724978Y462708D01*
X725053Y462626D01*
X725126Y462543D01*
X725196Y462457D01*
X725263Y462368D01*
X725326Y462277D01*
X725387Y462184D01*
X725444Y462089D01*
X725497Y461993D01*
X725548Y461894D01*
X725595Y461793D01*
X725638Y461691D01*
X725678Y461588D01*
X725714Y461483D01*
X725746Y461377D01*
X725775Y461270D01*
X725800Y461162D01*
X725821Y461053D01*
X725838Y460944D01*
X725852Y460834D01*
X725861Y460723D01*
X725867Y460613D01*
X725869Y460502D01*
X725867Y460391D01*
X725861Y460281D01*
X725852Y460170D01*
X725838Y460060D01*
X725821Y459951D01*
X725800Y459842D01*
X725775Y459734D01*
X725746Y459627D01*
X725714Y459521D01*
X725678Y459416D01*
X725638Y459313D01*
X725595Y459211D01*
X725548Y459110D01*
X725497Y459011D01*
X725444Y458914D01*
X725387Y458820D01*
X725326Y458727D01*
X725263Y458636D01*
X725196Y458547D01*
X725126Y458461D01*
X725053Y458378D01*
X724978Y458296D01*
X724900Y458218D01*
X724818Y458143D01*
X724735Y458070D01*
X724649Y458000D01*
X724560Y457933D01*
X724469Y457870D01*
X724376Y457809D01*
X724282Y457752D01*
X724185Y457699D01*
X724086Y457648D01*
X723985Y457601D01*
X723883Y457558D01*
X723780Y457518D01*
X723675Y457482D01*
X723569Y457450D01*
X723462Y457421D01*
X723354Y457396D01*
X723245Y457375D01*
X723136Y457358D01*
X723026Y457344D01*
X722915Y457335D01*
X722805Y457329D01*
X722694Y457327D01*
X719519Y457327D01*
X733870Y463678D02*
X733974Y463676D01*
X734079Y463670D01*
X734183Y463661D01*
X734286Y463648D01*
X734389Y463630D01*
X734491Y463610D01*
X734593Y463585D01*
X734693Y463557D01*
X734793Y463525D01*
X734891Y463489D01*
X734988Y463450D01*
X735083Y463408D01*
X735177Y463362D01*
X735269Y463312D01*
X735359Y463260D01*
X735447Y463204D01*
X735533Y463144D01*
X735617Y463082D01*
X735698Y463017D01*
X735777Y462949D01*
X735854Y462877D01*
X735927Y462804D01*
X735999Y462727D01*
X736067Y462648D01*
X736132Y462567D01*
X736194Y462483D01*
X736254Y462397D01*
X736310Y462309D01*
X736362Y462219D01*
X736412Y462127D01*
X736458Y462033D01*
X736500Y461938D01*
X736539Y461841D01*
X736575Y461743D01*
X736607Y461643D01*
X736635Y461543D01*
X736660Y461441D01*
X736680Y461339D01*
X736698Y461236D01*
X736711Y461133D01*
X736720Y461029D01*
X736726Y460924D01*
X736728Y460820D01*
X733870Y463677D02*
X733752Y463675D01*
X733633Y463669D01*
X733515Y463660D01*
X733398Y463647D01*
X733281Y463629D01*
X733164Y463609D01*
X733048Y463584D01*
X732933Y463556D01*
X732820Y463523D01*
X732707Y463488D01*
X732595Y463448D01*
X732485Y463406D01*
X732376Y463359D01*
X732268Y463309D01*
X732163Y463256D01*
X732059Y463199D01*
X731957Y463139D01*
X731857Y463076D01*
X731759Y463009D01*
X731663Y462940D01*
X731570Y462867D01*
X731479Y462791D01*
X731390Y462713D01*
X731304Y462631D01*
X731221Y462547D01*
X731140Y462461D01*
X731063Y462371D01*
X730988Y462280D01*
X730916Y462186D01*
X730847Y462089D01*
X730782Y461991D01*
X730719Y461890D01*
X730660Y461787D01*
X730604Y461683D01*
X730552Y461577D01*
X730503Y461469D01*
X730458Y461360D01*
X730416Y461249D01*
X730378Y461137D01*
X735775Y458598D02*
X735851Y458673D01*
X735926Y458752D01*
X735997Y458833D01*
X736066Y458917D01*
X736131Y459003D01*
X736193Y459091D01*
X736253Y459181D01*
X736309Y459273D01*
X736362Y459368D01*
X736411Y459464D01*
X736457Y459562D01*
X736500Y459661D01*
X736539Y459762D01*
X736574Y459864D01*
X736606Y459967D01*
X736634Y460071D01*
X736659Y460176D01*
X736680Y460283D01*
X736697Y460389D01*
X736710Y460496D01*
X736719Y460604D01*
X736725Y460712D01*
X736727Y460820D01*
X735775Y458597D02*
X730377Y452247D01*
X736727Y452247D01*
D10*
X713740Y383540D02*
X713742Y383440D01*
X713748Y383341D01*
X713758Y383241D01*
X713771Y383143D01*
X713789Y383044D01*
X713810Y382947D01*
X713835Y382851D01*
X713864Y382755D01*
X713897Y382661D01*
X713933Y382568D01*
X713973Y382477D01*
X714017Y382387D01*
X714064Y382299D01*
X714114Y382213D01*
X714168Y382129D01*
X714225Y382047D01*
X714285Y381968D01*
X714349Y381890D01*
X714415Y381816D01*
X714484Y381744D01*
X714556Y381675D01*
X714630Y381609D01*
X714708Y381545D01*
X714787Y381485D01*
X714869Y381428D01*
X714953Y381374D01*
X715039Y381324D01*
X715127Y381277D01*
X715217Y381233D01*
X715308Y381193D01*
X715401Y381157D01*
X715495Y381124D01*
X715591Y381095D01*
X715687Y381070D01*
X715784Y381049D01*
X715883Y381031D01*
X715981Y381018D01*
X716081Y381008D01*
X716180Y381002D01*
X716280Y381000D01*
X731520Y381000D02*
X731620Y381002D01*
X731719Y381008D01*
X731819Y381018D01*
X731917Y381031D01*
X732016Y381049D01*
X732113Y381070D01*
X732209Y381095D01*
X732305Y381124D01*
X732399Y381157D01*
X732492Y381193D01*
X732583Y381233D01*
X732673Y381277D01*
X732761Y381324D01*
X732847Y381374D01*
X732931Y381428D01*
X733013Y381485D01*
X733092Y381545D01*
X733170Y381609D01*
X733244Y381675D01*
X733316Y381744D01*
X733385Y381816D01*
X733451Y381890D01*
X733515Y381968D01*
X733575Y382047D01*
X733632Y382129D01*
X733686Y382213D01*
X733736Y382299D01*
X733783Y382387D01*
X733827Y382477D01*
X733867Y382568D01*
X733903Y382661D01*
X733936Y382755D01*
X733965Y382851D01*
X733990Y382947D01*
X734011Y383044D01*
X734029Y383143D01*
X734042Y383241D01*
X734052Y383341D01*
X734058Y383440D01*
X734060Y383540D01*
X734060Y429260D02*
X734058Y429360D01*
X734052Y429459D01*
X734042Y429559D01*
X734029Y429657D01*
X734011Y429756D01*
X733990Y429853D01*
X733965Y429949D01*
X733936Y430045D01*
X733903Y430139D01*
X733867Y430232D01*
X733827Y430323D01*
X733783Y430413D01*
X733736Y430501D01*
X733686Y430587D01*
X733632Y430671D01*
X733575Y430753D01*
X733515Y430832D01*
X733451Y430910D01*
X733385Y430984D01*
X733316Y431056D01*
X733244Y431125D01*
X733170Y431191D01*
X733092Y431255D01*
X733013Y431315D01*
X732931Y431372D01*
X732847Y431426D01*
X732761Y431476D01*
X732673Y431523D01*
X732583Y431567D01*
X732492Y431607D01*
X732399Y431643D01*
X732305Y431676D01*
X732209Y431705D01*
X732113Y431730D01*
X732016Y431751D01*
X731917Y431769D01*
X731819Y431782D01*
X731719Y431792D01*
X731620Y431798D01*
X731520Y431800D01*
X716280Y431800D02*
X716180Y431798D01*
X716081Y431792D01*
X715981Y431782D01*
X715883Y431769D01*
X715784Y431751D01*
X715687Y431730D01*
X715591Y431705D01*
X715495Y431676D01*
X715401Y431643D01*
X715308Y431607D01*
X715217Y431567D01*
X715127Y431523D01*
X715039Y431476D01*
X714953Y431426D01*
X714869Y431372D01*
X714787Y431315D01*
X714708Y431255D01*
X714630Y431191D01*
X714556Y431125D01*
X714484Y431056D01*
X714415Y430984D01*
X714349Y430910D01*
X714285Y430832D01*
X714225Y430753D01*
X714168Y430671D01*
X714114Y430587D01*
X714064Y430501D01*
X714017Y430413D01*
X713973Y430323D01*
X713933Y430232D01*
X713897Y430139D01*
X713864Y430045D01*
X713835Y429949D01*
X713810Y429853D01*
X713789Y429756D01*
X713771Y429657D01*
X713758Y429559D01*
X713748Y429459D01*
X713742Y429360D01*
X713740Y429260D01*
X716280Y381000D02*
X731520Y381000D01*
X713740Y383540D02*
X713740Y387350D01*
X715010Y388620D01*
X734060Y387350D02*
X734060Y383540D01*
X734060Y387350D02*
X732790Y388620D01*
X715010Y424180D02*
X713740Y425450D01*
X715010Y424180D02*
X715010Y388620D01*
X732790Y424180D02*
X734060Y425450D01*
X732790Y424180D02*
X732790Y388620D01*
X713740Y425450D02*
X713740Y429260D01*
X734060Y429260D02*
X734060Y425450D01*
X731520Y431800D02*
X716280Y431800D01*
D13*
X723900Y433705D03*
X723900Y379095D03*
D14*
X710438Y381508D02*
X701548Y381508D01*
X701548Y383977D01*
X701550Y384075D01*
X701556Y384173D01*
X701566Y384271D01*
X701579Y384368D01*
X701597Y384465D01*
X701618Y384561D01*
X701643Y384655D01*
X701672Y384749D01*
X701704Y384842D01*
X701741Y384933D01*
X701780Y385023D01*
X701824Y385111D01*
X701871Y385197D01*
X701921Y385282D01*
X701974Y385364D01*
X702031Y385444D01*
X702091Y385522D01*
X702154Y385597D01*
X702220Y385670D01*
X702289Y385740D01*
X702360Y385807D01*
X702434Y385872D01*
X702511Y385933D01*
X702590Y385992D01*
X702671Y386047D01*
X702754Y386099D01*
X702840Y386147D01*
X702927Y386192D01*
X703016Y386234D01*
X703106Y386272D01*
X703198Y386306D01*
X703291Y386337D01*
X703386Y386364D01*
X703481Y386387D01*
X703578Y386407D01*
X703674Y386422D01*
X703772Y386434D01*
X703870Y386442D01*
X703968Y386446D01*
X704066Y386446D01*
X704164Y386442D01*
X704262Y386434D01*
X704360Y386422D01*
X704456Y386407D01*
X704553Y386387D01*
X704648Y386364D01*
X704743Y386337D01*
X704836Y386306D01*
X704928Y386272D01*
X705018Y386234D01*
X705107Y386192D01*
X705194Y386147D01*
X705280Y386099D01*
X705363Y386047D01*
X705444Y385992D01*
X705523Y385933D01*
X705600Y385872D01*
X705674Y385807D01*
X705745Y385740D01*
X705814Y385670D01*
X705880Y385597D01*
X705943Y385522D01*
X706003Y385444D01*
X706060Y385364D01*
X706113Y385282D01*
X706163Y385197D01*
X706210Y385111D01*
X706254Y385023D01*
X706293Y384933D01*
X706330Y384842D01*
X706362Y384749D01*
X706391Y384655D01*
X706416Y384561D01*
X706437Y384465D01*
X706455Y384368D01*
X706468Y384271D01*
X706478Y384173D01*
X706484Y384075D01*
X706486Y383977D01*
X706487Y383977D02*
X706487Y381508D01*
X706487Y384471D02*
X710438Y386447D01*
X703524Y390358D02*
X701548Y392827D01*
X710438Y392827D01*
X710438Y390358D02*
X710438Y395297D01*
D10*
X647700Y284480D02*
X647698Y284380D01*
X647692Y284281D01*
X647682Y284181D01*
X647669Y284083D01*
X647651Y283984D01*
X647630Y283887D01*
X647605Y283791D01*
X647576Y283695D01*
X647543Y283601D01*
X647507Y283508D01*
X647467Y283417D01*
X647423Y283327D01*
X647376Y283239D01*
X647326Y283153D01*
X647272Y283069D01*
X647215Y282987D01*
X647155Y282908D01*
X647091Y282830D01*
X647025Y282756D01*
X646956Y282684D01*
X646884Y282615D01*
X646810Y282549D01*
X646732Y282485D01*
X646653Y282425D01*
X646571Y282368D01*
X646487Y282314D01*
X646401Y282264D01*
X646313Y282217D01*
X646223Y282173D01*
X646132Y282133D01*
X646039Y282097D01*
X645945Y282064D01*
X645849Y282035D01*
X645753Y282010D01*
X645656Y281989D01*
X645557Y281971D01*
X645459Y281958D01*
X645359Y281948D01*
X645260Y281942D01*
X645160Y281940D01*
X647700Y299720D02*
X647698Y299820D01*
X647692Y299919D01*
X647682Y300019D01*
X647669Y300117D01*
X647651Y300216D01*
X647630Y300313D01*
X647605Y300409D01*
X647576Y300505D01*
X647543Y300599D01*
X647507Y300692D01*
X647467Y300783D01*
X647423Y300873D01*
X647376Y300961D01*
X647326Y301047D01*
X647272Y301131D01*
X647215Y301213D01*
X647155Y301292D01*
X647091Y301370D01*
X647025Y301444D01*
X646956Y301516D01*
X646884Y301585D01*
X646810Y301651D01*
X646732Y301715D01*
X646653Y301775D01*
X646571Y301832D01*
X646487Y301886D01*
X646401Y301936D01*
X646313Y301983D01*
X646223Y302027D01*
X646132Y302067D01*
X646039Y302103D01*
X645945Y302136D01*
X645849Y302165D01*
X645753Y302190D01*
X645656Y302211D01*
X645557Y302229D01*
X645459Y302242D01*
X645359Y302252D01*
X645260Y302258D01*
X645160Y302260D01*
X599440Y302260D02*
X599340Y302258D01*
X599241Y302252D01*
X599141Y302242D01*
X599043Y302229D01*
X598944Y302211D01*
X598847Y302190D01*
X598751Y302165D01*
X598655Y302136D01*
X598561Y302103D01*
X598468Y302067D01*
X598377Y302027D01*
X598287Y301983D01*
X598199Y301936D01*
X598113Y301886D01*
X598029Y301832D01*
X597947Y301775D01*
X597868Y301715D01*
X597790Y301651D01*
X597716Y301585D01*
X597644Y301516D01*
X597575Y301444D01*
X597509Y301370D01*
X597445Y301292D01*
X597385Y301213D01*
X597328Y301131D01*
X597274Y301047D01*
X597224Y300961D01*
X597177Y300873D01*
X597133Y300783D01*
X597093Y300692D01*
X597057Y300599D01*
X597024Y300505D01*
X596995Y300409D01*
X596970Y300313D01*
X596949Y300216D01*
X596931Y300117D01*
X596918Y300019D01*
X596908Y299919D01*
X596902Y299820D01*
X596900Y299720D01*
X596900Y284480D02*
X596902Y284380D01*
X596908Y284281D01*
X596918Y284181D01*
X596931Y284083D01*
X596949Y283984D01*
X596970Y283887D01*
X596995Y283791D01*
X597024Y283695D01*
X597057Y283601D01*
X597093Y283508D01*
X597133Y283417D01*
X597177Y283327D01*
X597224Y283239D01*
X597274Y283153D01*
X597328Y283069D01*
X597385Y282987D01*
X597445Y282908D01*
X597509Y282830D01*
X597575Y282756D01*
X597644Y282684D01*
X597716Y282615D01*
X597790Y282549D01*
X597868Y282485D01*
X597947Y282425D01*
X598029Y282368D01*
X598113Y282314D01*
X598199Y282264D01*
X598287Y282217D01*
X598377Y282173D01*
X598468Y282133D01*
X598561Y282097D01*
X598655Y282064D01*
X598751Y282035D01*
X598847Y282010D01*
X598944Y281989D01*
X599043Y281971D01*
X599141Y281958D01*
X599241Y281948D01*
X599340Y281942D01*
X599440Y281940D01*
X647700Y284480D02*
X647700Y299720D01*
X645160Y281940D02*
X641350Y281940D01*
X640080Y283210D01*
X641350Y302260D02*
X645160Y302260D01*
X641350Y302260D02*
X640080Y300990D01*
X604520Y283210D02*
X603250Y281940D01*
X604520Y283210D02*
X640080Y283210D01*
X604520Y300990D02*
X603250Y302260D01*
X604520Y300990D02*
X640080Y300990D01*
X603250Y281940D02*
X599440Y281940D01*
X599440Y302260D02*
X603250Y302260D01*
X596900Y299720D02*
X596900Y284480D01*
D15*
X594995Y292100D03*
X649605Y292100D03*
D14*
X633403Y278638D02*
X633403Y269748D01*
X633403Y278638D02*
X635873Y278638D01*
X635971Y278636D01*
X636069Y278630D01*
X636167Y278620D01*
X636264Y278607D01*
X636361Y278589D01*
X636457Y278568D01*
X636551Y278543D01*
X636645Y278514D01*
X636738Y278482D01*
X636829Y278445D01*
X636919Y278406D01*
X637007Y278362D01*
X637093Y278315D01*
X637178Y278265D01*
X637260Y278212D01*
X637340Y278155D01*
X637418Y278095D01*
X637493Y278032D01*
X637566Y277966D01*
X637636Y277897D01*
X637703Y277826D01*
X637768Y277752D01*
X637829Y277675D01*
X637888Y277596D01*
X637943Y277515D01*
X637995Y277432D01*
X638043Y277346D01*
X638088Y277259D01*
X638130Y277170D01*
X638168Y277080D01*
X638202Y276988D01*
X638233Y276895D01*
X638260Y276800D01*
X638283Y276705D01*
X638303Y276608D01*
X638318Y276512D01*
X638330Y276414D01*
X638338Y276316D01*
X638342Y276218D01*
X638342Y276120D01*
X638338Y276022D01*
X638330Y275924D01*
X638318Y275826D01*
X638303Y275730D01*
X638283Y275633D01*
X638260Y275538D01*
X638233Y275443D01*
X638202Y275350D01*
X638168Y275258D01*
X638130Y275168D01*
X638088Y275079D01*
X638043Y274992D01*
X637995Y274906D01*
X637943Y274823D01*
X637888Y274742D01*
X637829Y274663D01*
X637768Y274586D01*
X637703Y274512D01*
X637636Y274441D01*
X637566Y274372D01*
X637493Y274306D01*
X637418Y274243D01*
X637340Y274183D01*
X637260Y274126D01*
X637178Y274073D01*
X637093Y274023D01*
X637007Y273976D01*
X636919Y273932D01*
X636829Y273893D01*
X636738Y273856D01*
X636645Y273824D01*
X636551Y273795D01*
X636457Y273770D01*
X636361Y273749D01*
X636264Y273731D01*
X636167Y273718D01*
X636069Y273708D01*
X635971Y273702D01*
X635873Y273700D01*
X635873Y273699D02*
X633403Y273699D01*
X636367Y273699D02*
X638342Y269748D01*
X647193Y276416D02*
X647191Y276508D01*
X647185Y276600D01*
X647176Y276691D01*
X647163Y276782D01*
X647146Y276872D01*
X647125Y276962D01*
X647101Y277050D01*
X647073Y277138D01*
X647041Y277224D01*
X647006Y277309D01*
X646967Y277392D01*
X646925Y277474D01*
X646880Y277554D01*
X646831Y277632D01*
X646779Y277708D01*
X646724Y277781D01*
X646666Y277853D01*
X646606Y277922D01*
X646542Y277988D01*
X646476Y278052D01*
X646407Y278112D01*
X646335Y278170D01*
X646262Y278225D01*
X646186Y278277D01*
X646108Y278326D01*
X646028Y278371D01*
X645946Y278413D01*
X645863Y278452D01*
X645778Y278487D01*
X645692Y278519D01*
X645604Y278547D01*
X645516Y278571D01*
X645426Y278592D01*
X645336Y278609D01*
X645245Y278622D01*
X645154Y278631D01*
X645062Y278637D01*
X644970Y278639D01*
X644970Y278638D02*
X644864Y278636D01*
X644759Y278630D01*
X644654Y278620D01*
X644549Y278607D01*
X644445Y278589D01*
X644342Y278568D01*
X644239Y278543D01*
X644137Y278514D01*
X644037Y278481D01*
X643938Y278445D01*
X643840Y278405D01*
X643744Y278361D01*
X643649Y278314D01*
X643557Y278264D01*
X643466Y278210D01*
X643377Y278152D01*
X643291Y278092D01*
X643207Y278028D01*
X643125Y277962D01*
X643045Y277892D01*
X642969Y277819D01*
X642895Y277744D01*
X642824Y277666D01*
X642756Y277585D01*
X642690Y277502D01*
X642628Y277416D01*
X642570Y277329D01*
X642514Y277239D01*
X642462Y277147D01*
X642413Y277053D01*
X642368Y276958D01*
X642326Y276861D01*
X642288Y276762D01*
X642254Y276663D01*
X646451Y274687D02*
X646520Y274756D01*
X646586Y274826D01*
X646649Y274900D01*
X646708Y274976D01*
X646765Y275054D01*
X646819Y275134D01*
X646869Y275217D01*
X646916Y275301D01*
X646959Y275388D01*
X646999Y275476D01*
X647035Y275565D01*
X647068Y275656D01*
X647097Y275748D01*
X647122Y275842D01*
X647143Y275936D01*
X647161Y276031D01*
X647174Y276127D01*
X647184Y276223D01*
X647190Y276319D01*
X647192Y276416D01*
X646451Y274687D02*
X642253Y269748D01*
X647192Y269748D01*
M02*
